G04 #@! TF.GenerationSoftware,KiCad,Pcbnew,5.1.9*
G04 #@! TF.CreationDate,2022-09-01T16:12:18+02:00*
G04 #@! TF.ProjectId,picsyle-R_strain_915,70696373-796c-4652-9d52-5f7374726169,rev?*
G04 #@! TF.SameCoordinates,Original*
G04 #@! TF.FileFunction,Other,Comment*
%FSLAX46Y46*%
G04 Gerber Fmt 4.6, Leading zero omitted, Abs format (unit mm)*
G04 Created by KiCad (PCBNEW 5.1.9) date 2022-09-01 16:12:18*
%MOMM*%
%LPD*%
G01*
G04 APERTURE LIST*
%ADD10C,0.150000*%
G04 APERTURE END LIST*
D10*
X96540572Y-91373966D02*
X97016762Y-91373966D01*
X96445334Y-91659680D02*
X96778667Y-90659680D01*
X97112000Y-91659680D01*
X97397715Y-91612061D02*
X97540572Y-91659680D01*
X97778667Y-91659680D01*
X97873905Y-91612061D01*
X97921524Y-91564442D01*
X97969143Y-91469204D01*
X97969143Y-91373966D01*
X97921524Y-91278728D01*
X97873905Y-91231109D01*
X97778667Y-91183490D01*
X97588191Y-91135871D01*
X97492953Y-91088252D01*
X97445334Y-91040633D01*
X97397715Y-90945395D01*
X97397715Y-90850157D01*
X97445334Y-90754919D01*
X97492953Y-90707300D01*
X97588191Y-90659680D01*
X97826286Y-90659680D01*
X97969143Y-90707300D01*
X98302477Y-90659680D02*
X98921524Y-90659680D01*
X98588191Y-91040633D01*
X98731048Y-91040633D01*
X98826286Y-91088252D01*
X98873905Y-91135871D01*
X98921524Y-91231109D01*
X98921524Y-91469204D01*
X98873905Y-91564442D01*
X98826286Y-91612061D01*
X98731048Y-91659680D01*
X98445334Y-91659680D01*
X98350096Y-91612061D01*
X98302477Y-91564442D01*
X99302477Y-90754919D02*
X99350096Y-90707300D01*
X99445334Y-90659680D01*
X99683429Y-90659680D01*
X99778667Y-90707300D01*
X99826286Y-90754919D01*
X99873905Y-90850157D01*
X99873905Y-90945395D01*
X99826286Y-91088252D01*
X99254858Y-91659680D01*
X99873905Y-91659680D01*
X100826286Y-91659680D02*
X100254858Y-91659680D01*
X100540572Y-91659680D02*
X100540572Y-90659680D01*
X100445334Y-90802538D01*
X100350096Y-90897776D01*
X100254858Y-90945395D01*
X101778667Y-91659680D02*
X101207239Y-91659680D01*
X101492953Y-91659680D02*
X101492953Y-90659680D01*
X101397715Y-90802538D01*
X101302477Y-90897776D01*
X101207239Y-90945395D01*
M02*
