G04 #@! TF.GenerationSoftware,KiCad,Pcbnew,5.1.9*
G04 #@! TF.CreationDate,2022-09-01T16:12:18+02:00*
G04 #@! TF.ProjectId,picsyle-R_strain_915,70696373-796c-4652-9d52-5f7374726169,rev?*
G04 #@! TF.SameCoordinates,Original*
G04 #@! TF.FileFunction,Other,ECO1*
%FSLAX46Y46*%
G04 Gerber Fmt 4.6, Leading zero omitted, Abs format (unit mm)*
G04 Created by KiCad (PCBNEW 5.1.9) date 2022-09-01 16:12:18*
%MOMM*%
%LPD*%
G01*
G04 APERTURE LIST*
%ADD10C,0.030000*%
G04 APERTURE END LIST*
D10*
X139771428Y-116485714D02*
X139771428Y-116185714D01*
X139771428Y-116328571D02*
X139942857Y-116328571D01*
X139942857Y-116485714D02*
X139942857Y-116185714D01*
X140214285Y-116285714D02*
X140214285Y-116485714D01*
X140142857Y-116171428D02*
X140071428Y-116385714D01*
X140257142Y-116385714D01*
X139771428Y-96985714D02*
X139771428Y-96685714D01*
X139771428Y-96828571D02*
X139942857Y-96828571D01*
X139942857Y-96985714D02*
X139942857Y-96685714D01*
X140057142Y-96685714D02*
X140242857Y-96685714D01*
X140142857Y-96800000D01*
X140185714Y-96800000D01*
X140214285Y-96814285D01*
X140228571Y-96828571D01*
X140242857Y-96857142D01*
X140242857Y-96928571D01*
X140228571Y-96957142D01*
X140214285Y-96971428D01*
X140185714Y-96985714D01*
X140100000Y-96985714D01*
X140071428Y-96971428D01*
X140057142Y-96957142D01*
X63271428Y-116485714D02*
X63271428Y-116185714D01*
X63271428Y-116328571D02*
X63442857Y-116328571D01*
X63442857Y-116485714D02*
X63442857Y-116185714D01*
X63571428Y-116214285D02*
X63585714Y-116200000D01*
X63614285Y-116185714D01*
X63685714Y-116185714D01*
X63714285Y-116200000D01*
X63728571Y-116214285D01*
X63742857Y-116242857D01*
X63742857Y-116271428D01*
X63728571Y-116314285D01*
X63557142Y-116485714D01*
X63742857Y-116485714D01*
X63271428Y-96985714D02*
X63271428Y-96685714D01*
X63271428Y-96828571D02*
X63442857Y-96828571D01*
X63442857Y-96985714D02*
X63442857Y-96685714D01*
X63742857Y-96985714D02*
X63571428Y-96985714D01*
X63657142Y-96985714D02*
X63657142Y-96685714D01*
X63628571Y-96728571D01*
X63600000Y-96757142D01*
X63571428Y-96771428D01*
M02*
