G04 #@! TF.GenerationSoftware,KiCad,Pcbnew,5.1.9*
G04 #@! TF.CreationDate,2022-09-01T16:12:18+02:00*
G04 #@! TF.ProjectId,picsyle-R_strain_915,70696373-796c-4652-9d52-5f7374726169,rev?*
G04 #@! TF.SameCoordinates,Original*
G04 #@! TF.FileFunction,Paste,Top*
G04 #@! TF.FilePolarity,Positive*
%FSLAX46Y46*%
G04 Gerber Fmt 4.6, Leading zero omitted, Abs format (unit mm)*
G04 Created by KiCad (PCBNEW 5.1.9) date 2022-09-01 16:12:18*
%MOMM*%
%LPD*%
G01*
G04 APERTURE LIST*
%ADD10R,0.250000X0.825000*%
G04 APERTURE END LIST*
G36*
G01*
X97412120Y-99362300D02*
X96712120Y-99362300D01*
G75*
G02*
X96649620Y-99299800I0J62500D01*
G01*
X96649620Y-99174800D01*
G75*
G02*
X96712120Y-99112300I62500J0D01*
G01*
X97412120Y-99112300D01*
G75*
G02*
X97474620Y-99174800I0J-62500D01*
G01*
X97474620Y-99299800D01*
G75*
G02*
X97412120Y-99362300I-62500J0D01*
G01*
G37*
G36*
G01*
X97412120Y-98862300D02*
X96712120Y-98862300D01*
G75*
G02*
X96649620Y-98799800I0J62500D01*
G01*
X96649620Y-98674800D01*
G75*
G02*
X96712120Y-98612300I62500J0D01*
G01*
X97412120Y-98612300D01*
G75*
G02*
X97474620Y-98674800I0J-62500D01*
G01*
X97474620Y-98799800D01*
G75*
G02*
X97412120Y-98862300I-62500J0D01*
G01*
G37*
G36*
G01*
X97412120Y-98362300D02*
X96712120Y-98362300D01*
G75*
G02*
X96649620Y-98299800I0J62500D01*
G01*
X96649620Y-98174800D01*
G75*
G02*
X96712120Y-98112300I62500J0D01*
G01*
X97412120Y-98112300D01*
G75*
G02*
X97474620Y-98174800I0J-62500D01*
G01*
X97474620Y-98299800D01*
G75*
G02*
X97412120Y-98362300I-62500J0D01*
G01*
G37*
G36*
G01*
X97412120Y-97862300D02*
X96712120Y-97862300D01*
G75*
G02*
X96649620Y-97799800I0J62500D01*
G01*
X96649620Y-97674800D01*
G75*
G02*
X96712120Y-97612300I62500J0D01*
G01*
X97412120Y-97612300D01*
G75*
G02*
X97474620Y-97674800I0J-62500D01*
G01*
X97474620Y-97799800D01*
G75*
G02*
X97412120Y-97862300I-62500J0D01*
G01*
G37*
G36*
G01*
X97412120Y-97362300D02*
X96712120Y-97362300D01*
G75*
G02*
X96649620Y-97299800I0J62500D01*
G01*
X96649620Y-97174800D01*
G75*
G02*
X96712120Y-97112300I62500J0D01*
G01*
X97412120Y-97112300D01*
G75*
G02*
X97474620Y-97174800I0J-62500D01*
G01*
X97474620Y-97299800D01*
G75*
G02*
X97412120Y-97362300I-62500J0D01*
G01*
G37*
G36*
G01*
X97412120Y-96862300D02*
X96712120Y-96862300D01*
G75*
G02*
X96649620Y-96799800I0J62500D01*
G01*
X96649620Y-96674800D01*
G75*
G02*
X96712120Y-96612300I62500J0D01*
G01*
X97412120Y-96612300D01*
G75*
G02*
X97474620Y-96674800I0J-62500D01*
G01*
X97474620Y-96799800D01*
G75*
G02*
X97412120Y-96862300I-62500J0D01*
G01*
G37*
G36*
G01*
X97812120Y-96462300D02*
X97687120Y-96462300D01*
G75*
G02*
X97624620Y-96399800I0J62500D01*
G01*
X97624620Y-95699800D01*
G75*
G02*
X97687120Y-95637300I62500J0D01*
G01*
X97812120Y-95637300D01*
G75*
G02*
X97874620Y-95699800I0J-62500D01*
G01*
X97874620Y-96399800D01*
G75*
G02*
X97812120Y-96462300I-62500J0D01*
G01*
G37*
G36*
G01*
X98312120Y-96462300D02*
X98187120Y-96462300D01*
G75*
G02*
X98124620Y-96399800I0J62500D01*
G01*
X98124620Y-95699800D01*
G75*
G02*
X98187120Y-95637300I62500J0D01*
G01*
X98312120Y-95637300D01*
G75*
G02*
X98374620Y-95699800I0J-62500D01*
G01*
X98374620Y-96399800D01*
G75*
G02*
X98312120Y-96462300I-62500J0D01*
G01*
G37*
G36*
G01*
X98812120Y-96462300D02*
X98687120Y-96462300D01*
G75*
G02*
X98624620Y-96399800I0J62500D01*
G01*
X98624620Y-95699800D01*
G75*
G02*
X98687120Y-95637300I62500J0D01*
G01*
X98812120Y-95637300D01*
G75*
G02*
X98874620Y-95699800I0J-62500D01*
G01*
X98874620Y-96399800D01*
G75*
G02*
X98812120Y-96462300I-62500J0D01*
G01*
G37*
G36*
G01*
X99312120Y-96462300D02*
X99187120Y-96462300D01*
G75*
G02*
X99124620Y-96399800I0J62500D01*
G01*
X99124620Y-95699800D01*
G75*
G02*
X99187120Y-95637300I62500J0D01*
G01*
X99312120Y-95637300D01*
G75*
G02*
X99374620Y-95699800I0J-62500D01*
G01*
X99374620Y-96399800D01*
G75*
G02*
X99312120Y-96462300I-62500J0D01*
G01*
G37*
G36*
G01*
X99812120Y-96462300D02*
X99687120Y-96462300D01*
G75*
G02*
X99624620Y-96399800I0J62500D01*
G01*
X99624620Y-95699800D01*
G75*
G02*
X99687120Y-95637300I62500J0D01*
G01*
X99812120Y-95637300D01*
G75*
G02*
X99874620Y-95699800I0J-62500D01*
G01*
X99874620Y-96399800D01*
G75*
G02*
X99812120Y-96462300I-62500J0D01*
G01*
G37*
G36*
G01*
X100312120Y-96462300D02*
X100187120Y-96462300D01*
G75*
G02*
X100124620Y-96399800I0J62500D01*
G01*
X100124620Y-95699800D01*
G75*
G02*
X100187120Y-95637300I62500J0D01*
G01*
X100312120Y-95637300D01*
G75*
G02*
X100374620Y-95699800I0J-62500D01*
G01*
X100374620Y-96399800D01*
G75*
G02*
X100312120Y-96462300I-62500J0D01*
G01*
G37*
G36*
G01*
X101287120Y-96862300D02*
X100587120Y-96862300D01*
G75*
G02*
X100524620Y-96799800I0J62500D01*
G01*
X100524620Y-96674800D01*
G75*
G02*
X100587120Y-96612300I62500J0D01*
G01*
X101287120Y-96612300D01*
G75*
G02*
X101349620Y-96674800I0J-62500D01*
G01*
X101349620Y-96799800D01*
G75*
G02*
X101287120Y-96862300I-62500J0D01*
G01*
G37*
G36*
G01*
X101287120Y-97362300D02*
X100587120Y-97362300D01*
G75*
G02*
X100524620Y-97299800I0J62500D01*
G01*
X100524620Y-97174800D01*
G75*
G02*
X100587120Y-97112300I62500J0D01*
G01*
X101287120Y-97112300D01*
G75*
G02*
X101349620Y-97174800I0J-62500D01*
G01*
X101349620Y-97299800D01*
G75*
G02*
X101287120Y-97362300I-62500J0D01*
G01*
G37*
G36*
G01*
X101287120Y-97862300D02*
X100587120Y-97862300D01*
G75*
G02*
X100524620Y-97799800I0J62500D01*
G01*
X100524620Y-97674800D01*
G75*
G02*
X100587120Y-97612300I62500J0D01*
G01*
X101287120Y-97612300D01*
G75*
G02*
X101349620Y-97674800I0J-62500D01*
G01*
X101349620Y-97799800D01*
G75*
G02*
X101287120Y-97862300I-62500J0D01*
G01*
G37*
G36*
G01*
X101287120Y-98362300D02*
X100587120Y-98362300D01*
G75*
G02*
X100524620Y-98299800I0J62500D01*
G01*
X100524620Y-98174800D01*
G75*
G02*
X100587120Y-98112300I62500J0D01*
G01*
X101287120Y-98112300D01*
G75*
G02*
X101349620Y-98174800I0J-62500D01*
G01*
X101349620Y-98299800D01*
G75*
G02*
X101287120Y-98362300I-62500J0D01*
G01*
G37*
G36*
G01*
X101287120Y-98862300D02*
X100587120Y-98862300D01*
G75*
G02*
X100524620Y-98799800I0J62500D01*
G01*
X100524620Y-98674800D01*
G75*
G02*
X100587120Y-98612300I62500J0D01*
G01*
X101287120Y-98612300D01*
G75*
G02*
X101349620Y-98674800I0J-62500D01*
G01*
X101349620Y-98799800D01*
G75*
G02*
X101287120Y-98862300I-62500J0D01*
G01*
G37*
G36*
G01*
X101287120Y-99362300D02*
X100587120Y-99362300D01*
G75*
G02*
X100524620Y-99299800I0J62500D01*
G01*
X100524620Y-99174800D01*
G75*
G02*
X100587120Y-99112300I62500J0D01*
G01*
X101287120Y-99112300D01*
G75*
G02*
X101349620Y-99174800I0J-62500D01*
G01*
X101349620Y-99299800D01*
G75*
G02*
X101287120Y-99362300I-62500J0D01*
G01*
G37*
G36*
G01*
X100312120Y-100337300D02*
X100187120Y-100337300D01*
G75*
G02*
X100124620Y-100274800I0J62500D01*
G01*
X100124620Y-99574800D01*
G75*
G02*
X100187120Y-99512300I62500J0D01*
G01*
X100312120Y-99512300D01*
G75*
G02*
X100374620Y-99574800I0J-62500D01*
G01*
X100374620Y-100274800D01*
G75*
G02*
X100312120Y-100337300I-62500J0D01*
G01*
G37*
D10*
X99749620Y-99924800D03*
X99249620Y-99924800D03*
G36*
G01*
X98812120Y-100337300D02*
X98687120Y-100337300D01*
G75*
G02*
X98624620Y-100274800I0J62500D01*
G01*
X98624620Y-99574800D01*
G75*
G02*
X98687120Y-99512300I62500J0D01*
G01*
X98812120Y-99512300D01*
G75*
G02*
X98874620Y-99574800I0J-62500D01*
G01*
X98874620Y-100274800D01*
G75*
G02*
X98812120Y-100337300I-62500J0D01*
G01*
G37*
G36*
G01*
X98312120Y-100337300D02*
X98187120Y-100337300D01*
G75*
G02*
X98124620Y-100274800I0J62500D01*
G01*
X98124620Y-99574800D01*
G75*
G02*
X98187120Y-99512300I62500J0D01*
G01*
X98312120Y-99512300D01*
G75*
G02*
X98374620Y-99574800I0J-62500D01*
G01*
X98374620Y-100274800D01*
G75*
G02*
X98312120Y-100337300I-62500J0D01*
G01*
G37*
G36*
G01*
X97812120Y-100337300D02*
X97687120Y-100337300D01*
G75*
G02*
X97624620Y-100274800I0J62500D01*
G01*
X97624620Y-99574800D01*
G75*
G02*
X97687120Y-99512300I62500J0D01*
G01*
X97812120Y-99512300D01*
G75*
G02*
X97874620Y-99574800I0J-62500D01*
G01*
X97874620Y-100274800D01*
G75*
G02*
X97812120Y-100337300I-62500J0D01*
G01*
G37*
G36*
G01*
X99924621Y-97862300D02*
X99374619Y-97862300D01*
G75*
G02*
X99124620Y-97612301I0J249999D01*
G01*
X99124620Y-97062299D01*
G75*
G02*
X99374619Y-96812300I249999J0D01*
G01*
X99924621Y-96812300D01*
G75*
G02*
X100174620Y-97062299I0J-249999D01*
G01*
X100174620Y-97612301D01*
G75*
G02*
X99924621Y-97862300I-249999J0D01*
G01*
G37*
G36*
G01*
X98624621Y-97862300D02*
X98074619Y-97862300D01*
G75*
G02*
X97824620Y-97612301I0J249999D01*
G01*
X97824620Y-97062299D01*
G75*
G02*
X98074619Y-96812300I249999J0D01*
G01*
X98624621Y-96812300D01*
G75*
G02*
X98874620Y-97062299I0J-249999D01*
G01*
X98874620Y-97612301D01*
G75*
G02*
X98624621Y-97862300I-249999J0D01*
G01*
G37*
G36*
G01*
X99924621Y-99162300D02*
X99374619Y-99162300D01*
G75*
G02*
X99124620Y-98912301I0J249999D01*
G01*
X99124620Y-98362299D01*
G75*
G02*
X99374619Y-98112300I249999J0D01*
G01*
X99924621Y-98112300D01*
G75*
G02*
X100174620Y-98362299I0J-249999D01*
G01*
X100174620Y-98912301D01*
G75*
G02*
X99924621Y-99162300I-249999J0D01*
G01*
G37*
G36*
G01*
X98624621Y-99162300D02*
X98074619Y-99162300D01*
G75*
G02*
X97824620Y-98912301I0J249999D01*
G01*
X97824620Y-98362299D01*
G75*
G02*
X98074619Y-98112300I249999J0D01*
G01*
X98624621Y-98112300D01*
G75*
G02*
X98874620Y-98362299I0J-249999D01*
G01*
X98874620Y-98912301D01*
G75*
G02*
X98624621Y-99162300I-249999J0D01*
G01*
G37*
G36*
G01*
X100009620Y-99237300D02*
X97989620Y-99237300D01*
G75*
G02*
X97749620Y-98997300I0J240000D01*
G01*
X97749620Y-96977300D01*
G75*
G02*
X97989620Y-96737300I240000J0D01*
G01*
X100009620Y-96737300D01*
G75*
G02*
X100249620Y-96977300I0J-240000D01*
G01*
X100249620Y-98997300D01*
G75*
G02*
X100009620Y-99237300I-240000J0D01*
G01*
G37*
M02*
