G04 #@! TF.GenerationSoftware,KiCad,Pcbnew,6.0.9-8da3e8f707~117~ubuntu20.04.1*
G04 #@! TF.CreationDate,2022-12-15T16:30:04+01:00*
G04 #@! TF.ProjectId,picsyle-R_temperature_915,70696373-796c-4652-9d52-5f74656d7065,rev?*
G04 #@! TF.SameCoordinates,Original*
G04 #@! TF.FileFunction,Other,ECO1*
%FSLAX46Y46*%
G04 Gerber Fmt 4.6, Leading zero omitted, Abs format (unit mm)*
G04 Created by KiCad (PCBNEW 6.0.9-8da3e8f707~117~ubuntu20.04.1) date 2022-12-15 16:30:04*
%MOMM*%
%LPD*%
G01*
G04 APERTURE LIST*
%ADD10C,0.030000*%
G04 APERTURE END LIST*
D10*
X93771428Y-21985714D02*
X93771428Y-21685714D01*
X93771428Y-21828571D02*
X93942857Y-21828571D01*
X93942857Y-21985714D02*
X93942857Y-21685714D01*
X94071428Y-21714285D02*
X94085714Y-21700000D01*
X94114285Y-21685714D01*
X94185714Y-21685714D01*
X94214285Y-21700000D01*
X94228571Y-21714285D01*
X94242857Y-21742857D01*
X94242857Y-21771428D01*
X94228571Y-21814285D01*
X94057142Y-21985714D01*
X94242857Y-21985714D01*
X19771428Y-21985714D02*
X19771428Y-21685714D01*
X19771428Y-21828571D02*
X19942857Y-21828571D01*
X19942857Y-21985714D02*
X19942857Y-21685714D01*
X20242857Y-21985714D02*
X20071428Y-21985714D01*
X20157142Y-21985714D02*
X20157142Y-21685714D01*
X20128571Y-21728571D01*
X20100000Y-21757142D01*
X20071428Y-21771428D01*
X93771428Y-50985714D02*
X93771428Y-50685714D01*
X93771428Y-50828571D02*
X93942857Y-50828571D01*
X93942857Y-50985714D02*
X93942857Y-50685714D01*
X94057142Y-50685714D02*
X94242857Y-50685714D01*
X94142857Y-50800000D01*
X94185714Y-50800000D01*
X94214285Y-50814285D01*
X94228571Y-50828571D01*
X94242857Y-50857142D01*
X94242857Y-50928571D01*
X94228571Y-50957142D01*
X94214285Y-50971428D01*
X94185714Y-50985714D01*
X94100000Y-50985714D01*
X94071428Y-50971428D01*
X94057142Y-50957142D01*
X19771428Y-50985714D02*
X19771428Y-50685714D01*
X19771428Y-50828571D02*
X19942857Y-50828571D01*
X19942857Y-50985714D02*
X19942857Y-50685714D01*
X20214285Y-50785714D02*
X20214285Y-50985714D01*
X20142857Y-50671428D02*
X20071428Y-50885714D01*
X20257142Y-50885714D01*
M02*
