G04 #@! TF.GenerationSoftware,KiCad,Pcbnew,6.0.9-8da3e8f707~117~ubuntu20.04.1*
G04 #@! TF.CreationDate,2022-12-15T16:30:04+01:00*
G04 #@! TF.ProjectId,picsyle-R_temperature_915,70696373-796c-4652-9d52-5f74656d7065,rev?*
G04 #@! TF.SameCoordinates,Original*
G04 #@! TF.FileFunction,Legend,Top*
G04 #@! TF.FilePolarity,Positive*
%FSLAX46Y46*%
G04 Gerber Fmt 4.6, Leading zero omitted, Abs format (unit mm)*
G04 Created by KiCad (PCBNEW 6.0.9-8da3e8f707~117~ubuntu20.04.1) date 2022-12-15 16:30:04*
%MOMM*%
%LPD*%
G01*
G04 APERTURE LIST*
%ADD10C,0.300000*%
%ADD11C,0.150000*%
%ADD12C,0.010000*%
%ADD13C,0.120000*%
%ADD14C,0.100000*%
G04 APERTURE END LIST*
D10*
X40928571Y-22042500D02*
X41642857Y-22042500D01*
X40785714Y-22471071D02*
X41285714Y-20971071D01*
X41785714Y-22471071D01*
X42214285Y-22399642D02*
X42428571Y-22471071D01*
X42785714Y-22471071D01*
X42928571Y-22399642D01*
X43000000Y-22328214D01*
X43071428Y-22185357D01*
X43071428Y-22042500D01*
X43000000Y-21899642D01*
X42928571Y-21828214D01*
X42785714Y-21756785D01*
X42500000Y-21685357D01*
X42357142Y-21613928D01*
X42285714Y-21542500D01*
X42214285Y-21399642D01*
X42214285Y-21256785D01*
X42285714Y-21113928D01*
X42357142Y-21042500D01*
X42500000Y-20971071D01*
X42857142Y-20971071D01*
X43071428Y-21042500D01*
X43571428Y-20971071D02*
X44500000Y-20971071D01*
X44000000Y-21542500D01*
X44214285Y-21542500D01*
X44357142Y-21613928D01*
X44428571Y-21685357D01*
X44500000Y-21828214D01*
X44500000Y-22185357D01*
X44428571Y-22328214D01*
X44357142Y-22399642D01*
X44214285Y-22471071D01*
X43785714Y-22471071D01*
X43642857Y-22399642D01*
X43571428Y-22328214D01*
X45071428Y-21113928D02*
X45142857Y-21042500D01*
X45285714Y-20971071D01*
X45642857Y-20971071D01*
X45785714Y-21042500D01*
X45857142Y-21113928D01*
X45928571Y-21256785D01*
X45928571Y-21399642D01*
X45857142Y-21613928D01*
X45000000Y-22471071D01*
X45928571Y-22471071D01*
X47357142Y-22471071D02*
X46500000Y-22471071D01*
X46928571Y-22471071D02*
X46928571Y-20971071D01*
X46785714Y-21185357D01*
X46642857Y-21328214D01*
X46500000Y-21399642D01*
X47857142Y-20971071D02*
X48857142Y-22471071D01*
X48857142Y-20971071D02*
X47857142Y-22471071D01*
X49428571Y-21899642D02*
X50571428Y-21899642D01*
X51285714Y-21685357D02*
X51785714Y-21685357D01*
X52000000Y-22471071D02*
X51285714Y-22471071D01*
X51285714Y-20971071D01*
X52000000Y-20971071D01*
X52428571Y-20971071D02*
X52928571Y-22471071D01*
X53428571Y-20971071D01*
X53857142Y-22042500D02*
X54571428Y-22042500D01*
X53714285Y-22471071D02*
X54214285Y-20971071D01*
X54714285Y-22471071D01*
X55928571Y-22471071D02*
X55214285Y-22471071D01*
X55214285Y-20971071D01*
X56428571Y-21899642D02*
X57571428Y-21899642D01*
X58071428Y-20971071D02*
X58928571Y-20971071D01*
X58500000Y-22471071D02*
X58500000Y-20971071D01*
X59428571Y-21685357D02*
X59928571Y-21685357D01*
X60142857Y-22471071D02*
X59428571Y-22471071D01*
X59428571Y-20971071D01*
X60142857Y-20971071D01*
X60785714Y-22471071D02*
X60785714Y-20971071D01*
X61285714Y-22042500D01*
X61785714Y-20971071D01*
X61785714Y-22471071D01*
X62500000Y-22471071D02*
X62500000Y-20971071D01*
X63071428Y-20971071D01*
X63214285Y-21042500D01*
X63285714Y-21113928D01*
X63357142Y-21256785D01*
X63357142Y-21471071D01*
X63285714Y-21613928D01*
X63214285Y-21685357D01*
X63071428Y-21756785D01*
X62500000Y-21756785D01*
X64000000Y-21685357D02*
X64500000Y-21685357D01*
X64714285Y-22471071D02*
X64000000Y-22471071D01*
X64000000Y-20971071D01*
X64714285Y-20971071D01*
X66214285Y-22471071D02*
X65714285Y-21756785D01*
X65357142Y-22471071D02*
X65357142Y-20971071D01*
X65928571Y-20971071D01*
X66071428Y-21042500D01*
X66142857Y-21113928D01*
X66214285Y-21256785D01*
X66214285Y-21471071D01*
X66142857Y-21613928D01*
X66071428Y-21685357D01*
X65928571Y-21756785D01*
X65357142Y-21756785D01*
X66785714Y-22042500D02*
X67500000Y-22042500D01*
X66642857Y-22471071D02*
X67142857Y-20971071D01*
X67642857Y-22471071D01*
X67928571Y-20971071D02*
X68785714Y-20971071D01*
X68357142Y-22471071D02*
X68357142Y-20971071D01*
X69285714Y-20971071D02*
X69285714Y-22185357D01*
X69357142Y-22328214D01*
X69428571Y-22399642D01*
X69571428Y-22471071D01*
X69857142Y-22471071D01*
X70000000Y-22399642D01*
X70071428Y-22328214D01*
X70142857Y-22185357D01*
X70142857Y-20971071D01*
X71714285Y-22471071D02*
X71214285Y-21756785D01*
X70857142Y-22471071D02*
X70857142Y-20971071D01*
X71428571Y-20971071D01*
X71571428Y-21042500D01*
X71642857Y-21113928D01*
X71714285Y-21256785D01*
X71714285Y-21471071D01*
X71642857Y-21613928D01*
X71571428Y-21685357D01*
X71428571Y-21756785D01*
X70857142Y-21756785D01*
X72357142Y-21685357D02*
X72857142Y-21685357D01*
X73071428Y-22471071D02*
X72357142Y-22471071D01*
X72357142Y-20971071D01*
X73071428Y-20971071D01*
X49928571Y-23386071D02*
X50428571Y-24886071D01*
X50928571Y-23386071D01*
X52071428Y-23886071D02*
X52071428Y-24886071D01*
X51714285Y-23314642D02*
X51357142Y-24386071D01*
X52285714Y-24386071D01*
X53928571Y-24457500D02*
X54642857Y-24457500D01*
X53785714Y-24886071D02*
X54285714Y-23386071D01*
X54785714Y-24886071D01*
X55214285Y-24814642D02*
X55428571Y-24886071D01*
X55785714Y-24886071D01*
X55928571Y-24814642D01*
X56000000Y-24743214D01*
X56071428Y-24600357D01*
X56071428Y-24457500D01*
X56000000Y-24314642D01*
X55928571Y-24243214D01*
X55785714Y-24171785D01*
X55500000Y-24100357D01*
X55357142Y-24028928D01*
X55285714Y-23957500D01*
X55214285Y-23814642D01*
X55214285Y-23671785D01*
X55285714Y-23528928D01*
X55357142Y-23457500D01*
X55500000Y-23386071D01*
X55857142Y-23386071D01*
X56071428Y-23457500D01*
X56571428Y-23386071D02*
X57500000Y-23386071D01*
X57000000Y-23957500D01*
X57214285Y-23957500D01*
X57357142Y-24028928D01*
X57428571Y-24100357D01*
X57500000Y-24243214D01*
X57500000Y-24600357D01*
X57428571Y-24743214D01*
X57357142Y-24814642D01*
X57214285Y-24886071D01*
X56785714Y-24886071D01*
X56642857Y-24814642D01*
X56571428Y-24743214D01*
X58071428Y-23528928D02*
X58142857Y-23457500D01*
X58285714Y-23386071D01*
X58642857Y-23386071D01*
X58785714Y-23457500D01*
X58857142Y-23528928D01*
X58928571Y-23671785D01*
X58928571Y-23814642D01*
X58857142Y-24028928D01*
X58000000Y-24886071D01*
X58928571Y-24886071D01*
X60357142Y-24886071D02*
X59500000Y-24886071D01*
X59928571Y-24886071D02*
X59928571Y-23386071D01*
X59785714Y-23600357D01*
X59642857Y-23743214D01*
X59500000Y-23814642D01*
X61785714Y-24886071D02*
X60928571Y-24886071D01*
X61357142Y-24886071D02*
X61357142Y-23386071D01*
X61214285Y-23600357D01*
X61071428Y-23743214D01*
X60928571Y-23814642D01*
X62428571Y-24743214D02*
X62500000Y-24814642D01*
X62428571Y-24886071D01*
X62357142Y-24814642D01*
X62428571Y-24743214D01*
X62428571Y-24886071D01*
X63000000Y-23386071D02*
X64000000Y-23386071D01*
X63357142Y-24886071D01*
D11*
X23795714Y-49282380D02*
X23462380Y-48806190D01*
X23224285Y-49282380D02*
X23224285Y-48282380D01*
X23605238Y-48282380D01*
X23700476Y-48330000D01*
X23748095Y-48377619D01*
X23795714Y-48472857D01*
X23795714Y-48615714D01*
X23748095Y-48710952D01*
X23700476Y-48758571D01*
X23605238Y-48806190D01*
X23224285Y-48806190D01*
X24367142Y-49282380D02*
X24271904Y-49234761D01*
X24224285Y-49187142D01*
X24176666Y-49091904D01*
X24176666Y-48806190D01*
X24224285Y-48710952D01*
X24271904Y-48663333D01*
X24367142Y-48615714D01*
X24510000Y-48615714D01*
X24605238Y-48663333D01*
X24652857Y-48710952D01*
X24700476Y-48806190D01*
X24700476Y-49091904D01*
X24652857Y-49187142D01*
X24605238Y-49234761D01*
X24510000Y-49282380D01*
X24367142Y-49282380D01*
X25129047Y-49282380D02*
X25129047Y-48282380D01*
X25129047Y-48758571D02*
X25700476Y-48758571D01*
X25700476Y-49282380D02*
X25700476Y-48282380D01*
X26129047Y-49234761D02*
X26271904Y-49282380D01*
X26510000Y-49282380D01*
X26605238Y-49234761D01*
X26652857Y-49187142D01*
X26700476Y-49091904D01*
X26700476Y-48996666D01*
X26652857Y-48901428D01*
X26605238Y-48853809D01*
X26510000Y-48806190D01*
X26319523Y-48758571D01*
X26224285Y-48710952D01*
X26176666Y-48663333D01*
X26129047Y-48568095D01*
X26129047Y-48472857D01*
X26176666Y-48377619D01*
X26224285Y-48330000D01*
X26319523Y-48282380D01*
X26557619Y-48282380D01*
X26700476Y-48330000D01*
X28319523Y-49234761D02*
X28224285Y-49282380D01*
X28033809Y-49282380D01*
X27938571Y-49234761D01*
X27890952Y-49187142D01*
X27843333Y-49091904D01*
X27843333Y-48806190D01*
X27890952Y-48710952D01*
X27938571Y-48663333D01*
X28033809Y-48615714D01*
X28224285Y-48615714D01*
X28319523Y-48663333D01*
X28890952Y-49282380D02*
X28795714Y-49234761D01*
X28748095Y-49187142D01*
X28700476Y-49091904D01*
X28700476Y-48806190D01*
X28748095Y-48710952D01*
X28795714Y-48663333D01*
X28890952Y-48615714D01*
X29033809Y-48615714D01*
X29129047Y-48663333D01*
X29176666Y-48710952D01*
X29224285Y-48806190D01*
X29224285Y-49091904D01*
X29176666Y-49187142D01*
X29129047Y-49234761D01*
X29033809Y-49282380D01*
X28890952Y-49282380D01*
X29652857Y-49282380D02*
X29652857Y-48615714D01*
X29652857Y-48710952D02*
X29700476Y-48663333D01*
X29795714Y-48615714D01*
X29938571Y-48615714D01*
X30033809Y-48663333D01*
X30081428Y-48758571D01*
X30081428Y-49282380D01*
X30081428Y-48758571D02*
X30129047Y-48663333D01*
X30224285Y-48615714D01*
X30367142Y-48615714D01*
X30462380Y-48663333D01*
X30510000Y-48758571D01*
X30510000Y-49282380D01*
X30986190Y-48615714D02*
X30986190Y-49615714D01*
X30986190Y-48663333D02*
X31081428Y-48615714D01*
X31271904Y-48615714D01*
X31367142Y-48663333D01*
X31414761Y-48710952D01*
X31462380Y-48806190D01*
X31462380Y-49091904D01*
X31414761Y-49187142D01*
X31367142Y-49234761D01*
X31271904Y-49282380D01*
X31081428Y-49282380D01*
X30986190Y-49234761D01*
X32033809Y-49282380D02*
X31938571Y-49234761D01*
X31890952Y-49139523D01*
X31890952Y-48282380D01*
X32414761Y-49282380D02*
X32414761Y-48615714D01*
X32414761Y-48282380D02*
X32367142Y-48330000D01*
X32414761Y-48377619D01*
X32462380Y-48330000D01*
X32414761Y-48282380D01*
X32414761Y-48377619D01*
X33319523Y-49282380D02*
X33319523Y-48758571D01*
X33271904Y-48663333D01*
X33176666Y-48615714D01*
X32986190Y-48615714D01*
X32890952Y-48663333D01*
X33319523Y-49234761D02*
X33224285Y-49282380D01*
X32986190Y-49282380D01*
X32890952Y-49234761D01*
X32843333Y-49139523D01*
X32843333Y-49044285D01*
X32890952Y-48949047D01*
X32986190Y-48901428D01*
X33224285Y-48901428D01*
X33319523Y-48853809D01*
X33795714Y-48615714D02*
X33795714Y-49282380D01*
X33795714Y-48710952D02*
X33843333Y-48663333D01*
X33938571Y-48615714D01*
X34081428Y-48615714D01*
X34176666Y-48663333D01*
X34224285Y-48758571D01*
X34224285Y-49282380D01*
X34557619Y-48615714D02*
X34938571Y-48615714D01*
X34700476Y-48282380D02*
X34700476Y-49139523D01*
X34748095Y-49234761D01*
X34843333Y-49282380D01*
X34938571Y-49282380D01*
X51932380Y-32821904D02*
X52741904Y-32821904D01*
X52837142Y-32774285D01*
X52884761Y-32726666D01*
X52932380Y-32631428D01*
X52932380Y-32440952D01*
X52884761Y-32345714D01*
X52837142Y-32298095D01*
X52741904Y-32250476D01*
X51932380Y-32250476D01*
X52932380Y-31250476D02*
X52932380Y-31821904D01*
X52932380Y-31536190D02*
X51932380Y-31536190D01*
X52075238Y-31631428D01*
X52170476Y-31726666D01*
X52218095Y-31821904D01*
G36*
X54195916Y-38486917D02*
G01*
X51962833Y-38486917D01*
X51962833Y-39174833D01*
X52981479Y-39174959D01*
X53154686Y-39174978D01*
X53308071Y-39175030D01*
X53442976Y-39175176D01*
X53560746Y-39175477D01*
X53662722Y-39175995D01*
X53750251Y-39176788D01*
X53824673Y-39177920D01*
X53887335Y-39179450D01*
X53939578Y-39181439D01*
X53982746Y-39183949D01*
X54018184Y-39187040D01*
X54047234Y-39190772D01*
X54071240Y-39195208D01*
X54091546Y-39200407D01*
X54109496Y-39206431D01*
X54126432Y-39213341D01*
X54143699Y-39221197D01*
X54158875Y-39228307D01*
X54200528Y-39253759D01*
X54247976Y-39292079D01*
X54296004Y-39338055D01*
X54339402Y-39386475D01*
X54372956Y-39432125D01*
X54385859Y-39455292D01*
X54398218Y-39482436D01*
X54408502Y-39507662D01*
X54416900Y-39533174D01*
X54423604Y-39561175D01*
X54428806Y-39593869D01*
X54432697Y-39633460D01*
X54435468Y-39682151D01*
X54437310Y-39742146D01*
X54438415Y-39815648D01*
X54438974Y-39904863D01*
X54439179Y-40011992D01*
X54439207Y-40069850D01*
X54439139Y-40183612D01*
X54438822Y-40278257D01*
X54438188Y-40355833D01*
X54437172Y-40418388D01*
X54435706Y-40467970D01*
X54433723Y-40506628D01*
X54431156Y-40536409D01*
X54427939Y-40559364D01*
X54424005Y-40577538D01*
X54422448Y-40583141D01*
X54384204Y-40678340D01*
X54329408Y-40764016D01*
X54260568Y-40837858D01*
X54180189Y-40897552D01*
X54090777Y-40940786D01*
X54011410Y-40962530D01*
X53990825Y-40964522D01*
X53951798Y-40966318D01*
X53894063Y-40967919D01*
X53817353Y-40969328D01*
X53721402Y-40970547D01*
X53605944Y-40971578D01*
X53470712Y-40972423D01*
X53315439Y-40973085D01*
X53139859Y-40973567D01*
X52943706Y-40973869D01*
X52726713Y-40973995D01*
X52675264Y-40974000D01*
X51401916Y-40974000D01*
X51401916Y-40413083D01*
X53889000Y-40413083D01*
X53889000Y-39725167D01*
X52863531Y-39725167D01*
X52693154Y-39725155D01*
X52542618Y-39725103D01*
X52410597Y-39724986D01*
X52295764Y-39724777D01*
X52196793Y-39724452D01*
X52112358Y-39723985D01*
X52041134Y-39723350D01*
X51981794Y-39722523D01*
X51933012Y-39721476D01*
X51893461Y-39720186D01*
X51861817Y-39718626D01*
X51836753Y-39716772D01*
X51816942Y-39714596D01*
X51801059Y-39712075D01*
X51787777Y-39709183D01*
X51775771Y-39705894D01*
X51770038Y-39704156D01*
X51675759Y-39664398D01*
X51591703Y-39607656D01*
X51520200Y-39536353D01*
X51463584Y-39452913D01*
X51424186Y-39359758D01*
X51418139Y-39338505D01*
X51413536Y-39309432D01*
X51409616Y-39262125D01*
X51406377Y-39199503D01*
X51403820Y-39124486D01*
X51401946Y-39039994D01*
X51400754Y-38948949D01*
X51400244Y-38854270D01*
X51400417Y-38758877D01*
X51401272Y-38665690D01*
X51402809Y-38577631D01*
X51405030Y-38497618D01*
X51407932Y-38428573D01*
X51411518Y-38373415D01*
X51415786Y-38335065D01*
X51418121Y-38323315D01*
X51452923Y-38229780D01*
X51505090Y-38144533D01*
X51571937Y-38070093D01*
X51650775Y-38008976D01*
X51738919Y-37963701D01*
X51829839Y-37937470D01*
X51851430Y-37935363D01*
X51892067Y-37933475D01*
X51951974Y-37931805D01*
X52031372Y-37930350D01*
X52130484Y-37929109D01*
X52249532Y-37928079D01*
X52388739Y-37927258D01*
X52548326Y-37926644D01*
X52728518Y-37926234D01*
X52929535Y-37926028D01*
X53044277Y-37926000D01*
X54195916Y-37926000D01*
X54195916Y-38486917D01*
G37*
D12*
X54195916Y-38486917D02*
X51962833Y-38486917D01*
X51962833Y-39174833D01*
X52981479Y-39174959D01*
X53154686Y-39174978D01*
X53308071Y-39175030D01*
X53442976Y-39175176D01*
X53560746Y-39175477D01*
X53662722Y-39175995D01*
X53750251Y-39176788D01*
X53824673Y-39177920D01*
X53887335Y-39179450D01*
X53939578Y-39181439D01*
X53982746Y-39183949D01*
X54018184Y-39187040D01*
X54047234Y-39190772D01*
X54071240Y-39195208D01*
X54091546Y-39200407D01*
X54109496Y-39206431D01*
X54126432Y-39213341D01*
X54143699Y-39221197D01*
X54158875Y-39228307D01*
X54200528Y-39253759D01*
X54247976Y-39292079D01*
X54296004Y-39338055D01*
X54339402Y-39386475D01*
X54372956Y-39432125D01*
X54385859Y-39455292D01*
X54398218Y-39482436D01*
X54408502Y-39507662D01*
X54416900Y-39533174D01*
X54423604Y-39561175D01*
X54428806Y-39593869D01*
X54432697Y-39633460D01*
X54435468Y-39682151D01*
X54437310Y-39742146D01*
X54438415Y-39815648D01*
X54438974Y-39904863D01*
X54439179Y-40011992D01*
X54439207Y-40069850D01*
X54439139Y-40183612D01*
X54438822Y-40278257D01*
X54438188Y-40355833D01*
X54437172Y-40418388D01*
X54435706Y-40467970D01*
X54433723Y-40506628D01*
X54431156Y-40536409D01*
X54427939Y-40559364D01*
X54424005Y-40577538D01*
X54422448Y-40583141D01*
X54384204Y-40678340D01*
X54329408Y-40764016D01*
X54260568Y-40837858D01*
X54180189Y-40897552D01*
X54090777Y-40940786D01*
X54011410Y-40962530D01*
X53990825Y-40964522D01*
X53951798Y-40966318D01*
X53894063Y-40967919D01*
X53817353Y-40969328D01*
X53721402Y-40970547D01*
X53605944Y-40971578D01*
X53470712Y-40972423D01*
X53315439Y-40973085D01*
X53139859Y-40973567D01*
X52943706Y-40973869D01*
X52726713Y-40973995D01*
X52675264Y-40974000D01*
X51401916Y-40974000D01*
X51401916Y-40413083D01*
X53889000Y-40413083D01*
X53889000Y-39725167D01*
X52863531Y-39725167D01*
X52693154Y-39725155D01*
X52542618Y-39725103D01*
X52410597Y-39724986D01*
X52295764Y-39724777D01*
X52196793Y-39724452D01*
X52112358Y-39723985D01*
X52041134Y-39723350D01*
X51981794Y-39722523D01*
X51933012Y-39721476D01*
X51893461Y-39720186D01*
X51861817Y-39718626D01*
X51836753Y-39716772D01*
X51816942Y-39714596D01*
X51801059Y-39712075D01*
X51787777Y-39709183D01*
X51775771Y-39705894D01*
X51770038Y-39704156D01*
X51675759Y-39664398D01*
X51591703Y-39607656D01*
X51520200Y-39536353D01*
X51463584Y-39452913D01*
X51424186Y-39359758D01*
X51418139Y-39338505D01*
X51413536Y-39309432D01*
X51409616Y-39262125D01*
X51406377Y-39199503D01*
X51403820Y-39124486D01*
X51401946Y-39039994D01*
X51400754Y-38948949D01*
X51400244Y-38854270D01*
X51400417Y-38758877D01*
X51401272Y-38665690D01*
X51402809Y-38577631D01*
X51405030Y-38497618D01*
X51407932Y-38428573D01*
X51411518Y-38373415D01*
X51415786Y-38335065D01*
X51418121Y-38323315D01*
X51452923Y-38229780D01*
X51505090Y-38144533D01*
X51571937Y-38070093D01*
X51650775Y-38008976D01*
X51738919Y-37963701D01*
X51829839Y-37937470D01*
X51851430Y-37935363D01*
X51892067Y-37933475D01*
X51951974Y-37931805D01*
X52031372Y-37930350D01*
X52130484Y-37929109D01*
X52249532Y-37928079D01*
X52388739Y-37927258D01*
X52548326Y-37926644D01*
X52728518Y-37926234D01*
X52929535Y-37926028D01*
X53044277Y-37926000D01*
X54195916Y-37926000D01*
X54195916Y-38486917D01*
G36*
X61953500Y-38486917D02*
G01*
X59720416Y-38486917D01*
X59720416Y-40413083D01*
X61646583Y-40413083D01*
X61646583Y-39725167D01*
X60122583Y-39725167D01*
X60122583Y-39174833D01*
X60940568Y-39174833D01*
X61097494Y-39174840D01*
X61234761Y-39174924D01*
X61353876Y-39175177D01*
X61456347Y-39175691D01*
X61543681Y-39176559D01*
X61617386Y-39177875D01*
X61678969Y-39179729D01*
X61729937Y-39182216D01*
X61771799Y-39185428D01*
X61806061Y-39189457D01*
X61834231Y-39194396D01*
X61857817Y-39200338D01*
X61878325Y-39207375D01*
X61897264Y-39215600D01*
X61916141Y-39225106D01*
X61936463Y-39235985D01*
X61936558Y-39236036D01*
X62001669Y-39280419D01*
X62063803Y-39339947D01*
X62117455Y-39408748D01*
X62148415Y-39462086D01*
X62162674Y-39493149D01*
X62174563Y-39524965D01*
X62184260Y-39559665D01*
X62191945Y-39599377D01*
X62197795Y-39646229D01*
X62201988Y-39702352D01*
X62204704Y-39769873D01*
X62206120Y-39850923D01*
X62206415Y-39947630D01*
X62205767Y-40062123D01*
X62205025Y-40137917D01*
X62203835Y-40241216D01*
X62202638Y-40325703D01*
X62201300Y-40393732D01*
X62199687Y-40447657D01*
X62197667Y-40489832D01*
X62195105Y-40522611D01*
X62191868Y-40548348D01*
X62187823Y-40569397D01*
X62182836Y-40588112D01*
X62178768Y-40600918D01*
X62138930Y-40690163D01*
X62082716Y-40771590D01*
X62013274Y-40842260D01*
X61933749Y-40899232D01*
X61847290Y-40939566D01*
X61802351Y-40952597D01*
X61784273Y-40954297D01*
X61745891Y-40955868D01*
X61688064Y-40957301D01*
X61611653Y-40958589D01*
X61517521Y-40959724D01*
X61406527Y-40960698D01*
X61279532Y-40961503D01*
X61137399Y-40962131D01*
X60980987Y-40962575D01*
X60811158Y-40962827D01*
X60672916Y-40962885D01*
X59588125Y-40962870D01*
X59516917Y-40938602D01*
X59439559Y-40904584D01*
X59365733Y-40858095D01*
X59303234Y-40804247D01*
X59289809Y-40789681D01*
X59255431Y-40742174D01*
X59221961Y-40682080D01*
X59193418Y-40617750D01*
X59173822Y-40557534D01*
X59170244Y-40541284D01*
X59168363Y-40520596D01*
X59166658Y-40480613D01*
X59165128Y-40423129D01*
X59163772Y-40349934D01*
X59162590Y-40262819D01*
X59161580Y-40163576D01*
X59160742Y-40053995D01*
X59160074Y-39935868D01*
X59159578Y-39810985D01*
X59159250Y-39681139D01*
X59159091Y-39548120D01*
X59159100Y-39413719D01*
X59159276Y-39279728D01*
X59159619Y-39147937D01*
X59160127Y-39020138D01*
X59160800Y-38898122D01*
X59161637Y-38783681D01*
X59162637Y-38678604D01*
X59163800Y-38584684D01*
X59165124Y-38503711D01*
X59166609Y-38437477D01*
X59168254Y-38387773D01*
X59170059Y-38356390D01*
X59171195Y-38347208D01*
X59198411Y-38261646D01*
X59242156Y-38178794D01*
X59299024Y-38103102D01*
X59365611Y-38039020D01*
X59438511Y-37990995D01*
X59447102Y-37986724D01*
X59466163Y-37977518D01*
X59483718Y-37969299D01*
X59501013Y-37962008D01*
X59519295Y-37955591D01*
X59539809Y-37949992D01*
X59563802Y-37945155D01*
X59592520Y-37941023D01*
X59627208Y-37937542D01*
X59669113Y-37934655D01*
X59719481Y-37932306D01*
X59779558Y-37930439D01*
X59850590Y-37928999D01*
X59933823Y-37927929D01*
X60030502Y-37927174D01*
X60141875Y-37926677D01*
X60269187Y-37926384D01*
X60413685Y-37926237D01*
X60576613Y-37926181D01*
X60759219Y-37926161D01*
X60797270Y-37926156D01*
X61953500Y-37926000D01*
X61953500Y-38486917D01*
G37*
X61953500Y-38486917D02*
X59720416Y-38486917D01*
X59720416Y-40413083D01*
X61646583Y-40413083D01*
X61646583Y-39725167D01*
X60122583Y-39725167D01*
X60122583Y-39174833D01*
X60940568Y-39174833D01*
X61097494Y-39174840D01*
X61234761Y-39174924D01*
X61353876Y-39175177D01*
X61456347Y-39175691D01*
X61543681Y-39176559D01*
X61617386Y-39177875D01*
X61678969Y-39179729D01*
X61729937Y-39182216D01*
X61771799Y-39185428D01*
X61806061Y-39189457D01*
X61834231Y-39194396D01*
X61857817Y-39200338D01*
X61878325Y-39207375D01*
X61897264Y-39215600D01*
X61916141Y-39225106D01*
X61936463Y-39235985D01*
X61936558Y-39236036D01*
X62001669Y-39280419D01*
X62063803Y-39339947D01*
X62117455Y-39408748D01*
X62148415Y-39462086D01*
X62162674Y-39493149D01*
X62174563Y-39524965D01*
X62184260Y-39559665D01*
X62191945Y-39599377D01*
X62197795Y-39646229D01*
X62201988Y-39702352D01*
X62204704Y-39769873D01*
X62206120Y-39850923D01*
X62206415Y-39947630D01*
X62205767Y-40062123D01*
X62205025Y-40137917D01*
X62203835Y-40241216D01*
X62202638Y-40325703D01*
X62201300Y-40393732D01*
X62199687Y-40447657D01*
X62197667Y-40489832D01*
X62195105Y-40522611D01*
X62191868Y-40548348D01*
X62187823Y-40569397D01*
X62182836Y-40588112D01*
X62178768Y-40600918D01*
X62138930Y-40690163D01*
X62082716Y-40771590D01*
X62013274Y-40842260D01*
X61933749Y-40899232D01*
X61847290Y-40939566D01*
X61802351Y-40952597D01*
X61784273Y-40954297D01*
X61745891Y-40955868D01*
X61688064Y-40957301D01*
X61611653Y-40958589D01*
X61517521Y-40959724D01*
X61406527Y-40960698D01*
X61279532Y-40961503D01*
X61137399Y-40962131D01*
X60980987Y-40962575D01*
X60811158Y-40962827D01*
X60672916Y-40962885D01*
X59588125Y-40962870D01*
X59516917Y-40938602D01*
X59439559Y-40904584D01*
X59365733Y-40858095D01*
X59303234Y-40804247D01*
X59289809Y-40789681D01*
X59255431Y-40742174D01*
X59221961Y-40682080D01*
X59193418Y-40617750D01*
X59173822Y-40557534D01*
X59170244Y-40541284D01*
X59168363Y-40520596D01*
X59166658Y-40480613D01*
X59165128Y-40423129D01*
X59163772Y-40349934D01*
X59162590Y-40262819D01*
X59161580Y-40163576D01*
X59160742Y-40053995D01*
X59160074Y-39935868D01*
X59159578Y-39810985D01*
X59159250Y-39681139D01*
X59159091Y-39548120D01*
X59159100Y-39413719D01*
X59159276Y-39279728D01*
X59159619Y-39147937D01*
X59160127Y-39020138D01*
X59160800Y-38898122D01*
X59161637Y-38783681D01*
X59162637Y-38678604D01*
X59163800Y-38584684D01*
X59165124Y-38503711D01*
X59166609Y-38437477D01*
X59168254Y-38387773D01*
X59170059Y-38356390D01*
X59171195Y-38347208D01*
X59198411Y-38261646D01*
X59242156Y-38178794D01*
X59299024Y-38103102D01*
X59365611Y-38039020D01*
X59438511Y-37990995D01*
X59447102Y-37986724D01*
X59466163Y-37977518D01*
X59483718Y-37969299D01*
X59501013Y-37962008D01*
X59519295Y-37955591D01*
X59539809Y-37949992D01*
X59563802Y-37945155D01*
X59592520Y-37941023D01*
X59627208Y-37937542D01*
X59669113Y-37934655D01*
X59719481Y-37932306D01*
X59779558Y-37930439D01*
X59850590Y-37928999D01*
X59933823Y-37927929D01*
X60030502Y-37927174D01*
X60141875Y-37926677D01*
X60269187Y-37926384D01*
X60413685Y-37926237D01*
X60576613Y-37926181D01*
X60759219Y-37926161D01*
X60797270Y-37926156D01*
X61953500Y-37926000D01*
X61953500Y-38486917D01*
G36*
X65901083Y-39231359D02*
G01*
X65901047Y-39430946D01*
X65900933Y-39610400D01*
X65900729Y-39770755D01*
X65900424Y-39913043D01*
X65900008Y-40038300D01*
X65899470Y-40147559D01*
X65898798Y-40241852D01*
X65897982Y-40322215D01*
X65897010Y-40389680D01*
X65895873Y-40445281D01*
X65894558Y-40490052D01*
X65893056Y-40525026D01*
X65891354Y-40551238D01*
X65889443Y-40569720D01*
X65887311Y-40581506D01*
X65886788Y-40583380D01*
X65845713Y-40683876D01*
X65788276Y-40770966D01*
X65714720Y-40844362D01*
X65625291Y-40903775D01*
X65606825Y-40913311D01*
X65516387Y-40958125D01*
X65238029Y-40958125D01*
X65148868Y-40913779D01*
X65066309Y-40865053D01*
X65005447Y-40813238D01*
X64992646Y-40797562D01*
X64968589Y-40765591D01*
X64934065Y-40718436D01*
X64889859Y-40657207D01*
X64836758Y-40583017D01*
X64775550Y-40496977D01*
X64707022Y-40400198D01*
X64631960Y-40293791D01*
X64551152Y-40178869D01*
X64465385Y-40056541D01*
X64375446Y-39927921D01*
X64282121Y-39794118D01*
X64190530Y-39662478D01*
X63429875Y-38567915D01*
X63427183Y-39765666D01*
X63424492Y-40963417D01*
X62863666Y-40963417D01*
X62863666Y-39683354D01*
X62863743Y-39466452D01*
X62863976Y-39270255D01*
X62864370Y-39094300D01*
X62864929Y-38938126D01*
X62865656Y-38801272D01*
X62866555Y-38683275D01*
X62867632Y-38583675D01*
X62868889Y-38502009D01*
X62870330Y-38437815D01*
X62871961Y-38390633D01*
X62873784Y-38360000D01*
X62875362Y-38347208D01*
X62903882Y-38257972D01*
X62949911Y-38171962D01*
X63009959Y-38094102D01*
X63080537Y-38029313D01*
X63119407Y-38002923D01*
X63200228Y-37964766D01*
X63290787Y-37939650D01*
X63382791Y-37929532D01*
X63425992Y-37930649D01*
X63528244Y-37946403D01*
X63618406Y-37977843D01*
X63700169Y-38026547D01*
X63753044Y-38070510D01*
X63765860Y-38085519D01*
X63790100Y-38117150D01*
X63825189Y-38164590D01*
X63870550Y-38227027D01*
X63925604Y-38303648D01*
X63989775Y-38393641D01*
X64062486Y-38496193D01*
X64143160Y-38610491D01*
X64231219Y-38735724D01*
X64326087Y-38871077D01*
X64427186Y-39015740D01*
X64533940Y-39168898D01*
X64573253Y-39225396D01*
X65345458Y-40335637D01*
X65348149Y-39130819D01*
X65350839Y-37926000D01*
X65901083Y-37926000D01*
X65901083Y-39231359D01*
G37*
X65901083Y-39231359D02*
X65901047Y-39430946D01*
X65900933Y-39610400D01*
X65900729Y-39770755D01*
X65900424Y-39913043D01*
X65900008Y-40038300D01*
X65899470Y-40147559D01*
X65898798Y-40241852D01*
X65897982Y-40322215D01*
X65897010Y-40389680D01*
X65895873Y-40445281D01*
X65894558Y-40490052D01*
X65893056Y-40525026D01*
X65891354Y-40551238D01*
X65889443Y-40569720D01*
X65887311Y-40581506D01*
X65886788Y-40583380D01*
X65845713Y-40683876D01*
X65788276Y-40770966D01*
X65714720Y-40844362D01*
X65625291Y-40903775D01*
X65606825Y-40913311D01*
X65516387Y-40958125D01*
X65238029Y-40958125D01*
X65148868Y-40913779D01*
X65066309Y-40865053D01*
X65005447Y-40813238D01*
X64992646Y-40797562D01*
X64968589Y-40765591D01*
X64934065Y-40718436D01*
X64889859Y-40657207D01*
X64836758Y-40583017D01*
X64775550Y-40496977D01*
X64707022Y-40400198D01*
X64631960Y-40293791D01*
X64551152Y-40178869D01*
X64465385Y-40056541D01*
X64375446Y-39927921D01*
X64282121Y-39794118D01*
X64190530Y-39662478D01*
X63429875Y-38567915D01*
X63427183Y-39765666D01*
X63424492Y-40963417D01*
X62863666Y-40963417D01*
X62863666Y-39683354D01*
X62863743Y-39466452D01*
X62863976Y-39270255D01*
X62864370Y-39094300D01*
X62864929Y-38938126D01*
X62865656Y-38801272D01*
X62866555Y-38683275D01*
X62867632Y-38583675D01*
X62868889Y-38502009D01*
X62870330Y-38437815D01*
X62871961Y-38390633D01*
X62873784Y-38360000D01*
X62875362Y-38347208D01*
X62903882Y-38257972D01*
X62949911Y-38171962D01*
X63009959Y-38094102D01*
X63080537Y-38029313D01*
X63119407Y-38002923D01*
X63200228Y-37964766D01*
X63290787Y-37939650D01*
X63382791Y-37929532D01*
X63425992Y-37930649D01*
X63528244Y-37946403D01*
X63618406Y-37977843D01*
X63700169Y-38026547D01*
X63753044Y-38070510D01*
X63765860Y-38085519D01*
X63790100Y-38117150D01*
X63825189Y-38164590D01*
X63870550Y-38227027D01*
X63925604Y-38303648D01*
X63989775Y-38393641D01*
X64062486Y-38496193D01*
X64143160Y-38610491D01*
X64231219Y-38735724D01*
X64326087Y-38871077D01*
X64427186Y-39015740D01*
X64533940Y-39168898D01*
X64573253Y-39225396D01*
X65345458Y-40335637D01*
X65348149Y-39130819D01*
X65350839Y-37926000D01*
X65901083Y-37926000D01*
X65901083Y-39231359D01*
G36*
X49335134Y-37926008D02*
G01*
X49498486Y-37926047D01*
X49643124Y-37926137D01*
X49770278Y-37926299D01*
X49881173Y-37926555D01*
X49977036Y-37926925D01*
X50059095Y-37927430D01*
X50128576Y-37928090D01*
X50186708Y-37928928D01*
X50234716Y-37929963D01*
X50273828Y-37931217D01*
X50305270Y-37932711D01*
X50330271Y-37934465D01*
X50350056Y-37936501D01*
X50365853Y-37938839D01*
X50378890Y-37941500D01*
X50390392Y-37944505D01*
X50399617Y-37947265D01*
X50488831Y-37985062D01*
X50570680Y-38039646D01*
X50641185Y-38107657D01*
X50696368Y-38185737D01*
X50707887Y-38207623D01*
X50717318Y-38226779D01*
X50725688Y-38244350D01*
X50733060Y-38261653D01*
X50739497Y-38280004D01*
X50745063Y-38300720D01*
X50749821Y-38325118D01*
X50753833Y-38354515D01*
X50757165Y-38390227D01*
X50759878Y-38433571D01*
X50762036Y-38485864D01*
X50763703Y-38548422D01*
X50764941Y-38622563D01*
X50765814Y-38709602D01*
X50766385Y-38810857D01*
X50766718Y-38927644D01*
X50766875Y-39061280D01*
X50766920Y-39213082D01*
X50766917Y-39384366D01*
X50766916Y-39435827D01*
X50766816Y-39633994D01*
X50766512Y-39811423D01*
X50766000Y-39968544D01*
X50765276Y-40105785D01*
X50764334Y-40223575D01*
X50763171Y-40322343D01*
X50761781Y-40402517D01*
X50760161Y-40464526D01*
X50758305Y-40508799D01*
X50756210Y-40535765D01*
X50755221Y-40542208D01*
X50728565Y-40626441D01*
X50685868Y-40708290D01*
X50630516Y-40783322D01*
X50565895Y-40847105D01*
X50495392Y-40895208D01*
X50479301Y-40903307D01*
X50459005Y-40912866D01*
X50440280Y-40921349D01*
X50421801Y-40928819D01*
X50402245Y-40935339D01*
X50380285Y-40940971D01*
X50354597Y-40945780D01*
X50323857Y-40949827D01*
X50286739Y-40953175D01*
X50241919Y-40955888D01*
X50188073Y-40958029D01*
X50123875Y-40959661D01*
X50048001Y-40960846D01*
X49959126Y-40961647D01*
X49855925Y-40962128D01*
X49737073Y-40962352D01*
X49601247Y-40962381D01*
X49447120Y-40962278D01*
X49273369Y-40962107D01*
X49242916Y-40962076D01*
X49081419Y-40961816D01*
X48928544Y-40961369D01*
X48785545Y-40960748D01*
X48653676Y-40959966D01*
X48534192Y-40959035D01*
X48428345Y-40957968D01*
X48337391Y-40956778D01*
X48262582Y-40955477D01*
X48205174Y-40954078D01*
X48166419Y-40952594D01*
X48147573Y-40951037D01*
X48147541Y-40951031D01*
X48060985Y-40924792D01*
X47976706Y-40880967D01*
X47899475Y-40822989D01*
X47834057Y-40754292D01*
X47795425Y-40697465D01*
X47780468Y-40670730D01*
X47767931Y-40646197D01*
X47757612Y-40621783D01*
X47749312Y-40595407D01*
X47742831Y-40564986D01*
X47737967Y-40528439D01*
X47734522Y-40483682D01*
X47732295Y-40428633D01*
X47731085Y-40361211D01*
X47730692Y-40279333D01*
X47730917Y-40180917D01*
X47731559Y-40063881D01*
X47731738Y-40035091D01*
X47734791Y-39548899D01*
X47779674Y-39458345D01*
X47835951Y-39366725D01*
X47905979Y-39291195D01*
X47989747Y-39231767D01*
X48087245Y-39188447D01*
X48109775Y-39181305D01*
X48122370Y-39178125D01*
X48138226Y-39175359D01*
X48158800Y-39172980D01*
X48185550Y-39170960D01*
X48219934Y-39169270D01*
X48263407Y-39167882D01*
X48317428Y-39166767D01*
X48383454Y-39165899D01*
X48462942Y-39165248D01*
X48557350Y-39164786D01*
X48668134Y-39164485D01*
X48796753Y-39164316D01*
X48944663Y-39164253D01*
X48990837Y-39164250D01*
X49814416Y-39164250D01*
X49814416Y-39714583D01*
X48279833Y-39714583D01*
X48279833Y-40402500D01*
X50206000Y-40402500D01*
X50206000Y-38476333D01*
X47972916Y-38476333D01*
X47972916Y-37926000D01*
X49151843Y-37926000D01*
X49335134Y-37926008D01*
G37*
X49335134Y-37926008D02*
X49498486Y-37926047D01*
X49643124Y-37926137D01*
X49770278Y-37926299D01*
X49881173Y-37926555D01*
X49977036Y-37926925D01*
X50059095Y-37927430D01*
X50128576Y-37928090D01*
X50186708Y-37928928D01*
X50234716Y-37929963D01*
X50273828Y-37931217D01*
X50305270Y-37932711D01*
X50330271Y-37934465D01*
X50350056Y-37936501D01*
X50365853Y-37938839D01*
X50378890Y-37941500D01*
X50390392Y-37944505D01*
X50399617Y-37947265D01*
X50488831Y-37985062D01*
X50570680Y-38039646D01*
X50641185Y-38107657D01*
X50696368Y-38185737D01*
X50707887Y-38207623D01*
X50717318Y-38226779D01*
X50725688Y-38244350D01*
X50733060Y-38261653D01*
X50739497Y-38280004D01*
X50745063Y-38300720D01*
X50749821Y-38325118D01*
X50753833Y-38354515D01*
X50757165Y-38390227D01*
X50759878Y-38433571D01*
X50762036Y-38485864D01*
X50763703Y-38548422D01*
X50764941Y-38622563D01*
X50765814Y-38709602D01*
X50766385Y-38810857D01*
X50766718Y-38927644D01*
X50766875Y-39061280D01*
X50766920Y-39213082D01*
X50766917Y-39384366D01*
X50766916Y-39435827D01*
X50766816Y-39633994D01*
X50766512Y-39811423D01*
X50766000Y-39968544D01*
X50765276Y-40105785D01*
X50764334Y-40223575D01*
X50763171Y-40322343D01*
X50761781Y-40402517D01*
X50760161Y-40464526D01*
X50758305Y-40508799D01*
X50756210Y-40535765D01*
X50755221Y-40542208D01*
X50728565Y-40626441D01*
X50685868Y-40708290D01*
X50630516Y-40783322D01*
X50565895Y-40847105D01*
X50495392Y-40895208D01*
X50479301Y-40903307D01*
X50459005Y-40912866D01*
X50440280Y-40921349D01*
X50421801Y-40928819D01*
X50402245Y-40935339D01*
X50380285Y-40940971D01*
X50354597Y-40945780D01*
X50323857Y-40949827D01*
X50286739Y-40953175D01*
X50241919Y-40955888D01*
X50188073Y-40958029D01*
X50123875Y-40959661D01*
X50048001Y-40960846D01*
X49959126Y-40961647D01*
X49855925Y-40962128D01*
X49737073Y-40962352D01*
X49601247Y-40962381D01*
X49447120Y-40962278D01*
X49273369Y-40962107D01*
X49242916Y-40962076D01*
X49081419Y-40961816D01*
X48928544Y-40961369D01*
X48785545Y-40960748D01*
X48653676Y-40959966D01*
X48534192Y-40959035D01*
X48428345Y-40957968D01*
X48337391Y-40956778D01*
X48262582Y-40955477D01*
X48205174Y-40954078D01*
X48166419Y-40952594D01*
X48147573Y-40951037D01*
X48147541Y-40951031D01*
X48060985Y-40924792D01*
X47976706Y-40880967D01*
X47899475Y-40822989D01*
X47834057Y-40754292D01*
X47795425Y-40697465D01*
X47780468Y-40670730D01*
X47767931Y-40646197D01*
X47757612Y-40621783D01*
X47749312Y-40595407D01*
X47742831Y-40564986D01*
X47737967Y-40528439D01*
X47734522Y-40483682D01*
X47732295Y-40428633D01*
X47731085Y-40361211D01*
X47730692Y-40279333D01*
X47730917Y-40180917D01*
X47731559Y-40063881D01*
X47731738Y-40035091D01*
X47734791Y-39548899D01*
X47779674Y-39458345D01*
X47835951Y-39366725D01*
X47905979Y-39291195D01*
X47989747Y-39231767D01*
X48087245Y-39188447D01*
X48109775Y-39181305D01*
X48122370Y-39178125D01*
X48138226Y-39175359D01*
X48158800Y-39172980D01*
X48185550Y-39170960D01*
X48219934Y-39169270D01*
X48263407Y-39167882D01*
X48317428Y-39166767D01*
X48383454Y-39165899D01*
X48462942Y-39165248D01*
X48557350Y-39164786D01*
X48668134Y-39164485D01*
X48796753Y-39164316D01*
X48944663Y-39164253D01*
X48990837Y-39164250D01*
X49814416Y-39164250D01*
X49814416Y-39714583D01*
X48279833Y-39714583D01*
X48279833Y-40402500D01*
X50206000Y-40402500D01*
X50206000Y-38476333D01*
X47972916Y-38476333D01*
X47972916Y-37926000D01*
X49151843Y-37926000D01*
X49335134Y-37926008D01*
G36*
X55518833Y-38694425D02*
G01*
X56123323Y-39196567D01*
X56221169Y-39277732D01*
X56314378Y-39354830D01*
X56401659Y-39426808D01*
X56481722Y-39492610D01*
X56553276Y-39551183D01*
X56615029Y-39601473D01*
X56665691Y-39642424D01*
X56703971Y-39672983D01*
X56728577Y-39692096D01*
X56738218Y-39698708D01*
X56738220Y-39698708D01*
X56747840Y-39692093D01*
X56772403Y-39672952D01*
X56810620Y-39642342D01*
X56861199Y-39601322D01*
X56922851Y-39550947D01*
X56994286Y-39492275D01*
X57074212Y-39426363D01*
X57161341Y-39354268D01*
X57254381Y-39277048D01*
X57351350Y-39196337D01*
X57954074Y-38693966D01*
X57946574Y-38066566D01*
X57939074Y-37439167D01*
X58503333Y-37439167D01*
X58503176Y-38103271D01*
X58503109Y-38246408D01*
X58502894Y-38370085D01*
X58502404Y-38476006D01*
X58501510Y-38565879D01*
X58500083Y-38641408D01*
X58497997Y-38704299D01*
X58495122Y-38756258D01*
X58491331Y-38798992D01*
X58486496Y-38834205D01*
X58480487Y-38863604D01*
X58473178Y-38888894D01*
X58464441Y-38911782D01*
X58454146Y-38933972D01*
X58442166Y-38957172D01*
X58438519Y-38964029D01*
X58412793Y-39005954D01*
X58381551Y-39048278D01*
X58361874Y-39070847D01*
X58346903Y-39084731D01*
X58316972Y-39111006D01*
X58273410Y-39148547D01*
X58217547Y-39196231D01*
X58150713Y-39252932D01*
X58074236Y-39317526D01*
X57989447Y-39388889D01*
X57897675Y-39465895D01*
X57800249Y-39547422D01*
X57698499Y-39632343D01*
X57664422Y-39660735D01*
X57011083Y-40204845D01*
X57011083Y-41460833D01*
X56460750Y-41460833D01*
X56460431Y-40833771D01*
X56460112Y-40206708D01*
X55780451Y-39640500D01*
X55653599Y-39534793D01*
X55541971Y-39441614D01*
X55444525Y-39359949D01*
X55360220Y-39288785D01*
X55288012Y-39227106D01*
X55226859Y-39173900D01*
X55175719Y-39128151D01*
X55133548Y-39088846D01*
X55099305Y-39054971D01*
X55071947Y-39025511D01*
X55050432Y-38999452D01*
X55033716Y-38975781D01*
X55020758Y-38953483D01*
X55010515Y-38931544D01*
X55001944Y-38908950D01*
X54994003Y-38884687D01*
X54989906Y-38871493D01*
X54985597Y-38856824D01*
X54981908Y-38841705D01*
X54978791Y-38824452D01*
X54976197Y-38803380D01*
X54974080Y-38776805D01*
X54972389Y-38743043D01*
X54971079Y-38700410D01*
X54970100Y-38647221D01*
X54969405Y-38581792D01*
X54968946Y-38502439D01*
X54968674Y-38407477D01*
X54968542Y-38295222D01*
X54968501Y-38163991D01*
X54968500Y-38120677D01*
X54968500Y-37439167D01*
X55518833Y-37439167D01*
X55518833Y-38694425D01*
G37*
X55518833Y-38694425D02*
X56123323Y-39196567D01*
X56221169Y-39277732D01*
X56314378Y-39354830D01*
X56401659Y-39426808D01*
X56481722Y-39492610D01*
X56553276Y-39551183D01*
X56615029Y-39601473D01*
X56665691Y-39642424D01*
X56703971Y-39672983D01*
X56728577Y-39692096D01*
X56738218Y-39698708D01*
X56738220Y-39698708D01*
X56747840Y-39692093D01*
X56772403Y-39672952D01*
X56810620Y-39642342D01*
X56861199Y-39601322D01*
X56922851Y-39550947D01*
X56994286Y-39492275D01*
X57074212Y-39426363D01*
X57161341Y-39354268D01*
X57254381Y-39277048D01*
X57351350Y-39196337D01*
X57954074Y-38693966D01*
X57946574Y-38066566D01*
X57939074Y-37439167D01*
X58503333Y-37439167D01*
X58503176Y-38103271D01*
X58503109Y-38246408D01*
X58502894Y-38370085D01*
X58502404Y-38476006D01*
X58501510Y-38565879D01*
X58500083Y-38641408D01*
X58497997Y-38704299D01*
X58495122Y-38756258D01*
X58491331Y-38798992D01*
X58486496Y-38834205D01*
X58480487Y-38863604D01*
X58473178Y-38888894D01*
X58464441Y-38911782D01*
X58454146Y-38933972D01*
X58442166Y-38957172D01*
X58438519Y-38964029D01*
X58412793Y-39005954D01*
X58381551Y-39048278D01*
X58361874Y-39070847D01*
X58346903Y-39084731D01*
X58316972Y-39111006D01*
X58273410Y-39148547D01*
X58217547Y-39196231D01*
X58150713Y-39252932D01*
X58074236Y-39317526D01*
X57989447Y-39388889D01*
X57897675Y-39465895D01*
X57800249Y-39547422D01*
X57698499Y-39632343D01*
X57664422Y-39660735D01*
X57011083Y-40204845D01*
X57011083Y-41460833D01*
X56460750Y-41460833D01*
X56460431Y-40833771D01*
X56460112Y-40206708D01*
X55780451Y-39640500D01*
X55653599Y-39534793D01*
X55541971Y-39441614D01*
X55444525Y-39359949D01*
X55360220Y-39288785D01*
X55288012Y-39227106D01*
X55226859Y-39173900D01*
X55175719Y-39128151D01*
X55133548Y-39088846D01*
X55099305Y-39054971D01*
X55071947Y-39025511D01*
X55050432Y-38999452D01*
X55033716Y-38975781D01*
X55020758Y-38953483D01*
X55010515Y-38931544D01*
X55001944Y-38908950D01*
X54994003Y-38884687D01*
X54989906Y-38871493D01*
X54985597Y-38856824D01*
X54981908Y-38841705D01*
X54978791Y-38824452D01*
X54976197Y-38803380D01*
X54974080Y-38776805D01*
X54972389Y-38743043D01*
X54971079Y-38700410D01*
X54970100Y-38647221D01*
X54969405Y-38581792D01*
X54968946Y-38502439D01*
X54968674Y-38407477D01*
X54968542Y-38295222D01*
X54968501Y-38163991D01*
X54968500Y-38120677D01*
X54968500Y-37439167D01*
X55518833Y-37439167D01*
X55518833Y-38694425D01*
D13*
X45670000Y-26082000D02*
X46570000Y-26082000D01*
X45670000Y-26622000D02*
X46570000Y-26622000D01*
X45670000Y-29900000D02*
X45670000Y-25590000D01*
X45673000Y-27106000D02*
X46573000Y-27106000D01*
X45670000Y-25590000D02*
X47070000Y-25590000D01*
X47070000Y-25590000D02*
X47070000Y-29860000D01*
X47491831Y-30590000D02*
G75*
G03*
X47491831Y-30590000I-1121831J0D01*
G01*
G36*
X47406000Y-30164000D02*
G01*
X47379000Y-31049000D01*
X46875000Y-31560000D01*
X46351000Y-31675000D01*
X46370000Y-30132095D01*
X46814000Y-29578500D01*
X47406000Y-30164000D01*
G37*
D14*
X47406000Y-30164000D02*
X47379000Y-31049000D01*
X46875000Y-31560000D01*
X46351000Y-31675000D01*
X46370000Y-30132095D01*
X46814000Y-29578500D01*
X47406000Y-30164000D01*
G36*
X47036750Y-27939250D02*
G01*
X47025500Y-30482500D01*
X45683000Y-30420000D01*
X45673250Y-27938750D01*
X47036750Y-27939250D01*
G37*
X47036750Y-27939250D02*
X47025500Y-30482500D01*
X45683000Y-30420000D01*
X45673250Y-27938750D01*
X47036750Y-27939250D01*
G36*
X46330000Y-31716000D02*
G01*
X45874000Y-31546000D01*
X45377000Y-31090000D01*
X45316000Y-30375000D01*
X45582000Y-29844000D01*
X46303000Y-29490000D01*
X46330000Y-31716000D01*
G37*
X46330000Y-31716000D02*
X45874000Y-31546000D01*
X45377000Y-31090000D01*
X45316000Y-30375000D01*
X45582000Y-29844000D01*
X46303000Y-29490000D01*
X46330000Y-31716000D01*
D13*
X57890000Y-29950000D02*
X57415000Y-29950000D01*
X57890000Y-34170000D02*
X57415000Y-34170000D01*
X53670000Y-29950000D02*
X54145000Y-29950000D01*
X53670000Y-30425000D02*
X53670000Y-29950000D01*
X57890000Y-33695000D02*
X57890000Y-34170000D01*
X57890000Y-30425000D02*
X57890000Y-29950000D01*
X53670000Y-33695000D02*
X53670000Y-34170000D01*
M02*
