G04 #@! TF.GenerationSoftware,KiCad,Pcbnew,6.0.9-8da3e8f707~117~ubuntu20.04.1*
G04 #@! TF.CreationDate,2022-12-15T16:30:04+01:00*
G04 #@! TF.ProjectId,picsyle-R_temperature_915,70696373-796c-4652-9d52-5f74656d7065,rev?*
G04 #@! TF.SameCoordinates,Original*
G04 #@! TF.FileFunction,Other,User*
%FSLAX46Y46*%
G04 Gerber Fmt 4.6, Leading zero omitted, Abs format (unit mm)*
G04 Created by KiCad (PCBNEW 6.0.9-8da3e8f707~117~ubuntu20.04.1) date 2022-12-15 16:30:04*
%MOMM*%
%LPD*%
G01*
G04 APERTURE LIST*
%ADD10C,0.150000*%
G04 APERTURE END LIST*
D10*
X153522380Y-81486666D02*
X153522380Y-80867619D01*
X153903333Y-81200952D01*
X153903333Y-81058095D01*
X153950952Y-80962857D01*
X153998571Y-80915238D01*
X154093809Y-80867619D01*
X154331904Y-80867619D01*
X154427142Y-80915238D01*
X154474761Y-80962857D01*
X154522380Y-81058095D01*
X154522380Y-81343809D01*
X154474761Y-81439047D01*
X154427142Y-81486666D01*
X153522380Y-79962857D02*
X153522380Y-80439047D01*
X153998571Y-80486666D01*
X153950952Y-80439047D01*
X153903333Y-80343809D01*
X153903333Y-80105714D01*
X153950952Y-80010476D01*
X153998571Y-79962857D01*
X154093809Y-79915238D01*
X154331904Y-79915238D01*
X154427142Y-79962857D01*
X154474761Y-80010476D01*
X154522380Y-80105714D01*
X154522380Y-80343809D01*
X154474761Y-80439047D01*
X154427142Y-80486666D01*
X154474761Y-79439047D02*
X154522380Y-79439047D01*
X154617619Y-79486666D01*
X154665238Y-79534285D01*
X153522380Y-78820000D02*
X153522380Y-78724761D01*
X153570000Y-78629523D01*
X153617619Y-78581904D01*
X153712857Y-78534285D01*
X153903333Y-78486666D01*
X154141428Y-78486666D01*
X154331904Y-78534285D01*
X154427142Y-78581904D01*
X154474761Y-78629523D01*
X154522380Y-78724761D01*
X154522380Y-78820000D01*
X154474761Y-78915238D01*
X154427142Y-78962857D01*
X154331904Y-79010476D01*
X154141428Y-79058095D01*
X153903333Y-79058095D01*
X153712857Y-79010476D01*
X153617619Y-78962857D01*
X153570000Y-78915238D01*
X153522380Y-78820000D01*
X153522380Y-77867619D02*
X153522380Y-77772380D01*
X153570000Y-77677142D01*
X153617619Y-77629523D01*
X153712857Y-77581904D01*
X153903333Y-77534285D01*
X154141428Y-77534285D01*
X154331904Y-77581904D01*
X154427142Y-77629523D01*
X154474761Y-77677142D01*
X154522380Y-77772380D01*
X154522380Y-77867619D01*
X154474761Y-77962857D01*
X154427142Y-78010476D01*
X154331904Y-78058095D01*
X154141428Y-78105714D01*
X153903333Y-78105714D01*
X153712857Y-78058095D01*
X153617619Y-78010476D01*
X153570000Y-77962857D01*
X153522380Y-77867619D01*
X153522380Y-76915238D02*
X153522380Y-76820000D01*
X153570000Y-76724761D01*
X153617619Y-76677142D01*
X153712857Y-76629523D01*
X153903333Y-76581904D01*
X154141428Y-76581904D01*
X154331904Y-76629523D01*
X154427142Y-76677142D01*
X154474761Y-76724761D01*
X154522380Y-76820000D01*
X154522380Y-76915238D01*
X154474761Y-77010476D01*
X154427142Y-77058095D01*
X154331904Y-77105714D01*
X154141428Y-77153333D01*
X153903333Y-77153333D01*
X153712857Y-77105714D01*
X153617619Y-77058095D01*
X153570000Y-77010476D01*
X153522380Y-76915238D01*
X153522380Y-75962857D02*
X153522380Y-75867619D01*
X153570000Y-75772380D01*
X153617619Y-75724761D01*
X153712857Y-75677142D01*
X153903333Y-75629523D01*
X154141428Y-75629523D01*
X154331904Y-75677142D01*
X154427142Y-75724761D01*
X154474761Y-75772380D01*
X154522380Y-75867619D01*
X154522380Y-75962857D01*
X154474761Y-76058095D01*
X154427142Y-76105714D01*
X154331904Y-76153333D01*
X154141428Y-76200952D01*
X153903333Y-76200952D01*
X153712857Y-76153333D01*
X153617619Y-76105714D01*
X153570000Y-76058095D01*
X153522380Y-75962857D01*
X154522380Y-74439047D02*
X153855714Y-74439047D01*
X153950952Y-74439047D02*
X153903333Y-74391428D01*
X153855714Y-74296190D01*
X153855714Y-74153333D01*
X153903333Y-74058095D01*
X153998571Y-74010476D01*
X154522380Y-74010476D01*
X153998571Y-74010476D02*
X153903333Y-73962857D01*
X153855714Y-73867619D01*
X153855714Y-73724761D01*
X153903333Y-73629523D01*
X153998571Y-73581904D01*
X154522380Y-73581904D01*
X154522380Y-73105714D02*
X153855714Y-73105714D01*
X153950952Y-73105714D02*
X153903333Y-73058095D01*
X153855714Y-72962857D01*
X153855714Y-72820000D01*
X153903333Y-72724761D01*
X153998571Y-72677142D01*
X154522380Y-72677142D01*
X153998571Y-72677142D02*
X153903333Y-72629523D01*
X153855714Y-72534285D01*
X153855714Y-72391428D01*
X153903333Y-72296190D01*
X153998571Y-72248571D01*
X154522380Y-72248571D01*
X153580000Y-59320000D02*
X155806420Y-59320000D01*
X153580000Y-94320000D02*
X155806420Y-94320000D01*
X155220000Y-59320000D02*
X155220000Y-94320000D01*
X155220000Y-59320000D02*
X155220000Y-94320000D01*
X155220000Y-59320000D02*
X154633579Y-60446504D01*
X155220000Y-59320000D02*
X155806421Y-60446504D01*
X155220000Y-94320000D02*
X155806421Y-93193496D01*
X155220000Y-94320000D02*
X154633579Y-93193496D01*
X108651428Y-95150952D02*
X108556190Y-95103333D01*
X108508571Y-95055714D01*
X108460952Y-94960476D01*
X108460952Y-94912857D01*
X108508571Y-94817619D01*
X108556190Y-94770000D01*
X108651428Y-94722380D01*
X108841904Y-94722380D01*
X108937142Y-94770000D01*
X108984761Y-94817619D01*
X109032380Y-94912857D01*
X109032380Y-94960476D01*
X108984761Y-95055714D01*
X108937142Y-95103333D01*
X108841904Y-95150952D01*
X108651428Y-95150952D01*
X108556190Y-95198571D01*
X108508571Y-95246190D01*
X108460952Y-95341428D01*
X108460952Y-95531904D01*
X108508571Y-95627142D01*
X108556190Y-95674761D01*
X108651428Y-95722380D01*
X108841904Y-95722380D01*
X108937142Y-95674761D01*
X108984761Y-95627142D01*
X109032380Y-95531904D01*
X109032380Y-95341428D01*
X108984761Y-95246190D01*
X108937142Y-95198571D01*
X108841904Y-95150952D01*
X109651428Y-94722380D02*
X109746666Y-94722380D01*
X109841904Y-94770000D01*
X109889523Y-94817619D01*
X109937142Y-94912857D01*
X109984761Y-95103333D01*
X109984761Y-95341428D01*
X109937142Y-95531904D01*
X109889523Y-95627142D01*
X109841904Y-95674761D01*
X109746666Y-95722380D01*
X109651428Y-95722380D01*
X109556190Y-95674761D01*
X109508571Y-95627142D01*
X109460952Y-95531904D01*
X109413333Y-95341428D01*
X109413333Y-95103333D01*
X109460952Y-94912857D01*
X109508571Y-94817619D01*
X109556190Y-94770000D01*
X109651428Y-94722380D01*
X110460952Y-95674761D02*
X110460952Y-95722380D01*
X110413333Y-95817619D01*
X110365714Y-95865238D01*
X111080000Y-94722380D02*
X111175238Y-94722380D01*
X111270476Y-94770000D01*
X111318095Y-94817619D01*
X111365714Y-94912857D01*
X111413333Y-95103333D01*
X111413333Y-95341428D01*
X111365714Y-95531904D01*
X111318095Y-95627142D01*
X111270476Y-95674761D01*
X111175238Y-95722380D01*
X111080000Y-95722380D01*
X110984761Y-95674761D01*
X110937142Y-95627142D01*
X110889523Y-95531904D01*
X110841904Y-95341428D01*
X110841904Y-95103333D01*
X110889523Y-94912857D01*
X110937142Y-94817619D01*
X110984761Y-94770000D01*
X111080000Y-94722380D01*
X112032380Y-94722380D02*
X112127619Y-94722380D01*
X112222857Y-94770000D01*
X112270476Y-94817619D01*
X112318095Y-94912857D01*
X112365714Y-95103333D01*
X112365714Y-95341428D01*
X112318095Y-95531904D01*
X112270476Y-95627142D01*
X112222857Y-95674761D01*
X112127619Y-95722380D01*
X112032380Y-95722380D01*
X111937142Y-95674761D01*
X111889523Y-95627142D01*
X111841904Y-95531904D01*
X111794285Y-95341428D01*
X111794285Y-95103333D01*
X111841904Y-94912857D01*
X111889523Y-94817619D01*
X111937142Y-94770000D01*
X112032380Y-94722380D01*
X112984761Y-94722380D02*
X113080000Y-94722380D01*
X113175238Y-94770000D01*
X113222857Y-94817619D01*
X113270476Y-94912857D01*
X113318095Y-95103333D01*
X113318095Y-95341428D01*
X113270476Y-95531904D01*
X113222857Y-95627142D01*
X113175238Y-95674761D01*
X113080000Y-95722380D01*
X112984761Y-95722380D01*
X112889523Y-95674761D01*
X112841904Y-95627142D01*
X112794285Y-95531904D01*
X112746666Y-95341428D01*
X112746666Y-95103333D01*
X112794285Y-94912857D01*
X112841904Y-94817619D01*
X112889523Y-94770000D01*
X112984761Y-94722380D01*
X113937142Y-94722380D02*
X114032380Y-94722380D01*
X114127619Y-94770000D01*
X114175238Y-94817619D01*
X114222857Y-94912857D01*
X114270476Y-95103333D01*
X114270476Y-95341428D01*
X114222857Y-95531904D01*
X114175238Y-95627142D01*
X114127619Y-95674761D01*
X114032380Y-95722380D01*
X113937142Y-95722380D01*
X113841904Y-95674761D01*
X113794285Y-95627142D01*
X113746666Y-95531904D01*
X113699047Y-95341428D01*
X113699047Y-95103333D01*
X113746666Y-94912857D01*
X113794285Y-94817619D01*
X113841904Y-94770000D01*
X113937142Y-94722380D01*
X115460952Y-95722380D02*
X115460952Y-95055714D01*
X115460952Y-95150952D02*
X115508571Y-95103333D01*
X115603809Y-95055714D01*
X115746666Y-95055714D01*
X115841904Y-95103333D01*
X115889523Y-95198571D01*
X115889523Y-95722380D01*
X115889523Y-95198571D02*
X115937142Y-95103333D01*
X116032380Y-95055714D01*
X116175238Y-95055714D01*
X116270476Y-95103333D01*
X116318095Y-95198571D01*
X116318095Y-95722380D01*
X116794285Y-95722380D02*
X116794285Y-95055714D01*
X116794285Y-95150952D02*
X116841904Y-95103333D01*
X116937142Y-95055714D01*
X117080000Y-95055714D01*
X117175238Y-95103333D01*
X117222857Y-95198571D01*
X117222857Y-95722380D01*
X117222857Y-95198571D02*
X117270476Y-95103333D01*
X117365714Y-95055714D01*
X117508571Y-95055714D01*
X117603809Y-95103333D01*
X117651428Y-95198571D01*
X117651428Y-95722380D01*
X153080000Y-94820000D02*
X153080000Y-97006420D01*
X73080000Y-94820000D02*
X73080000Y-97006420D01*
X153080000Y-96420000D02*
X73080000Y-96420000D01*
X153080000Y-96420000D02*
X73080000Y-96420000D01*
X153080000Y-96420000D02*
X151953496Y-95833579D01*
X153080000Y-96420000D02*
X151953496Y-97006421D01*
X73080000Y-96420000D02*
X74206504Y-97006421D01*
X73080000Y-96420000D02*
X74206504Y-95833579D01*
M02*
