G04 #@! TF.GenerationSoftware,KiCad,Pcbnew,6.0.9-8da3e8f707~117~ubuntu20.04.1*
G04 #@! TF.CreationDate,2022-12-15T16:30:04+01:00*
G04 #@! TF.ProjectId,picsyle-R_temperature_915,70696373-796c-4652-9d52-5f74656d7065,rev?*
G04 #@! TF.SameCoordinates,Original*
G04 #@! TF.FileFunction,Soldermask,Top*
G04 #@! TF.FilePolarity,Negative*
%FSLAX46Y46*%
G04 Gerber Fmt 4.6, Leading zero omitted, Abs format (unit mm)*
G04 Created by KiCad (PCBNEW 6.0.9-8da3e8f707~117~ubuntu20.04.1) date 2022-12-15 16:30:04*
%MOMM*%
%LPD*%
G01*
G04 APERTURE LIST*
G04 Aperture macros list*
%AMRoundRect*
0 Rectangle with rounded corners*
0 $1 Rounding radius*
0 $2 $3 $4 $5 $6 $7 $8 $9 X,Y pos of 4 corners*
0 Add a 4 corners polygon primitive as box body*
4,1,4,$2,$3,$4,$5,$6,$7,$8,$9,$2,$3,0*
0 Add four circle primitives for the rounded corners*
1,1,$1+$1,$2,$3*
1,1,$1+$1,$4,$5*
1,1,$1+$1,$6,$7*
1,1,$1+$1,$8,$9*
0 Add four rect primitives between the rounded corners*
20,1,$1+$1,$2,$3,$4,$5,0*
20,1,$1+$1,$4,$5,$6,$7,0*
20,1,$1+$1,$6,$7,$8,$9,0*
20,1,$1+$1,$8,$9,$2,$3,0*%
G04 Aperture macros list end*
%ADD10RoundRect,0.113500X0.062500X-0.350000X0.062500X0.350000X-0.062500X0.350000X-0.062500X-0.350000X0*%
%ADD11RoundRect,0.051000X0.125000X-0.412500X0.125000X0.412500X-0.125000X0.412500X-0.125000X-0.412500X0*%
%ADD12RoundRect,0.113500X0.350000X-0.062500X0.350000X0.062500X-0.350000X0.062500X-0.350000X-0.062500X0*%
%ADD13RoundRect,0.291000X1.010000X-1.010000X1.010000X1.010000X-1.010000X1.010000X-1.010000X-1.010000X0*%
G04 APERTURE END LIST*
D10*
X54530000Y-33997500D03*
X55030000Y-33997500D03*
X55530000Y-33997500D03*
D11*
X56030000Y-33997500D03*
X56530000Y-33997500D03*
D10*
X57030000Y-33997500D03*
D12*
X57717500Y-33310000D03*
X57717500Y-32810000D03*
X57717500Y-32310000D03*
X57717500Y-31810000D03*
X57717500Y-31310000D03*
X57717500Y-30810000D03*
D10*
X57030000Y-30122500D03*
X56530000Y-30122500D03*
X56030000Y-30122500D03*
X55530000Y-30122500D03*
X55030000Y-30122500D03*
X54530000Y-30122500D03*
D12*
X53842500Y-30810000D03*
X53842500Y-31310000D03*
X53842500Y-31810000D03*
X53842500Y-32310000D03*
X53842500Y-32810000D03*
X53842500Y-33310000D03*
D13*
X55780000Y-32060000D03*
G36*
X56955366Y-33308486D02*
G01*
X56956178Y-33310314D01*
X56955603Y-33311517D01*
X56948958Y-33318162D01*
X56950014Y-33319218D01*
X56950532Y-33321150D01*
X56949973Y-33322086D01*
X56923546Y-33347051D01*
X56906905Y-33414279D01*
X56929253Y-33479833D01*
X56983573Y-33522960D01*
X57030087Y-33532037D01*
X57031596Y-33533350D01*
X57031212Y-33535313D01*
X57029704Y-33536000D01*
X56967699Y-33536000D01*
X56924844Y-33544525D01*
X56888685Y-33568685D01*
X56864525Y-33604844D01*
X56856000Y-33647699D01*
X56856000Y-34347301D01*
X56864525Y-34390156D01*
X56885418Y-34421425D01*
X56885549Y-34423421D01*
X56883886Y-34424532D01*
X56882644Y-34424199D01*
X56868854Y-34414985D01*
X56868552Y-34415437D01*
X56866758Y-34416322D01*
X56865607Y-34415861D01*
X56844322Y-34398074D01*
X56775605Y-34389444D01*
X56712976Y-34419410D01*
X56703793Y-34430009D01*
X56701903Y-34430663D01*
X56700391Y-34429353D01*
X56700319Y-34428309D01*
X56704000Y-34409801D01*
X56704000Y-33585199D01*
X56700233Y-33566262D01*
X56689620Y-33550380D01*
X56673738Y-33539767D01*
X56654801Y-33536000D01*
X56405199Y-33536000D01*
X56386262Y-33539767D01*
X56370380Y-33550380D01*
X56359767Y-33566262D01*
X56356000Y-33585199D01*
X56356000Y-34409801D01*
X56359767Y-34428738D01*
X56367114Y-34439733D01*
X56367245Y-34441729D01*
X56365582Y-34442840D01*
X56364340Y-34442507D01*
X56350548Y-34433291D01*
X56349385Y-34435031D01*
X56347591Y-34435916D01*
X56346440Y-34435455D01*
X56329048Y-34420922D01*
X56260330Y-34412296D01*
X56212712Y-34435082D01*
X56210718Y-34434928D01*
X56210186Y-34434389D01*
X56209452Y-34433291D01*
X56195660Y-34442507D01*
X56193664Y-34442638D01*
X56192553Y-34440975D01*
X56192886Y-34439733D01*
X56200233Y-34428738D01*
X56204000Y-34409801D01*
X56204000Y-33585199D01*
X56200233Y-33566262D01*
X56189620Y-33550380D01*
X56173738Y-33539767D01*
X56154801Y-33536000D01*
X55905199Y-33536000D01*
X55886262Y-33539767D01*
X55870380Y-33550380D01*
X55859767Y-33566262D01*
X55856000Y-33585199D01*
X55856000Y-34409801D01*
X55859767Y-34428737D01*
X55863786Y-34434752D01*
X55863917Y-34436747D01*
X55862254Y-34437859D01*
X55860840Y-34437398D01*
X55813784Y-34398074D01*
X55745068Y-34389444D01*
X55692840Y-34414432D01*
X55692064Y-34414372D01*
X55689906Y-34415814D01*
X55689658Y-34415955D01*
X55682439Y-34419408D01*
X55679745Y-34422518D01*
X55679344Y-34422871D01*
X55677356Y-34424199D01*
X55675360Y-34424330D01*
X55674249Y-34422667D01*
X55674582Y-34421425D01*
X55695475Y-34390156D01*
X55704000Y-34347301D01*
X55704000Y-33647699D01*
X55695475Y-33604844D01*
X55671315Y-33568685D01*
X55635156Y-33544525D01*
X55592301Y-33536000D01*
X55467699Y-33536000D01*
X55424844Y-33544525D01*
X55393573Y-33565419D01*
X55391577Y-33565550D01*
X55390466Y-33563887D01*
X55390799Y-33562645D01*
X55396192Y-33554573D01*
X55416978Y-33488191D01*
X55398654Y-33421401D01*
X55347080Y-33375076D01*
X55293640Y-33362950D01*
X55292173Y-33361592D01*
X55292615Y-33359642D01*
X55294083Y-33359000D01*
X56789886Y-33359000D01*
X56856902Y-33351128D01*
X56953377Y-33308275D01*
X56955366Y-33308486D01*
G37*
G36*
X55183893Y-33580454D02*
G01*
X55230945Y-33619776D01*
X55299660Y-33628409D01*
X55362290Y-33598444D01*
X55369801Y-33589776D01*
X55371691Y-33589122D01*
X55373202Y-33590432D01*
X55372975Y-33592197D01*
X55364525Y-33604844D01*
X55356000Y-33647699D01*
X55356000Y-34347301D01*
X55364525Y-34390156D01*
X55379052Y-34411898D01*
X55379183Y-34413894D01*
X55377520Y-34415005D01*
X55376106Y-34414544D01*
X55329055Y-34375223D01*
X55260339Y-34366592D01*
X55197709Y-34396556D01*
X55190202Y-34405219D01*
X55188312Y-34405873D01*
X55186801Y-34404563D01*
X55187028Y-34402798D01*
X55195475Y-34390156D01*
X55204000Y-34347301D01*
X55204000Y-33647699D01*
X55195475Y-33604844D01*
X55180947Y-33583100D01*
X55180816Y-33581104D01*
X55182479Y-33579993D01*
X55183893Y-33580454D01*
G37*
G36*
X54683894Y-33580456D02*
G01*
X54730944Y-33619776D01*
X54799660Y-33628409D01*
X54862289Y-33598446D01*
X54869798Y-33589779D01*
X54871688Y-33589125D01*
X54873200Y-33590435D01*
X54872973Y-33592200D01*
X54864525Y-33604844D01*
X54856000Y-33647699D01*
X54856000Y-34347301D01*
X54864525Y-34390156D01*
X54879052Y-34411898D01*
X54879183Y-34413894D01*
X54877520Y-34415005D01*
X54876106Y-34414544D01*
X54829055Y-34375223D01*
X54760339Y-34366592D01*
X54697709Y-34396556D01*
X54690202Y-34405219D01*
X54688312Y-34405873D01*
X54686801Y-34404563D01*
X54687028Y-34402798D01*
X54695475Y-34390156D01*
X54704000Y-34347301D01*
X54704000Y-33647699D01*
X54695475Y-33604844D01*
X54680948Y-33583102D01*
X54680817Y-33581106D01*
X54682480Y-33579995D01*
X54683894Y-33580456D01*
G37*
G36*
X55267649Y-33360000D02*
G01*
X55267649Y-33362000D01*
X55266480Y-33362919D01*
X55199465Y-33382596D01*
X55154110Y-33434939D01*
X55144244Y-33503558D01*
X55163773Y-33554521D01*
X55169201Y-33562645D01*
X55169332Y-33564641D01*
X55167669Y-33565752D01*
X55166427Y-33565419D01*
X55135156Y-33544525D01*
X55092301Y-33536000D01*
X54967699Y-33536000D01*
X54924844Y-33544525D01*
X54893573Y-33565419D01*
X54891577Y-33565550D01*
X54890466Y-33563887D01*
X54890799Y-33562645D01*
X54896192Y-33554573D01*
X54916978Y-33488191D01*
X54898654Y-33421401D01*
X54847080Y-33375076D01*
X54793640Y-33362950D01*
X54792173Y-33361592D01*
X54792615Y-33359642D01*
X54794083Y-33359000D01*
X55265917Y-33359000D01*
X55267649Y-33360000D01*
G37*
G36*
X54606800Y-33308454D02*
G01*
X54703586Y-33351243D01*
X54770232Y-33359013D01*
X54771836Y-33360207D01*
X54772000Y-33361000D01*
X54772000Y-33363752D01*
X54771000Y-33365484D01*
X54770256Y-33365735D01*
X54715972Y-33372753D01*
X54662989Y-33417357D01*
X54642538Y-33483509D01*
X54663332Y-33553863D01*
X54669199Y-33562643D01*
X54669330Y-33564639D01*
X54667667Y-33565750D01*
X54666425Y-33565417D01*
X54635156Y-33544525D01*
X54592301Y-33536000D01*
X54530295Y-33536000D01*
X54528563Y-33535000D01*
X54528563Y-33533000D01*
X54529732Y-33532081D01*
X54596746Y-33512403D01*
X54642101Y-33460060D01*
X54651956Y-33391506D01*
X54623143Y-33328417D01*
X54612380Y-33319995D01*
X54612046Y-33319166D01*
X54604577Y-33311697D01*
X54604059Y-33309765D01*
X54605473Y-33308351D01*
X54606800Y-33308454D01*
G37*
G36*
X54480732Y-33068999D02*
G01*
X54480939Y-33069772D01*
X54480986Y-33069767D01*
X54488872Y-33136902D01*
X54531725Y-33233377D01*
X54531514Y-33235366D01*
X54529686Y-33236178D01*
X54528483Y-33235603D01*
X54521838Y-33228958D01*
X54520782Y-33230014D01*
X54518850Y-33230532D01*
X54517914Y-33229973D01*
X54492949Y-33203546D01*
X54425721Y-33186905D01*
X54360167Y-33209253D01*
X54317040Y-33263573D01*
X54307963Y-33310087D01*
X54306650Y-33311596D01*
X54304687Y-33311212D01*
X54304000Y-33309704D01*
X54304000Y-33247699D01*
X54295475Y-33204844D01*
X54274582Y-33173575D01*
X54274451Y-33171579D01*
X54276114Y-33170468D01*
X54277356Y-33170801D01*
X54286150Y-33176676D01*
X54352532Y-33197462D01*
X54419322Y-33179138D01*
X54465591Y-33127629D01*
X54474027Y-33069711D01*
X54475266Y-33068141D01*
X54476006Y-33067999D01*
X54479000Y-33067999D01*
X54480732Y-33068999D01*
G37*
G36*
X57085484Y-33069000D02*
G01*
X57085735Y-33069744D01*
X57092753Y-33124028D01*
X57137357Y-33177011D01*
X57203509Y-33197462D01*
X57273863Y-33176668D01*
X57282643Y-33170801D01*
X57284639Y-33170670D01*
X57285750Y-33172333D01*
X57285417Y-33173575D01*
X57264525Y-33204844D01*
X57256000Y-33247699D01*
X57256000Y-33309705D01*
X57255000Y-33311437D01*
X57253000Y-33311437D01*
X57252081Y-33310268D01*
X57232403Y-33243254D01*
X57180060Y-33197899D01*
X57111506Y-33188044D01*
X57048417Y-33216857D01*
X57039995Y-33227620D01*
X57039166Y-33227954D01*
X57031697Y-33235423D01*
X57029765Y-33235941D01*
X57028351Y-33234527D01*
X57028454Y-33233200D01*
X57071243Y-33136414D01*
X57079013Y-33069768D01*
X57080207Y-33068164D01*
X57081000Y-33068000D01*
X57083752Y-33068000D01*
X57085484Y-33069000D01*
G37*
G36*
X58135005Y-32962480D02*
G01*
X58134544Y-32963894D01*
X58095223Y-33010945D01*
X58086592Y-33079661D01*
X58116556Y-33142291D01*
X58125219Y-33149798D01*
X58125873Y-33151688D01*
X58124563Y-33153199D01*
X58122798Y-33152972D01*
X58110156Y-33144525D01*
X58067301Y-33136000D01*
X57367699Y-33136000D01*
X57324844Y-33144525D01*
X57303102Y-33159052D01*
X57301106Y-33159183D01*
X57299995Y-33157520D01*
X57300456Y-33156106D01*
X57339776Y-33109056D01*
X57348409Y-33040340D01*
X57318446Y-32977711D01*
X57309779Y-32970202D01*
X57309125Y-32968312D01*
X57310435Y-32966800D01*
X57312200Y-32967027D01*
X57324844Y-32975475D01*
X57367699Y-32984000D01*
X58067301Y-32984000D01*
X58110156Y-32975475D01*
X58131898Y-32960948D01*
X58133894Y-32960817D01*
X58135005Y-32962480D01*
G37*
G36*
X54260005Y-32962480D02*
G01*
X54259544Y-32963894D01*
X54220223Y-33010946D01*
X54211592Y-33079661D01*
X54241556Y-33142290D01*
X54250222Y-33149798D01*
X54250876Y-33151688D01*
X54249566Y-33153200D01*
X54247801Y-33152973D01*
X54235156Y-33144525D01*
X54192301Y-33136000D01*
X53492699Y-33136000D01*
X53449844Y-33144525D01*
X53428102Y-33159052D01*
X53426106Y-33159183D01*
X53424995Y-33157520D01*
X53425456Y-33156106D01*
X53464777Y-33109055D01*
X53473408Y-33040339D01*
X53443444Y-32977709D01*
X53434781Y-32970202D01*
X53434127Y-32968312D01*
X53435437Y-32966801D01*
X53437202Y-32967028D01*
X53449844Y-32975475D01*
X53492699Y-32984000D01*
X54192301Y-32984000D01*
X54235156Y-32975475D01*
X54256898Y-32960948D01*
X54258894Y-32960817D01*
X54260005Y-32962480D01*
G37*
G36*
X57082919Y-32573521D02*
G01*
X57102596Y-32640535D01*
X57154939Y-32685890D01*
X57223558Y-32695756D01*
X57274521Y-32676227D01*
X57282645Y-32670799D01*
X57284641Y-32670668D01*
X57285752Y-32672331D01*
X57285419Y-32673573D01*
X57264525Y-32704844D01*
X57256000Y-32747699D01*
X57256000Y-32872301D01*
X57264525Y-32915156D01*
X57285419Y-32946427D01*
X57285550Y-32948423D01*
X57283887Y-32949534D01*
X57282645Y-32949201D01*
X57274573Y-32943808D01*
X57208191Y-32923022D01*
X57141401Y-32941346D01*
X57095076Y-32992920D01*
X57082950Y-33046359D01*
X57081592Y-33047826D01*
X57079642Y-33047384D01*
X57079000Y-33045916D01*
X57079000Y-32574084D01*
X57080000Y-32572352D01*
X57082000Y-32572352D01*
X57082919Y-32573521D01*
G37*
G36*
X54480358Y-32572620D02*
G01*
X54481000Y-32574088D01*
X54481000Y-33045913D01*
X54480000Y-33047645D01*
X54478000Y-33047645D01*
X54477081Y-33046476D01*
X54457405Y-32979464D01*
X54405062Y-32934109D01*
X54336443Y-32924243D01*
X54285479Y-32943772D01*
X54277356Y-32949199D01*
X54275360Y-32949330D01*
X54274249Y-32947667D01*
X54274582Y-32946425D01*
X54295475Y-32915156D01*
X54304000Y-32872301D01*
X54304000Y-32747699D01*
X54295475Y-32704844D01*
X54274582Y-32673575D01*
X54274451Y-32671579D01*
X54276114Y-32670468D01*
X54277356Y-32670801D01*
X54285427Y-32676193D01*
X54351808Y-32696979D01*
X54418598Y-32678656D01*
X54464925Y-32627082D01*
X54477050Y-32573645D01*
X54478408Y-32572178D01*
X54480358Y-32572620D01*
G37*
G36*
X58135005Y-32462480D02*
G01*
X58134544Y-32463894D01*
X58095223Y-32510945D01*
X58086592Y-32579661D01*
X58116556Y-32642291D01*
X58125219Y-32649798D01*
X58125873Y-32651688D01*
X58124563Y-32653199D01*
X58122798Y-32652972D01*
X58110156Y-32644525D01*
X58067301Y-32636000D01*
X57367699Y-32636000D01*
X57324844Y-32644525D01*
X57303100Y-32659053D01*
X57301104Y-32659184D01*
X57299993Y-32657521D01*
X57300454Y-32656107D01*
X57339776Y-32609055D01*
X57348409Y-32540340D01*
X57318444Y-32477710D01*
X57309776Y-32470199D01*
X57309122Y-32468309D01*
X57310432Y-32466798D01*
X57312197Y-32467025D01*
X57324844Y-32475475D01*
X57367699Y-32484000D01*
X58067301Y-32484000D01*
X58110156Y-32475475D01*
X58131898Y-32460948D01*
X58133894Y-32460817D01*
X58135005Y-32462480D01*
G37*
G36*
X54260005Y-32462480D02*
G01*
X54259544Y-32463894D01*
X54220223Y-32510946D01*
X54211592Y-32579661D01*
X54241556Y-32642290D01*
X54250222Y-32649798D01*
X54250876Y-32651688D01*
X54249566Y-32653200D01*
X54247801Y-32652973D01*
X54235156Y-32644525D01*
X54192301Y-32636000D01*
X53492699Y-32636000D01*
X53449844Y-32644525D01*
X53428102Y-32659052D01*
X53426106Y-32659183D01*
X53424995Y-32657520D01*
X53425456Y-32656106D01*
X53464777Y-32609055D01*
X53473408Y-32540339D01*
X53443444Y-32477709D01*
X53434781Y-32470202D01*
X53434127Y-32468312D01*
X53435437Y-32466801D01*
X53437202Y-32467028D01*
X53449844Y-32475475D01*
X53492699Y-32484000D01*
X54192301Y-32484000D01*
X54235156Y-32475475D01*
X54256898Y-32460948D01*
X54258894Y-32460817D01*
X54260005Y-32462480D01*
G37*
G36*
X57082919Y-32073523D02*
G01*
X57102599Y-32140538D01*
X57154943Y-32185892D01*
X57223563Y-32195755D01*
X57274521Y-32176227D01*
X57282645Y-32170799D01*
X57284641Y-32170668D01*
X57285752Y-32172331D01*
X57285419Y-32173573D01*
X57264525Y-32204844D01*
X57256000Y-32247699D01*
X57256000Y-32372301D01*
X57264525Y-32415156D01*
X57285419Y-32446427D01*
X57285550Y-32448423D01*
X57283887Y-32449534D01*
X57282645Y-32449201D01*
X57274573Y-32443808D01*
X57208191Y-32423022D01*
X57141401Y-32441346D01*
X57095076Y-32492920D01*
X57082950Y-32546359D01*
X57081592Y-32547826D01*
X57079642Y-32547384D01*
X57079000Y-32545916D01*
X57079000Y-32074087D01*
X57080000Y-32072355D01*
X57082000Y-32072355D01*
X57082919Y-32073523D01*
G37*
G36*
X54480358Y-32072616D02*
G01*
X54481000Y-32074084D01*
X54481000Y-32545913D01*
X54480000Y-32547645D01*
X54478000Y-32547645D01*
X54477081Y-32546476D01*
X54457405Y-32479464D01*
X54405062Y-32434109D01*
X54336443Y-32424243D01*
X54285479Y-32443772D01*
X54277356Y-32449199D01*
X54275360Y-32449330D01*
X54274249Y-32447667D01*
X54274582Y-32446425D01*
X54295475Y-32415156D01*
X54304000Y-32372301D01*
X54304000Y-32247699D01*
X54295475Y-32204844D01*
X54274582Y-32173575D01*
X54274451Y-32171579D01*
X54276114Y-32170468D01*
X54277356Y-32170801D01*
X54285427Y-32176193D01*
X54351808Y-32196979D01*
X54418598Y-32178656D01*
X54464925Y-32127082D01*
X54477050Y-32073641D01*
X54478408Y-32072174D01*
X54480358Y-32072616D01*
G37*
G36*
X58135005Y-31962480D02*
G01*
X58134544Y-31963894D01*
X58095223Y-32010945D01*
X58086592Y-32079661D01*
X58116556Y-32142291D01*
X58125219Y-32149798D01*
X58125873Y-32151688D01*
X58124563Y-32153199D01*
X58122798Y-32152972D01*
X58110156Y-32144525D01*
X58067301Y-32136000D01*
X57367699Y-32136000D01*
X57324844Y-32144525D01*
X57303100Y-32159053D01*
X57301104Y-32159184D01*
X57299993Y-32157521D01*
X57300454Y-32156107D01*
X57339776Y-32109055D01*
X57348409Y-32040340D01*
X57318444Y-31977710D01*
X57309778Y-31970200D01*
X57309124Y-31968310D01*
X57310434Y-31966799D01*
X57312199Y-31967026D01*
X57324844Y-31975475D01*
X57367699Y-31984000D01*
X58067301Y-31984000D01*
X58110156Y-31975475D01*
X58131898Y-31960948D01*
X58133894Y-31960817D01*
X58135005Y-31962480D01*
G37*
G36*
X54260007Y-31962479D02*
G01*
X54259546Y-31963893D01*
X54220224Y-32010945D01*
X54211591Y-32079660D01*
X54241556Y-32142290D01*
X54250222Y-32149800D01*
X54250876Y-32151690D01*
X54249566Y-32153201D01*
X54247801Y-32152974D01*
X54235156Y-32144525D01*
X54192301Y-32136000D01*
X53492699Y-32136000D01*
X53449844Y-32144525D01*
X53428102Y-32159052D01*
X53426106Y-32159183D01*
X53424995Y-32157520D01*
X53425456Y-32156106D01*
X53464777Y-32109055D01*
X53473408Y-32040339D01*
X53443444Y-31977709D01*
X53434781Y-31970202D01*
X53434127Y-31968312D01*
X53435437Y-31966801D01*
X53437202Y-31967028D01*
X53449844Y-31975475D01*
X53492699Y-31984000D01*
X54192301Y-31984000D01*
X54235156Y-31975475D01*
X54256900Y-31960947D01*
X54258896Y-31960816D01*
X54260007Y-31962479D01*
G37*
G36*
X57082919Y-31573524D02*
G01*
X57102595Y-31640536D01*
X57154938Y-31685891D01*
X57223557Y-31695757D01*
X57274521Y-31676228D01*
X57282644Y-31670801D01*
X57284640Y-31670670D01*
X57285751Y-31672333D01*
X57285418Y-31673575D01*
X57264525Y-31704844D01*
X57256000Y-31747699D01*
X57256000Y-31872301D01*
X57264525Y-31915156D01*
X57285418Y-31946425D01*
X57285549Y-31948421D01*
X57283886Y-31949532D01*
X57282644Y-31949199D01*
X57274573Y-31943807D01*
X57208192Y-31923021D01*
X57141402Y-31941344D01*
X57095075Y-31992918D01*
X57082950Y-32046359D01*
X57081592Y-32047826D01*
X57079642Y-32047384D01*
X57079000Y-32045916D01*
X57079000Y-31574087D01*
X57080000Y-31572355D01*
X57082000Y-31572355D01*
X57082919Y-31573524D01*
G37*
G36*
X54480358Y-31572616D02*
G01*
X54481000Y-31574084D01*
X54481000Y-32045913D01*
X54480000Y-32047645D01*
X54478000Y-32047645D01*
X54477081Y-32046477D01*
X54457401Y-31979462D01*
X54405057Y-31934108D01*
X54336437Y-31924245D01*
X54285479Y-31943773D01*
X54277355Y-31949201D01*
X54275359Y-31949332D01*
X54274248Y-31947669D01*
X54274581Y-31946427D01*
X54295475Y-31915156D01*
X54304000Y-31872301D01*
X54304000Y-31747699D01*
X54295475Y-31704844D01*
X54274581Y-31673573D01*
X54274450Y-31671577D01*
X54276113Y-31670466D01*
X54277355Y-31670799D01*
X54285427Y-31676192D01*
X54351809Y-31696978D01*
X54418599Y-31678654D01*
X54464924Y-31627080D01*
X54477050Y-31573641D01*
X54478408Y-31572174D01*
X54480358Y-31572616D01*
G37*
G36*
X54260007Y-31462479D02*
G01*
X54259546Y-31463893D01*
X54220224Y-31510945D01*
X54211591Y-31579660D01*
X54241556Y-31642290D01*
X54250224Y-31649801D01*
X54250878Y-31651691D01*
X54249568Y-31653202D01*
X54247803Y-31652975D01*
X54235156Y-31644525D01*
X54192301Y-31636000D01*
X53492699Y-31636000D01*
X53449844Y-31644525D01*
X53428102Y-31659052D01*
X53426106Y-31659183D01*
X53424995Y-31657520D01*
X53425456Y-31656106D01*
X53464777Y-31609055D01*
X53473408Y-31540339D01*
X53443444Y-31477709D01*
X53434781Y-31470202D01*
X53434127Y-31468312D01*
X53435437Y-31466801D01*
X53437202Y-31467028D01*
X53449844Y-31475475D01*
X53492699Y-31484000D01*
X54192301Y-31484000D01*
X54235156Y-31475475D01*
X54256900Y-31460947D01*
X54258896Y-31460816D01*
X54260007Y-31462479D01*
G37*
G36*
X58135005Y-31462480D02*
G01*
X58134544Y-31463894D01*
X58095223Y-31510945D01*
X58086592Y-31579661D01*
X58116556Y-31642291D01*
X58125219Y-31649798D01*
X58125873Y-31651688D01*
X58124563Y-31653199D01*
X58122798Y-31652972D01*
X58110156Y-31644525D01*
X58067301Y-31636000D01*
X57367699Y-31636000D01*
X57324844Y-31644525D01*
X57303102Y-31659052D01*
X57301106Y-31659183D01*
X57299995Y-31657520D01*
X57300456Y-31656106D01*
X57339777Y-31609054D01*
X57348408Y-31540339D01*
X57318444Y-31477710D01*
X57309778Y-31470202D01*
X57309124Y-31468312D01*
X57310434Y-31466800D01*
X57312199Y-31467027D01*
X57324844Y-31475475D01*
X57367699Y-31484000D01*
X58067301Y-31484000D01*
X58110156Y-31475475D01*
X58131898Y-31460948D01*
X58133894Y-31460817D01*
X58135005Y-31462480D01*
G37*
G36*
X57082919Y-31073524D02*
G01*
X57102595Y-31140536D01*
X57154938Y-31185891D01*
X57223557Y-31195757D01*
X57274521Y-31176228D01*
X57282644Y-31170801D01*
X57284640Y-31170670D01*
X57285751Y-31172333D01*
X57285418Y-31173575D01*
X57264525Y-31204844D01*
X57256000Y-31247699D01*
X57256000Y-31372301D01*
X57264525Y-31415156D01*
X57285418Y-31446425D01*
X57285549Y-31448421D01*
X57283886Y-31449532D01*
X57282644Y-31449199D01*
X57274573Y-31443807D01*
X57208192Y-31423021D01*
X57141402Y-31441344D01*
X57095075Y-31492918D01*
X57082950Y-31546355D01*
X57081592Y-31547822D01*
X57079642Y-31547380D01*
X57079000Y-31545912D01*
X57079000Y-31074087D01*
X57080000Y-31072355D01*
X57082000Y-31072355D01*
X57082919Y-31073524D01*
G37*
G36*
X54480358Y-31072616D02*
G01*
X54481000Y-31074084D01*
X54481000Y-31545916D01*
X54480000Y-31547648D01*
X54478000Y-31547648D01*
X54477081Y-31546479D01*
X54457404Y-31479465D01*
X54405061Y-31434110D01*
X54336442Y-31424244D01*
X54285479Y-31443773D01*
X54277355Y-31449201D01*
X54275359Y-31449332D01*
X54274248Y-31447669D01*
X54274581Y-31446427D01*
X54295475Y-31415156D01*
X54304000Y-31372301D01*
X54304000Y-31247699D01*
X54295475Y-31204844D01*
X54274581Y-31173573D01*
X54274450Y-31171577D01*
X54276113Y-31170466D01*
X54277355Y-31170799D01*
X54285427Y-31176192D01*
X54351809Y-31196978D01*
X54418599Y-31178654D01*
X54464924Y-31127080D01*
X54477050Y-31073641D01*
X54478408Y-31072174D01*
X54480358Y-31072616D01*
G37*
G36*
X54260005Y-30962480D02*
G01*
X54259544Y-30963894D01*
X54220224Y-31010944D01*
X54211591Y-31079660D01*
X54241554Y-31142289D01*
X54250221Y-31149798D01*
X54250875Y-31151688D01*
X54249565Y-31153200D01*
X54247800Y-31152973D01*
X54235156Y-31144525D01*
X54192301Y-31136000D01*
X53492699Y-31136000D01*
X53449844Y-31144525D01*
X53428102Y-31159052D01*
X53426106Y-31159183D01*
X53424995Y-31157520D01*
X53425456Y-31156106D01*
X53464777Y-31109055D01*
X53473408Y-31040339D01*
X53443444Y-30977709D01*
X53434781Y-30970202D01*
X53434127Y-30968312D01*
X53435437Y-30966801D01*
X53437202Y-30967028D01*
X53449844Y-30975475D01*
X53492699Y-30984000D01*
X54192301Y-30984000D01*
X54235156Y-30975475D01*
X54256898Y-30960948D01*
X54258894Y-30960817D01*
X54260005Y-30962480D01*
G37*
G36*
X58135005Y-30962480D02*
G01*
X58134544Y-30963894D01*
X58095223Y-31010945D01*
X58086592Y-31079661D01*
X58116556Y-31142291D01*
X58125219Y-31149798D01*
X58125873Y-31151688D01*
X58124563Y-31153199D01*
X58122798Y-31152972D01*
X58110156Y-31144525D01*
X58067301Y-31136000D01*
X57367699Y-31136000D01*
X57324844Y-31144525D01*
X57303102Y-31159052D01*
X57301106Y-31159183D01*
X57299995Y-31157520D01*
X57300456Y-31156106D01*
X57339777Y-31109054D01*
X57348408Y-31040339D01*
X57318444Y-30977710D01*
X57309778Y-30970202D01*
X57309124Y-30968312D01*
X57310434Y-30966800D01*
X57312199Y-30967027D01*
X57324844Y-30975475D01*
X57367699Y-30984000D01*
X58067301Y-30984000D01*
X58110156Y-30975475D01*
X58131898Y-30960948D01*
X58133894Y-30960817D01*
X58135005Y-30962480D01*
G37*
G36*
X57255313Y-30808787D02*
G01*
X57256000Y-30810295D01*
X57256000Y-30872301D01*
X57264525Y-30915156D01*
X57285418Y-30946425D01*
X57285549Y-30948421D01*
X57283886Y-30949532D01*
X57282644Y-30949199D01*
X57273850Y-30943324D01*
X57207468Y-30922538D01*
X57140678Y-30940862D01*
X57094409Y-30992371D01*
X57085973Y-31050289D01*
X57084734Y-31051859D01*
X57083994Y-31052001D01*
X57081000Y-31052001D01*
X57079268Y-31051001D01*
X57079061Y-31050228D01*
X57079014Y-31050233D01*
X57071128Y-30983098D01*
X57028275Y-30886623D01*
X57028486Y-30884634D01*
X57030314Y-30883822D01*
X57031517Y-30884397D01*
X57038162Y-30891042D01*
X57039218Y-30889986D01*
X57041150Y-30889468D01*
X57042086Y-30890027D01*
X57067051Y-30916454D01*
X57134279Y-30933095D01*
X57199833Y-30910747D01*
X57242960Y-30856427D01*
X57252037Y-30809912D01*
X57253350Y-30808403D01*
X57255313Y-30808787D01*
G37*
G36*
X54307919Y-30809732D02*
G01*
X54327597Y-30876746D01*
X54379940Y-30922101D01*
X54448494Y-30931956D01*
X54511583Y-30903143D01*
X54520005Y-30892380D01*
X54520834Y-30892046D01*
X54528303Y-30884577D01*
X54530235Y-30884059D01*
X54531649Y-30885473D01*
X54531546Y-30886800D01*
X54488757Y-30983586D01*
X54480987Y-31050232D01*
X54479793Y-31051836D01*
X54479000Y-31052000D01*
X54476248Y-31052000D01*
X54474516Y-31051000D01*
X54474265Y-31050256D01*
X54467247Y-30995972D01*
X54422643Y-30942989D01*
X54356491Y-30922538D01*
X54286137Y-30943332D01*
X54277357Y-30949199D01*
X54275361Y-30949330D01*
X54274250Y-30947667D01*
X54274583Y-30946425D01*
X54295475Y-30915156D01*
X54304000Y-30872301D01*
X54304000Y-30810295D01*
X54305000Y-30808563D01*
X54307000Y-30808563D01*
X54307919Y-30809732D01*
G37*
G36*
X54669532Y-30556114D02*
G01*
X54669199Y-30557356D01*
X54663324Y-30566150D01*
X54642538Y-30632532D01*
X54660862Y-30699322D01*
X54712371Y-30745591D01*
X54770289Y-30754027D01*
X54771859Y-30755266D01*
X54772001Y-30756006D01*
X54772001Y-30759000D01*
X54771001Y-30760732D01*
X54770228Y-30760939D01*
X54770233Y-30760986D01*
X54703098Y-30768872D01*
X54606623Y-30811725D01*
X54604634Y-30811514D01*
X54603822Y-30809686D01*
X54604397Y-30808483D01*
X54611042Y-30801838D01*
X54609986Y-30800782D01*
X54609468Y-30798850D01*
X54610027Y-30797914D01*
X54636454Y-30772949D01*
X54653095Y-30705721D01*
X54630747Y-30640167D01*
X54576427Y-30597040D01*
X54529913Y-30587963D01*
X54528404Y-30586650D01*
X54528788Y-30584687D01*
X54530296Y-30584000D01*
X54592301Y-30584000D01*
X54635156Y-30575475D01*
X54666425Y-30554582D01*
X54668421Y-30554451D01*
X54669532Y-30556114D01*
G37*
G36*
X56893575Y-30554583D02*
G01*
X56924844Y-30575475D01*
X56967699Y-30584000D01*
X57029705Y-30584000D01*
X57031437Y-30585000D01*
X57031437Y-30587000D01*
X57030268Y-30587919D01*
X56963254Y-30607597D01*
X56917899Y-30659940D01*
X56908044Y-30728494D01*
X56936857Y-30791583D01*
X56947620Y-30800005D01*
X56947954Y-30800834D01*
X56955423Y-30808303D01*
X56955941Y-30810235D01*
X56954527Y-30811649D01*
X56953200Y-30811546D01*
X56856414Y-30768757D01*
X56789768Y-30760987D01*
X56788164Y-30759793D01*
X56788000Y-30759000D01*
X56788000Y-30756248D01*
X56789000Y-30754516D01*
X56789744Y-30754265D01*
X56844028Y-30747247D01*
X56897011Y-30702643D01*
X56917462Y-30636491D01*
X56896668Y-30566137D01*
X56890801Y-30557357D01*
X56890670Y-30555361D01*
X56892333Y-30554250D01*
X56893575Y-30554583D01*
G37*
G36*
X54893575Y-30554582D02*
G01*
X54924844Y-30575475D01*
X54967699Y-30584000D01*
X55092301Y-30584000D01*
X55135156Y-30575475D01*
X55166425Y-30554582D01*
X55168421Y-30554451D01*
X55169532Y-30556114D01*
X55169199Y-30557356D01*
X55163807Y-30565427D01*
X55143021Y-30631808D01*
X55161344Y-30698598D01*
X55212918Y-30744925D01*
X55266355Y-30757050D01*
X55267822Y-30758408D01*
X55267380Y-30760358D01*
X55265912Y-30761000D01*
X54794087Y-30761000D01*
X54792355Y-30760000D01*
X54792355Y-30758000D01*
X54793524Y-30757081D01*
X54860536Y-30737405D01*
X54905891Y-30685062D01*
X54915757Y-30616443D01*
X54896228Y-30565479D01*
X54890801Y-30557356D01*
X54890670Y-30555360D01*
X54892333Y-30554249D01*
X54893575Y-30554582D01*
G37*
G36*
X56393573Y-30554581D02*
G01*
X56424844Y-30575475D01*
X56467699Y-30584000D01*
X56592301Y-30584000D01*
X56635156Y-30575475D01*
X56666427Y-30554581D01*
X56668423Y-30554450D01*
X56669534Y-30556113D01*
X56669201Y-30557355D01*
X56663808Y-30565427D01*
X56643022Y-30631809D01*
X56661346Y-30698599D01*
X56712920Y-30744924D01*
X56766360Y-30757050D01*
X56767827Y-30758408D01*
X56767385Y-30760358D01*
X56765917Y-30761000D01*
X55794087Y-30761000D01*
X55792355Y-30760000D01*
X55792355Y-30758000D01*
X55793523Y-30757081D01*
X55860538Y-30737401D01*
X55905892Y-30685057D01*
X55915755Y-30616437D01*
X55896227Y-30565479D01*
X55890799Y-30557355D01*
X55890668Y-30555359D01*
X55892331Y-30554248D01*
X55893573Y-30554581D01*
X55924844Y-30575475D01*
X55967699Y-30584000D01*
X56092301Y-30584000D01*
X56135156Y-30575475D01*
X56166427Y-30554581D01*
X56168423Y-30554450D01*
X56169534Y-30556113D01*
X56169201Y-30557355D01*
X56163808Y-30565427D01*
X56143022Y-30631809D01*
X56161346Y-30698599D01*
X56212920Y-30744924D01*
X56266140Y-30757000D01*
X56293796Y-30757000D01*
X56360535Y-30737404D01*
X56405890Y-30685061D01*
X56415756Y-30616442D01*
X56396227Y-30565479D01*
X56390799Y-30557355D01*
X56390668Y-30555359D01*
X56392331Y-30554248D01*
X56393573Y-30554581D01*
G37*
G36*
X55393575Y-30554582D02*
G01*
X55424844Y-30575475D01*
X55467699Y-30584000D01*
X55592301Y-30584000D01*
X55635156Y-30575475D01*
X55666425Y-30554582D01*
X55668421Y-30554451D01*
X55669532Y-30556114D01*
X55669199Y-30557356D01*
X55663807Y-30565427D01*
X55643021Y-30631808D01*
X55661344Y-30698598D01*
X55712918Y-30744925D01*
X55766359Y-30757050D01*
X55767826Y-30758408D01*
X55767384Y-30760358D01*
X55765916Y-30761000D01*
X55294087Y-30761000D01*
X55292355Y-30760000D01*
X55292355Y-30758000D01*
X55293524Y-30757081D01*
X55360536Y-30737405D01*
X55405891Y-30685062D01*
X55415757Y-30616443D01*
X55396228Y-30565479D01*
X55390801Y-30557356D01*
X55390670Y-30555360D01*
X55392333Y-30554249D01*
X55393575Y-30554582D01*
G37*
G36*
X55683894Y-29705456D02*
G01*
X55730945Y-29744777D01*
X55799661Y-29753408D01*
X55862291Y-29723444D01*
X55869798Y-29714781D01*
X55871688Y-29714127D01*
X55873199Y-29715437D01*
X55872972Y-29717202D01*
X55864525Y-29729844D01*
X55856000Y-29772699D01*
X55856000Y-30472301D01*
X55864525Y-30515156D01*
X55879053Y-30536900D01*
X55879184Y-30538896D01*
X55877521Y-30540007D01*
X55876107Y-30539546D01*
X55829055Y-30500224D01*
X55760340Y-30491591D01*
X55697710Y-30521556D01*
X55690200Y-30530222D01*
X55688310Y-30530876D01*
X55686799Y-30529566D01*
X55687026Y-30527801D01*
X55695475Y-30515156D01*
X55704000Y-30472301D01*
X55704000Y-29772699D01*
X55695475Y-29729844D01*
X55680948Y-29708102D01*
X55680817Y-29706106D01*
X55682480Y-29704995D01*
X55683894Y-29705456D01*
G37*
G36*
X56183894Y-29705456D02*
G01*
X56230945Y-29744777D01*
X56299661Y-29753408D01*
X56362291Y-29723444D01*
X56369798Y-29714781D01*
X56371688Y-29714127D01*
X56373199Y-29715437D01*
X56372972Y-29717202D01*
X56364525Y-29729844D01*
X56356000Y-29772699D01*
X56356000Y-30472301D01*
X56364525Y-30515156D01*
X56379053Y-30536900D01*
X56379184Y-30538896D01*
X56377521Y-30540007D01*
X56376107Y-30539546D01*
X56329055Y-30500224D01*
X56260340Y-30491591D01*
X56197710Y-30521556D01*
X56190199Y-30530224D01*
X56188309Y-30530878D01*
X56186798Y-30529568D01*
X56187025Y-30527803D01*
X56195475Y-30515156D01*
X56204000Y-30472301D01*
X56204000Y-29772699D01*
X56195475Y-29729844D01*
X56180948Y-29708102D01*
X56180817Y-29706106D01*
X56182480Y-29704995D01*
X56183894Y-29705456D01*
G37*
G36*
X56683894Y-29705456D02*
G01*
X56730945Y-29744777D01*
X56799661Y-29753408D01*
X56862291Y-29723444D01*
X56869798Y-29714781D01*
X56871688Y-29714127D01*
X56873199Y-29715437D01*
X56872972Y-29717202D01*
X56864525Y-29729844D01*
X56856000Y-29772699D01*
X56856000Y-30472301D01*
X56864525Y-30515156D01*
X56879052Y-30536898D01*
X56879183Y-30538894D01*
X56877520Y-30540005D01*
X56876106Y-30539544D01*
X56829056Y-30500224D01*
X56760340Y-30491591D01*
X56697711Y-30521554D01*
X56690202Y-30530221D01*
X56688312Y-30530875D01*
X56686800Y-30529565D01*
X56687027Y-30527800D01*
X56695475Y-30515156D01*
X56704000Y-30472301D01*
X56704000Y-29772699D01*
X56695475Y-29729844D01*
X56680948Y-29708102D01*
X56680817Y-29706106D01*
X56682480Y-29704995D01*
X56683894Y-29705456D01*
G37*
G36*
X55183894Y-29705456D02*
G01*
X55230945Y-29744777D01*
X55299661Y-29753408D01*
X55362291Y-29723444D01*
X55369798Y-29714781D01*
X55371688Y-29714127D01*
X55373199Y-29715437D01*
X55372972Y-29717202D01*
X55364525Y-29729844D01*
X55356000Y-29772699D01*
X55356000Y-30472301D01*
X55364525Y-30515156D01*
X55379052Y-30536898D01*
X55379183Y-30538894D01*
X55377520Y-30540005D01*
X55376106Y-30539544D01*
X55329054Y-30500223D01*
X55260339Y-30491592D01*
X55197710Y-30521556D01*
X55190202Y-30530222D01*
X55188312Y-30530876D01*
X55186800Y-30529566D01*
X55187027Y-30527801D01*
X55195475Y-30515156D01*
X55204000Y-30472301D01*
X55204000Y-29772699D01*
X55195475Y-29729844D01*
X55180948Y-29708102D01*
X55180817Y-29706106D01*
X55182480Y-29704995D01*
X55183894Y-29705456D01*
G37*
G36*
X54683894Y-29705456D02*
G01*
X54730945Y-29744777D01*
X54799661Y-29753408D01*
X54862291Y-29723444D01*
X54869798Y-29714781D01*
X54871688Y-29714127D01*
X54873199Y-29715437D01*
X54872972Y-29717202D01*
X54864525Y-29729844D01*
X54856000Y-29772699D01*
X54856000Y-30472301D01*
X54864525Y-30515156D01*
X54879052Y-30536898D01*
X54879183Y-30538894D01*
X54877520Y-30540005D01*
X54876106Y-30539544D01*
X54829054Y-30500223D01*
X54760339Y-30491592D01*
X54697710Y-30521556D01*
X54690202Y-30530222D01*
X54688312Y-30530876D01*
X54686800Y-30529566D01*
X54687027Y-30527801D01*
X54695475Y-30515156D01*
X54704000Y-30472301D01*
X54704000Y-29772699D01*
X54695475Y-29729844D01*
X54680948Y-29708102D01*
X54680817Y-29706106D01*
X54682480Y-29704995D01*
X54683894Y-29705456D01*
G37*
M02*
