G04 #@! TF.GenerationSoftware,KiCad,Pcbnew,6.0.9-8da3e8f707~117~ubuntu20.04.1*
G04 #@! TF.CreationDate,2022-12-15T16:30:04+01:00*
G04 #@! TF.ProjectId,picsyle-R_temperature_915,70696373-796c-4652-9d52-5f74656d7065,rev?*
G04 #@! TF.SameCoordinates,Original*
G04 #@! TF.FileFunction,AssemblyDrawing,Top*
%FSLAX46Y46*%
G04 Gerber Fmt 4.6, Leading zero omitted, Abs format (unit mm)*
G04 Created by KiCad (PCBNEW 6.0.9-8da3e8f707~117~ubuntu20.04.1) date 2022-12-15 16:30:04*
%MOMM*%
%LPD*%
G01*
G04 APERTURE LIST*
%ADD10C,0.010000*%
%ADD11C,0.150000*%
%ADD12C,0.100000*%
G04 APERTURE END LIST*
D10*
X93923809Y-20170238D02*
X93923809Y-20070238D01*
X93923809Y-20117857D02*
X93980952Y-20117857D01*
X93980952Y-20170238D02*
X93980952Y-20070238D01*
X94023809Y-20079761D02*
X94028571Y-20075000D01*
X94038095Y-20070238D01*
X94061904Y-20070238D01*
X94071428Y-20075000D01*
X94076190Y-20079761D01*
X94080952Y-20089285D01*
X94080952Y-20098809D01*
X94076190Y-20113095D01*
X94019047Y-20170238D01*
X94080952Y-20170238D01*
X93545238Y-19853571D02*
X93545238Y-19920238D01*
X93502380Y-19853571D02*
X93502380Y-19905952D01*
X93507142Y-19915476D01*
X93516666Y-19920238D01*
X93530952Y-19920238D01*
X93540476Y-19915476D01*
X93545238Y-19910714D01*
X93592857Y-19853571D02*
X93592857Y-19920238D01*
X93592857Y-19863095D02*
X93597619Y-19858333D01*
X93607142Y-19853571D01*
X93621428Y-19853571D01*
X93630952Y-19858333D01*
X93635714Y-19867857D01*
X93635714Y-19920238D01*
X93683333Y-19853571D02*
X93683333Y-19953571D01*
X93683333Y-19858333D02*
X93692857Y-19853571D01*
X93711904Y-19853571D01*
X93721428Y-19858333D01*
X93726190Y-19863095D01*
X93730952Y-19872619D01*
X93730952Y-19901190D01*
X93726190Y-19910714D01*
X93721428Y-19915476D01*
X93711904Y-19920238D01*
X93692857Y-19920238D01*
X93683333Y-19915476D01*
X93788095Y-19920238D02*
X93778571Y-19915476D01*
X93773809Y-19905952D01*
X93773809Y-19820238D01*
X93869047Y-19920238D02*
X93869047Y-19867857D01*
X93864285Y-19858333D01*
X93854761Y-19853571D01*
X93835714Y-19853571D01*
X93826190Y-19858333D01*
X93869047Y-19915476D02*
X93859523Y-19920238D01*
X93835714Y-19920238D01*
X93826190Y-19915476D01*
X93821428Y-19905952D01*
X93821428Y-19896428D01*
X93826190Y-19886904D01*
X93835714Y-19882142D01*
X93859523Y-19882142D01*
X93869047Y-19877380D01*
X93902380Y-19853571D02*
X93940476Y-19853571D01*
X93916666Y-19820238D02*
X93916666Y-19905952D01*
X93921428Y-19915476D01*
X93930952Y-19920238D01*
X93940476Y-19920238D01*
X94011904Y-19915476D02*
X94002380Y-19920238D01*
X93983333Y-19920238D01*
X93973809Y-19915476D01*
X93969047Y-19905952D01*
X93969047Y-19867857D01*
X93973809Y-19858333D01*
X93983333Y-19853571D01*
X94002380Y-19853571D01*
X94011904Y-19858333D01*
X94016666Y-19867857D01*
X94016666Y-19877380D01*
X93969047Y-19886904D01*
X94102380Y-19920238D02*
X94102380Y-19820238D01*
X94102380Y-19915476D02*
X94092857Y-19920238D01*
X94073809Y-19920238D01*
X94064285Y-19915476D01*
X94059523Y-19910714D01*
X94054761Y-19901190D01*
X94054761Y-19872619D01*
X94059523Y-19863095D01*
X94064285Y-19858333D01*
X94073809Y-19853571D01*
X94092857Y-19853571D01*
X94102380Y-19858333D01*
X94126190Y-19929761D02*
X94202380Y-19929761D01*
X94226190Y-19920238D02*
X94226190Y-19820238D01*
X94269047Y-19920238D02*
X94269047Y-19867857D01*
X94264285Y-19858333D01*
X94254761Y-19853571D01*
X94240476Y-19853571D01*
X94230952Y-19858333D01*
X94226190Y-19863095D01*
X94330952Y-19920238D02*
X94321428Y-19915476D01*
X94316666Y-19910714D01*
X94311904Y-19901190D01*
X94311904Y-19872619D01*
X94316666Y-19863095D01*
X94321428Y-19858333D01*
X94330952Y-19853571D01*
X94345238Y-19853571D01*
X94354761Y-19858333D01*
X94359523Y-19863095D01*
X94364285Y-19872619D01*
X94364285Y-19901190D01*
X94359523Y-19910714D01*
X94354761Y-19915476D01*
X94345238Y-19920238D01*
X94330952Y-19920238D01*
X94421428Y-19920238D02*
X94411904Y-19915476D01*
X94407142Y-19905952D01*
X94407142Y-19820238D01*
X94497619Y-19915476D02*
X94488095Y-19920238D01*
X94469047Y-19920238D01*
X94459523Y-19915476D01*
X94454761Y-19905952D01*
X94454761Y-19867857D01*
X94459523Y-19858333D01*
X94469047Y-19853571D01*
X94488095Y-19853571D01*
X94497619Y-19858333D01*
X94502380Y-19867857D01*
X94502380Y-19877380D01*
X94454761Y-19886904D01*
X19923809Y-20170238D02*
X19923809Y-20070238D01*
X19923809Y-20117857D02*
X19980952Y-20117857D01*
X19980952Y-20170238D02*
X19980952Y-20070238D01*
X20080952Y-20170238D02*
X20023809Y-20170238D01*
X20052380Y-20170238D02*
X20052380Y-20070238D01*
X20042857Y-20084523D01*
X20033333Y-20094047D01*
X20023809Y-20098809D01*
X19545238Y-19853571D02*
X19545238Y-19920238D01*
X19502380Y-19853571D02*
X19502380Y-19905952D01*
X19507142Y-19915476D01*
X19516666Y-19920238D01*
X19530952Y-19920238D01*
X19540476Y-19915476D01*
X19545238Y-19910714D01*
X19592857Y-19853571D02*
X19592857Y-19920238D01*
X19592857Y-19863095D02*
X19597619Y-19858333D01*
X19607142Y-19853571D01*
X19621428Y-19853571D01*
X19630952Y-19858333D01*
X19635714Y-19867857D01*
X19635714Y-19920238D01*
X19683333Y-19853571D02*
X19683333Y-19953571D01*
X19683333Y-19858333D02*
X19692857Y-19853571D01*
X19711904Y-19853571D01*
X19721428Y-19858333D01*
X19726190Y-19863095D01*
X19730952Y-19872619D01*
X19730952Y-19901190D01*
X19726190Y-19910714D01*
X19721428Y-19915476D01*
X19711904Y-19920238D01*
X19692857Y-19920238D01*
X19683333Y-19915476D01*
X19788095Y-19920238D02*
X19778571Y-19915476D01*
X19773809Y-19905952D01*
X19773809Y-19820238D01*
X19869047Y-19920238D02*
X19869047Y-19867857D01*
X19864285Y-19858333D01*
X19854761Y-19853571D01*
X19835714Y-19853571D01*
X19826190Y-19858333D01*
X19869047Y-19915476D02*
X19859523Y-19920238D01*
X19835714Y-19920238D01*
X19826190Y-19915476D01*
X19821428Y-19905952D01*
X19821428Y-19896428D01*
X19826190Y-19886904D01*
X19835714Y-19882142D01*
X19859523Y-19882142D01*
X19869047Y-19877380D01*
X19902380Y-19853571D02*
X19940476Y-19853571D01*
X19916666Y-19820238D02*
X19916666Y-19905952D01*
X19921428Y-19915476D01*
X19930952Y-19920238D01*
X19940476Y-19920238D01*
X20011904Y-19915476D02*
X20002380Y-19920238D01*
X19983333Y-19920238D01*
X19973809Y-19915476D01*
X19969047Y-19905952D01*
X19969047Y-19867857D01*
X19973809Y-19858333D01*
X19983333Y-19853571D01*
X20002380Y-19853571D01*
X20011904Y-19858333D01*
X20016666Y-19867857D01*
X20016666Y-19877380D01*
X19969047Y-19886904D01*
X20102380Y-19920238D02*
X20102380Y-19820238D01*
X20102380Y-19915476D02*
X20092857Y-19920238D01*
X20073809Y-19920238D01*
X20064285Y-19915476D01*
X20059523Y-19910714D01*
X20054761Y-19901190D01*
X20054761Y-19872619D01*
X20059523Y-19863095D01*
X20064285Y-19858333D01*
X20073809Y-19853571D01*
X20092857Y-19853571D01*
X20102380Y-19858333D01*
X20126190Y-19929761D02*
X20202380Y-19929761D01*
X20226190Y-19920238D02*
X20226190Y-19820238D01*
X20269047Y-19920238D02*
X20269047Y-19867857D01*
X20264285Y-19858333D01*
X20254761Y-19853571D01*
X20240476Y-19853571D01*
X20230952Y-19858333D01*
X20226190Y-19863095D01*
X20330952Y-19920238D02*
X20321428Y-19915476D01*
X20316666Y-19910714D01*
X20311904Y-19901190D01*
X20311904Y-19872619D01*
X20316666Y-19863095D01*
X20321428Y-19858333D01*
X20330952Y-19853571D01*
X20345238Y-19853571D01*
X20354761Y-19858333D01*
X20359523Y-19863095D01*
X20364285Y-19872619D01*
X20364285Y-19901190D01*
X20359523Y-19910714D01*
X20354761Y-19915476D01*
X20345238Y-19920238D01*
X20330952Y-19920238D01*
X20421428Y-19920238D02*
X20411904Y-19915476D01*
X20407142Y-19905952D01*
X20407142Y-19820238D01*
X20497619Y-19915476D02*
X20488095Y-19920238D01*
X20469047Y-19920238D01*
X20459523Y-19915476D01*
X20454761Y-19905952D01*
X20454761Y-19867857D01*
X20459523Y-19858333D01*
X20469047Y-19853571D01*
X20488095Y-19853571D01*
X20497619Y-19858333D01*
X20502380Y-19867857D01*
X20502380Y-19877380D01*
X20454761Y-19886904D01*
X93923809Y-49170238D02*
X93923809Y-49070238D01*
X93923809Y-49117857D02*
X93980952Y-49117857D01*
X93980952Y-49170238D02*
X93980952Y-49070238D01*
X94019047Y-49070238D02*
X94080952Y-49070238D01*
X94047619Y-49108333D01*
X94061904Y-49108333D01*
X94071428Y-49113095D01*
X94076190Y-49117857D01*
X94080952Y-49127380D01*
X94080952Y-49151190D01*
X94076190Y-49160714D01*
X94071428Y-49165476D01*
X94061904Y-49170238D01*
X94033333Y-49170238D01*
X94023809Y-49165476D01*
X94019047Y-49160714D01*
X93545238Y-48853571D02*
X93545238Y-48920238D01*
X93502380Y-48853571D02*
X93502380Y-48905952D01*
X93507142Y-48915476D01*
X93516666Y-48920238D01*
X93530952Y-48920238D01*
X93540476Y-48915476D01*
X93545238Y-48910714D01*
X93592857Y-48853571D02*
X93592857Y-48920238D01*
X93592857Y-48863095D02*
X93597619Y-48858333D01*
X93607142Y-48853571D01*
X93621428Y-48853571D01*
X93630952Y-48858333D01*
X93635714Y-48867857D01*
X93635714Y-48920238D01*
X93683333Y-48853571D02*
X93683333Y-48953571D01*
X93683333Y-48858333D02*
X93692857Y-48853571D01*
X93711904Y-48853571D01*
X93721428Y-48858333D01*
X93726190Y-48863095D01*
X93730952Y-48872619D01*
X93730952Y-48901190D01*
X93726190Y-48910714D01*
X93721428Y-48915476D01*
X93711904Y-48920238D01*
X93692857Y-48920238D01*
X93683333Y-48915476D01*
X93788095Y-48920238D02*
X93778571Y-48915476D01*
X93773809Y-48905952D01*
X93773809Y-48820238D01*
X93869047Y-48920238D02*
X93869047Y-48867857D01*
X93864285Y-48858333D01*
X93854761Y-48853571D01*
X93835714Y-48853571D01*
X93826190Y-48858333D01*
X93869047Y-48915476D02*
X93859523Y-48920238D01*
X93835714Y-48920238D01*
X93826190Y-48915476D01*
X93821428Y-48905952D01*
X93821428Y-48896428D01*
X93826190Y-48886904D01*
X93835714Y-48882142D01*
X93859523Y-48882142D01*
X93869047Y-48877380D01*
X93902380Y-48853571D02*
X93940476Y-48853571D01*
X93916666Y-48820238D02*
X93916666Y-48905952D01*
X93921428Y-48915476D01*
X93930952Y-48920238D01*
X93940476Y-48920238D01*
X94011904Y-48915476D02*
X94002380Y-48920238D01*
X93983333Y-48920238D01*
X93973809Y-48915476D01*
X93969047Y-48905952D01*
X93969047Y-48867857D01*
X93973809Y-48858333D01*
X93983333Y-48853571D01*
X94002380Y-48853571D01*
X94011904Y-48858333D01*
X94016666Y-48867857D01*
X94016666Y-48877380D01*
X93969047Y-48886904D01*
X94102380Y-48920238D02*
X94102380Y-48820238D01*
X94102380Y-48915476D02*
X94092857Y-48920238D01*
X94073809Y-48920238D01*
X94064285Y-48915476D01*
X94059523Y-48910714D01*
X94054761Y-48901190D01*
X94054761Y-48872619D01*
X94059523Y-48863095D01*
X94064285Y-48858333D01*
X94073809Y-48853571D01*
X94092857Y-48853571D01*
X94102380Y-48858333D01*
X94126190Y-48929761D02*
X94202380Y-48929761D01*
X94226190Y-48920238D02*
X94226190Y-48820238D01*
X94269047Y-48920238D02*
X94269047Y-48867857D01*
X94264285Y-48858333D01*
X94254761Y-48853571D01*
X94240476Y-48853571D01*
X94230952Y-48858333D01*
X94226190Y-48863095D01*
X94330952Y-48920238D02*
X94321428Y-48915476D01*
X94316666Y-48910714D01*
X94311904Y-48901190D01*
X94311904Y-48872619D01*
X94316666Y-48863095D01*
X94321428Y-48858333D01*
X94330952Y-48853571D01*
X94345238Y-48853571D01*
X94354761Y-48858333D01*
X94359523Y-48863095D01*
X94364285Y-48872619D01*
X94364285Y-48901190D01*
X94359523Y-48910714D01*
X94354761Y-48915476D01*
X94345238Y-48920238D01*
X94330952Y-48920238D01*
X94421428Y-48920238D02*
X94411904Y-48915476D01*
X94407142Y-48905952D01*
X94407142Y-48820238D01*
X94497619Y-48915476D02*
X94488095Y-48920238D01*
X94469047Y-48920238D01*
X94459523Y-48915476D01*
X94454761Y-48905952D01*
X94454761Y-48867857D01*
X94459523Y-48858333D01*
X94469047Y-48853571D01*
X94488095Y-48853571D01*
X94497619Y-48858333D01*
X94502380Y-48867857D01*
X94502380Y-48877380D01*
X94454761Y-48886904D01*
X19923809Y-49170238D02*
X19923809Y-49070238D01*
X19923809Y-49117857D02*
X19980952Y-49117857D01*
X19980952Y-49170238D02*
X19980952Y-49070238D01*
X20071428Y-49103571D02*
X20071428Y-49170238D01*
X20047619Y-49065476D02*
X20023809Y-49136904D01*
X20085714Y-49136904D01*
X19545238Y-48853571D02*
X19545238Y-48920238D01*
X19502380Y-48853571D02*
X19502380Y-48905952D01*
X19507142Y-48915476D01*
X19516666Y-48920238D01*
X19530952Y-48920238D01*
X19540476Y-48915476D01*
X19545238Y-48910714D01*
X19592857Y-48853571D02*
X19592857Y-48920238D01*
X19592857Y-48863095D02*
X19597619Y-48858333D01*
X19607142Y-48853571D01*
X19621428Y-48853571D01*
X19630952Y-48858333D01*
X19635714Y-48867857D01*
X19635714Y-48920238D01*
X19683333Y-48853571D02*
X19683333Y-48953571D01*
X19683333Y-48858333D02*
X19692857Y-48853571D01*
X19711904Y-48853571D01*
X19721428Y-48858333D01*
X19726190Y-48863095D01*
X19730952Y-48872619D01*
X19730952Y-48901190D01*
X19726190Y-48910714D01*
X19721428Y-48915476D01*
X19711904Y-48920238D01*
X19692857Y-48920238D01*
X19683333Y-48915476D01*
X19788095Y-48920238D02*
X19778571Y-48915476D01*
X19773809Y-48905952D01*
X19773809Y-48820238D01*
X19869047Y-48920238D02*
X19869047Y-48867857D01*
X19864285Y-48858333D01*
X19854761Y-48853571D01*
X19835714Y-48853571D01*
X19826190Y-48858333D01*
X19869047Y-48915476D02*
X19859523Y-48920238D01*
X19835714Y-48920238D01*
X19826190Y-48915476D01*
X19821428Y-48905952D01*
X19821428Y-48896428D01*
X19826190Y-48886904D01*
X19835714Y-48882142D01*
X19859523Y-48882142D01*
X19869047Y-48877380D01*
X19902380Y-48853571D02*
X19940476Y-48853571D01*
X19916666Y-48820238D02*
X19916666Y-48905952D01*
X19921428Y-48915476D01*
X19930952Y-48920238D01*
X19940476Y-48920238D01*
X20011904Y-48915476D02*
X20002380Y-48920238D01*
X19983333Y-48920238D01*
X19973809Y-48915476D01*
X19969047Y-48905952D01*
X19969047Y-48867857D01*
X19973809Y-48858333D01*
X19983333Y-48853571D01*
X20002380Y-48853571D01*
X20011904Y-48858333D01*
X20016666Y-48867857D01*
X20016666Y-48877380D01*
X19969047Y-48886904D01*
X20102380Y-48920238D02*
X20102380Y-48820238D01*
X20102380Y-48915476D02*
X20092857Y-48920238D01*
X20073809Y-48920238D01*
X20064285Y-48915476D01*
X20059523Y-48910714D01*
X20054761Y-48901190D01*
X20054761Y-48872619D01*
X20059523Y-48863095D01*
X20064285Y-48858333D01*
X20073809Y-48853571D01*
X20092857Y-48853571D01*
X20102380Y-48858333D01*
X20126190Y-48929761D02*
X20202380Y-48929761D01*
X20226190Y-48920238D02*
X20226190Y-48820238D01*
X20269047Y-48920238D02*
X20269047Y-48867857D01*
X20264285Y-48858333D01*
X20254761Y-48853571D01*
X20240476Y-48853571D01*
X20230952Y-48858333D01*
X20226190Y-48863095D01*
X20330952Y-48920238D02*
X20321428Y-48915476D01*
X20316666Y-48910714D01*
X20311904Y-48901190D01*
X20311904Y-48872619D01*
X20316666Y-48863095D01*
X20321428Y-48858333D01*
X20330952Y-48853571D01*
X20345238Y-48853571D01*
X20354761Y-48858333D01*
X20359523Y-48863095D01*
X20364285Y-48872619D01*
X20364285Y-48901190D01*
X20359523Y-48910714D01*
X20354761Y-48915476D01*
X20345238Y-48920238D01*
X20330952Y-48920238D01*
X20421428Y-48920238D02*
X20411904Y-48915476D01*
X20407142Y-48905952D01*
X20407142Y-48820238D01*
X20497619Y-48915476D02*
X20488095Y-48920238D01*
X20469047Y-48920238D01*
X20459523Y-48915476D01*
X20454761Y-48905952D01*
X20454761Y-48867857D01*
X20459523Y-48858333D01*
X20469047Y-48853571D01*
X20488095Y-48853571D01*
X20497619Y-48858333D01*
X20502380Y-48867857D01*
X20502380Y-48877380D01*
X20454761Y-48886904D01*
D11*
X59532380Y-35012380D02*
X58865714Y-35012380D01*
X59056190Y-35012380D02*
X58960952Y-34964761D01*
X58913333Y-34917142D01*
X58865714Y-34821904D01*
X58865714Y-34726666D01*
X59532380Y-34393333D02*
X58865714Y-34393333D01*
X58532380Y-34393333D02*
X58580000Y-34440952D01*
X58627619Y-34393333D01*
X58580000Y-34345714D01*
X58532380Y-34393333D01*
X58627619Y-34393333D01*
X58865714Y-34060000D02*
X58865714Y-33679047D01*
X59532380Y-33917142D02*
X58675238Y-33917142D01*
X58580000Y-33869523D01*
X58532380Y-33774285D01*
X58532380Y-33679047D01*
X58865714Y-33440952D02*
X59532380Y-33202857D01*
X58865714Y-32964761D02*
X59532380Y-33202857D01*
X59770476Y-33298095D01*
X59818095Y-33345714D01*
X59865714Y-33440952D01*
X59532380Y-32440952D02*
X59484761Y-32536190D01*
X59389523Y-32583809D01*
X58532380Y-32583809D01*
X59484761Y-31679047D02*
X59532380Y-31774285D01*
X59532380Y-31964761D01*
X59484761Y-32060000D01*
X59389523Y-32107619D01*
X59008571Y-32107619D01*
X58913333Y-32060000D01*
X58865714Y-31964761D01*
X58865714Y-31774285D01*
X58913333Y-31679047D01*
X59008571Y-31631428D01*
X59103809Y-31631428D01*
X59199047Y-32107619D01*
X59627619Y-31440952D02*
X59627619Y-30679047D01*
X58532380Y-30583809D02*
X59532380Y-30250476D01*
X58532380Y-29917142D01*
X58865714Y-29155238D02*
X59532380Y-29155238D01*
X58484761Y-29393333D02*
X59199047Y-29631428D01*
X59199047Y-29012380D01*
X55232380Y-32821904D02*
X56041904Y-32821904D01*
X56137142Y-32774285D01*
X56184761Y-32726666D01*
X56232380Y-32631428D01*
X56232380Y-32440952D01*
X56184761Y-32345714D01*
X56137142Y-32298095D01*
X56041904Y-32250476D01*
X55232380Y-32250476D01*
X56232380Y-31250476D02*
X56232380Y-31821904D01*
X56232380Y-31536190D02*
X55232380Y-31536190D01*
X55375238Y-31631428D01*
X55470476Y-31726666D01*
X55518095Y-31821904D01*
D12*
X57780000Y-34060000D02*
X54780000Y-34060000D01*
X53780000Y-30060000D02*
X57780000Y-30060000D01*
X54780000Y-34060000D02*
X53780000Y-33060000D01*
X53780000Y-33060000D02*
X53780000Y-30060000D01*
X57780000Y-30060000D02*
X57780000Y-34060000D01*
M02*
