G04 #@! TF.GenerationSoftware,KiCad,Pcbnew,5.1.9*
G04 #@! TF.CreationDate,2022-02-02T10:11:48+01:00*
G04 #@! TF.ProjectId,Test_Antenna,54657374-5f41-46e7-9465-6e6e612e6b69,rev?*
G04 #@! TF.SameCoordinates,Original*
G04 #@! TF.FileFunction,Copper,L1,Top*
G04 #@! TF.FilePolarity,Positive*
%FSLAX46Y46*%
G04 Gerber Fmt 4.6, Leading zero omitted, Abs format (unit mm)*
G04 Created by KiCad (PCBNEW 5.1.9) date 2022-02-02 10:11:48*
%MOMM*%
%LPD*%
G01*
G04 APERTURE LIST*
G04 #@! TA.AperFunction,EtchedComponent*
%ADD10C,0.100000*%
G04 #@! TD*
G04 #@! TA.AperFunction,SMDPad,CuDef*
%ADD11R,0.175000X0.500000*%
G04 #@! TD*
G04 #@! TA.AperFunction,SMDPad,CuDef*
%ADD12R,0.250000X0.825000*%
G04 #@! TD*
G04 #@! TA.AperFunction,Conductor*
%ADD13C,0.250000*%
G04 #@! TD*
G04 APERTURE END LIST*
D10*
G36*
X-3565000Y-53502000D02*
G01*
X-3195000Y-53388000D01*
X-2854000Y-53203000D01*
X-150000Y-50969000D01*
X-150000Y-48934000D01*
X-263000Y-48797000D01*
X-150000Y-48889000D01*
X-150000Y-48621000D01*
X-131000Y-48427000D01*
X-131000Y-48426000D01*
X-130000Y-48425000D01*
X-74000Y-48238000D01*
X-73000Y-48236000D01*
X-73000Y-48235000D01*
X19000Y-48063000D01*
X19000Y-48062000D01*
X20000Y-48061000D01*
X143000Y-47910000D01*
X145000Y-47908000D01*
X296000Y-47783000D01*
X297000Y-47783000D01*
X298000Y-47782000D01*
X469000Y-47689000D01*
X471000Y-47689000D01*
X472000Y-47688000D01*
X658000Y-47630000D01*
X660000Y-47630000D01*
X818000Y-47610000D01*
X1626000Y-47610000D01*
X1819000Y-47638000D01*
X1820000Y-47638000D01*
X1822000Y-47639000D01*
X2006000Y-47703000D01*
X2007000Y-47704000D01*
X2008000Y-47704000D01*
X2176000Y-47803000D01*
X2177000Y-47803000D01*
X2179000Y-47805000D01*
X2324000Y-47934000D01*
X2326000Y-47936000D01*
X2444000Y-48092000D01*
X2445000Y-48093000D01*
X2445000Y-48094000D01*
X2530000Y-48269000D01*
X2531000Y-48270000D01*
X2531000Y-48272000D01*
X2581000Y-48461000D01*
X2581000Y-48463000D01*
X2594000Y-48621000D01*
X2594000Y-51130000D01*
X5142000Y-53211000D01*
X5485000Y-53393000D01*
X5856000Y-53505000D01*
X6243000Y-53543000D01*
X11923000Y-53543000D01*
X12504000Y-53482000D01*
X13060000Y-53310000D01*
X13573000Y-53032000D01*
X14022000Y-52661000D01*
X14391000Y-52209000D01*
X14664000Y-51694000D01*
X14833000Y-51136000D01*
X14890000Y-50556000D01*
X14890000Y-30591000D01*
X14829000Y-30011000D01*
X14656000Y-29454000D01*
X14379000Y-28941000D01*
X14008000Y-28492000D01*
X13556000Y-28124000D01*
X13041000Y-27850000D01*
X12483000Y-27681000D01*
X11902000Y-27624000D01*
X1467000Y-27624000D01*
X1398000Y-27625000D01*
X1394100Y-27625500D01*
X756000Y-27702000D01*
X143000Y-27901000D01*
X-287000Y-28141200D01*
X-421000Y-28216000D01*
X-912000Y-28634000D01*
X-1313000Y-29140000D01*
X-1413210Y-29335000D01*
X41000Y-29335000D01*
X67400Y-29311600D01*
X94200Y-29288700D01*
X121400Y-29266300D01*
X149000Y-29244300D01*
X177000Y-29222900D01*
X205400Y-29201900D01*
X234100Y-29181500D01*
X263200Y-29161500D01*
X292600Y-29142100D01*
X322400Y-29123200D01*
X352500Y-29104800D01*
X382900Y-29087000D01*
X413600Y-29069700D01*
X444600Y-29052900D01*
X475900Y-29036700D01*
X507500Y-29021000D01*
X539400Y-29005900D01*
X571500Y-28991400D01*
X603900Y-28977400D01*
X636500Y-28964000D01*
X669400Y-28951200D01*
X702500Y-28939000D01*
X735800Y-28927300D01*
X769200Y-28916200D01*
X802900Y-28905800D01*
X836800Y-28895900D01*
X870800Y-28886600D01*
X905000Y-28878000D01*
X939300Y-28869900D01*
X973800Y-28862400D01*
X1008300Y-28855600D01*
X1043100Y-28849300D01*
X1077900Y-28843700D01*
X1112800Y-28838700D01*
X1147800Y-28834300D01*
X1182800Y-28830500D01*
X1217900Y-28827300D01*
X1253100Y-28824800D01*
X1288300Y-28822800D01*
X1323600Y-28821500D01*
X1358800Y-28820900D01*
X1394100Y-28820800D01*
X1429300Y-28821400D01*
X1464600Y-28822500D01*
X1499800Y-28824300D01*
X1535000Y-28826800D01*
X1570100Y-28829800D01*
X1605200Y-28833500D01*
X1640200Y-28837800D01*
X1675100Y-28842700D01*
X1710000Y-28848200D01*
X1744700Y-28854300D01*
X1779300Y-28861000D01*
X1813800Y-28868400D01*
X1848100Y-28876300D01*
X1882400Y-28884900D01*
X1916400Y-28894100D01*
X1950300Y-28903800D01*
X1984000Y-28914200D01*
X2017500Y-28925100D01*
X2050800Y-28936700D01*
X2084000Y-28948800D01*
X2116900Y-28961500D01*
X2149500Y-28974800D01*
X2182000Y-28988600D01*
X2214100Y-29003100D01*
X2246000Y-29018000D01*
X2277700Y-29033600D01*
X2309100Y-29049700D01*
X2340100Y-29066400D01*
X2370900Y-29083600D01*
X2401400Y-29101300D01*
X2431600Y-29119600D01*
X2461400Y-29138400D01*
X2490900Y-29157700D01*
X2520000Y-29177600D01*
X2548800Y-29197900D01*
X2577300Y-29218800D01*
X2605300Y-29240100D01*
X2633000Y-29262000D01*
X1384000Y-30678000D01*
X41000Y-29335000D01*
X-1413210Y-29335000D01*
X-1608000Y-29714000D01*
X-1786000Y-30334000D01*
X-1825680Y-30807300D01*
X-620300Y-30807300D01*
X-619700Y-30772200D01*
X-618600Y-30737100D01*
X-616800Y-30702100D01*
X-614400Y-30667100D01*
X-611400Y-30632100D01*
X-607800Y-30597200D01*
X-603600Y-30562300D01*
X-598700Y-30527600D01*
X-593300Y-30492900D01*
X-587200Y-30458400D01*
X-580600Y-30423900D01*
X-573300Y-30389600D01*
X-565500Y-30355400D01*
X-557000Y-30321300D01*
X-547900Y-30287400D01*
X-538300Y-30253700D01*
X-528100Y-30220100D01*
X-517200Y-30186700D01*
X-505800Y-30153500D01*
X-493800Y-30120500D01*
X-481200Y-30087800D01*
X-468100Y-30055200D01*
X-454400Y-30022900D01*
X-440100Y-29990900D01*
X-425300Y-29959100D01*
X-409900Y-29927500D01*
X-393900Y-29896300D01*
X-377500Y-29865300D01*
X-360400Y-29834600D01*
X-342900Y-29804200D01*
X-324800Y-29774200D01*
X-306100Y-29744400D01*
X-287000Y-29715000D01*
X1106000Y-31108000D01*
X1671000Y-31108000D01*
X2981000Y-29622000D01*
X3001800Y-29650200D01*
X3022000Y-29678800D01*
X3041800Y-29707800D01*
X3061000Y-29737100D01*
X3079800Y-29766700D01*
X3098000Y-29796600D01*
X3115700Y-29826900D01*
X3132800Y-29857500D01*
X3149400Y-29888300D01*
X3165500Y-29919500D01*
X3181000Y-29950900D01*
X3196000Y-29982600D01*
X3210400Y-30014500D01*
X3224200Y-30046700D01*
X3237500Y-30079100D01*
X3250200Y-30111800D01*
X3262400Y-30144700D01*
X3273900Y-30177800D01*
X3284900Y-30211100D01*
X3295300Y-30244500D01*
X3305100Y-30278200D01*
X3314300Y-30312000D01*
X3322900Y-30346000D01*
X3331000Y-30380100D01*
X3338400Y-30414300D01*
X3345200Y-30448700D01*
X3351400Y-30483200D01*
X3357100Y-30517800D01*
X3362100Y-30552500D01*
X3366500Y-30587200D01*
X3370300Y-30622100D01*
X3373400Y-30657000D01*
X3376000Y-30691900D01*
X3378000Y-30726900D01*
X3379300Y-30762000D01*
X3380000Y-30797000D01*
X3380100Y-30832000D01*
X3379600Y-30867100D01*
X3378500Y-30902100D01*
X3376800Y-30937100D01*
X3374500Y-30972100D01*
X3371500Y-31007000D01*
X3367900Y-31041900D01*
X3363800Y-31076700D01*
X3359000Y-31111400D01*
X3353600Y-31146000D01*
X3347600Y-31180600D01*
X3341000Y-31215000D01*
X3333800Y-31249300D01*
X3326000Y-31283400D01*
X3317600Y-31317500D01*
X3308600Y-31351300D01*
X3299000Y-31385000D01*
X3288800Y-31418600D01*
X3278100Y-31451900D01*
X3266700Y-31485100D01*
X3254800Y-31518100D01*
X3242300Y-31550800D01*
X3229200Y-31583300D01*
X3215600Y-31615600D01*
X3201400Y-31647600D01*
X3186600Y-31679400D01*
X3171300Y-31710900D01*
X3155400Y-31742200D01*
X3139000Y-31773200D01*
X3122100Y-31803800D01*
X3104600Y-31834200D01*
X3086600Y-31864300D01*
X3068000Y-31894000D01*
X3049000Y-31923400D01*
X3029400Y-31952500D01*
X3009300Y-31981200D01*
X2988700Y-32009600D01*
X2967700Y-32037600D01*
X2946100Y-32065200D01*
X2924100Y-32092500D01*
X2901600Y-32119300D01*
X2878600Y-32145800D01*
X2855100Y-32171900D01*
X2831200Y-32197500D01*
X2806900Y-32222700D01*
X2782100Y-32247500D01*
X2756900Y-32271900D01*
X2731300Y-32295800D01*
X2705200Y-32319200D01*
X2678800Y-32342200D01*
X2651900Y-32364700D01*
X2624700Y-32386800D01*
X2597100Y-32408300D01*
X2569100Y-32429400D01*
X2540700Y-32450000D01*
X2512000Y-32470100D01*
X2482900Y-32489700D01*
X2453500Y-32508700D01*
X2423800Y-32527300D01*
X2393700Y-32545300D01*
X2363400Y-32562800D01*
X2332700Y-32579800D01*
X2301700Y-32596200D01*
X2270500Y-32612100D01*
X2239000Y-32627400D01*
X2207200Y-32642200D01*
X2175200Y-32656400D01*
X2142900Y-32670100D01*
X2110400Y-32683100D01*
X2077600Y-32695700D01*
X2044700Y-32707600D01*
X2011500Y-32719000D01*
X1978200Y-32729700D01*
X1944600Y-32739900D01*
X1910900Y-32749500D01*
X1877100Y-32758500D01*
X1843000Y-32766900D01*
X1808900Y-32774800D01*
X1774600Y-32782000D01*
X1740200Y-32788600D01*
X1705600Y-32794600D01*
X1671000Y-32800000D01*
X1671000Y-31108000D01*
X1106000Y-31108000D01*
X1173000Y-31175000D01*
X1173000Y-32810000D01*
X1138100Y-32806100D01*
X1103300Y-32801500D01*
X1068600Y-32796400D01*
X1034000Y-32790600D01*
X999500Y-32784200D01*
X965100Y-32777300D01*
X930800Y-32769700D01*
X896700Y-32761500D01*
X862700Y-32752700D01*
X828900Y-32743300D01*
X795300Y-32733400D01*
X761800Y-32722800D01*
X728500Y-32711700D01*
X695400Y-32700000D01*
X662600Y-32687700D01*
X629900Y-32674800D01*
X597500Y-32661400D01*
X565300Y-32647400D01*
X533400Y-32632800D01*
X501700Y-32617700D01*
X470300Y-32602000D01*
X439200Y-32585700D01*
X408400Y-32569000D01*
X377900Y-32551700D01*
X347600Y-32533800D01*
X317700Y-32515400D01*
X288200Y-32496500D01*
X258900Y-32477100D01*
X230000Y-32457200D01*
X201500Y-32436800D01*
X173300Y-32415900D01*
X145500Y-32394400D01*
X118100Y-32372600D01*
X91100Y-32350200D01*
X64400Y-32327300D01*
X38200Y-32304000D01*
X12400Y-32280300D01*
X-13000Y-32256000D01*
X-38000Y-32231400D01*
X-62500Y-32206300D01*
X-86600Y-32180800D01*
X-110300Y-32154800D01*
X-133400Y-32128500D01*
X-156100Y-32101700D01*
X-178400Y-32074600D01*
X-200100Y-32047000D01*
X-221400Y-32019100D01*
X-242200Y-31990900D01*
X-262500Y-31962200D01*
X-282300Y-31933200D01*
X-301500Y-31903900D01*
X-320300Y-31874200D01*
X-338500Y-31844200D01*
X-356200Y-31813900D01*
X-373400Y-31783300D01*
X-390000Y-31752400D01*
X-406100Y-31721200D01*
X-421600Y-31689800D01*
X-436600Y-31658000D01*
X-451000Y-31626000D01*
X-464800Y-31593800D01*
X-478100Y-31561300D01*
X-490800Y-31528600D01*
X-502900Y-31495600D01*
X-514500Y-31462500D01*
X-525500Y-31429200D01*
X-535900Y-31395700D01*
X-545700Y-31362000D01*
X-554900Y-31328100D01*
X-563500Y-31294100D01*
X-571500Y-31259900D01*
X-578900Y-31225600D01*
X-585700Y-31191200D01*
X-591900Y-31156600D01*
X-597500Y-31122000D01*
X-602500Y-31087200D01*
X-606800Y-31052400D01*
X-610600Y-31017500D01*
X-613700Y-30982600D01*
X-616300Y-30947600D01*
X-618200Y-30912500D01*
X-619500Y-30877500D01*
X-620200Y-30842400D01*
X-620300Y-30807300D01*
X-1825680Y-30807300D01*
X-1840000Y-30978000D01*
X-1768000Y-31619000D01*
X-1573000Y-32234000D01*
X-1262000Y-32800000D01*
X-847000Y-33294000D01*
X-344000Y-33699000D01*
X228000Y-33998000D01*
X847000Y-34180000D01*
X1489000Y-34238000D01*
X2131000Y-34171000D01*
X2748000Y-33980000D01*
X3316000Y-33673000D01*
X3813000Y-33262000D01*
X4221000Y-32762000D01*
X4524000Y-32192000D01*
X4710000Y-31574000D01*
X4774000Y-30930000D01*
X4774000Y-30926000D01*
X4776000Y-30924000D01*
X4777000Y-30922000D01*
X4779000Y-30920000D01*
X4782000Y-30919000D01*
X4784000Y-30919000D01*
X4785000Y-30918000D01*
X10448000Y-30918000D01*
X10836000Y-30956000D01*
X10838000Y-30957000D01*
X10839000Y-30957000D01*
X11212000Y-31070000D01*
X11214000Y-31070000D01*
X11215000Y-31071000D01*
X11559000Y-31254000D01*
X11560000Y-31254000D01*
X11561000Y-31255000D01*
X11562000Y-31255000D01*
X11864000Y-31502000D01*
X11866000Y-31504000D01*
X12115000Y-31805000D01*
X12115000Y-31806000D01*
X12116000Y-31807000D01*
X12302000Y-32150000D01*
X12302000Y-32151000D01*
X12303000Y-32153000D01*
X12418000Y-32525000D01*
X12418000Y-32527000D01*
X12419000Y-32528000D01*
X12459000Y-32916000D01*
X12459000Y-32917000D01*
X12460000Y-32918000D01*
X12460000Y-49644000D01*
X12421000Y-50032000D01*
X12421000Y-50035000D01*
X12308000Y-50408000D01*
X12308000Y-50410000D01*
X12307000Y-50411000D01*
X12124000Y-50755000D01*
X12124000Y-50756000D01*
X12122000Y-50758000D01*
X11876000Y-51060000D01*
X11874000Y-51062000D01*
X11573000Y-51311000D01*
X11572000Y-51312000D01*
X11571000Y-51312000D01*
X11228000Y-51498000D01*
X11226000Y-51498000D01*
X11225000Y-51499000D01*
X10852000Y-51614000D01*
X10851000Y-51615000D01*
X10850000Y-51615000D01*
X10462000Y-51656000D01*
X8154000Y-51656000D01*
X7766000Y-51618000D01*
X7765000Y-51617000D01*
X7763000Y-51617000D01*
X7390000Y-51504000D01*
X7388000Y-51504000D01*
X7387000Y-51503000D01*
X7043000Y-51320000D01*
X7042000Y-51319000D01*
X7041000Y-51319000D01*
X6738000Y-51072000D01*
X6736000Y-51070000D01*
X6487000Y-50769000D01*
X6487000Y-50768000D01*
X6486000Y-50767000D01*
X6300000Y-50424000D01*
X6300000Y-50423000D01*
X6299000Y-50421000D01*
X6184000Y-50049000D01*
X6184000Y-50047000D01*
X6183000Y-50046000D01*
X6143000Y-49658000D01*
X6143000Y-49657000D01*
X6142000Y-49643000D01*
X6142000Y-41495000D01*
X6102000Y-41109000D01*
X5987000Y-40738000D01*
X5802000Y-40397000D01*
X5555000Y-40099000D01*
X5255000Y-39854000D01*
X4912000Y-39672000D01*
X4541000Y-39560000D01*
X4154000Y-39522000D01*
X2414000Y-39523000D01*
X-1892000Y-39523000D01*
X-2278000Y-39563000D01*
X-2649000Y-39678000D01*
X-2990000Y-39862000D01*
X-3288000Y-40109000D01*
X-3533000Y-40410000D01*
X-3715000Y-40752000D01*
X-3828000Y-41123000D01*
X-3865000Y-41510000D01*
X-3865000Y-43635000D01*
X-811000Y-43635000D01*
X-810700Y-43597600D01*
X-809700Y-43560200D01*
X-808100Y-43522800D01*
X-805800Y-43485500D01*
X-802800Y-43448200D01*
X-799300Y-43411000D01*
X-795000Y-43373800D01*
X-790100Y-43336800D01*
X-784600Y-43299800D01*
X-778400Y-43262900D01*
X-771600Y-43226100D01*
X-764200Y-43189400D01*
X-756100Y-43152900D01*
X-747300Y-43116600D01*
X-738000Y-43080400D01*
X-728000Y-43044300D01*
X-717400Y-43008400D01*
X-706100Y-42972800D01*
X-694200Y-42937300D01*
X-681800Y-42902100D01*
X-668700Y-42867000D01*
X-655000Y-42832200D01*
X-640600Y-42797700D01*
X-625700Y-42763400D01*
X-610200Y-42729300D01*
X-594100Y-42695600D01*
X-577400Y-42662100D01*
X-560200Y-42628900D01*
X-542300Y-42596100D01*
X-523900Y-42563500D01*
X-504900Y-42531300D01*
X-485400Y-42499400D01*
X-465300Y-42467800D01*
X-444600Y-42436600D01*
X-423400Y-42405800D01*
X-401700Y-42375400D01*
X-379500Y-42345300D01*
X-356700Y-42315600D01*
X-333400Y-42286400D01*
X-309600Y-42257500D01*
X-285300Y-42229100D01*
X-260600Y-42201100D01*
X-235300Y-42173500D01*
X-209500Y-42146300D01*
X-183300Y-42119700D01*
X-156700Y-42093500D01*
X-129500Y-42067700D01*
X-101900Y-42042400D01*
X-73900Y-42017700D01*
X-45500Y-41993400D01*
X-16600Y-41969600D01*
X12600Y-41946300D01*
X42300Y-41923500D01*
X72400Y-41901300D01*
X102800Y-41879600D01*
X133600Y-41858400D01*
X164800Y-41837700D01*
X196400Y-41817600D01*
X228300Y-41798100D01*
X260500Y-41779100D01*
X293100Y-41760700D01*
X325900Y-41742800D01*
X359100Y-41725600D01*
X392600Y-41708900D01*
X426300Y-41692800D01*
X460400Y-41677300D01*
X494700Y-41662400D01*
X529200Y-41648000D01*
X564000Y-41634300D01*
X599100Y-41621200D01*
X634300Y-41608800D01*
X669800Y-41596900D01*
X705400Y-41585600D01*
X741300Y-41575000D01*
X777400Y-41565000D01*
X813600Y-41555700D01*
X849900Y-41546900D01*
X886400Y-41538800D01*
X923100Y-41531400D01*
X959900Y-41524600D01*
X996800Y-41518400D01*
X1033800Y-41512900D01*
X1070800Y-41508000D01*
X1108000Y-41503700D01*
X1145200Y-41500200D01*
X1182500Y-41497200D01*
X1219800Y-41494900D01*
X1257200Y-41493300D01*
X1294600Y-41492300D01*
X1332000Y-41492000D01*
X1369400Y-41492300D01*
X1406800Y-41493300D01*
X1444200Y-41494900D01*
X1481500Y-41497200D01*
X1518800Y-41500200D01*
X1556000Y-41503700D01*
X1593200Y-41508000D01*
X1630200Y-41512900D01*
X1667200Y-41518400D01*
X1704100Y-41524600D01*
X1740900Y-41531400D01*
X1777600Y-41538800D01*
X1814100Y-41546900D01*
X1850400Y-41555700D01*
X1886600Y-41565000D01*
X1922700Y-41575000D01*
X1958600Y-41585600D01*
X1994200Y-41596900D01*
X2029700Y-41608800D01*
X2064900Y-41621200D01*
X2100000Y-41634300D01*
X2134800Y-41648000D01*
X2169300Y-41662400D01*
X2203600Y-41677300D01*
X2237700Y-41692800D01*
X2271400Y-41708900D01*
X2304900Y-41725600D01*
X2338100Y-41742800D01*
X2370900Y-41760700D01*
X2403500Y-41779100D01*
X2435700Y-41798100D01*
X2467600Y-41817600D01*
X2499200Y-41837700D01*
X2530400Y-41858400D01*
X2561200Y-41879600D01*
X2591600Y-41901300D01*
X2621700Y-41923500D01*
X2651400Y-41946300D01*
X2680600Y-41969600D01*
X2709500Y-41993400D01*
X2737900Y-42017700D01*
X2765900Y-42042400D01*
X2793500Y-42067700D01*
X2820700Y-42093500D01*
X2847300Y-42119700D01*
X2873500Y-42146300D01*
X2899300Y-42173500D01*
X2924600Y-42201100D01*
X2949300Y-42229100D01*
X2973600Y-42257500D01*
X2997400Y-42286400D01*
X3020700Y-42315600D01*
X3043500Y-42345300D01*
X3065700Y-42375400D01*
X3087400Y-42405800D01*
X3108600Y-42436600D01*
X3129300Y-42467800D01*
X3149400Y-42499400D01*
X3168900Y-42531300D01*
X3187900Y-42563500D01*
X3206300Y-42596100D01*
X3224200Y-42628900D01*
X3241400Y-42662100D01*
X3258100Y-42695600D01*
X3274200Y-42729300D01*
X3289700Y-42763400D01*
X3304600Y-42797700D01*
X3319000Y-42832200D01*
X3332700Y-42867000D01*
X3345800Y-42902100D01*
X3358200Y-42937300D01*
X3370100Y-42972800D01*
X3381400Y-43008400D01*
X3392000Y-43044300D01*
X3402000Y-43080400D01*
X3411300Y-43116600D01*
X3420100Y-43152900D01*
X3428200Y-43189400D01*
X3435600Y-43226100D01*
X3442400Y-43262900D01*
X3448600Y-43299800D01*
X3454100Y-43336800D01*
X3459000Y-43373800D01*
X3463300Y-43411000D01*
X3466800Y-43448200D01*
X3469800Y-43485500D01*
X3472100Y-43522800D01*
X3473700Y-43560200D01*
X3474700Y-43597600D01*
X3475000Y-43635000D01*
X3474700Y-43672400D01*
X3473700Y-43709800D01*
X3472100Y-43747200D01*
X3469800Y-43784500D01*
X3466800Y-43821800D01*
X3463300Y-43859000D01*
X3459000Y-43896200D01*
X3454100Y-43933200D01*
X3448600Y-43970200D01*
X3442400Y-44007100D01*
X3435600Y-44043900D01*
X3428200Y-44080600D01*
X3420100Y-44117100D01*
X3411300Y-44153400D01*
X3402000Y-44189600D01*
X3392000Y-44225700D01*
X3381400Y-44261600D01*
X3370100Y-44297200D01*
X3358200Y-44332700D01*
X3345800Y-44367900D01*
X3332700Y-44403000D01*
X3319000Y-44437800D01*
X3304600Y-44472300D01*
X3289700Y-44506600D01*
X3274200Y-44540700D01*
X3258100Y-44574400D01*
X3241400Y-44607900D01*
X3224200Y-44641100D01*
X3206300Y-44673900D01*
X3187900Y-44706500D01*
X3168900Y-44738700D01*
X3149400Y-44770600D01*
X3129300Y-44802200D01*
X3108600Y-44833400D01*
X3087400Y-44864200D01*
X3065700Y-44894600D01*
X3043500Y-44924700D01*
X3020700Y-44954400D01*
X2997400Y-44983600D01*
X2973600Y-45012500D01*
X2949300Y-45040900D01*
X2924600Y-45068900D01*
X2899300Y-45096500D01*
X2873500Y-45123700D01*
X2847300Y-45150300D01*
X2820700Y-45176500D01*
X2793500Y-45202300D01*
X2765900Y-45227600D01*
X2737900Y-45252300D01*
X2709500Y-45276600D01*
X2680600Y-45300400D01*
X2651400Y-45323700D01*
X2621700Y-45346500D01*
X2591600Y-45368700D01*
X2561200Y-45390400D01*
X2530400Y-45411600D01*
X2499200Y-45432300D01*
X2467600Y-45452400D01*
X2435700Y-45471900D01*
X2403500Y-45490900D01*
X2370900Y-45509300D01*
X2338100Y-45527200D01*
X2304900Y-45544400D01*
X2271400Y-45561100D01*
X2237700Y-45577200D01*
X2203600Y-45592700D01*
X2169300Y-45607600D01*
X2134800Y-45622000D01*
X2100000Y-45635700D01*
X2064900Y-45648800D01*
X2029700Y-45661200D01*
X1994200Y-45673100D01*
X1958600Y-45684400D01*
X1922700Y-45695000D01*
X1886600Y-45705000D01*
X1850400Y-45714300D01*
X1814100Y-45723100D01*
X1777600Y-45731200D01*
X1740900Y-45738600D01*
X1704100Y-45745400D01*
X1667200Y-45751600D01*
X1630200Y-45757100D01*
X1593200Y-45762000D01*
X1556000Y-45766300D01*
X1518800Y-45769800D01*
X1481500Y-45772800D01*
X1444200Y-45775100D01*
X1406800Y-45776700D01*
X1369400Y-45777700D01*
X1332000Y-45778000D01*
X1294600Y-45777700D01*
X1257200Y-45776700D01*
X1219800Y-45775100D01*
X1182500Y-45772800D01*
X1145200Y-45769800D01*
X1108000Y-45766300D01*
X1070800Y-45762000D01*
X1033800Y-45757100D01*
X996800Y-45751600D01*
X959900Y-45745400D01*
X923100Y-45738600D01*
X886400Y-45731200D01*
X849900Y-45723100D01*
X813600Y-45714300D01*
X777400Y-45705000D01*
X741300Y-45695000D01*
X705400Y-45684400D01*
X669800Y-45673100D01*
X634300Y-45661200D01*
X599100Y-45648800D01*
X564000Y-45635700D01*
X529200Y-45622000D01*
X494700Y-45607600D01*
X460400Y-45592700D01*
X426300Y-45577200D01*
X392600Y-45561100D01*
X359100Y-45544400D01*
X325900Y-45527200D01*
X293100Y-45509300D01*
X260500Y-45490900D01*
X228300Y-45471900D01*
X196400Y-45452400D01*
X164800Y-45432300D01*
X133600Y-45411600D01*
X102800Y-45390400D01*
X72400Y-45368700D01*
X42300Y-45346500D01*
X12600Y-45323700D01*
X-16600Y-45300400D01*
X-45500Y-45276600D01*
X-73900Y-45252300D01*
X-101900Y-45227600D01*
X-129500Y-45202300D01*
X-156700Y-45176500D01*
X-183300Y-45150300D01*
X-209500Y-45123700D01*
X-235300Y-45096500D01*
X-260600Y-45068900D01*
X-285300Y-45040900D01*
X-309600Y-45012500D01*
X-333400Y-44983600D01*
X-356700Y-44954400D01*
X-379500Y-44924700D01*
X-401700Y-44894600D01*
X-423400Y-44864200D01*
X-444600Y-44833400D01*
X-465300Y-44802200D01*
X-485400Y-44770600D01*
X-504900Y-44738700D01*
X-523900Y-44706500D01*
X-542300Y-44673900D01*
X-560200Y-44641100D01*
X-577400Y-44607900D01*
X-594100Y-44574400D01*
X-610200Y-44540700D01*
X-625700Y-44506600D01*
X-640600Y-44472300D01*
X-655000Y-44437800D01*
X-668700Y-44403000D01*
X-681800Y-44367900D01*
X-694200Y-44332700D01*
X-706100Y-44297200D01*
X-717400Y-44261600D01*
X-728000Y-44225700D01*
X-738000Y-44189600D01*
X-747300Y-44153400D01*
X-756100Y-44117100D01*
X-764200Y-44080600D01*
X-771600Y-44043900D01*
X-778400Y-44007100D01*
X-784600Y-43970200D01*
X-790100Y-43933200D01*
X-795000Y-43896200D01*
X-799300Y-43859000D01*
X-802800Y-43821800D01*
X-805800Y-43784500D01*
X-808100Y-43747200D01*
X-809700Y-43709800D01*
X-810700Y-43672400D01*
X-811000Y-43635000D01*
X-3865000Y-43635000D01*
X-3865000Y-49644000D01*
X-3904000Y-50032000D01*
X-3904000Y-50035000D01*
X-4017000Y-50408000D01*
X-4017000Y-50410000D01*
X-4018000Y-50411000D01*
X-4201000Y-50755000D01*
X-4201000Y-50756000D01*
X-4203000Y-50758000D01*
X-4449000Y-51060000D01*
X-4451000Y-51062000D01*
X-4752000Y-51311000D01*
X-4753000Y-51312000D01*
X-4754000Y-51312000D01*
X-5097000Y-51498000D01*
X-5099000Y-51498000D01*
X-5100000Y-51499000D01*
X-5473000Y-51614000D01*
X-5474000Y-51615000D01*
X-5475000Y-51615000D01*
X-5863000Y-51656000D01*
X-16153000Y-51656000D01*
X-16347000Y-51637000D01*
X-16348000Y-51636000D01*
X-16349000Y-51636000D01*
X-16536000Y-51580000D01*
X-16537000Y-51579000D01*
X-16539000Y-51579000D01*
X-16711000Y-51487000D01*
X-16712000Y-51486000D01*
X-16713000Y-51486000D01*
X-16864000Y-51362000D01*
X-16865000Y-51361000D01*
X-16866000Y-51361000D01*
X-16991000Y-51210000D01*
X-16991000Y-51209000D01*
X-16992000Y-51208000D01*
X-17085000Y-51036000D01*
X-17085000Y-51035000D01*
X-17086000Y-51034000D01*
X-17143000Y-50847000D01*
X-17144000Y-50847000D01*
X-17144000Y-50845000D01*
X-17164000Y-50651000D01*
X-17164000Y-50650000D01*
X-17165000Y-50643000D01*
X-17165000Y-50539000D01*
X-17164000Y-50538000D01*
X-17145000Y-50344000D01*
X-17145000Y-50341000D01*
X-17088000Y-50154000D01*
X-17088000Y-50152000D01*
X-16996000Y-49980000D01*
X-16996000Y-49979000D01*
X-16994000Y-49977000D01*
X-16871000Y-49826000D01*
X-16869000Y-49824000D01*
X-16719000Y-49700000D01*
X-16718000Y-49699000D01*
X-16717000Y-49699000D01*
X-16545000Y-49606000D01*
X-16544000Y-49605000D01*
X-16543000Y-49605000D01*
X-16356000Y-49547000D01*
X-16354000Y-49547000D01*
X-16160000Y-49526000D01*
X-13095000Y-49526000D01*
X-9547000Y-49015000D01*
X-9097000Y-48644000D01*
X-8729000Y-48192000D01*
X-8455000Y-47677000D01*
X-8287000Y-47119000D01*
X-8230000Y-46539000D01*
X-8230000Y-44100000D01*
X-8291000Y-43520000D01*
X-8463000Y-42963000D01*
X-8741000Y-42450000D01*
X-9112000Y-42001000D01*
X-9564000Y-41633000D01*
X-10079000Y-41359000D01*
X-10637000Y-41190000D01*
X-11217000Y-41133000D01*
X-19697000Y-41134000D01*
X-19784000Y-41134000D01*
X-19786000Y-41133000D01*
X-19789000Y-41133000D01*
X-19791000Y-41131000D01*
X-19793000Y-41130000D01*
X-19795000Y-41128000D01*
X-19796000Y-41125000D01*
X-19797000Y-41123000D01*
X-19797000Y-40670000D01*
X-19971000Y-40670000D01*
X-19971000Y-41444000D01*
X-19478000Y-41936000D01*
X-11368000Y-41936000D01*
X-10979000Y-41974000D01*
X-10979000Y-41975000D01*
X-10977000Y-41975000D01*
X-10603000Y-42088000D01*
X-10602000Y-42088000D01*
X-10601000Y-42089000D01*
X-10270000Y-42263000D01*
X-10268000Y-42264000D01*
X-9877000Y-42598000D01*
X-9876000Y-42600000D01*
X-9875000Y-42600000D01*
X-9652000Y-42899000D01*
X-9650000Y-42901000D01*
X-9487000Y-43236000D01*
X-9486000Y-43237000D01*
X-9486000Y-43238000D01*
X-9399000Y-43536000D01*
X-9399000Y-43537000D01*
X-9398000Y-43539000D01*
X-9334000Y-44041000D01*
X-9356000Y-44041000D01*
X-9356000Y-44148000D01*
X-9353000Y-44148000D01*
X-9353000Y-46266000D01*
X-9356000Y-46266000D01*
X-9356000Y-46717000D01*
X-30762000Y-46717000D01*
X-30762000Y-46268000D01*
X-30765000Y-46268000D01*
X-30765000Y-44332000D01*
X-30762000Y-44332000D01*
X-30762000Y-44041000D01*
X-30719000Y-43704000D01*
X-30719000Y-43536000D01*
X-30632000Y-43238000D01*
X-30631000Y-43237000D01*
X-30631000Y-43236000D01*
X-30467000Y-42901000D01*
X-30466000Y-42900000D01*
X-30466000Y-42899000D01*
X-30242000Y-42600000D01*
X-30240000Y-42598000D01*
X-29849000Y-42264000D01*
X-29848000Y-42263000D01*
X-29847000Y-42263000D01*
X-29501000Y-42082000D01*
X-29500000Y-42082000D01*
X-29499000Y-42081000D01*
X-29124000Y-41972000D01*
X-29123000Y-41972000D01*
X-29122000Y-41971000D01*
X-28750000Y-41936000D01*
X-20639000Y-41936000D01*
X-20147000Y-41444000D01*
X-20147000Y-40670000D01*
X-20321000Y-40670000D01*
X-20321000Y-41120000D01*
X-20320000Y-41120000D01*
X-20321000Y-41123000D01*
X-20321000Y-41125000D01*
X-20323000Y-41128000D01*
X-20324000Y-41130000D01*
X-20326000Y-41131000D01*
X-20329000Y-41132000D01*
X-20331000Y-41133000D01*
X-28921000Y-41133000D01*
X-29501000Y-41194000D01*
X-30058000Y-41367000D01*
X-30571000Y-41644000D01*
X-31020000Y-42016000D01*
X-31388000Y-42467000D01*
X-31662000Y-42982000D01*
X-31831000Y-43540000D01*
X-31888000Y-44121000D01*
X-31888000Y-46539000D01*
X-31887000Y-46559000D01*
X-31826000Y-47140000D01*
X-31654000Y-47697000D01*
X-31377000Y-48209000D01*
X-31005000Y-48659000D01*
X-30554000Y-49027000D01*
X-30175000Y-49229000D01*
X-27151000Y-49526000D01*
X-23347000Y-49526000D01*
X-23153000Y-49545000D01*
X-23151000Y-49545000D01*
X-23150000Y-49546000D01*
X-22963000Y-49602000D01*
X-22962000Y-49603000D01*
X-22961000Y-49603000D01*
X-22789000Y-49695000D01*
X-22787000Y-49695000D01*
X-22786000Y-49696000D01*
X-22635000Y-49819000D01*
X-22635000Y-49820000D01*
X-22634000Y-49820000D01*
X-22633000Y-49821000D01*
X-22509000Y-49972000D01*
X-22507000Y-49974000D01*
X-22415000Y-50145000D01*
X-22415000Y-50146000D01*
X-22414000Y-50147000D01*
X-22414000Y-50148000D01*
X-22356000Y-50334000D01*
X-22356000Y-50336000D01*
X-22355000Y-50337000D01*
X-22335000Y-50531000D01*
X-22335000Y-50644000D01*
X-22354000Y-50838000D01*
X-22354000Y-50839000D01*
X-22355000Y-50841000D01*
X-22411000Y-51027000D01*
X-22411000Y-51029000D01*
X-22412000Y-51030000D01*
X-22504000Y-51202000D01*
X-22504000Y-51203000D01*
X-22505000Y-51204000D01*
X-22628000Y-51355000D01*
X-22628000Y-51356000D01*
X-22629000Y-51356000D01*
X-22630000Y-51357000D01*
X-22780000Y-51482000D01*
X-22781000Y-51482000D01*
X-22782000Y-51483000D01*
X-22783000Y-51483000D01*
X-22954000Y-51576000D01*
X-22956000Y-51577000D01*
X-22957000Y-51577000D01*
X-23143000Y-51635000D01*
X-23146000Y-51635000D01*
X-23340000Y-51656000D01*
X-34162000Y-51656000D01*
X-34550000Y-51618000D01*
X-34551000Y-51617000D01*
X-34553000Y-51617000D01*
X-34926000Y-51504000D01*
X-34928000Y-51504000D01*
X-34929000Y-51503000D01*
X-35273000Y-51320000D01*
X-35274000Y-51319000D01*
X-35275000Y-51319000D01*
X-35578000Y-51072000D01*
X-35580000Y-51070000D01*
X-35829000Y-50769000D01*
X-35829000Y-50768000D01*
X-35830000Y-50767000D01*
X-36016000Y-50424000D01*
X-36016000Y-50423000D01*
X-36017000Y-50421000D01*
X-36132000Y-50049000D01*
X-36132000Y-50047000D01*
X-36133000Y-50046000D01*
X-36173000Y-49658000D01*
X-36173000Y-49657000D01*
X-36174000Y-49643000D01*
X-36174000Y-41648000D01*
X-36214000Y-41262000D01*
X-36329000Y-40891000D01*
X-36514000Y-40550000D01*
X-36761000Y-40252000D01*
X-37061000Y-40007000D01*
X-37404000Y-39825000D01*
X-37775000Y-39713000D01*
X-38162000Y-39675000D01*
X-39902000Y-39676000D01*
X-44208000Y-39676000D01*
X-44594000Y-39716000D01*
X-44965000Y-39831000D01*
X-45306000Y-40015000D01*
X-45604000Y-40262000D01*
X-45849000Y-40563000D01*
X-46031000Y-40905000D01*
X-46144000Y-41276000D01*
X-46181000Y-41663000D01*
X-46181000Y-43635000D01*
X-43362000Y-43635000D01*
X-43361700Y-43597600D01*
X-43360700Y-43560200D01*
X-43359100Y-43522800D01*
X-43356800Y-43485500D01*
X-43353800Y-43448200D01*
X-43350300Y-43411000D01*
X-43346000Y-43373800D01*
X-43341100Y-43336800D01*
X-43335600Y-43299800D01*
X-43329400Y-43262900D01*
X-43322600Y-43226100D01*
X-43315200Y-43189400D01*
X-43307100Y-43152900D01*
X-43298300Y-43116600D01*
X-43289000Y-43080400D01*
X-43279000Y-43044300D01*
X-43268400Y-43008400D01*
X-43257100Y-42972800D01*
X-43245200Y-42937300D01*
X-43232800Y-42902100D01*
X-43219700Y-42867000D01*
X-43206000Y-42832200D01*
X-43191600Y-42797700D01*
X-43176700Y-42763400D01*
X-43161200Y-42729300D01*
X-43145100Y-42695600D01*
X-43128400Y-42662100D01*
X-43111200Y-42628900D01*
X-43093300Y-42596100D01*
X-43074900Y-42563500D01*
X-43055900Y-42531300D01*
X-43036400Y-42499400D01*
X-43016300Y-42467800D01*
X-42995600Y-42436600D01*
X-42974400Y-42405800D01*
X-42952700Y-42375400D01*
X-42930500Y-42345300D01*
X-42907700Y-42315600D01*
X-42884400Y-42286400D01*
X-42860600Y-42257500D01*
X-42836300Y-42229100D01*
X-42811600Y-42201100D01*
X-42786300Y-42173500D01*
X-42760500Y-42146300D01*
X-42734300Y-42119700D01*
X-42707700Y-42093500D01*
X-42680500Y-42067700D01*
X-42652900Y-42042400D01*
X-42624900Y-42017700D01*
X-42596500Y-41993400D01*
X-42567600Y-41969600D01*
X-42538400Y-41946300D01*
X-42508700Y-41923500D01*
X-42478600Y-41901300D01*
X-42448200Y-41879600D01*
X-42417400Y-41858400D01*
X-42386200Y-41837700D01*
X-42354600Y-41817600D01*
X-42322700Y-41798100D01*
X-42290500Y-41779100D01*
X-42257900Y-41760700D01*
X-42225100Y-41742800D01*
X-42191900Y-41725600D01*
X-42158400Y-41708900D01*
X-42124700Y-41692800D01*
X-42090600Y-41677300D01*
X-42056300Y-41662400D01*
X-42021800Y-41648000D01*
X-41987000Y-41634300D01*
X-41951900Y-41621200D01*
X-41916700Y-41608800D01*
X-41881200Y-41596900D01*
X-41845600Y-41585600D01*
X-41809700Y-41575000D01*
X-41773600Y-41565000D01*
X-41737400Y-41555700D01*
X-41701100Y-41546900D01*
X-41664600Y-41538800D01*
X-41627900Y-41531400D01*
X-41591100Y-41524600D01*
X-41554200Y-41518400D01*
X-41517200Y-41512900D01*
X-41480200Y-41508000D01*
X-41443000Y-41503700D01*
X-41405800Y-41500200D01*
X-41368500Y-41497200D01*
X-41331200Y-41494900D01*
X-41293800Y-41493300D01*
X-41256400Y-41492300D01*
X-41219000Y-41492000D01*
X-41181600Y-41492300D01*
X-41144200Y-41493300D01*
X-41106800Y-41494900D01*
X-41069500Y-41497200D01*
X-41032200Y-41500200D01*
X-40995000Y-41503700D01*
X-40957800Y-41508000D01*
X-40920800Y-41512900D01*
X-40883800Y-41518400D01*
X-40846900Y-41524600D01*
X-40810100Y-41531400D01*
X-40773400Y-41538800D01*
X-40736900Y-41546900D01*
X-40700600Y-41555700D01*
X-40664400Y-41565000D01*
X-40628300Y-41575000D01*
X-40592400Y-41585600D01*
X-40556800Y-41596900D01*
X-40521300Y-41608800D01*
X-40486100Y-41621200D01*
X-40451000Y-41634300D01*
X-40416200Y-41648000D01*
X-40381700Y-41662400D01*
X-40347400Y-41677300D01*
X-40313300Y-41692800D01*
X-40279600Y-41708900D01*
X-40246100Y-41725600D01*
X-40212900Y-41742800D01*
X-40180100Y-41760700D01*
X-40147500Y-41779100D01*
X-40115300Y-41798100D01*
X-40083400Y-41817600D01*
X-40051800Y-41837700D01*
X-40020600Y-41858400D01*
X-39989800Y-41879600D01*
X-39959400Y-41901300D01*
X-39929300Y-41923500D01*
X-39899600Y-41946300D01*
X-39870400Y-41969600D01*
X-39841500Y-41993400D01*
X-39813100Y-42017700D01*
X-39785100Y-42042400D01*
X-39757500Y-42067700D01*
X-39730300Y-42093500D01*
X-39703700Y-42119700D01*
X-39677500Y-42146300D01*
X-39651700Y-42173500D01*
X-39626400Y-42201100D01*
X-39601700Y-42229100D01*
X-39577400Y-42257500D01*
X-39553600Y-42286400D01*
X-39530300Y-42315600D01*
X-39507500Y-42345300D01*
X-39485300Y-42375400D01*
X-39463600Y-42405800D01*
X-39442400Y-42436600D01*
X-39421700Y-42467800D01*
X-39401600Y-42499400D01*
X-39382100Y-42531300D01*
X-39363100Y-42563500D01*
X-39344700Y-42596100D01*
X-39326800Y-42628900D01*
X-39309600Y-42662100D01*
X-39292900Y-42695600D01*
X-39276800Y-42729300D01*
X-39261300Y-42763400D01*
X-39246400Y-42797700D01*
X-39232000Y-42832200D01*
X-39218300Y-42867000D01*
X-39205200Y-42902100D01*
X-39192800Y-42937300D01*
X-39180900Y-42972800D01*
X-39169600Y-43008400D01*
X-39159000Y-43044300D01*
X-39149000Y-43080400D01*
X-39139700Y-43116600D01*
X-39130900Y-43152900D01*
X-39122800Y-43189400D01*
X-39115400Y-43226100D01*
X-39108600Y-43262900D01*
X-39102400Y-43299800D01*
X-39096900Y-43336800D01*
X-39092000Y-43373800D01*
X-39087700Y-43411000D01*
X-39084200Y-43448200D01*
X-39081200Y-43485500D01*
X-39078900Y-43522800D01*
X-39077300Y-43560200D01*
X-39076300Y-43597600D01*
X-39076000Y-43635000D01*
X-39076300Y-43672400D01*
X-39077300Y-43709800D01*
X-39078900Y-43747200D01*
X-39081200Y-43784500D01*
X-39084200Y-43821800D01*
X-39087700Y-43859000D01*
X-39092000Y-43896200D01*
X-39096900Y-43933200D01*
X-39102400Y-43970200D01*
X-39108600Y-44007100D01*
X-39115400Y-44043900D01*
X-39122800Y-44080600D01*
X-39130900Y-44117100D01*
X-39139700Y-44153400D01*
X-39149000Y-44189600D01*
X-39159000Y-44225700D01*
X-39169600Y-44261600D01*
X-39180900Y-44297200D01*
X-39192800Y-44332700D01*
X-39205200Y-44367900D01*
X-39218300Y-44403000D01*
X-39232000Y-44437800D01*
X-39246400Y-44472300D01*
X-39261300Y-44506600D01*
X-39276800Y-44540700D01*
X-39292900Y-44574400D01*
X-39309600Y-44607900D01*
X-39326800Y-44641100D01*
X-39344700Y-44673900D01*
X-39363100Y-44706500D01*
X-39382100Y-44738700D01*
X-39401600Y-44770600D01*
X-39421700Y-44802200D01*
X-39442400Y-44833400D01*
X-39463600Y-44864200D01*
X-39485300Y-44894600D01*
X-39507500Y-44924700D01*
X-39530300Y-44954400D01*
X-39553600Y-44983600D01*
X-39577400Y-45012500D01*
X-39601700Y-45040900D01*
X-39626400Y-45068900D01*
X-39651700Y-45096500D01*
X-39677500Y-45123700D01*
X-39703700Y-45150300D01*
X-39730300Y-45176500D01*
X-39757500Y-45202300D01*
X-39785100Y-45227600D01*
X-39813100Y-45252300D01*
X-39841500Y-45276600D01*
X-39870400Y-45300400D01*
X-39899600Y-45323700D01*
X-39929300Y-45346500D01*
X-39959400Y-45368700D01*
X-39989800Y-45390400D01*
X-40020600Y-45411600D01*
X-40051800Y-45432300D01*
X-40083400Y-45452400D01*
X-40115300Y-45471900D01*
X-40147500Y-45490900D01*
X-40180100Y-45509300D01*
X-40212900Y-45527200D01*
X-40246100Y-45544400D01*
X-40279600Y-45561100D01*
X-40313300Y-45577200D01*
X-40347400Y-45592700D01*
X-40381700Y-45607600D01*
X-40416200Y-45622000D01*
X-40451000Y-45635700D01*
X-40486100Y-45648800D01*
X-40521300Y-45661200D01*
X-40556800Y-45673100D01*
X-40592400Y-45684400D01*
X-40628300Y-45695000D01*
X-40664400Y-45705000D01*
X-40700600Y-45714300D01*
X-40736900Y-45723100D01*
X-40773400Y-45731200D01*
X-40810100Y-45738600D01*
X-40846900Y-45745400D01*
X-40883800Y-45751600D01*
X-40920800Y-45757100D01*
X-40957800Y-45762000D01*
X-40995000Y-45766300D01*
X-41032200Y-45769800D01*
X-41069500Y-45772800D01*
X-41106800Y-45775100D01*
X-41144200Y-45776700D01*
X-41181600Y-45777700D01*
X-41219000Y-45778000D01*
X-41256400Y-45777700D01*
X-41293800Y-45776700D01*
X-41331200Y-45775100D01*
X-41368500Y-45772800D01*
X-41405800Y-45769800D01*
X-41443000Y-45766300D01*
X-41480200Y-45762000D01*
X-41517200Y-45757100D01*
X-41554200Y-45751600D01*
X-41591100Y-45745400D01*
X-41627900Y-45738600D01*
X-41664600Y-45731200D01*
X-41701100Y-45723100D01*
X-41737400Y-45714300D01*
X-41773600Y-45705000D01*
X-41809700Y-45695000D01*
X-41845600Y-45684400D01*
X-41881200Y-45673100D01*
X-41916700Y-45661200D01*
X-41951900Y-45648800D01*
X-41987000Y-45635700D01*
X-42021800Y-45622000D01*
X-42056300Y-45607600D01*
X-42090600Y-45592700D01*
X-42124700Y-45577200D01*
X-42158400Y-45561100D01*
X-42191900Y-45544400D01*
X-42225100Y-45527200D01*
X-42257900Y-45509300D01*
X-42290500Y-45490900D01*
X-42322700Y-45471900D01*
X-42354600Y-45452400D01*
X-42386200Y-45432300D01*
X-42417400Y-45411600D01*
X-42448200Y-45390400D01*
X-42478600Y-45368700D01*
X-42508700Y-45346500D01*
X-42538400Y-45323700D01*
X-42567600Y-45300400D01*
X-42596500Y-45276600D01*
X-42624900Y-45252300D01*
X-42652900Y-45227600D01*
X-42680500Y-45202300D01*
X-42707700Y-45176500D01*
X-42734300Y-45150300D01*
X-42760500Y-45123700D01*
X-42786300Y-45096500D01*
X-42811600Y-45068900D01*
X-42836300Y-45040900D01*
X-42860600Y-45012500D01*
X-42884400Y-44983600D01*
X-42907700Y-44954400D01*
X-42930500Y-44924700D01*
X-42952700Y-44894600D01*
X-42974400Y-44864200D01*
X-42995600Y-44833400D01*
X-43016300Y-44802200D01*
X-43036400Y-44770600D01*
X-43055900Y-44738700D01*
X-43074900Y-44706500D01*
X-43093300Y-44673900D01*
X-43111200Y-44641100D01*
X-43128400Y-44607900D01*
X-43145100Y-44574400D01*
X-43161200Y-44540700D01*
X-43176700Y-44506600D01*
X-43191600Y-44472300D01*
X-43206000Y-44437800D01*
X-43219700Y-44403000D01*
X-43232800Y-44367900D01*
X-43245200Y-44332700D01*
X-43257100Y-44297200D01*
X-43268400Y-44261600D01*
X-43279000Y-44225700D01*
X-43289000Y-44189600D01*
X-43298300Y-44153400D01*
X-43307100Y-44117100D01*
X-43315200Y-44080600D01*
X-43322600Y-44043900D01*
X-43329400Y-44007100D01*
X-43335600Y-43970200D01*
X-43341100Y-43933200D01*
X-43346000Y-43896200D01*
X-43350300Y-43859000D01*
X-43353800Y-43821800D01*
X-43356800Y-43784500D01*
X-43359100Y-43747200D01*
X-43360700Y-43709800D01*
X-43361700Y-43672400D01*
X-43362000Y-43635000D01*
X-46181000Y-43635000D01*
X-46181000Y-49644000D01*
X-46220000Y-50032000D01*
X-46220000Y-50035000D01*
X-46333000Y-50408000D01*
X-46333000Y-50410000D01*
X-46334000Y-50411000D01*
X-46517000Y-50755000D01*
X-46517000Y-50756000D01*
X-46519000Y-50758000D01*
X-46765000Y-51060000D01*
X-46767000Y-51062000D01*
X-47068000Y-51311000D01*
X-47069000Y-51312000D01*
X-47070000Y-51312000D01*
X-47413000Y-51498000D01*
X-47415000Y-51498000D01*
X-47416000Y-51499000D01*
X-47789000Y-51614000D01*
X-47790000Y-51615000D01*
X-47791000Y-51615000D01*
X-48179000Y-51656000D01*
X-50753000Y-51656000D01*
X-51141000Y-51618000D01*
X-51142000Y-51617000D01*
X-51144000Y-51617000D01*
X-51517000Y-51504000D01*
X-51519000Y-51504000D01*
X-51520000Y-51503000D01*
X-51864000Y-51320000D01*
X-51865000Y-51319000D01*
X-51866000Y-51319000D01*
X-52169000Y-51072000D01*
X-52171000Y-51070000D01*
X-52420000Y-50769000D01*
X-52420000Y-50768000D01*
X-52421000Y-50767000D01*
X-52607000Y-50424000D01*
X-52607000Y-50423000D01*
X-52608000Y-50421000D01*
X-52723000Y-50049000D01*
X-52723000Y-50047000D01*
X-52724000Y-50046000D01*
X-52764000Y-49658000D01*
X-52764000Y-49657000D01*
X-52765000Y-49643000D01*
X-52765000Y-32931000D01*
X-52764000Y-32930000D01*
X-52726000Y-32542000D01*
X-52726000Y-32539000D01*
X-52613000Y-32166000D01*
X-52613000Y-32164000D01*
X-52612000Y-32163000D01*
X-52429000Y-31819000D01*
X-52429000Y-31818000D01*
X-52427000Y-31816000D01*
X-52181000Y-31514000D01*
X-52179000Y-31512000D01*
X-51878000Y-31263000D01*
X-51877000Y-31263000D01*
X-51876000Y-31262000D01*
X-51533000Y-31076000D01*
X-51531000Y-31076000D01*
X-51530000Y-31075000D01*
X-51157000Y-30960000D01*
X-51156000Y-30959000D01*
X-51155000Y-30959000D01*
X-50767000Y-30918000D01*
X-44507000Y-30918000D01*
X-44505000Y-30919000D01*
X-44503000Y-30919000D01*
X-44501000Y-30920000D01*
X-44497000Y-30924000D01*
X-44496000Y-30926000D01*
X-44495000Y-30929000D01*
X-44495000Y-30941000D01*
X-43210100Y-30941000D01*
X-43210100Y-30906000D01*
X-43209500Y-30871000D01*
X-43208300Y-30836100D01*
X-43206400Y-30801100D01*
X-43204000Y-30766200D01*
X-43200900Y-30731400D01*
X-43197300Y-30696600D01*
X-43193000Y-30661800D01*
X-43188100Y-30627200D01*
X-43182600Y-30592600D01*
X-43176500Y-30558200D01*
X-43169800Y-30523800D01*
X-43162500Y-30489600D01*
X-43154600Y-30455500D01*
X-43146200Y-30421600D01*
X-43137100Y-30387800D01*
X-43127400Y-30354100D01*
X-43117200Y-30320700D01*
X-43106300Y-30287400D01*
X-43094900Y-30254300D01*
X-43082900Y-30221500D01*
X-43070300Y-30188800D01*
X-43057200Y-30156400D01*
X-43043500Y-30124200D01*
X-43029200Y-30092200D01*
X-43014400Y-30060500D01*
X-42999000Y-30029100D01*
X-42983100Y-29997900D01*
X-42966600Y-29967100D01*
X-42949600Y-29936500D01*
X-42932100Y-29906200D01*
X-42914000Y-29876200D01*
X-42895500Y-29846600D01*
X-42876400Y-29817300D01*
X-42856700Y-29788300D01*
X-42836600Y-29759600D01*
X-42816000Y-29731400D01*
X-42794900Y-29703500D01*
X-42773300Y-29675900D01*
X-42751300Y-29648800D01*
X-42728700Y-29622000D01*
X-42705700Y-29595600D01*
X-42682300Y-29569700D01*
X-42658400Y-29544100D01*
X-42634000Y-29519000D01*
X-41322000Y-30831000D01*
X-40757000Y-30831000D01*
X-39691000Y-29622000D01*
X-39668400Y-29648800D01*
X-39646300Y-29676000D01*
X-39624700Y-29703600D01*
X-39603500Y-29731600D01*
X-39582900Y-29760000D01*
X-39562700Y-29788600D01*
X-39543100Y-29817700D01*
X-39524000Y-29847100D01*
X-39505400Y-29876800D01*
X-39487300Y-29906800D01*
X-39469700Y-29937200D01*
X-39452700Y-29967800D01*
X-39436200Y-29998800D01*
X-39420300Y-30030000D01*
X-39404900Y-30061500D01*
X-39390100Y-30093300D01*
X-39375800Y-30125300D01*
X-39362100Y-30157600D01*
X-39348900Y-30190100D01*
X-39336400Y-30222800D01*
X-39324400Y-30255800D01*
X-39312900Y-30288900D01*
X-39302100Y-30322300D01*
X-39291900Y-30355800D01*
X-39282200Y-30389500D01*
X-39273100Y-30423400D01*
X-39264700Y-30457400D01*
X-39256800Y-30491600D01*
X-39249500Y-30525900D01*
X-39242800Y-30560300D01*
X-39236800Y-30594800D01*
X-39231300Y-30629500D01*
X-39226500Y-30664200D01*
X-39222200Y-30699000D01*
X-39218600Y-30733900D01*
X-39215600Y-30768800D01*
X-39213200Y-30803800D01*
X-39211400Y-30838800D01*
X-39210200Y-30873900D01*
X-39209600Y-30908900D01*
X-39209700Y-30944000D01*
X-39210300Y-30979000D01*
X-39211600Y-31014100D01*
X-39213500Y-31049100D01*
X-39216000Y-31084100D01*
X-39219100Y-31119000D01*
X-39222900Y-31153900D01*
X-39227200Y-31188700D01*
X-39232200Y-31223400D01*
X-39237700Y-31258000D01*
X-39243900Y-31292500D01*
X-39250700Y-31326900D01*
X-39258000Y-31361200D01*
X-39266000Y-31395300D01*
X-39274600Y-31429300D01*
X-39283700Y-31463200D01*
X-39293500Y-31496900D01*
X-39303800Y-31530400D01*
X-39314700Y-31563700D01*
X-39326300Y-31596800D01*
X-39338300Y-31629700D01*
X-39351000Y-31662400D01*
X-39364200Y-31694900D01*
X-39378000Y-31727100D01*
X-39392400Y-31759100D01*
X-39407300Y-31790800D01*
X-39422800Y-31822300D01*
X-39438800Y-31853500D01*
X-39455400Y-31884400D01*
X-39472500Y-31915000D01*
X-39490200Y-31945300D01*
X-39508300Y-31975300D01*
X-39527000Y-32004900D01*
X-39546200Y-32034300D01*
X-39566000Y-32063300D01*
X-39586200Y-32091900D01*
X-39606900Y-32120200D01*
X-39628100Y-32148100D01*
X-39649900Y-32175600D01*
X-39672000Y-32202800D01*
X-39694700Y-32229500D01*
X-39717800Y-32255900D01*
X-39741400Y-32281900D01*
X-39765400Y-32307400D01*
X-39789900Y-32332500D01*
X-39814800Y-32357200D01*
X-39840200Y-32381400D01*
X-39865900Y-32405200D01*
X-39892100Y-32428500D01*
X-39918700Y-32451400D01*
X-39945700Y-32473800D01*
X-39973000Y-32495700D01*
X-40000800Y-32517100D01*
X-40028900Y-32538100D01*
X-40057400Y-32558500D01*
X-40086200Y-32578500D01*
X-40115400Y-32597900D01*
X-40144900Y-32616900D01*
X-40174700Y-32635300D01*
X-40204900Y-32653200D01*
X-40235400Y-32670500D01*
X-40266100Y-32687300D01*
X-40297200Y-32703600D01*
X-40328500Y-32719300D01*
X-40360200Y-32734500D01*
X-40392000Y-32749100D01*
X-40424200Y-32763200D01*
X-40456500Y-32776600D01*
X-40489100Y-32789600D01*
X-40521900Y-32801900D01*
X-40555000Y-32813700D01*
X-40588200Y-32824900D01*
X-40621600Y-32835500D01*
X-40655200Y-32845500D01*
X-40689000Y-32854900D01*
X-40722900Y-32863800D01*
X-40757000Y-32872000D01*
X-40757000Y-30831000D01*
X-41322000Y-30831000D01*
X-41255000Y-30898000D01*
X-41255000Y-32923000D01*
X-41290000Y-32921900D01*
X-41324900Y-32920200D01*
X-41359800Y-32917900D01*
X-41394700Y-32915000D01*
X-41429500Y-32911400D01*
X-41464300Y-32907300D01*
X-41498900Y-32902500D01*
X-41533500Y-32897200D01*
X-41568000Y-32891200D01*
X-41602400Y-32884700D01*
X-41636600Y-32877500D01*
X-41670700Y-32869800D01*
X-41704700Y-32861400D01*
X-41738500Y-32852500D01*
X-41772200Y-32842900D01*
X-41805700Y-32832800D01*
X-41839000Y-32822100D01*
X-41872100Y-32810800D01*
X-41905000Y-32798900D01*
X-41937800Y-32786500D01*
X-41970200Y-32773500D01*
X-42002500Y-32759900D01*
X-42034500Y-32745700D01*
X-42066200Y-32731000D01*
X-42097700Y-32715800D01*
X-42129000Y-32700000D01*
X-42159900Y-32683600D01*
X-42190500Y-32666800D01*
X-42220900Y-32649300D01*
X-42250900Y-32631400D01*
X-42280600Y-32612900D01*
X-42310000Y-32593900D01*
X-42339100Y-32574400D01*
X-42367800Y-32554400D01*
X-42396200Y-32533900D01*
X-42424200Y-32512900D01*
X-42451800Y-32491500D01*
X-42479000Y-32469500D01*
X-42505900Y-32447100D01*
X-42532300Y-32424200D01*
X-42558400Y-32400800D01*
X-42584000Y-32377000D01*
X-42609200Y-32352700D01*
X-42634000Y-32328000D01*
X-42658400Y-32302900D01*
X-42682300Y-32277400D01*
X-42705700Y-32251400D01*
X-42728700Y-32225000D01*
X-42751300Y-32198300D01*
X-42773400Y-32171100D01*
X-42794900Y-32143600D01*
X-42816000Y-32115700D01*
X-42836700Y-32087400D01*
X-42856800Y-32058700D01*
X-42876400Y-32029800D01*
X-42895500Y-32000400D01*
X-42914100Y-31970800D01*
X-42932100Y-31940800D01*
X-42949700Y-31910500D01*
X-42966700Y-31880000D01*
X-42983100Y-31849100D01*
X-42999000Y-31817900D01*
X-43014400Y-31786500D01*
X-43029200Y-31754800D01*
X-43043500Y-31722800D01*
X-43057200Y-31690600D01*
X-43070300Y-31658200D01*
X-43082900Y-31625600D01*
X-43094900Y-31592700D01*
X-43106300Y-31559600D01*
X-43117200Y-31526300D01*
X-43127400Y-31492900D01*
X-43137100Y-31459300D01*
X-43146200Y-31425500D01*
X-43154600Y-31391500D01*
X-43162500Y-31357400D01*
X-43169800Y-31323200D01*
X-43176500Y-31288900D01*
X-43182600Y-31254400D01*
X-43188100Y-31219800D01*
X-43193000Y-31185200D01*
X-43197300Y-31150500D01*
X-43200900Y-31115700D01*
X-43204000Y-31080800D01*
X-43206400Y-31045900D01*
X-43208300Y-31011000D01*
X-43209500Y-30976000D01*
X-43210100Y-30941000D01*
X-44495000Y-30941000D01*
X-44495000Y-30950000D01*
X-44428000Y-31593000D01*
X-44238000Y-32210000D01*
X-43931000Y-32778000D01*
X-43520000Y-33275000D01*
X-43021000Y-33684000D01*
X-42451000Y-33987000D01*
X-41833000Y-34175000D01*
X-41191000Y-34238000D01*
X-40549000Y-34176000D01*
X-39931000Y-33990000D01*
X-39360000Y-33687000D01*
X-38860000Y-33280000D01*
X-38448000Y-32783000D01*
X-38140000Y-32216000D01*
X-37949000Y-31599000D01*
X-37881000Y-30958000D01*
X-37939000Y-30315000D01*
X-38120000Y-29695000D01*
X-38419000Y-29123000D01*
X-38823000Y-28620000D01*
X-39317000Y-28204000D01*
X-39691000Y-27998100D01*
X-39882000Y-27893000D01*
X-40497000Y-27697000D01*
X-41139000Y-27624000D01*
X-52117000Y-27624000D01*
X-52698000Y-27685000D01*
X-53254000Y-27858000D01*
X-53767000Y-28135000D01*
X-54216000Y-28507000D01*
X-54585000Y-28958000D01*
X-54717520Y-29208000D01*
X-42237000Y-29208000D01*
X-42206400Y-29190100D01*
X-42175600Y-29172700D01*
X-42144400Y-29155900D01*
X-42112900Y-29139600D01*
X-42081200Y-29123900D01*
X-42049200Y-29108700D01*
X-42016900Y-29094100D01*
X-41984400Y-29080100D01*
X-41951600Y-29066700D01*
X-41918600Y-29053900D01*
X-41885300Y-29041600D01*
X-41851900Y-29029900D01*
X-41818200Y-29018900D01*
X-41784400Y-29008400D01*
X-41750400Y-28998500D01*
X-41716200Y-28989200D01*
X-41681900Y-28980600D01*
X-41647400Y-28972500D01*
X-41612700Y-28965100D01*
X-41578000Y-28958300D01*
X-41543100Y-28952000D01*
X-41508100Y-28946500D01*
X-41473000Y-28941500D01*
X-41437900Y-28937100D01*
X-41402700Y-28933400D01*
X-41367400Y-28930300D01*
X-41332000Y-28927800D01*
X-41296700Y-28926000D01*
X-41261300Y-28924700D01*
X-41225800Y-28924200D01*
X-41190400Y-28924200D01*
X-41155000Y-28924800D01*
X-41119600Y-28926100D01*
X-41084200Y-28928000D01*
X-41048900Y-28930600D01*
X-41013600Y-28933700D01*
X-40978400Y-28937500D01*
X-40943300Y-28941900D01*
X-40908200Y-28947000D01*
X-40873200Y-28952600D01*
X-40838400Y-28958900D01*
X-40803600Y-28965800D01*
X-40769000Y-28973300D01*
X-40734500Y-28981400D01*
X-40700200Y-28990100D01*
X-40666000Y-28999500D01*
X-40632000Y-29009400D01*
X-40598200Y-29019900D01*
X-40564600Y-29031100D01*
X-40531100Y-29042800D01*
X-40497900Y-29055100D01*
X-40464900Y-29068000D01*
X-40432200Y-29081500D01*
X-40399700Y-29095500D01*
X-40367400Y-29110200D01*
X-40335400Y-29125400D01*
X-40303700Y-29141200D01*
X-40272300Y-29157500D01*
X-40241100Y-29174400D01*
X-40210300Y-29191800D01*
X-40179800Y-29209800D01*
X-40149600Y-29228300D01*
X-40119700Y-29247300D01*
X-40090200Y-29266900D01*
X-40061000Y-29287000D01*
X-41044000Y-30401000D01*
X-42237000Y-29208000D01*
X-54717520Y-29208000D01*
X-54858000Y-29473000D01*
X-55027000Y-30031000D01*
X-55084000Y-30612000D01*
X-55084000Y-50576000D01*
X-55023000Y-51157000D01*
X-54850000Y-51714000D01*
X-54573000Y-52226000D01*
X-54202000Y-52676000D01*
X-53750000Y-53044000D01*
X-53235000Y-53318000D01*
X-52677000Y-53486000D01*
X-52096000Y-53543000D01*
X-46268000Y-53543000D01*
X-45881000Y-53502000D01*
X-45511000Y-53388000D01*
X-45170000Y-53203000D01*
X-42466000Y-50969000D01*
X-42466000Y-48934000D01*
X-42579000Y-48797000D01*
X-42466000Y-48889000D01*
X-42466000Y-48392000D01*
X-42447000Y-48198000D01*
X-42447000Y-48197000D01*
X-42446000Y-48196000D01*
X-42390000Y-48009000D01*
X-42389000Y-48007000D01*
X-42389000Y-48006000D01*
X-42297000Y-47834000D01*
X-42297000Y-47833000D01*
X-42296000Y-47832000D01*
X-42173000Y-47681000D01*
X-42171000Y-47679000D01*
X-42020000Y-47554000D01*
X-42019000Y-47554000D01*
X-42018000Y-47553000D01*
X-41847000Y-47460000D01*
X-41845000Y-47460000D01*
X-41844000Y-47459000D01*
X-41658000Y-47401000D01*
X-41656000Y-47401000D01*
X-41498000Y-47381000D01*
X-40690000Y-47381000D01*
X-40497000Y-47409000D01*
X-40496000Y-47409000D01*
X-40494000Y-47410000D01*
X-40310000Y-47474000D01*
X-40309000Y-47475000D01*
X-40308000Y-47475000D01*
X-40140000Y-47574000D01*
X-40139000Y-47574000D01*
X-40137000Y-47576000D01*
X-39992000Y-47705000D01*
X-39990000Y-47707000D01*
X-39872000Y-47863000D01*
X-39871000Y-47864000D01*
X-39871000Y-47865000D01*
X-39786000Y-48040000D01*
X-39785000Y-48041000D01*
X-39785000Y-48043000D01*
X-39735000Y-48232000D01*
X-39735000Y-48234000D01*
X-39722000Y-48392000D01*
X-39722000Y-51130000D01*
X-37174000Y-53211000D01*
X-36831000Y-53393000D01*
X-36460000Y-53505000D01*
X-36012000Y-53549000D01*
X-4009000Y-53549000D01*
X-3565000Y-53502000D01*
G37*
G36*
X-31875000Y-44009000D02*
G01*
X-31888000Y-43889000D01*
X-31889000Y-43869000D01*
X-31889000Y-44147000D01*
X-31875000Y-44009000D01*
G37*
G36*
X-8231000Y-43869000D02*
G01*
X-8244000Y-44002000D01*
X-8231000Y-44126000D01*
X-8231000Y-43869000D01*
G37*
D11*
X-20233000Y-40794000D03*
X-19884000Y-40794000D03*
G04 #@! TA.AperFunction,SMDPad,CuDef*
G36*
G01*
X-20075000Y-39300000D02*
X-22095000Y-39300000D01*
G75*
G02*
X-22335000Y-39060000I0J240000D01*
G01*
X-22335000Y-37040000D01*
G75*
G02*
X-22095000Y-36800000I240000J0D01*
G01*
X-20075000Y-36800000D01*
G75*
G02*
X-19835000Y-37040000I0J-240000D01*
G01*
X-19835000Y-39060000D01*
G75*
G02*
X-20075000Y-39300000I-240000J0D01*
G01*
G37*
G04 #@! TD.AperFunction*
G04 #@! TA.AperFunction,SMDPad,CuDef*
G36*
G01*
X-22272500Y-40400000D02*
X-22397500Y-40400000D01*
G75*
G02*
X-22460000Y-40337500I0J62500D01*
G01*
X-22460000Y-39637500D01*
G75*
G02*
X-22397500Y-39575000I62500J0D01*
G01*
X-22272500Y-39575000D01*
G75*
G02*
X-22210000Y-39637500I0J-62500D01*
G01*
X-22210000Y-40337500D01*
G75*
G02*
X-22272500Y-40400000I-62500J0D01*
G01*
G37*
G04 #@! TD.AperFunction*
G04 #@! TA.AperFunction,SMDPad,CuDef*
G36*
G01*
X-21772500Y-40400000D02*
X-21897500Y-40400000D01*
G75*
G02*
X-21960000Y-40337500I0J62500D01*
G01*
X-21960000Y-39637500D01*
G75*
G02*
X-21897500Y-39575000I62500J0D01*
G01*
X-21772500Y-39575000D01*
G75*
G02*
X-21710000Y-39637500I0J-62500D01*
G01*
X-21710000Y-40337500D01*
G75*
G02*
X-21772500Y-40400000I-62500J0D01*
G01*
G37*
G04 #@! TD.AperFunction*
G04 #@! TA.AperFunction,SMDPad,CuDef*
G36*
G01*
X-21272500Y-40400000D02*
X-21397500Y-40400000D01*
G75*
G02*
X-21460000Y-40337500I0J62500D01*
G01*
X-21460000Y-39637500D01*
G75*
G02*
X-21397500Y-39575000I62500J0D01*
G01*
X-21272500Y-39575000D01*
G75*
G02*
X-21210000Y-39637500I0J-62500D01*
G01*
X-21210000Y-40337500D01*
G75*
G02*
X-21272500Y-40400000I-62500J0D01*
G01*
G37*
G04 #@! TD.AperFunction*
D12*
X-20835000Y-39987500D03*
X-20335000Y-39987500D03*
G04 #@! TA.AperFunction,SMDPad,CuDef*
G36*
G01*
X-19772500Y-40400000D02*
X-19897500Y-40400000D01*
G75*
G02*
X-19960000Y-40337500I0J62500D01*
G01*
X-19960000Y-39637500D01*
G75*
G02*
X-19897500Y-39575000I62500J0D01*
G01*
X-19772500Y-39575000D01*
G75*
G02*
X-19710000Y-39637500I0J-62500D01*
G01*
X-19710000Y-40337500D01*
G75*
G02*
X-19772500Y-40400000I-62500J0D01*
G01*
G37*
G04 #@! TD.AperFunction*
G04 #@! TA.AperFunction,SMDPad,CuDef*
G36*
G01*
X-18797500Y-39425000D02*
X-19497500Y-39425000D01*
G75*
G02*
X-19560000Y-39362500I0J62500D01*
G01*
X-19560000Y-39237500D01*
G75*
G02*
X-19497500Y-39175000I62500J0D01*
G01*
X-18797500Y-39175000D01*
G75*
G02*
X-18735000Y-39237500I0J-62500D01*
G01*
X-18735000Y-39362500D01*
G75*
G02*
X-18797500Y-39425000I-62500J0D01*
G01*
G37*
G04 #@! TD.AperFunction*
G04 #@! TA.AperFunction,SMDPad,CuDef*
G36*
G01*
X-18797500Y-38925000D02*
X-19497500Y-38925000D01*
G75*
G02*
X-19560000Y-38862500I0J62500D01*
G01*
X-19560000Y-38737500D01*
G75*
G02*
X-19497500Y-38675000I62500J0D01*
G01*
X-18797500Y-38675000D01*
G75*
G02*
X-18735000Y-38737500I0J-62500D01*
G01*
X-18735000Y-38862500D01*
G75*
G02*
X-18797500Y-38925000I-62500J0D01*
G01*
G37*
G04 #@! TD.AperFunction*
G04 #@! TA.AperFunction,SMDPad,CuDef*
G36*
G01*
X-18797500Y-38425000D02*
X-19497500Y-38425000D01*
G75*
G02*
X-19560000Y-38362500I0J62500D01*
G01*
X-19560000Y-38237500D01*
G75*
G02*
X-19497500Y-38175000I62500J0D01*
G01*
X-18797500Y-38175000D01*
G75*
G02*
X-18735000Y-38237500I0J-62500D01*
G01*
X-18735000Y-38362500D01*
G75*
G02*
X-18797500Y-38425000I-62500J0D01*
G01*
G37*
G04 #@! TD.AperFunction*
G04 #@! TA.AperFunction,SMDPad,CuDef*
G36*
G01*
X-18797500Y-37925000D02*
X-19497500Y-37925000D01*
G75*
G02*
X-19560000Y-37862500I0J62500D01*
G01*
X-19560000Y-37737500D01*
G75*
G02*
X-19497500Y-37675000I62500J0D01*
G01*
X-18797500Y-37675000D01*
G75*
G02*
X-18735000Y-37737500I0J-62500D01*
G01*
X-18735000Y-37862500D01*
G75*
G02*
X-18797500Y-37925000I-62500J0D01*
G01*
G37*
G04 #@! TD.AperFunction*
G04 #@! TA.AperFunction,SMDPad,CuDef*
G36*
G01*
X-18797500Y-37425000D02*
X-19497500Y-37425000D01*
G75*
G02*
X-19560000Y-37362500I0J62500D01*
G01*
X-19560000Y-37237500D01*
G75*
G02*
X-19497500Y-37175000I62500J0D01*
G01*
X-18797500Y-37175000D01*
G75*
G02*
X-18735000Y-37237500I0J-62500D01*
G01*
X-18735000Y-37362500D01*
G75*
G02*
X-18797500Y-37425000I-62500J0D01*
G01*
G37*
G04 #@! TD.AperFunction*
G04 #@! TA.AperFunction,SMDPad,CuDef*
G36*
G01*
X-18797500Y-36925000D02*
X-19497500Y-36925000D01*
G75*
G02*
X-19560000Y-36862500I0J62500D01*
G01*
X-19560000Y-36737500D01*
G75*
G02*
X-19497500Y-36675000I62500J0D01*
G01*
X-18797500Y-36675000D01*
G75*
G02*
X-18735000Y-36737500I0J-62500D01*
G01*
X-18735000Y-36862500D01*
G75*
G02*
X-18797500Y-36925000I-62500J0D01*
G01*
G37*
G04 #@! TD.AperFunction*
G04 #@! TA.AperFunction,SMDPad,CuDef*
G36*
G01*
X-19772500Y-36525000D02*
X-19897500Y-36525000D01*
G75*
G02*
X-19960000Y-36462500I0J62500D01*
G01*
X-19960000Y-35762500D01*
G75*
G02*
X-19897500Y-35700000I62500J0D01*
G01*
X-19772500Y-35700000D01*
G75*
G02*
X-19710000Y-35762500I0J-62500D01*
G01*
X-19710000Y-36462500D01*
G75*
G02*
X-19772500Y-36525000I-62500J0D01*
G01*
G37*
G04 #@! TD.AperFunction*
G04 #@! TA.AperFunction,SMDPad,CuDef*
G36*
G01*
X-20272500Y-36525000D02*
X-20397500Y-36525000D01*
G75*
G02*
X-20460000Y-36462500I0J62500D01*
G01*
X-20460000Y-35762500D01*
G75*
G02*
X-20397500Y-35700000I62500J0D01*
G01*
X-20272500Y-35700000D01*
G75*
G02*
X-20210000Y-35762500I0J-62500D01*
G01*
X-20210000Y-36462500D01*
G75*
G02*
X-20272500Y-36525000I-62500J0D01*
G01*
G37*
G04 #@! TD.AperFunction*
G04 #@! TA.AperFunction,SMDPad,CuDef*
G36*
G01*
X-20772500Y-36525000D02*
X-20897500Y-36525000D01*
G75*
G02*
X-20960000Y-36462500I0J62500D01*
G01*
X-20960000Y-35762500D01*
G75*
G02*
X-20897500Y-35700000I62500J0D01*
G01*
X-20772500Y-35700000D01*
G75*
G02*
X-20710000Y-35762500I0J-62500D01*
G01*
X-20710000Y-36462500D01*
G75*
G02*
X-20772500Y-36525000I-62500J0D01*
G01*
G37*
G04 #@! TD.AperFunction*
G04 #@! TA.AperFunction,SMDPad,CuDef*
G36*
G01*
X-21272500Y-36525000D02*
X-21397500Y-36525000D01*
G75*
G02*
X-21460000Y-36462500I0J62500D01*
G01*
X-21460000Y-35762500D01*
G75*
G02*
X-21397500Y-35700000I62500J0D01*
G01*
X-21272500Y-35700000D01*
G75*
G02*
X-21210000Y-35762500I0J-62500D01*
G01*
X-21210000Y-36462500D01*
G75*
G02*
X-21272500Y-36525000I-62500J0D01*
G01*
G37*
G04 #@! TD.AperFunction*
G04 #@! TA.AperFunction,SMDPad,CuDef*
G36*
G01*
X-21772500Y-36525000D02*
X-21897500Y-36525000D01*
G75*
G02*
X-21960000Y-36462500I0J62500D01*
G01*
X-21960000Y-35762500D01*
G75*
G02*
X-21897500Y-35700000I62500J0D01*
G01*
X-21772500Y-35700000D01*
G75*
G02*
X-21710000Y-35762500I0J-62500D01*
G01*
X-21710000Y-36462500D01*
G75*
G02*
X-21772500Y-36525000I-62500J0D01*
G01*
G37*
G04 #@! TD.AperFunction*
G04 #@! TA.AperFunction,SMDPad,CuDef*
G36*
G01*
X-22272500Y-36525000D02*
X-22397500Y-36525000D01*
G75*
G02*
X-22460000Y-36462500I0J62500D01*
G01*
X-22460000Y-35762500D01*
G75*
G02*
X-22397500Y-35700000I62500J0D01*
G01*
X-22272500Y-35700000D01*
G75*
G02*
X-22210000Y-35762500I0J-62500D01*
G01*
X-22210000Y-36462500D01*
G75*
G02*
X-22272500Y-36525000I-62500J0D01*
G01*
G37*
G04 #@! TD.AperFunction*
G04 #@! TA.AperFunction,SMDPad,CuDef*
G36*
G01*
X-22672500Y-36925000D02*
X-23372500Y-36925000D01*
G75*
G02*
X-23435000Y-36862500I0J62500D01*
G01*
X-23435000Y-36737500D01*
G75*
G02*
X-23372500Y-36675000I62500J0D01*
G01*
X-22672500Y-36675000D01*
G75*
G02*
X-22610000Y-36737500I0J-62500D01*
G01*
X-22610000Y-36862500D01*
G75*
G02*
X-22672500Y-36925000I-62500J0D01*
G01*
G37*
G04 #@! TD.AperFunction*
G04 #@! TA.AperFunction,SMDPad,CuDef*
G36*
G01*
X-22672500Y-37425000D02*
X-23372500Y-37425000D01*
G75*
G02*
X-23435000Y-37362500I0J62500D01*
G01*
X-23435000Y-37237500D01*
G75*
G02*
X-23372500Y-37175000I62500J0D01*
G01*
X-22672500Y-37175000D01*
G75*
G02*
X-22610000Y-37237500I0J-62500D01*
G01*
X-22610000Y-37362500D01*
G75*
G02*
X-22672500Y-37425000I-62500J0D01*
G01*
G37*
G04 #@! TD.AperFunction*
G04 #@! TA.AperFunction,SMDPad,CuDef*
G36*
G01*
X-22672500Y-37925000D02*
X-23372500Y-37925000D01*
G75*
G02*
X-23435000Y-37862500I0J62500D01*
G01*
X-23435000Y-37737500D01*
G75*
G02*
X-23372500Y-37675000I62500J0D01*
G01*
X-22672500Y-37675000D01*
G75*
G02*
X-22610000Y-37737500I0J-62500D01*
G01*
X-22610000Y-37862500D01*
G75*
G02*
X-22672500Y-37925000I-62500J0D01*
G01*
G37*
G04 #@! TD.AperFunction*
G04 #@! TA.AperFunction,SMDPad,CuDef*
G36*
G01*
X-22672500Y-38425000D02*
X-23372500Y-38425000D01*
G75*
G02*
X-23435000Y-38362500I0J62500D01*
G01*
X-23435000Y-38237500D01*
G75*
G02*
X-23372500Y-38175000I62500J0D01*
G01*
X-22672500Y-38175000D01*
G75*
G02*
X-22610000Y-38237500I0J-62500D01*
G01*
X-22610000Y-38362500D01*
G75*
G02*
X-22672500Y-38425000I-62500J0D01*
G01*
G37*
G04 #@! TD.AperFunction*
G04 #@! TA.AperFunction,SMDPad,CuDef*
G36*
G01*
X-22672500Y-38925000D02*
X-23372500Y-38925000D01*
G75*
G02*
X-23435000Y-38862500I0J62500D01*
G01*
X-23435000Y-38737500D01*
G75*
G02*
X-23372500Y-38675000I62500J0D01*
G01*
X-22672500Y-38675000D01*
G75*
G02*
X-22610000Y-38737500I0J-62500D01*
G01*
X-22610000Y-38862500D01*
G75*
G02*
X-22672500Y-38925000I-62500J0D01*
G01*
G37*
G04 #@! TD.AperFunction*
G04 #@! TA.AperFunction,SMDPad,CuDef*
G36*
G01*
X-22672500Y-39425000D02*
X-23372500Y-39425000D01*
G75*
G02*
X-23435000Y-39362500I0J62500D01*
G01*
X-23435000Y-39237500D01*
G75*
G02*
X-23372500Y-39175000I62500J0D01*
G01*
X-22672500Y-39175000D01*
G75*
G02*
X-22610000Y-39237500I0J-62500D01*
G01*
X-22610000Y-39362500D01*
G75*
G02*
X-22672500Y-39425000I-62500J0D01*
G01*
G37*
G04 #@! TD.AperFunction*
D13*
X-21335000Y-38300000D02*
X-21085000Y-38050000D01*
X-21335000Y-37800000D02*
X-21085000Y-38050000D01*
X-21085000Y-38050000D02*
X-21085000Y-37920000D01*
X-19884990Y-36719990D02*
X-19884990Y-36162490D01*
X-21335000Y-39987500D02*
X-21335000Y-38300000D01*
X-21835000Y-37300000D02*
X-21085000Y-38050000D01*
X-21085000Y-37920000D02*
X-19884990Y-36719990D01*
X-19884990Y-36162490D02*
X-19835000Y-36112500D01*
X-21335000Y-36112500D02*
X-21335000Y-37800000D01*
X-21835000Y-36112500D02*
X-21835000Y-37300000D01*
X-19884000Y-40036500D02*
X-19835000Y-39987500D01*
X-19884000Y-40794000D02*
X-19884000Y-40036500D01*
X-20233000Y-40089500D02*
X-20335000Y-39987500D01*
X-20233000Y-40794000D02*
X-20233000Y-40089500D01*
M02*
