G04 #@! TF.GenerationSoftware,KiCad,Pcbnew,5.1.9*
G04 #@! TF.CreationDate,2022-02-02T10:11:48+01:00*
G04 #@! TF.ProjectId,Test_Antenna,54657374-5f41-46e7-9465-6e6e612e6b69,rev?*
G04 #@! TF.SameCoordinates,Original*
G04 #@! TF.FileFunction,Other,Fab,Top*
%FSLAX46Y46*%
G04 Gerber Fmt 4.6, Leading zero omitted, Abs format (unit mm)*
G04 Created by KiCad (PCBNEW 5.1.9) date 2022-02-02 10:11:48*
%MOMM*%
%LPD*%
G01*
G04 APERTURE LIST*
%ADD10C,0.100000*%
%ADD11C,0.150000*%
G04 APERTURE END LIST*
D10*
X-23085000Y-39050000D02*
X-23085000Y-36050000D01*
X-23085000Y-36050000D02*
X-19085000Y-36050000D01*
X-19085000Y-36050000D02*
X-19085000Y-40050000D01*
X-19085000Y-40050000D02*
X-22085000Y-40050000D01*
X-22085000Y-40050000D02*
X-23085000Y-39050000D01*
D11*
X-17332619Y-41002380D02*
X-17999285Y-41002380D01*
X-17808809Y-41002380D02*
X-17904047Y-40954761D01*
X-17951666Y-40907142D01*
X-17999285Y-40811904D01*
X-17999285Y-40716666D01*
X-17332619Y-40383333D02*
X-17999285Y-40383333D01*
X-18332619Y-40383333D02*
X-18285000Y-40430952D01*
X-18237380Y-40383333D01*
X-18285000Y-40335714D01*
X-18332619Y-40383333D01*
X-18237380Y-40383333D01*
X-17999285Y-40050000D02*
X-17999285Y-39669047D01*
X-17332619Y-39907142D02*
X-18189761Y-39907142D01*
X-18285000Y-39859523D01*
X-18332619Y-39764285D01*
X-18332619Y-39669047D01*
X-17999285Y-39430952D02*
X-17332619Y-39192857D01*
X-17999285Y-38954761D02*
X-17332619Y-39192857D01*
X-17094523Y-39288095D01*
X-17046904Y-39335714D01*
X-16999285Y-39430952D01*
X-17332619Y-38430952D02*
X-17380238Y-38526190D01*
X-17475476Y-38573809D01*
X-18332619Y-38573809D01*
X-17380238Y-37669047D02*
X-17332619Y-37764285D01*
X-17332619Y-37954761D01*
X-17380238Y-38050000D01*
X-17475476Y-38097619D01*
X-17856428Y-38097619D01*
X-17951666Y-38050000D01*
X-17999285Y-37954761D01*
X-17999285Y-37764285D01*
X-17951666Y-37669047D01*
X-17856428Y-37621428D01*
X-17761190Y-37621428D01*
X-17665952Y-38097619D01*
X-17237380Y-37430952D02*
X-17237380Y-36669047D01*
X-18332619Y-36573809D02*
X-17332619Y-36240476D01*
X-18332619Y-35907142D01*
X-18332619Y-35669047D02*
X-18332619Y-35050000D01*
X-17951666Y-35383333D01*
X-17951666Y-35240476D01*
X-17904047Y-35145238D01*
X-17856428Y-35097619D01*
X-17761190Y-35050000D01*
X-17523095Y-35050000D01*
X-17427857Y-35097619D01*
X-17380238Y-35145238D01*
X-17332619Y-35240476D01*
X-17332619Y-35526190D01*
X-17380238Y-35621428D01*
X-17427857Y-35669047D01*
X-21632619Y-38811904D02*
X-20823095Y-38811904D01*
X-20727857Y-38764285D01*
X-20680238Y-38716666D01*
X-20632619Y-38621428D01*
X-20632619Y-38430952D01*
X-20680238Y-38335714D01*
X-20727857Y-38288095D01*
X-20823095Y-38240476D01*
X-21632619Y-38240476D01*
X-21632619Y-37288095D02*
X-21632619Y-37764285D01*
X-21156428Y-37811904D01*
X-21204047Y-37764285D01*
X-21251666Y-37669047D01*
X-21251666Y-37430952D01*
X-21204047Y-37335714D01*
X-21156428Y-37288095D01*
X-21061190Y-37240476D01*
X-20823095Y-37240476D01*
X-20727857Y-37288095D01*
X-20680238Y-37335714D01*
X-20632619Y-37430952D01*
X-20632619Y-37669047D01*
X-20680238Y-37764285D01*
X-20727857Y-37811904D01*
M02*
