G04 #@! TF.GenerationSoftware,KiCad,Pcbnew,6.0.9-8da3e8f707~117~ubuntu20.04.1*
G04 #@! TF.CreationDate,2022-12-15T16:27:20+01:00*
G04 #@! TF.ProjectId,picsyle-R_pressure_915,70696373-796c-4652-9d52-5f7072657373,rev?*
G04 #@! TF.SameCoordinates,Original*
G04 #@! TF.FileFunction,AssemblyDrawing,Top*
%FSLAX46Y46*%
G04 Gerber Fmt 4.6, Leading zero omitted, Abs format (unit mm)*
G04 Created by KiCad (PCBNEW 6.0.9-8da3e8f707~117~ubuntu20.04.1) date 2022-12-15 16:27:20*
%MOMM*%
%LPD*%
G01*
G04 APERTURE LIST*
%ADD10C,0.010000*%
%ADD11C,0.150000*%
%ADD12C,0.100000*%
G04 APERTURE END LIST*
D10*
X101923809Y-63070238D02*
X101923809Y-62970238D01*
X101923809Y-63017857D02*
X101980952Y-63017857D01*
X101980952Y-63070238D02*
X101980952Y-62970238D01*
X102019047Y-62970238D02*
X102080952Y-62970238D01*
X102047619Y-63008333D01*
X102061904Y-63008333D01*
X102071428Y-63013095D01*
X102076190Y-63017857D01*
X102080952Y-63027380D01*
X102080952Y-63051190D01*
X102076190Y-63060714D01*
X102071428Y-63065476D01*
X102061904Y-63070238D01*
X102033333Y-63070238D01*
X102023809Y-63065476D01*
X102019047Y-63060714D01*
X101545238Y-62753571D02*
X101545238Y-62820238D01*
X101502380Y-62753571D02*
X101502380Y-62805952D01*
X101507142Y-62815476D01*
X101516666Y-62820238D01*
X101530952Y-62820238D01*
X101540476Y-62815476D01*
X101545238Y-62810714D01*
X101592857Y-62753571D02*
X101592857Y-62820238D01*
X101592857Y-62763095D02*
X101597619Y-62758333D01*
X101607142Y-62753571D01*
X101621428Y-62753571D01*
X101630952Y-62758333D01*
X101635714Y-62767857D01*
X101635714Y-62820238D01*
X101683333Y-62753571D02*
X101683333Y-62853571D01*
X101683333Y-62758333D02*
X101692857Y-62753571D01*
X101711904Y-62753571D01*
X101721428Y-62758333D01*
X101726190Y-62763095D01*
X101730952Y-62772619D01*
X101730952Y-62801190D01*
X101726190Y-62810714D01*
X101721428Y-62815476D01*
X101711904Y-62820238D01*
X101692857Y-62820238D01*
X101683333Y-62815476D01*
X101788095Y-62820238D02*
X101778571Y-62815476D01*
X101773809Y-62805952D01*
X101773809Y-62720238D01*
X101869047Y-62820238D02*
X101869047Y-62767857D01*
X101864285Y-62758333D01*
X101854761Y-62753571D01*
X101835714Y-62753571D01*
X101826190Y-62758333D01*
X101869047Y-62815476D02*
X101859523Y-62820238D01*
X101835714Y-62820238D01*
X101826190Y-62815476D01*
X101821428Y-62805952D01*
X101821428Y-62796428D01*
X101826190Y-62786904D01*
X101835714Y-62782142D01*
X101859523Y-62782142D01*
X101869047Y-62777380D01*
X101902380Y-62753571D02*
X101940476Y-62753571D01*
X101916666Y-62720238D02*
X101916666Y-62805952D01*
X101921428Y-62815476D01*
X101930952Y-62820238D01*
X101940476Y-62820238D01*
X102011904Y-62815476D02*
X102002380Y-62820238D01*
X101983333Y-62820238D01*
X101973809Y-62815476D01*
X101969047Y-62805952D01*
X101969047Y-62767857D01*
X101973809Y-62758333D01*
X101983333Y-62753571D01*
X102002380Y-62753571D01*
X102011904Y-62758333D01*
X102016666Y-62767857D01*
X102016666Y-62777380D01*
X101969047Y-62786904D01*
X102102380Y-62820238D02*
X102102380Y-62720238D01*
X102102380Y-62815476D02*
X102092857Y-62820238D01*
X102073809Y-62820238D01*
X102064285Y-62815476D01*
X102059523Y-62810714D01*
X102054761Y-62801190D01*
X102054761Y-62772619D01*
X102059523Y-62763095D01*
X102064285Y-62758333D01*
X102073809Y-62753571D01*
X102092857Y-62753571D01*
X102102380Y-62758333D01*
X102126190Y-62829761D02*
X102202380Y-62829761D01*
X102226190Y-62820238D02*
X102226190Y-62720238D01*
X102269047Y-62820238D02*
X102269047Y-62767857D01*
X102264285Y-62758333D01*
X102254761Y-62753571D01*
X102240476Y-62753571D01*
X102230952Y-62758333D01*
X102226190Y-62763095D01*
X102330952Y-62820238D02*
X102321428Y-62815476D01*
X102316666Y-62810714D01*
X102311904Y-62801190D01*
X102311904Y-62772619D01*
X102316666Y-62763095D01*
X102321428Y-62758333D01*
X102330952Y-62753571D01*
X102345238Y-62753571D01*
X102354761Y-62758333D01*
X102359523Y-62763095D01*
X102364285Y-62772619D01*
X102364285Y-62801190D01*
X102359523Y-62810714D01*
X102354761Y-62815476D01*
X102345238Y-62820238D01*
X102330952Y-62820238D01*
X102421428Y-62820238D02*
X102411904Y-62815476D01*
X102407142Y-62805952D01*
X102407142Y-62720238D01*
X102497619Y-62815476D02*
X102488095Y-62820238D01*
X102469047Y-62820238D01*
X102459523Y-62815476D01*
X102454761Y-62805952D01*
X102454761Y-62767857D01*
X102459523Y-62758333D01*
X102469047Y-62753571D01*
X102488095Y-62753571D01*
X102497619Y-62758333D01*
X102502380Y-62767857D01*
X102502380Y-62777380D01*
X102454761Y-62786904D01*
D11*
X67532380Y-48912380D02*
X66865714Y-48912380D01*
X67056190Y-48912380D02*
X66960952Y-48864761D01*
X66913333Y-48817142D01*
X66865714Y-48721904D01*
X66865714Y-48626666D01*
X67532380Y-48293333D02*
X66865714Y-48293333D01*
X66532380Y-48293333D02*
X66580000Y-48340952D01*
X66627619Y-48293333D01*
X66580000Y-48245714D01*
X66532380Y-48293333D01*
X66627619Y-48293333D01*
X66865714Y-47960000D02*
X66865714Y-47579047D01*
X67532380Y-47817142D02*
X66675238Y-47817142D01*
X66580000Y-47769523D01*
X66532380Y-47674285D01*
X66532380Y-47579047D01*
X66865714Y-47340952D02*
X67532380Y-47102857D01*
X66865714Y-46864761D02*
X67532380Y-47102857D01*
X67770476Y-47198095D01*
X67818095Y-47245714D01*
X67865714Y-47340952D01*
X67532380Y-46340952D02*
X67484761Y-46436190D01*
X67389523Y-46483809D01*
X66532380Y-46483809D01*
X67484761Y-45579047D02*
X67532380Y-45674285D01*
X67532380Y-45864761D01*
X67484761Y-45960000D01*
X67389523Y-46007619D01*
X67008571Y-46007619D01*
X66913333Y-45960000D01*
X66865714Y-45864761D01*
X66865714Y-45674285D01*
X66913333Y-45579047D01*
X67008571Y-45531428D01*
X67103809Y-45531428D01*
X67199047Y-46007619D01*
X67627619Y-45340952D02*
X67627619Y-44579047D01*
X66532380Y-44483809D02*
X67532380Y-44150476D01*
X66532380Y-43817142D01*
X66865714Y-43055238D02*
X67532380Y-43055238D01*
X66484761Y-43293333D02*
X67199047Y-43531428D01*
X67199047Y-42912380D01*
X63232380Y-46721904D02*
X64041904Y-46721904D01*
X64137142Y-46674285D01*
X64184761Y-46626666D01*
X64232380Y-46531428D01*
X64232380Y-46340952D01*
X64184761Y-46245714D01*
X64137142Y-46198095D01*
X64041904Y-46150476D01*
X63232380Y-46150476D01*
X64232380Y-45150476D02*
X64232380Y-45721904D01*
X64232380Y-45436190D02*
X63232380Y-45436190D01*
X63375238Y-45531428D01*
X63470476Y-45626666D01*
X63518095Y-45721904D01*
D10*
X27923809Y-34070238D02*
X27923809Y-33970238D01*
X27923809Y-34017857D02*
X27980952Y-34017857D01*
X27980952Y-34070238D02*
X27980952Y-33970238D01*
X28080952Y-34070238D02*
X28023809Y-34070238D01*
X28052380Y-34070238D02*
X28052380Y-33970238D01*
X28042857Y-33984523D01*
X28033333Y-33994047D01*
X28023809Y-33998809D01*
X27545238Y-33753571D02*
X27545238Y-33820238D01*
X27502380Y-33753571D02*
X27502380Y-33805952D01*
X27507142Y-33815476D01*
X27516666Y-33820238D01*
X27530952Y-33820238D01*
X27540476Y-33815476D01*
X27545238Y-33810714D01*
X27592857Y-33753571D02*
X27592857Y-33820238D01*
X27592857Y-33763095D02*
X27597619Y-33758333D01*
X27607142Y-33753571D01*
X27621428Y-33753571D01*
X27630952Y-33758333D01*
X27635714Y-33767857D01*
X27635714Y-33820238D01*
X27683333Y-33753571D02*
X27683333Y-33853571D01*
X27683333Y-33758333D02*
X27692857Y-33753571D01*
X27711904Y-33753571D01*
X27721428Y-33758333D01*
X27726190Y-33763095D01*
X27730952Y-33772619D01*
X27730952Y-33801190D01*
X27726190Y-33810714D01*
X27721428Y-33815476D01*
X27711904Y-33820238D01*
X27692857Y-33820238D01*
X27683333Y-33815476D01*
X27788095Y-33820238D02*
X27778571Y-33815476D01*
X27773809Y-33805952D01*
X27773809Y-33720238D01*
X27869047Y-33820238D02*
X27869047Y-33767857D01*
X27864285Y-33758333D01*
X27854761Y-33753571D01*
X27835714Y-33753571D01*
X27826190Y-33758333D01*
X27869047Y-33815476D02*
X27859523Y-33820238D01*
X27835714Y-33820238D01*
X27826190Y-33815476D01*
X27821428Y-33805952D01*
X27821428Y-33796428D01*
X27826190Y-33786904D01*
X27835714Y-33782142D01*
X27859523Y-33782142D01*
X27869047Y-33777380D01*
X27902380Y-33753571D02*
X27940476Y-33753571D01*
X27916666Y-33720238D02*
X27916666Y-33805952D01*
X27921428Y-33815476D01*
X27930952Y-33820238D01*
X27940476Y-33820238D01*
X28011904Y-33815476D02*
X28002380Y-33820238D01*
X27983333Y-33820238D01*
X27973809Y-33815476D01*
X27969047Y-33805952D01*
X27969047Y-33767857D01*
X27973809Y-33758333D01*
X27983333Y-33753571D01*
X28002380Y-33753571D01*
X28011904Y-33758333D01*
X28016666Y-33767857D01*
X28016666Y-33777380D01*
X27969047Y-33786904D01*
X28102380Y-33820238D02*
X28102380Y-33720238D01*
X28102380Y-33815476D02*
X28092857Y-33820238D01*
X28073809Y-33820238D01*
X28064285Y-33815476D01*
X28059523Y-33810714D01*
X28054761Y-33801190D01*
X28054761Y-33772619D01*
X28059523Y-33763095D01*
X28064285Y-33758333D01*
X28073809Y-33753571D01*
X28092857Y-33753571D01*
X28102380Y-33758333D01*
X28126190Y-33829761D02*
X28202380Y-33829761D01*
X28226190Y-33820238D02*
X28226190Y-33720238D01*
X28269047Y-33820238D02*
X28269047Y-33767857D01*
X28264285Y-33758333D01*
X28254761Y-33753571D01*
X28240476Y-33753571D01*
X28230952Y-33758333D01*
X28226190Y-33763095D01*
X28330952Y-33820238D02*
X28321428Y-33815476D01*
X28316666Y-33810714D01*
X28311904Y-33801190D01*
X28311904Y-33772619D01*
X28316666Y-33763095D01*
X28321428Y-33758333D01*
X28330952Y-33753571D01*
X28345238Y-33753571D01*
X28354761Y-33758333D01*
X28359523Y-33763095D01*
X28364285Y-33772619D01*
X28364285Y-33801190D01*
X28359523Y-33810714D01*
X28354761Y-33815476D01*
X28345238Y-33820238D01*
X28330952Y-33820238D01*
X28421428Y-33820238D02*
X28411904Y-33815476D01*
X28407142Y-33805952D01*
X28407142Y-33720238D01*
X28497619Y-33815476D02*
X28488095Y-33820238D01*
X28469047Y-33820238D01*
X28459523Y-33815476D01*
X28454761Y-33805952D01*
X28454761Y-33767857D01*
X28459523Y-33758333D01*
X28469047Y-33753571D01*
X28488095Y-33753571D01*
X28497619Y-33758333D01*
X28502380Y-33767857D01*
X28502380Y-33777380D01*
X28454761Y-33786904D01*
D11*
X50781904Y-43112380D02*
X50781904Y-42112380D01*
X51020000Y-42112380D01*
X51162857Y-42160000D01*
X51258095Y-42255238D01*
X51305714Y-42350476D01*
X51353333Y-42540952D01*
X51353333Y-42683809D01*
X51305714Y-42874285D01*
X51258095Y-42969523D01*
X51162857Y-43064761D01*
X51020000Y-43112380D01*
X50781904Y-43112380D01*
X52305714Y-43112380D02*
X51734285Y-43112380D01*
X52020000Y-43112380D02*
X52020000Y-42112380D01*
X51924761Y-42255238D01*
X51829523Y-42350476D01*
X51734285Y-42398095D01*
X53305714Y-43017142D02*
X53258095Y-43064761D01*
X53115238Y-43112380D01*
X53020000Y-43112380D01*
X52877142Y-43064761D01*
X52781904Y-42969523D01*
X52734285Y-42874285D01*
X52686666Y-42683809D01*
X52686666Y-42540952D01*
X52734285Y-42350476D01*
X52781904Y-42255238D01*
X52877142Y-42160000D01*
X53020000Y-42112380D01*
X53115238Y-42112380D01*
X53258095Y-42160000D01*
X53305714Y-42207619D01*
X53734285Y-42731428D02*
X54496190Y-42731428D01*
X55162857Y-42112380D02*
X55258095Y-42112380D01*
X55353333Y-42160000D01*
X55400952Y-42207619D01*
X55448571Y-42302857D01*
X55496190Y-42493333D01*
X55496190Y-42731428D01*
X55448571Y-42921904D01*
X55400952Y-43017142D01*
X55353333Y-43064761D01*
X55258095Y-43112380D01*
X55162857Y-43112380D01*
X55067619Y-43064761D01*
X55020000Y-43017142D01*
X54972380Y-42921904D01*
X54924761Y-42731428D01*
X54924761Y-42493333D01*
X54972380Y-42302857D01*
X55020000Y-42207619D01*
X55067619Y-42160000D01*
X55162857Y-42112380D01*
X56448571Y-43112380D02*
X55877142Y-43112380D01*
X56162857Y-43112380D02*
X56162857Y-42112380D01*
X56067619Y-42255238D01*
X55972380Y-42350476D01*
X55877142Y-42398095D01*
X57067619Y-42112380D02*
X57162857Y-42112380D01*
X57258095Y-42160000D01*
X57305714Y-42207619D01*
X57353333Y-42302857D01*
X57400952Y-42493333D01*
X57400952Y-42731428D01*
X57353333Y-42921904D01*
X57305714Y-43017142D01*
X57258095Y-43064761D01*
X57162857Y-43112380D01*
X57067619Y-43112380D01*
X56972380Y-43064761D01*
X56924761Y-43017142D01*
X56877142Y-42921904D01*
X56829523Y-42731428D01*
X56829523Y-42493333D01*
X56877142Y-42302857D01*
X56924761Y-42207619D01*
X56972380Y-42160000D01*
X57067619Y-42112380D01*
X58020000Y-42112380D02*
X58115238Y-42112380D01*
X58210476Y-42160000D01*
X58258095Y-42207619D01*
X58305714Y-42302857D01*
X58353333Y-42493333D01*
X58353333Y-42731428D01*
X58305714Y-42921904D01*
X58258095Y-43017142D01*
X58210476Y-43064761D01*
X58115238Y-43112380D01*
X58020000Y-43112380D01*
X57924761Y-43064761D01*
X57877142Y-43017142D01*
X57829523Y-42921904D01*
X57781904Y-42731428D01*
X57781904Y-42493333D01*
X57829523Y-42302857D01*
X57877142Y-42207619D01*
X57924761Y-42160000D01*
X58020000Y-42112380D01*
X58781904Y-42731428D02*
X59543809Y-42731428D01*
X60496190Y-42112380D02*
X60020000Y-42112380D01*
X59972380Y-42588571D01*
X60020000Y-42540952D01*
X60115238Y-42493333D01*
X60353333Y-42493333D01*
X60448571Y-42540952D01*
X60496190Y-42588571D01*
X60543809Y-42683809D01*
X60543809Y-42921904D01*
X60496190Y-43017142D01*
X60448571Y-43064761D01*
X60353333Y-43112380D01*
X60115238Y-43112380D01*
X60020000Y-43064761D01*
X59972380Y-43017142D01*
X60829523Y-42112380D02*
X61400952Y-42112380D01*
X61115238Y-43112380D02*
X61115238Y-42112380D01*
X54908095Y-45482380D02*
X54908095Y-46291904D01*
X54955714Y-46387142D01*
X55003333Y-46434761D01*
X55098571Y-46482380D01*
X55289047Y-46482380D01*
X55384285Y-46434761D01*
X55431904Y-46387142D01*
X55479523Y-46291904D01*
X55479523Y-45482380D01*
X55908095Y-45577619D02*
X55955714Y-45530000D01*
X56050952Y-45482380D01*
X56289047Y-45482380D01*
X56384285Y-45530000D01*
X56431904Y-45577619D01*
X56479523Y-45672857D01*
X56479523Y-45768095D01*
X56431904Y-45910952D01*
X55860476Y-46482380D01*
X56479523Y-46482380D01*
D10*
X101923809Y-34070238D02*
X101923809Y-33970238D01*
X101923809Y-34017857D02*
X101980952Y-34017857D01*
X101980952Y-34070238D02*
X101980952Y-33970238D01*
X102023809Y-33979761D02*
X102028571Y-33975000D01*
X102038095Y-33970238D01*
X102061904Y-33970238D01*
X102071428Y-33975000D01*
X102076190Y-33979761D01*
X102080952Y-33989285D01*
X102080952Y-33998809D01*
X102076190Y-34013095D01*
X102019047Y-34070238D01*
X102080952Y-34070238D01*
X101545238Y-33753571D02*
X101545238Y-33820238D01*
X101502380Y-33753571D02*
X101502380Y-33805952D01*
X101507142Y-33815476D01*
X101516666Y-33820238D01*
X101530952Y-33820238D01*
X101540476Y-33815476D01*
X101545238Y-33810714D01*
X101592857Y-33753571D02*
X101592857Y-33820238D01*
X101592857Y-33763095D02*
X101597619Y-33758333D01*
X101607142Y-33753571D01*
X101621428Y-33753571D01*
X101630952Y-33758333D01*
X101635714Y-33767857D01*
X101635714Y-33820238D01*
X101683333Y-33753571D02*
X101683333Y-33853571D01*
X101683333Y-33758333D02*
X101692857Y-33753571D01*
X101711904Y-33753571D01*
X101721428Y-33758333D01*
X101726190Y-33763095D01*
X101730952Y-33772619D01*
X101730952Y-33801190D01*
X101726190Y-33810714D01*
X101721428Y-33815476D01*
X101711904Y-33820238D01*
X101692857Y-33820238D01*
X101683333Y-33815476D01*
X101788095Y-33820238D02*
X101778571Y-33815476D01*
X101773809Y-33805952D01*
X101773809Y-33720238D01*
X101869047Y-33820238D02*
X101869047Y-33767857D01*
X101864285Y-33758333D01*
X101854761Y-33753571D01*
X101835714Y-33753571D01*
X101826190Y-33758333D01*
X101869047Y-33815476D02*
X101859523Y-33820238D01*
X101835714Y-33820238D01*
X101826190Y-33815476D01*
X101821428Y-33805952D01*
X101821428Y-33796428D01*
X101826190Y-33786904D01*
X101835714Y-33782142D01*
X101859523Y-33782142D01*
X101869047Y-33777380D01*
X101902380Y-33753571D02*
X101940476Y-33753571D01*
X101916666Y-33720238D02*
X101916666Y-33805952D01*
X101921428Y-33815476D01*
X101930952Y-33820238D01*
X101940476Y-33820238D01*
X102011904Y-33815476D02*
X102002380Y-33820238D01*
X101983333Y-33820238D01*
X101973809Y-33815476D01*
X101969047Y-33805952D01*
X101969047Y-33767857D01*
X101973809Y-33758333D01*
X101983333Y-33753571D01*
X102002380Y-33753571D01*
X102011904Y-33758333D01*
X102016666Y-33767857D01*
X102016666Y-33777380D01*
X101969047Y-33786904D01*
X102102380Y-33820238D02*
X102102380Y-33720238D01*
X102102380Y-33815476D02*
X102092857Y-33820238D01*
X102073809Y-33820238D01*
X102064285Y-33815476D01*
X102059523Y-33810714D01*
X102054761Y-33801190D01*
X102054761Y-33772619D01*
X102059523Y-33763095D01*
X102064285Y-33758333D01*
X102073809Y-33753571D01*
X102092857Y-33753571D01*
X102102380Y-33758333D01*
X102126190Y-33829761D02*
X102202380Y-33829761D01*
X102226190Y-33820238D02*
X102226190Y-33720238D01*
X102269047Y-33820238D02*
X102269047Y-33767857D01*
X102264285Y-33758333D01*
X102254761Y-33753571D01*
X102240476Y-33753571D01*
X102230952Y-33758333D01*
X102226190Y-33763095D01*
X102330952Y-33820238D02*
X102321428Y-33815476D01*
X102316666Y-33810714D01*
X102311904Y-33801190D01*
X102311904Y-33772619D01*
X102316666Y-33763095D01*
X102321428Y-33758333D01*
X102330952Y-33753571D01*
X102345238Y-33753571D01*
X102354761Y-33758333D01*
X102359523Y-33763095D01*
X102364285Y-33772619D01*
X102364285Y-33801190D01*
X102359523Y-33810714D01*
X102354761Y-33815476D01*
X102345238Y-33820238D01*
X102330952Y-33820238D01*
X102421428Y-33820238D02*
X102411904Y-33815476D01*
X102407142Y-33805952D01*
X102407142Y-33720238D01*
X102497619Y-33815476D02*
X102488095Y-33820238D01*
X102469047Y-33820238D01*
X102459523Y-33815476D01*
X102454761Y-33805952D01*
X102454761Y-33767857D01*
X102459523Y-33758333D01*
X102469047Y-33753571D01*
X102488095Y-33753571D01*
X102497619Y-33758333D01*
X102502380Y-33767857D01*
X102502380Y-33777380D01*
X102454761Y-33786904D01*
X27923809Y-63070238D02*
X27923809Y-62970238D01*
X27923809Y-63017857D02*
X27980952Y-63017857D01*
X27980952Y-63070238D02*
X27980952Y-62970238D01*
X28071428Y-63003571D02*
X28071428Y-63070238D01*
X28047619Y-62965476D02*
X28023809Y-63036904D01*
X28085714Y-63036904D01*
X27545238Y-62753571D02*
X27545238Y-62820238D01*
X27502380Y-62753571D02*
X27502380Y-62805952D01*
X27507142Y-62815476D01*
X27516666Y-62820238D01*
X27530952Y-62820238D01*
X27540476Y-62815476D01*
X27545238Y-62810714D01*
X27592857Y-62753571D02*
X27592857Y-62820238D01*
X27592857Y-62763095D02*
X27597619Y-62758333D01*
X27607142Y-62753571D01*
X27621428Y-62753571D01*
X27630952Y-62758333D01*
X27635714Y-62767857D01*
X27635714Y-62820238D01*
X27683333Y-62753571D02*
X27683333Y-62853571D01*
X27683333Y-62758333D02*
X27692857Y-62753571D01*
X27711904Y-62753571D01*
X27721428Y-62758333D01*
X27726190Y-62763095D01*
X27730952Y-62772619D01*
X27730952Y-62801190D01*
X27726190Y-62810714D01*
X27721428Y-62815476D01*
X27711904Y-62820238D01*
X27692857Y-62820238D01*
X27683333Y-62815476D01*
X27788095Y-62820238D02*
X27778571Y-62815476D01*
X27773809Y-62805952D01*
X27773809Y-62720238D01*
X27869047Y-62820238D02*
X27869047Y-62767857D01*
X27864285Y-62758333D01*
X27854761Y-62753571D01*
X27835714Y-62753571D01*
X27826190Y-62758333D01*
X27869047Y-62815476D02*
X27859523Y-62820238D01*
X27835714Y-62820238D01*
X27826190Y-62815476D01*
X27821428Y-62805952D01*
X27821428Y-62796428D01*
X27826190Y-62786904D01*
X27835714Y-62782142D01*
X27859523Y-62782142D01*
X27869047Y-62777380D01*
X27902380Y-62753571D02*
X27940476Y-62753571D01*
X27916666Y-62720238D02*
X27916666Y-62805952D01*
X27921428Y-62815476D01*
X27930952Y-62820238D01*
X27940476Y-62820238D01*
X28011904Y-62815476D02*
X28002380Y-62820238D01*
X27983333Y-62820238D01*
X27973809Y-62815476D01*
X27969047Y-62805952D01*
X27969047Y-62767857D01*
X27973809Y-62758333D01*
X27983333Y-62753571D01*
X28002380Y-62753571D01*
X28011904Y-62758333D01*
X28016666Y-62767857D01*
X28016666Y-62777380D01*
X27969047Y-62786904D01*
X28102380Y-62820238D02*
X28102380Y-62720238D01*
X28102380Y-62815476D02*
X28092857Y-62820238D01*
X28073809Y-62820238D01*
X28064285Y-62815476D01*
X28059523Y-62810714D01*
X28054761Y-62801190D01*
X28054761Y-62772619D01*
X28059523Y-62763095D01*
X28064285Y-62758333D01*
X28073809Y-62753571D01*
X28092857Y-62753571D01*
X28102380Y-62758333D01*
X28126190Y-62829761D02*
X28202380Y-62829761D01*
X28226190Y-62820238D02*
X28226190Y-62720238D01*
X28269047Y-62820238D02*
X28269047Y-62767857D01*
X28264285Y-62758333D01*
X28254761Y-62753571D01*
X28240476Y-62753571D01*
X28230952Y-62758333D01*
X28226190Y-62763095D01*
X28330952Y-62820238D02*
X28321428Y-62815476D01*
X28316666Y-62810714D01*
X28311904Y-62801190D01*
X28311904Y-62772619D01*
X28316666Y-62763095D01*
X28321428Y-62758333D01*
X28330952Y-62753571D01*
X28345238Y-62753571D01*
X28354761Y-62758333D01*
X28359523Y-62763095D01*
X28364285Y-62772619D01*
X28364285Y-62801190D01*
X28359523Y-62810714D01*
X28354761Y-62815476D01*
X28345238Y-62820238D01*
X28330952Y-62820238D01*
X28421428Y-62820238D02*
X28411904Y-62815476D01*
X28407142Y-62805952D01*
X28407142Y-62720238D01*
X28497619Y-62815476D02*
X28488095Y-62820238D01*
X28469047Y-62820238D01*
X28459523Y-62815476D01*
X28454761Y-62805952D01*
X28454761Y-62767857D01*
X28459523Y-62758333D01*
X28469047Y-62753571D01*
X28488095Y-62753571D01*
X28497619Y-62758333D01*
X28502380Y-62767857D01*
X28502380Y-62777380D01*
X28454761Y-62786904D01*
D12*
X65780000Y-47960000D02*
X62780000Y-47960000D01*
X61780000Y-43960000D02*
X65780000Y-43960000D01*
X62780000Y-47960000D02*
X61780000Y-46960000D01*
X61780000Y-46960000D02*
X61780000Y-43960000D01*
X65780000Y-43960000D02*
X65780000Y-47960000D01*
M02*
