G04 #@! TF.GenerationSoftware,KiCad,Pcbnew,5.1.9*
G04 #@! TF.CreationDate,2021-04-15T09:28:22+02:00*
G04 #@! TF.ProjectId,picsyle-R_als_915,70696373-796c-4652-9d52-5f616c735f39,rev?*
G04 #@! TF.SameCoordinates,Original*
G04 #@! TF.FileFunction,Copper,L1,Top*
G04 #@! TF.FilePolarity,Positive*
%FSLAX46Y46*%
G04 Gerber Fmt 4.6, Leading zero omitted, Abs format (unit mm)*
G04 Created by KiCad (PCBNEW 5.1.9) date 2021-04-15 09:28:22*
%MOMM*%
%LPD*%
G01*
G04 APERTURE LIST*
G04 #@! TA.AperFunction,EtchedComponent*
%ADD10C,0.100000*%
G04 #@! TD*
G04 #@! TA.AperFunction,SMDPad,CuDef*
%ADD11R,0.250000X1.700000*%
G04 #@! TD*
G04 #@! TA.AperFunction,SMDPad,CuDef*
%ADD12R,0.250000X0.825000*%
G04 #@! TD*
G04 #@! TA.AperFunction,Conductor*
%ADD13C,0.250000*%
G04 #@! TD*
G04 APERTURE END LIST*
D10*
G36*
X72500000Y-97400000D02*
G01*
X72500000Y-111400000D01*
X78500000Y-111400000D01*
X78500000Y-97400000D01*
X79500000Y-97400000D01*
X79500000Y-107900000D01*
X82000000Y-110400000D01*
X91207000Y-110400000D01*
X94000000Y-107607000D01*
X94000000Y-107400000D01*
X106000000Y-107400000D01*
X106000000Y-107607000D01*
X108793000Y-110400000D01*
X118000000Y-110400000D01*
X120500000Y-107900000D01*
X120500000Y-100400000D01*
X121500000Y-100400000D01*
X121500000Y-113400000D01*
X127500000Y-113400000D01*
X127500000Y-99400000D01*
X128500000Y-99400000D01*
X128500000Y-113400000D01*
X134500000Y-113400000D01*
X134500000Y-97400000D01*
X132500000Y-97400000D01*
X132500000Y-111400000D01*
X130500000Y-111400000D01*
X130500000Y-97400000D01*
X125500000Y-97400000D01*
X125500000Y-111400000D01*
X123500000Y-111400000D01*
X123500000Y-98400000D01*
X118500000Y-98400000D01*
X118500000Y-107193000D01*
X117293000Y-108400000D01*
X108207000Y-108400000D01*
X107207000Y-107400000D01*
X107282000Y-107400000D01*
X108761000Y-105921000D01*
X108761000Y-104301000D01*
X107282000Y-102822000D01*
X100375000Y-102822000D01*
X100375000Y-101997000D01*
X100125000Y-101997000D01*
X100125000Y-103322000D01*
X107075000Y-103322000D01*
X108261000Y-104508000D01*
X108261000Y-105715000D01*
X107076000Y-106900000D01*
X92924000Y-106900000D01*
X91739000Y-105715000D01*
X91739000Y-104508000D01*
X92925000Y-103322000D01*
X99875000Y-103322000D01*
X99875000Y-101997000D01*
X99625000Y-101997000D01*
X99625000Y-102822000D01*
X92718000Y-102822000D01*
X91239000Y-104301000D01*
X91239000Y-105921000D01*
X92718000Y-107400000D01*
X92793000Y-107400000D01*
X91793000Y-108400000D01*
X82707000Y-108400000D01*
X81500000Y-107193000D01*
X81500000Y-95400000D01*
X76500000Y-95400000D01*
X76500000Y-109400000D01*
X74500000Y-109400000D01*
X74500000Y-95400000D01*
X69500000Y-95400000D01*
X69500000Y-111400000D01*
X71500000Y-111400000D01*
X71500000Y-97400000D01*
X72500000Y-97400000D01*
G37*
D11*
X100250000Y-101150000D03*
X99750000Y-101150000D03*
G04 #@! TA.AperFunction,SMDPad,CuDef*
G36*
G01*
X97414660Y-99387700D02*
X96714660Y-99387700D01*
G75*
G02*
X96652160Y-99325200I0J62500D01*
G01*
X96652160Y-99200200D01*
G75*
G02*
X96714660Y-99137700I62500J0D01*
G01*
X97414660Y-99137700D01*
G75*
G02*
X97477160Y-99200200I0J-62500D01*
G01*
X97477160Y-99325200D01*
G75*
G02*
X97414660Y-99387700I-62500J0D01*
G01*
G37*
G04 #@! TD.AperFunction*
G04 #@! TA.AperFunction,SMDPad,CuDef*
G36*
G01*
X97414660Y-98887700D02*
X96714660Y-98887700D01*
G75*
G02*
X96652160Y-98825200I0J62500D01*
G01*
X96652160Y-98700200D01*
G75*
G02*
X96714660Y-98637700I62500J0D01*
G01*
X97414660Y-98637700D01*
G75*
G02*
X97477160Y-98700200I0J-62500D01*
G01*
X97477160Y-98825200D01*
G75*
G02*
X97414660Y-98887700I-62500J0D01*
G01*
G37*
G04 #@! TD.AperFunction*
G04 #@! TA.AperFunction,SMDPad,CuDef*
G36*
G01*
X97414660Y-98387700D02*
X96714660Y-98387700D01*
G75*
G02*
X96652160Y-98325200I0J62500D01*
G01*
X96652160Y-98200200D01*
G75*
G02*
X96714660Y-98137700I62500J0D01*
G01*
X97414660Y-98137700D01*
G75*
G02*
X97477160Y-98200200I0J-62500D01*
G01*
X97477160Y-98325200D01*
G75*
G02*
X97414660Y-98387700I-62500J0D01*
G01*
G37*
G04 #@! TD.AperFunction*
G04 #@! TA.AperFunction,SMDPad,CuDef*
G36*
G01*
X97414660Y-97887700D02*
X96714660Y-97887700D01*
G75*
G02*
X96652160Y-97825200I0J62500D01*
G01*
X96652160Y-97700200D01*
G75*
G02*
X96714660Y-97637700I62500J0D01*
G01*
X97414660Y-97637700D01*
G75*
G02*
X97477160Y-97700200I0J-62500D01*
G01*
X97477160Y-97825200D01*
G75*
G02*
X97414660Y-97887700I-62500J0D01*
G01*
G37*
G04 #@! TD.AperFunction*
G04 #@! TA.AperFunction,SMDPad,CuDef*
G36*
G01*
X97414660Y-97387700D02*
X96714660Y-97387700D01*
G75*
G02*
X96652160Y-97325200I0J62500D01*
G01*
X96652160Y-97200200D01*
G75*
G02*
X96714660Y-97137700I62500J0D01*
G01*
X97414660Y-97137700D01*
G75*
G02*
X97477160Y-97200200I0J-62500D01*
G01*
X97477160Y-97325200D01*
G75*
G02*
X97414660Y-97387700I-62500J0D01*
G01*
G37*
G04 #@! TD.AperFunction*
G04 #@! TA.AperFunction,SMDPad,CuDef*
G36*
G01*
X97414660Y-96887700D02*
X96714660Y-96887700D01*
G75*
G02*
X96652160Y-96825200I0J62500D01*
G01*
X96652160Y-96700200D01*
G75*
G02*
X96714660Y-96637700I62500J0D01*
G01*
X97414660Y-96637700D01*
G75*
G02*
X97477160Y-96700200I0J-62500D01*
G01*
X97477160Y-96825200D01*
G75*
G02*
X97414660Y-96887700I-62500J0D01*
G01*
G37*
G04 #@! TD.AperFunction*
G04 #@! TA.AperFunction,SMDPad,CuDef*
G36*
G01*
X97814660Y-96487700D02*
X97689660Y-96487700D01*
G75*
G02*
X97627160Y-96425200I0J62500D01*
G01*
X97627160Y-95725200D01*
G75*
G02*
X97689660Y-95662700I62500J0D01*
G01*
X97814660Y-95662700D01*
G75*
G02*
X97877160Y-95725200I0J-62500D01*
G01*
X97877160Y-96425200D01*
G75*
G02*
X97814660Y-96487700I-62500J0D01*
G01*
G37*
G04 #@! TD.AperFunction*
G04 #@! TA.AperFunction,SMDPad,CuDef*
G36*
G01*
X98314660Y-96487700D02*
X98189660Y-96487700D01*
G75*
G02*
X98127160Y-96425200I0J62500D01*
G01*
X98127160Y-95725200D01*
G75*
G02*
X98189660Y-95662700I62500J0D01*
G01*
X98314660Y-95662700D01*
G75*
G02*
X98377160Y-95725200I0J-62500D01*
G01*
X98377160Y-96425200D01*
G75*
G02*
X98314660Y-96487700I-62500J0D01*
G01*
G37*
G04 #@! TD.AperFunction*
G04 #@! TA.AperFunction,SMDPad,CuDef*
G36*
G01*
X98814660Y-96487700D02*
X98689660Y-96487700D01*
G75*
G02*
X98627160Y-96425200I0J62500D01*
G01*
X98627160Y-95725200D01*
G75*
G02*
X98689660Y-95662700I62500J0D01*
G01*
X98814660Y-95662700D01*
G75*
G02*
X98877160Y-95725200I0J-62500D01*
G01*
X98877160Y-96425200D01*
G75*
G02*
X98814660Y-96487700I-62500J0D01*
G01*
G37*
G04 #@! TD.AperFunction*
G04 #@! TA.AperFunction,SMDPad,CuDef*
G36*
G01*
X99314660Y-96487700D02*
X99189660Y-96487700D01*
G75*
G02*
X99127160Y-96425200I0J62500D01*
G01*
X99127160Y-95725200D01*
G75*
G02*
X99189660Y-95662700I62500J0D01*
G01*
X99314660Y-95662700D01*
G75*
G02*
X99377160Y-95725200I0J-62500D01*
G01*
X99377160Y-96425200D01*
G75*
G02*
X99314660Y-96487700I-62500J0D01*
G01*
G37*
G04 #@! TD.AperFunction*
G04 #@! TA.AperFunction,SMDPad,CuDef*
G36*
G01*
X99814660Y-96487700D02*
X99689660Y-96487700D01*
G75*
G02*
X99627160Y-96425200I0J62500D01*
G01*
X99627160Y-95725200D01*
G75*
G02*
X99689660Y-95662700I62500J0D01*
G01*
X99814660Y-95662700D01*
G75*
G02*
X99877160Y-95725200I0J-62500D01*
G01*
X99877160Y-96425200D01*
G75*
G02*
X99814660Y-96487700I-62500J0D01*
G01*
G37*
G04 #@! TD.AperFunction*
G04 #@! TA.AperFunction,SMDPad,CuDef*
G36*
G01*
X100314660Y-96487700D02*
X100189660Y-96487700D01*
G75*
G02*
X100127160Y-96425200I0J62500D01*
G01*
X100127160Y-95725200D01*
G75*
G02*
X100189660Y-95662700I62500J0D01*
G01*
X100314660Y-95662700D01*
G75*
G02*
X100377160Y-95725200I0J-62500D01*
G01*
X100377160Y-96425200D01*
G75*
G02*
X100314660Y-96487700I-62500J0D01*
G01*
G37*
G04 #@! TD.AperFunction*
G04 #@! TA.AperFunction,SMDPad,CuDef*
G36*
G01*
X101289660Y-96887700D02*
X100589660Y-96887700D01*
G75*
G02*
X100527160Y-96825200I0J62500D01*
G01*
X100527160Y-96700200D01*
G75*
G02*
X100589660Y-96637700I62500J0D01*
G01*
X101289660Y-96637700D01*
G75*
G02*
X101352160Y-96700200I0J-62500D01*
G01*
X101352160Y-96825200D01*
G75*
G02*
X101289660Y-96887700I-62500J0D01*
G01*
G37*
G04 #@! TD.AperFunction*
G04 #@! TA.AperFunction,SMDPad,CuDef*
G36*
G01*
X101289660Y-97387700D02*
X100589660Y-97387700D01*
G75*
G02*
X100527160Y-97325200I0J62500D01*
G01*
X100527160Y-97200200D01*
G75*
G02*
X100589660Y-97137700I62500J0D01*
G01*
X101289660Y-97137700D01*
G75*
G02*
X101352160Y-97200200I0J-62500D01*
G01*
X101352160Y-97325200D01*
G75*
G02*
X101289660Y-97387700I-62500J0D01*
G01*
G37*
G04 #@! TD.AperFunction*
G04 #@! TA.AperFunction,SMDPad,CuDef*
G36*
G01*
X101289660Y-97887700D02*
X100589660Y-97887700D01*
G75*
G02*
X100527160Y-97825200I0J62500D01*
G01*
X100527160Y-97700200D01*
G75*
G02*
X100589660Y-97637700I62500J0D01*
G01*
X101289660Y-97637700D01*
G75*
G02*
X101352160Y-97700200I0J-62500D01*
G01*
X101352160Y-97825200D01*
G75*
G02*
X101289660Y-97887700I-62500J0D01*
G01*
G37*
G04 #@! TD.AperFunction*
G04 #@! TA.AperFunction,SMDPad,CuDef*
G36*
G01*
X101289660Y-98387700D02*
X100589660Y-98387700D01*
G75*
G02*
X100527160Y-98325200I0J62500D01*
G01*
X100527160Y-98200200D01*
G75*
G02*
X100589660Y-98137700I62500J0D01*
G01*
X101289660Y-98137700D01*
G75*
G02*
X101352160Y-98200200I0J-62500D01*
G01*
X101352160Y-98325200D01*
G75*
G02*
X101289660Y-98387700I-62500J0D01*
G01*
G37*
G04 #@! TD.AperFunction*
G04 #@! TA.AperFunction,SMDPad,CuDef*
G36*
G01*
X101289660Y-98887700D02*
X100589660Y-98887700D01*
G75*
G02*
X100527160Y-98825200I0J62500D01*
G01*
X100527160Y-98700200D01*
G75*
G02*
X100589660Y-98637700I62500J0D01*
G01*
X101289660Y-98637700D01*
G75*
G02*
X101352160Y-98700200I0J-62500D01*
G01*
X101352160Y-98825200D01*
G75*
G02*
X101289660Y-98887700I-62500J0D01*
G01*
G37*
G04 #@! TD.AperFunction*
G04 #@! TA.AperFunction,SMDPad,CuDef*
G36*
G01*
X101289660Y-99387700D02*
X100589660Y-99387700D01*
G75*
G02*
X100527160Y-99325200I0J62500D01*
G01*
X100527160Y-99200200D01*
G75*
G02*
X100589660Y-99137700I62500J0D01*
G01*
X101289660Y-99137700D01*
G75*
G02*
X101352160Y-99200200I0J-62500D01*
G01*
X101352160Y-99325200D01*
G75*
G02*
X101289660Y-99387700I-62500J0D01*
G01*
G37*
G04 #@! TD.AperFunction*
G04 #@! TA.AperFunction,SMDPad,CuDef*
G36*
G01*
X100314660Y-100362700D02*
X100189660Y-100362700D01*
G75*
G02*
X100127160Y-100300200I0J62500D01*
G01*
X100127160Y-99600200D01*
G75*
G02*
X100189660Y-99537700I62500J0D01*
G01*
X100314660Y-99537700D01*
G75*
G02*
X100377160Y-99600200I0J-62500D01*
G01*
X100377160Y-100300200D01*
G75*
G02*
X100314660Y-100362700I-62500J0D01*
G01*
G37*
G04 #@! TD.AperFunction*
D12*
X99752160Y-99950200D03*
X99252160Y-99950200D03*
G04 #@! TA.AperFunction,SMDPad,CuDef*
G36*
G01*
X98814660Y-100362700D02*
X98689660Y-100362700D01*
G75*
G02*
X98627160Y-100300200I0J62500D01*
G01*
X98627160Y-99600200D01*
G75*
G02*
X98689660Y-99537700I62500J0D01*
G01*
X98814660Y-99537700D01*
G75*
G02*
X98877160Y-99600200I0J-62500D01*
G01*
X98877160Y-100300200D01*
G75*
G02*
X98814660Y-100362700I-62500J0D01*
G01*
G37*
G04 #@! TD.AperFunction*
G04 #@! TA.AperFunction,SMDPad,CuDef*
G36*
G01*
X98314660Y-100362700D02*
X98189660Y-100362700D01*
G75*
G02*
X98127160Y-100300200I0J62500D01*
G01*
X98127160Y-99600200D01*
G75*
G02*
X98189660Y-99537700I62500J0D01*
G01*
X98314660Y-99537700D01*
G75*
G02*
X98377160Y-99600200I0J-62500D01*
G01*
X98377160Y-100300200D01*
G75*
G02*
X98314660Y-100362700I-62500J0D01*
G01*
G37*
G04 #@! TD.AperFunction*
G04 #@! TA.AperFunction,SMDPad,CuDef*
G36*
G01*
X97814660Y-100362700D02*
X97689660Y-100362700D01*
G75*
G02*
X97627160Y-100300200I0J62500D01*
G01*
X97627160Y-99600200D01*
G75*
G02*
X97689660Y-99537700I62500J0D01*
G01*
X97814660Y-99537700D01*
G75*
G02*
X97877160Y-99600200I0J-62500D01*
G01*
X97877160Y-100300200D01*
G75*
G02*
X97814660Y-100362700I-62500J0D01*
G01*
G37*
G04 #@! TD.AperFunction*
G04 #@! TA.AperFunction,SMDPad,CuDef*
G36*
G01*
X100012160Y-99262700D02*
X97992160Y-99262700D01*
G75*
G02*
X97752160Y-99022700I0J240000D01*
G01*
X97752160Y-97002700D01*
G75*
G02*
X97992160Y-96762700I240000J0D01*
G01*
X100012160Y-96762700D01*
G75*
G02*
X100252160Y-97002700I0J-240000D01*
G01*
X100252160Y-99022700D01*
G75*
G02*
X100012160Y-99262700I-240000J0D01*
G01*
G37*
G04 #@! TD.AperFunction*
D13*
X99502160Y-98012700D02*
X98752160Y-98762700D01*
X98252160Y-98762700D02*
X99002160Y-98012700D01*
X99752160Y-98762700D02*
X99002160Y-98012700D01*
X100252160Y-96762700D02*
X99002160Y-98012700D01*
X100252160Y-96075200D02*
X100252160Y-96762700D01*
X98252160Y-97262700D02*
X99002160Y-98012700D01*
X98252160Y-96075200D02*
X98252160Y-97262700D01*
X98752160Y-98262700D02*
X99002160Y-98012700D01*
X98752160Y-99950200D02*
X98752160Y-98262700D01*
X98752160Y-97762700D02*
X99002160Y-98012700D01*
X98752160Y-96075200D02*
X98752160Y-97762700D01*
X99750000Y-99952360D02*
X99752160Y-99950200D01*
X99750000Y-101150000D02*
X99750000Y-99952360D01*
X100250000Y-99952360D02*
X100252160Y-99950200D01*
X100250000Y-101150000D02*
X100250000Y-99952360D01*
M02*
