G04 #@! TF.GenerationSoftware,KiCad,Pcbnew,5.1.9*
G04 #@! TF.CreationDate,2021-04-15T09:28:22+02:00*
G04 #@! TF.ProjectId,picsyle-R_als_915,70696373-796c-4652-9d52-5f616c735f39,rev?*
G04 #@! TF.SameCoordinates,Original*
G04 #@! TF.FileFunction,Other,Comment*
%FSLAX46Y46*%
G04 Gerber Fmt 4.6, Leading zero omitted, Abs format (unit mm)*
G04 Created by KiCad (PCBNEW 5.1.9) date 2021-04-15 09:28:22*
%MOMM*%
%LPD*%
G01*
G04 APERTURE LIST*
%ADD10C,0.150000*%
G04 APERTURE END LIST*
D10*
X96543112Y-91399366D02*
X97019302Y-91399366D01*
X96447874Y-91685080D02*
X96781207Y-90685080D01*
X97114540Y-91685080D01*
X97400255Y-91637461D02*
X97543112Y-91685080D01*
X97781207Y-91685080D01*
X97876445Y-91637461D01*
X97924064Y-91589842D01*
X97971683Y-91494604D01*
X97971683Y-91399366D01*
X97924064Y-91304128D01*
X97876445Y-91256509D01*
X97781207Y-91208890D01*
X97590731Y-91161271D01*
X97495493Y-91113652D01*
X97447874Y-91066033D01*
X97400255Y-90970795D01*
X97400255Y-90875557D01*
X97447874Y-90780319D01*
X97495493Y-90732700D01*
X97590731Y-90685080D01*
X97828826Y-90685080D01*
X97971683Y-90732700D01*
X98305017Y-90685080D02*
X98924064Y-90685080D01*
X98590731Y-91066033D01*
X98733588Y-91066033D01*
X98828826Y-91113652D01*
X98876445Y-91161271D01*
X98924064Y-91256509D01*
X98924064Y-91494604D01*
X98876445Y-91589842D01*
X98828826Y-91637461D01*
X98733588Y-91685080D01*
X98447874Y-91685080D01*
X98352636Y-91637461D01*
X98305017Y-91589842D01*
X99305017Y-90780319D02*
X99352636Y-90732700D01*
X99447874Y-90685080D01*
X99685969Y-90685080D01*
X99781207Y-90732700D01*
X99828826Y-90780319D01*
X99876445Y-90875557D01*
X99876445Y-90970795D01*
X99828826Y-91113652D01*
X99257398Y-91685080D01*
X99876445Y-91685080D01*
X100828826Y-91685080D02*
X100257398Y-91685080D01*
X100543112Y-91685080D02*
X100543112Y-90685080D01*
X100447874Y-90827938D01*
X100352636Y-90923176D01*
X100257398Y-90970795D01*
X101781207Y-91685080D02*
X101209779Y-91685080D01*
X101495493Y-91685080D02*
X101495493Y-90685080D01*
X101400255Y-90827938D01*
X101305017Y-90923176D01*
X101209779Y-90970795D01*
M02*
