G04 #@! TF.GenerationSoftware,KiCad,Pcbnew,5.1.9*
G04 #@! TF.CreationDate,2021-04-15T09:28:22+02:00*
G04 #@! TF.ProjectId,picsyle-R_als_915,70696373-796c-4652-9d52-5f616c735f39,rev?*
G04 #@! TF.SameCoordinates,Original*
G04 #@! TF.FileFunction,Other,Fab,Top*
%FSLAX46Y46*%
G04 Gerber Fmt 4.6, Leading zero omitted, Abs format (unit mm)*
G04 Created by KiCad (PCBNEW 5.1.9) date 2021-04-15 09:28:22*
%MOMM*%
%LPD*%
G01*
G04 APERTURE LIST*
%ADD10C,0.100000*%
%ADD11C,0.010000*%
%ADD12C,0.150000*%
G04 APERTURE END LIST*
D10*
X98002160Y-100012700D02*
X97002160Y-99012700D01*
X101002160Y-100012700D02*
X98002160Y-100012700D01*
X101002160Y-96012700D02*
X101002160Y-100012700D01*
X97002160Y-96012700D02*
X101002160Y-96012700D01*
X97002160Y-99012700D02*
X97002160Y-96012700D01*
D11*
X139923809Y-114670238D02*
X139923809Y-114570238D01*
X139923809Y-114617857D02*
X139980952Y-114617857D01*
X139980952Y-114670238D02*
X139980952Y-114570238D01*
X140071428Y-114603571D02*
X140071428Y-114670238D01*
X140047619Y-114565476D02*
X140023809Y-114636904D01*
X140085714Y-114636904D01*
X139545238Y-114353571D02*
X139545238Y-114420238D01*
X139502380Y-114353571D02*
X139502380Y-114405952D01*
X139507142Y-114415476D01*
X139516666Y-114420238D01*
X139530952Y-114420238D01*
X139540476Y-114415476D01*
X139545238Y-114410714D01*
X139592857Y-114353571D02*
X139592857Y-114420238D01*
X139592857Y-114363095D02*
X139597619Y-114358333D01*
X139607142Y-114353571D01*
X139621428Y-114353571D01*
X139630952Y-114358333D01*
X139635714Y-114367857D01*
X139635714Y-114420238D01*
X139683333Y-114353571D02*
X139683333Y-114453571D01*
X139683333Y-114358333D02*
X139692857Y-114353571D01*
X139711904Y-114353571D01*
X139721428Y-114358333D01*
X139726190Y-114363095D01*
X139730952Y-114372619D01*
X139730952Y-114401190D01*
X139726190Y-114410714D01*
X139721428Y-114415476D01*
X139711904Y-114420238D01*
X139692857Y-114420238D01*
X139683333Y-114415476D01*
X139788095Y-114420238D02*
X139778571Y-114415476D01*
X139773809Y-114405952D01*
X139773809Y-114320238D01*
X139869047Y-114420238D02*
X139869047Y-114367857D01*
X139864285Y-114358333D01*
X139854761Y-114353571D01*
X139835714Y-114353571D01*
X139826190Y-114358333D01*
X139869047Y-114415476D02*
X139859523Y-114420238D01*
X139835714Y-114420238D01*
X139826190Y-114415476D01*
X139821428Y-114405952D01*
X139821428Y-114396428D01*
X139826190Y-114386904D01*
X139835714Y-114382142D01*
X139859523Y-114382142D01*
X139869047Y-114377380D01*
X139902380Y-114353571D02*
X139940476Y-114353571D01*
X139916666Y-114320238D02*
X139916666Y-114405952D01*
X139921428Y-114415476D01*
X139930952Y-114420238D01*
X139940476Y-114420238D01*
X140011904Y-114415476D02*
X140002380Y-114420238D01*
X139983333Y-114420238D01*
X139973809Y-114415476D01*
X139969047Y-114405952D01*
X139969047Y-114367857D01*
X139973809Y-114358333D01*
X139983333Y-114353571D01*
X140002380Y-114353571D01*
X140011904Y-114358333D01*
X140016666Y-114367857D01*
X140016666Y-114377380D01*
X139969047Y-114386904D01*
X140102380Y-114420238D02*
X140102380Y-114320238D01*
X140102380Y-114415476D02*
X140092857Y-114420238D01*
X140073809Y-114420238D01*
X140064285Y-114415476D01*
X140059523Y-114410714D01*
X140054761Y-114401190D01*
X140054761Y-114372619D01*
X140059523Y-114363095D01*
X140064285Y-114358333D01*
X140073809Y-114353571D01*
X140092857Y-114353571D01*
X140102380Y-114358333D01*
X140126190Y-114429761D02*
X140202380Y-114429761D01*
X140226190Y-114420238D02*
X140226190Y-114320238D01*
X140269047Y-114420238D02*
X140269047Y-114367857D01*
X140264285Y-114358333D01*
X140254761Y-114353571D01*
X140240476Y-114353571D01*
X140230952Y-114358333D01*
X140226190Y-114363095D01*
X140330952Y-114420238D02*
X140321428Y-114415476D01*
X140316666Y-114410714D01*
X140311904Y-114401190D01*
X140311904Y-114372619D01*
X140316666Y-114363095D01*
X140321428Y-114358333D01*
X140330952Y-114353571D01*
X140345238Y-114353571D01*
X140354761Y-114358333D01*
X140359523Y-114363095D01*
X140364285Y-114372619D01*
X140364285Y-114401190D01*
X140359523Y-114410714D01*
X140354761Y-114415476D01*
X140345238Y-114420238D01*
X140330952Y-114420238D01*
X140421428Y-114420238D02*
X140411904Y-114415476D01*
X140407142Y-114405952D01*
X140407142Y-114320238D01*
X140497619Y-114415476D02*
X140488095Y-114420238D01*
X140469047Y-114420238D01*
X140459523Y-114415476D01*
X140454761Y-114405952D01*
X140454761Y-114367857D01*
X140459523Y-114358333D01*
X140469047Y-114353571D01*
X140488095Y-114353571D01*
X140497619Y-114358333D01*
X140502380Y-114367857D01*
X140502380Y-114377380D01*
X140454761Y-114386904D01*
X139923809Y-95170238D02*
X139923809Y-95070238D01*
X139923809Y-95117857D02*
X139980952Y-95117857D01*
X139980952Y-95170238D02*
X139980952Y-95070238D01*
X140019047Y-95070238D02*
X140080952Y-95070238D01*
X140047619Y-95108333D01*
X140061904Y-95108333D01*
X140071428Y-95113095D01*
X140076190Y-95117857D01*
X140080952Y-95127380D01*
X140080952Y-95151190D01*
X140076190Y-95160714D01*
X140071428Y-95165476D01*
X140061904Y-95170238D01*
X140033333Y-95170238D01*
X140023809Y-95165476D01*
X140019047Y-95160714D01*
X139545238Y-94853571D02*
X139545238Y-94920238D01*
X139502380Y-94853571D02*
X139502380Y-94905952D01*
X139507142Y-94915476D01*
X139516666Y-94920238D01*
X139530952Y-94920238D01*
X139540476Y-94915476D01*
X139545238Y-94910714D01*
X139592857Y-94853571D02*
X139592857Y-94920238D01*
X139592857Y-94863095D02*
X139597619Y-94858333D01*
X139607142Y-94853571D01*
X139621428Y-94853571D01*
X139630952Y-94858333D01*
X139635714Y-94867857D01*
X139635714Y-94920238D01*
X139683333Y-94853571D02*
X139683333Y-94953571D01*
X139683333Y-94858333D02*
X139692857Y-94853571D01*
X139711904Y-94853571D01*
X139721428Y-94858333D01*
X139726190Y-94863095D01*
X139730952Y-94872619D01*
X139730952Y-94901190D01*
X139726190Y-94910714D01*
X139721428Y-94915476D01*
X139711904Y-94920238D01*
X139692857Y-94920238D01*
X139683333Y-94915476D01*
X139788095Y-94920238D02*
X139778571Y-94915476D01*
X139773809Y-94905952D01*
X139773809Y-94820238D01*
X139869047Y-94920238D02*
X139869047Y-94867857D01*
X139864285Y-94858333D01*
X139854761Y-94853571D01*
X139835714Y-94853571D01*
X139826190Y-94858333D01*
X139869047Y-94915476D02*
X139859523Y-94920238D01*
X139835714Y-94920238D01*
X139826190Y-94915476D01*
X139821428Y-94905952D01*
X139821428Y-94896428D01*
X139826190Y-94886904D01*
X139835714Y-94882142D01*
X139859523Y-94882142D01*
X139869047Y-94877380D01*
X139902380Y-94853571D02*
X139940476Y-94853571D01*
X139916666Y-94820238D02*
X139916666Y-94905952D01*
X139921428Y-94915476D01*
X139930952Y-94920238D01*
X139940476Y-94920238D01*
X140011904Y-94915476D02*
X140002380Y-94920238D01*
X139983333Y-94920238D01*
X139973809Y-94915476D01*
X139969047Y-94905952D01*
X139969047Y-94867857D01*
X139973809Y-94858333D01*
X139983333Y-94853571D01*
X140002380Y-94853571D01*
X140011904Y-94858333D01*
X140016666Y-94867857D01*
X140016666Y-94877380D01*
X139969047Y-94886904D01*
X140102380Y-94920238D02*
X140102380Y-94820238D01*
X140102380Y-94915476D02*
X140092857Y-94920238D01*
X140073809Y-94920238D01*
X140064285Y-94915476D01*
X140059523Y-94910714D01*
X140054761Y-94901190D01*
X140054761Y-94872619D01*
X140059523Y-94863095D01*
X140064285Y-94858333D01*
X140073809Y-94853571D01*
X140092857Y-94853571D01*
X140102380Y-94858333D01*
X140126190Y-94929761D02*
X140202380Y-94929761D01*
X140226190Y-94920238D02*
X140226190Y-94820238D01*
X140269047Y-94920238D02*
X140269047Y-94867857D01*
X140264285Y-94858333D01*
X140254761Y-94853571D01*
X140240476Y-94853571D01*
X140230952Y-94858333D01*
X140226190Y-94863095D01*
X140330952Y-94920238D02*
X140321428Y-94915476D01*
X140316666Y-94910714D01*
X140311904Y-94901190D01*
X140311904Y-94872619D01*
X140316666Y-94863095D01*
X140321428Y-94858333D01*
X140330952Y-94853571D01*
X140345238Y-94853571D01*
X140354761Y-94858333D01*
X140359523Y-94863095D01*
X140364285Y-94872619D01*
X140364285Y-94901190D01*
X140359523Y-94910714D01*
X140354761Y-94915476D01*
X140345238Y-94920238D01*
X140330952Y-94920238D01*
X140421428Y-94920238D02*
X140411904Y-94915476D01*
X140407142Y-94905952D01*
X140407142Y-94820238D01*
X140497619Y-94915476D02*
X140488095Y-94920238D01*
X140469047Y-94920238D01*
X140459523Y-94915476D01*
X140454761Y-94905952D01*
X140454761Y-94867857D01*
X140459523Y-94858333D01*
X140469047Y-94853571D01*
X140488095Y-94853571D01*
X140497619Y-94858333D01*
X140502380Y-94867857D01*
X140502380Y-94877380D01*
X140454761Y-94886904D01*
X63423809Y-114670238D02*
X63423809Y-114570238D01*
X63423809Y-114617857D02*
X63480952Y-114617857D01*
X63480952Y-114670238D02*
X63480952Y-114570238D01*
X63523809Y-114579761D02*
X63528571Y-114575000D01*
X63538095Y-114570238D01*
X63561904Y-114570238D01*
X63571428Y-114575000D01*
X63576190Y-114579761D01*
X63580952Y-114589285D01*
X63580952Y-114598809D01*
X63576190Y-114613095D01*
X63519047Y-114670238D01*
X63580952Y-114670238D01*
X63045238Y-114353571D02*
X63045238Y-114420238D01*
X63002380Y-114353571D02*
X63002380Y-114405952D01*
X63007142Y-114415476D01*
X63016666Y-114420238D01*
X63030952Y-114420238D01*
X63040476Y-114415476D01*
X63045238Y-114410714D01*
X63092857Y-114353571D02*
X63092857Y-114420238D01*
X63092857Y-114363095D02*
X63097619Y-114358333D01*
X63107142Y-114353571D01*
X63121428Y-114353571D01*
X63130952Y-114358333D01*
X63135714Y-114367857D01*
X63135714Y-114420238D01*
X63183333Y-114353571D02*
X63183333Y-114453571D01*
X63183333Y-114358333D02*
X63192857Y-114353571D01*
X63211904Y-114353571D01*
X63221428Y-114358333D01*
X63226190Y-114363095D01*
X63230952Y-114372619D01*
X63230952Y-114401190D01*
X63226190Y-114410714D01*
X63221428Y-114415476D01*
X63211904Y-114420238D01*
X63192857Y-114420238D01*
X63183333Y-114415476D01*
X63288095Y-114420238D02*
X63278571Y-114415476D01*
X63273809Y-114405952D01*
X63273809Y-114320238D01*
X63369047Y-114420238D02*
X63369047Y-114367857D01*
X63364285Y-114358333D01*
X63354761Y-114353571D01*
X63335714Y-114353571D01*
X63326190Y-114358333D01*
X63369047Y-114415476D02*
X63359523Y-114420238D01*
X63335714Y-114420238D01*
X63326190Y-114415476D01*
X63321428Y-114405952D01*
X63321428Y-114396428D01*
X63326190Y-114386904D01*
X63335714Y-114382142D01*
X63359523Y-114382142D01*
X63369047Y-114377380D01*
X63402380Y-114353571D02*
X63440476Y-114353571D01*
X63416666Y-114320238D02*
X63416666Y-114405952D01*
X63421428Y-114415476D01*
X63430952Y-114420238D01*
X63440476Y-114420238D01*
X63511904Y-114415476D02*
X63502380Y-114420238D01*
X63483333Y-114420238D01*
X63473809Y-114415476D01*
X63469047Y-114405952D01*
X63469047Y-114367857D01*
X63473809Y-114358333D01*
X63483333Y-114353571D01*
X63502380Y-114353571D01*
X63511904Y-114358333D01*
X63516666Y-114367857D01*
X63516666Y-114377380D01*
X63469047Y-114386904D01*
X63602380Y-114420238D02*
X63602380Y-114320238D01*
X63602380Y-114415476D02*
X63592857Y-114420238D01*
X63573809Y-114420238D01*
X63564285Y-114415476D01*
X63559523Y-114410714D01*
X63554761Y-114401190D01*
X63554761Y-114372619D01*
X63559523Y-114363095D01*
X63564285Y-114358333D01*
X63573809Y-114353571D01*
X63592857Y-114353571D01*
X63602380Y-114358333D01*
X63626190Y-114429761D02*
X63702380Y-114429761D01*
X63726190Y-114420238D02*
X63726190Y-114320238D01*
X63769047Y-114420238D02*
X63769047Y-114367857D01*
X63764285Y-114358333D01*
X63754761Y-114353571D01*
X63740476Y-114353571D01*
X63730952Y-114358333D01*
X63726190Y-114363095D01*
X63830952Y-114420238D02*
X63821428Y-114415476D01*
X63816666Y-114410714D01*
X63811904Y-114401190D01*
X63811904Y-114372619D01*
X63816666Y-114363095D01*
X63821428Y-114358333D01*
X63830952Y-114353571D01*
X63845238Y-114353571D01*
X63854761Y-114358333D01*
X63859523Y-114363095D01*
X63864285Y-114372619D01*
X63864285Y-114401190D01*
X63859523Y-114410714D01*
X63854761Y-114415476D01*
X63845238Y-114420238D01*
X63830952Y-114420238D01*
X63921428Y-114420238D02*
X63911904Y-114415476D01*
X63907142Y-114405952D01*
X63907142Y-114320238D01*
X63997619Y-114415476D02*
X63988095Y-114420238D01*
X63969047Y-114420238D01*
X63959523Y-114415476D01*
X63954761Y-114405952D01*
X63954761Y-114367857D01*
X63959523Y-114358333D01*
X63969047Y-114353571D01*
X63988095Y-114353571D01*
X63997619Y-114358333D01*
X64002380Y-114367857D01*
X64002380Y-114377380D01*
X63954761Y-114386904D01*
X63423809Y-95170238D02*
X63423809Y-95070238D01*
X63423809Y-95117857D02*
X63480952Y-95117857D01*
X63480952Y-95170238D02*
X63480952Y-95070238D01*
X63580952Y-95170238D02*
X63523809Y-95170238D01*
X63552380Y-95170238D02*
X63552380Y-95070238D01*
X63542857Y-95084523D01*
X63533333Y-95094047D01*
X63523809Y-95098809D01*
X63045238Y-94853571D02*
X63045238Y-94920238D01*
X63002380Y-94853571D02*
X63002380Y-94905952D01*
X63007142Y-94915476D01*
X63016666Y-94920238D01*
X63030952Y-94920238D01*
X63040476Y-94915476D01*
X63045238Y-94910714D01*
X63092857Y-94853571D02*
X63092857Y-94920238D01*
X63092857Y-94863095D02*
X63097619Y-94858333D01*
X63107142Y-94853571D01*
X63121428Y-94853571D01*
X63130952Y-94858333D01*
X63135714Y-94867857D01*
X63135714Y-94920238D01*
X63183333Y-94853571D02*
X63183333Y-94953571D01*
X63183333Y-94858333D02*
X63192857Y-94853571D01*
X63211904Y-94853571D01*
X63221428Y-94858333D01*
X63226190Y-94863095D01*
X63230952Y-94872619D01*
X63230952Y-94901190D01*
X63226190Y-94910714D01*
X63221428Y-94915476D01*
X63211904Y-94920238D01*
X63192857Y-94920238D01*
X63183333Y-94915476D01*
X63288095Y-94920238D02*
X63278571Y-94915476D01*
X63273809Y-94905952D01*
X63273809Y-94820238D01*
X63369047Y-94920238D02*
X63369047Y-94867857D01*
X63364285Y-94858333D01*
X63354761Y-94853571D01*
X63335714Y-94853571D01*
X63326190Y-94858333D01*
X63369047Y-94915476D02*
X63359523Y-94920238D01*
X63335714Y-94920238D01*
X63326190Y-94915476D01*
X63321428Y-94905952D01*
X63321428Y-94896428D01*
X63326190Y-94886904D01*
X63335714Y-94882142D01*
X63359523Y-94882142D01*
X63369047Y-94877380D01*
X63402380Y-94853571D02*
X63440476Y-94853571D01*
X63416666Y-94820238D02*
X63416666Y-94905952D01*
X63421428Y-94915476D01*
X63430952Y-94920238D01*
X63440476Y-94920238D01*
X63511904Y-94915476D02*
X63502380Y-94920238D01*
X63483333Y-94920238D01*
X63473809Y-94915476D01*
X63469047Y-94905952D01*
X63469047Y-94867857D01*
X63473809Y-94858333D01*
X63483333Y-94853571D01*
X63502380Y-94853571D01*
X63511904Y-94858333D01*
X63516666Y-94867857D01*
X63516666Y-94877380D01*
X63469047Y-94886904D01*
X63602380Y-94920238D02*
X63602380Y-94820238D01*
X63602380Y-94915476D02*
X63592857Y-94920238D01*
X63573809Y-94920238D01*
X63564285Y-94915476D01*
X63559523Y-94910714D01*
X63554761Y-94901190D01*
X63554761Y-94872619D01*
X63559523Y-94863095D01*
X63564285Y-94858333D01*
X63573809Y-94853571D01*
X63592857Y-94853571D01*
X63602380Y-94858333D01*
X63626190Y-94929761D02*
X63702380Y-94929761D01*
X63726190Y-94920238D02*
X63726190Y-94820238D01*
X63769047Y-94920238D02*
X63769047Y-94867857D01*
X63764285Y-94858333D01*
X63754761Y-94853571D01*
X63740476Y-94853571D01*
X63730952Y-94858333D01*
X63726190Y-94863095D01*
X63830952Y-94920238D02*
X63821428Y-94915476D01*
X63816666Y-94910714D01*
X63811904Y-94901190D01*
X63811904Y-94872619D01*
X63816666Y-94863095D01*
X63821428Y-94858333D01*
X63830952Y-94853571D01*
X63845238Y-94853571D01*
X63854761Y-94858333D01*
X63859523Y-94863095D01*
X63864285Y-94872619D01*
X63864285Y-94901190D01*
X63859523Y-94910714D01*
X63854761Y-94915476D01*
X63845238Y-94920238D01*
X63830952Y-94920238D01*
X63921428Y-94920238D02*
X63911904Y-94915476D01*
X63907142Y-94905952D01*
X63907142Y-94820238D01*
X63997619Y-94915476D02*
X63988095Y-94920238D01*
X63969047Y-94920238D01*
X63959523Y-94915476D01*
X63954761Y-94905952D01*
X63954761Y-94867857D01*
X63959523Y-94858333D01*
X63969047Y-94853571D01*
X63988095Y-94853571D01*
X63997619Y-94858333D01*
X64002380Y-94867857D01*
X64002380Y-94877380D01*
X63954761Y-94886904D01*
D12*
X102110255Y-97535080D02*
X102110255Y-98344604D01*
X102157874Y-98439842D01*
X102205493Y-98487461D01*
X102300731Y-98535080D01*
X102491207Y-98535080D01*
X102586445Y-98487461D01*
X102634064Y-98439842D01*
X102681683Y-98344604D01*
X102681683Y-97535080D01*
X103681683Y-98535080D02*
X103110255Y-98535080D01*
X103395969Y-98535080D02*
X103395969Y-97535080D01*
X103300731Y-97677938D01*
X103205493Y-97773176D01*
X103110255Y-97820795D01*
X98454540Y-98774604D02*
X99264064Y-98774604D01*
X99359302Y-98726985D01*
X99406921Y-98679366D01*
X99454540Y-98584128D01*
X99454540Y-98393652D01*
X99406921Y-98298414D01*
X99359302Y-98250795D01*
X99264064Y-98203176D01*
X98454540Y-98203176D01*
X99454540Y-97203176D02*
X99454540Y-97774604D01*
X99454540Y-97488890D02*
X98454540Y-97488890D01*
X98597398Y-97584128D01*
X98692636Y-97679366D01*
X98740255Y-97774604D01*
M02*
