G04 #@! TF.GenerationSoftware,KiCad,Pcbnew,6.0.9-8da3e8f707~117~ubuntu20.04.1*
G04 #@! TF.CreationDate,2022-12-15T16:29:10+01:00*
G04 #@! TF.ProjectId,picsyle-R_magnetic_915,70696373-796c-4652-9d52-5f6d61676e65,rev?*
G04 #@! TF.SameCoordinates,Original*
G04 #@! TF.FileFunction,Copper,L1,Top*
G04 #@! TF.FilePolarity,Positive*
%FSLAX46Y46*%
G04 Gerber Fmt 4.6, Leading zero omitted, Abs format (unit mm)*
G04 Created by KiCad (PCBNEW 6.0.9-8da3e8f707~117~ubuntu20.04.1) date 2022-12-15 16:29:10*
%MOMM*%
%LPD*%
G01*
G04 APERTURE LIST*
G04 Aperture macros list*
%AMRoundRect*
0 Rectangle with rounded corners*
0 $1 Rounding radius*
0 $2 $3 $4 $5 $6 $7 $8 $9 X,Y pos of 4 corners*
0 Add a 4 corners polygon primitive as box body*
4,1,4,$2,$3,$4,$5,$6,$7,$8,$9,$2,$3,0*
0 Add four circle primitives for the rounded corners*
1,1,$1+$1,$2,$3*
1,1,$1+$1,$4,$5*
1,1,$1+$1,$6,$7*
1,1,$1+$1,$8,$9*
0 Add four rect primitives between the rounded corners*
20,1,$1+$1,$2,$3,$4,$5,0*
20,1,$1+$1,$4,$5,$6,$7,0*
20,1,$1+$1,$6,$7,$8,$9,0*
20,1,$1+$1,$8,$9,$2,$3,0*%
G04 Aperture macros list end*
G04 #@! TA.AperFunction,SMDPad,CuDef*
%ADD10R,0.175000X0.500000*%
G04 #@! TD*
G04 #@! TA.AperFunction,SMDPad,CuDef*
%ADD11RoundRect,0.150000X-0.150000X0.825000X-0.150000X-0.825000X0.150000X-0.825000X0.150000X0.825000X0*%
G04 #@! TD*
G04 #@! TA.AperFunction,SMDPad,CuDef*
%ADD12RoundRect,0.062500X0.062500X-0.350000X0.062500X0.350000X-0.062500X0.350000X-0.062500X-0.350000X0*%
G04 #@! TD*
G04 #@! TA.AperFunction,SMDPad,CuDef*
%ADD13R,0.250000X0.825000*%
G04 #@! TD*
G04 #@! TA.AperFunction,SMDPad,CuDef*
%ADD14RoundRect,0.062500X0.350000X-0.062500X0.350000X0.062500X-0.350000X0.062500X-0.350000X-0.062500X0*%
G04 #@! TD*
G04 #@! TA.AperFunction,SMDPad,CuDef*
%ADD15RoundRect,0.240000X1.010000X-1.010000X1.010000X1.010000X-1.010000X1.010000X-1.010000X-1.010000X0*%
G04 #@! TD*
G04 #@! TA.AperFunction,Conductor*
%ADD16C,0.250000*%
G04 #@! TD*
G04 APERTURE END LIST*
G36*
X54835000Y-56201000D02*
G01*
X54834000Y-56199000D01*
X54830000Y-56195000D01*
X54828000Y-56194000D01*
X54826000Y-56194000D01*
X54824000Y-56193000D01*
X48564000Y-56193000D01*
X48176000Y-56234000D01*
X48175000Y-56234000D01*
X48174000Y-56235000D01*
X47801000Y-56350000D01*
X47800000Y-56351000D01*
X47798000Y-56351000D01*
X47455000Y-56537000D01*
X47454000Y-56538000D01*
X47453000Y-56538000D01*
X47152000Y-56787000D01*
X47150000Y-56789000D01*
X46904000Y-57091000D01*
X46902000Y-57093000D01*
X46902000Y-57094000D01*
X46719000Y-57438000D01*
X46718000Y-57439000D01*
X46718000Y-57441000D01*
X46605000Y-57814000D01*
X46605000Y-57817000D01*
X46567000Y-58205000D01*
X46566000Y-58206000D01*
X46566000Y-74918000D01*
X46567000Y-74932000D01*
X46567000Y-74933000D01*
X46607000Y-75321000D01*
X46608000Y-75322000D01*
X46608000Y-75324000D01*
X46723000Y-75696000D01*
X46724000Y-75698000D01*
X46724000Y-75699000D01*
X46910000Y-76042000D01*
X46911000Y-76043000D01*
X46911000Y-76044000D01*
X47160000Y-76345000D01*
X47162000Y-76347000D01*
X47465000Y-76594000D01*
X47466000Y-76594000D01*
X47467000Y-76595000D01*
X47811000Y-76778000D01*
X47812000Y-76779000D01*
X47814000Y-76779000D01*
X48187000Y-76892000D01*
X48189000Y-76892000D01*
X48190000Y-76893000D01*
X48578000Y-76931000D01*
X51152000Y-76931000D01*
X51540000Y-76890000D01*
X51541000Y-76890000D01*
X51542000Y-76889000D01*
X51915000Y-76774000D01*
X51916000Y-76773000D01*
X51918000Y-76773000D01*
X52261000Y-76587000D01*
X52262000Y-76587000D01*
X52263000Y-76586000D01*
X52564000Y-76337000D01*
X52566000Y-76335000D01*
X52812000Y-76033000D01*
X52814000Y-76031000D01*
X52814000Y-76030000D01*
X52997000Y-75686000D01*
X52998000Y-75685000D01*
X52998000Y-75683000D01*
X53111000Y-75310000D01*
X53111000Y-75307000D01*
X53150000Y-74919000D01*
X53150000Y-68910000D01*
X55969000Y-68910000D01*
X55969300Y-68947400D01*
X55970300Y-68984800D01*
X55971900Y-69022200D01*
X55974200Y-69059500D01*
X55977200Y-69096800D01*
X55980700Y-69134000D01*
X55985000Y-69171200D01*
X55989900Y-69208200D01*
X55995400Y-69245200D01*
X56001600Y-69282100D01*
X56008400Y-69318900D01*
X56015800Y-69355600D01*
X56023900Y-69392100D01*
X56032700Y-69428400D01*
X56042000Y-69464600D01*
X56052000Y-69500700D01*
X56062600Y-69536600D01*
X56073900Y-69572200D01*
X56085800Y-69607700D01*
X56098200Y-69642900D01*
X56111300Y-69678000D01*
X56125000Y-69712800D01*
X56139400Y-69747300D01*
X56154300Y-69781600D01*
X56169800Y-69815700D01*
X56185900Y-69849400D01*
X56202600Y-69882900D01*
X56219800Y-69916100D01*
X56237700Y-69948900D01*
X56256100Y-69981500D01*
X56275100Y-70013700D01*
X56294600Y-70045600D01*
X56314700Y-70077200D01*
X56335400Y-70108400D01*
X56356600Y-70139200D01*
X56378300Y-70169600D01*
X56400500Y-70199700D01*
X56423300Y-70229400D01*
X56446600Y-70258600D01*
X56470400Y-70287500D01*
X56494700Y-70315900D01*
X56519400Y-70343900D01*
X56544700Y-70371500D01*
X56570500Y-70398700D01*
X56596700Y-70425300D01*
X56623300Y-70451500D01*
X56650500Y-70477300D01*
X56678100Y-70502600D01*
X56706100Y-70527300D01*
X56734500Y-70551600D01*
X56763400Y-70575400D01*
X56792600Y-70598700D01*
X56822300Y-70621500D01*
X56852400Y-70643700D01*
X56882800Y-70665400D01*
X56913600Y-70686600D01*
X56944800Y-70707300D01*
X56976400Y-70727400D01*
X57008300Y-70746900D01*
X57040500Y-70765900D01*
X57073100Y-70784300D01*
X57105900Y-70802200D01*
X57139100Y-70819400D01*
X57172600Y-70836100D01*
X57206300Y-70852200D01*
X57240400Y-70867700D01*
X57274700Y-70882600D01*
X57309200Y-70897000D01*
X57344000Y-70910700D01*
X57379100Y-70923800D01*
X57414300Y-70936200D01*
X57449800Y-70948100D01*
X57485400Y-70959400D01*
X57521300Y-70970000D01*
X57557400Y-70980000D01*
X57593600Y-70989300D01*
X57629900Y-70998100D01*
X57666400Y-71006200D01*
X57703100Y-71013600D01*
X57739900Y-71020400D01*
X57776800Y-71026600D01*
X57813800Y-71032100D01*
X57850800Y-71037000D01*
X57888000Y-71041300D01*
X57925200Y-71044800D01*
X57962500Y-71047800D01*
X57999800Y-71050100D01*
X58037200Y-71051700D01*
X58074600Y-71052700D01*
X58112000Y-71053000D01*
X58149400Y-71052700D01*
X58186800Y-71051700D01*
X58224200Y-71050100D01*
X58261500Y-71047800D01*
X58298800Y-71044800D01*
X58336000Y-71041300D01*
X58373200Y-71037000D01*
X58410200Y-71032100D01*
X58447200Y-71026600D01*
X58484100Y-71020400D01*
X58520900Y-71013600D01*
X58557600Y-71006200D01*
X58594100Y-70998100D01*
X58630400Y-70989300D01*
X58666600Y-70980000D01*
X58702700Y-70970000D01*
X58738600Y-70959400D01*
X58774200Y-70948100D01*
X58809700Y-70936200D01*
X58844900Y-70923800D01*
X58880000Y-70910700D01*
X58914800Y-70897000D01*
X58949300Y-70882600D01*
X58983600Y-70867700D01*
X59017700Y-70852200D01*
X59051400Y-70836100D01*
X59084900Y-70819400D01*
X59118100Y-70802200D01*
X59150900Y-70784300D01*
X59183500Y-70765900D01*
X59215700Y-70746900D01*
X59247600Y-70727400D01*
X59279200Y-70707300D01*
X59310400Y-70686600D01*
X59341200Y-70665400D01*
X59371600Y-70643700D01*
X59401700Y-70621500D01*
X59431400Y-70598700D01*
X59460600Y-70575400D01*
X59489500Y-70551600D01*
X59517900Y-70527300D01*
X59545900Y-70502600D01*
X59573500Y-70477300D01*
X59600700Y-70451500D01*
X59627300Y-70425300D01*
X59653500Y-70398700D01*
X59679300Y-70371500D01*
X59704600Y-70343900D01*
X59729300Y-70315900D01*
X59753600Y-70287500D01*
X59777400Y-70258600D01*
X59800700Y-70229400D01*
X59823500Y-70199700D01*
X59845700Y-70169600D01*
X59867400Y-70139200D01*
X59888600Y-70108400D01*
X59909300Y-70077200D01*
X59929400Y-70045600D01*
X59948900Y-70013700D01*
X59967900Y-69981500D01*
X59986300Y-69948900D01*
X60004200Y-69916100D01*
X60021400Y-69882900D01*
X60038100Y-69849400D01*
X60054200Y-69815700D01*
X60069700Y-69781600D01*
X60084600Y-69747300D01*
X60099000Y-69712800D01*
X60112700Y-69678000D01*
X60125800Y-69642900D01*
X60138200Y-69607700D01*
X60150100Y-69572200D01*
X60161400Y-69536600D01*
X60172000Y-69500700D01*
X60182000Y-69464600D01*
X60191300Y-69428400D01*
X60200100Y-69392100D01*
X60208200Y-69355600D01*
X60215600Y-69318900D01*
X60222400Y-69282100D01*
X60228600Y-69245200D01*
X60234100Y-69208200D01*
X60239000Y-69171200D01*
X60243300Y-69134000D01*
X60246800Y-69096800D01*
X60249800Y-69059500D01*
X60252100Y-69022200D01*
X60253700Y-68984800D01*
X60254700Y-68947400D01*
X60255000Y-68910000D01*
X60254700Y-68872600D01*
X60253700Y-68835200D01*
X60252100Y-68797800D01*
X60249800Y-68760500D01*
X60246800Y-68723200D01*
X60243300Y-68686000D01*
X60239000Y-68648800D01*
X60234100Y-68611800D01*
X60228600Y-68574800D01*
X60222400Y-68537900D01*
X60215600Y-68501100D01*
X60208200Y-68464400D01*
X60200100Y-68427900D01*
X60191300Y-68391600D01*
X60182000Y-68355400D01*
X60172000Y-68319300D01*
X60161400Y-68283400D01*
X60150100Y-68247800D01*
X60138200Y-68212300D01*
X60125800Y-68177100D01*
X60112700Y-68142000D01*
X60099000Y-68107200D01*
X60084600Y-68072700D01*
X60069700Y-68038400D01*
X60054200Y-68004300D01*
X60038100Y-67970600D01*
X60021400Y-67937100D01*
X60004200Y-67903900D01*
X59986300Y-67871100D01*
X59967900Y-67838500D01*
X59948900Y-67806300D01*
X59929400Y-67774400D01*
X59909300Y-67742800D01*
X59888600Y-67711600D01*
X59867400Y-67680800D01*
X59845700Y-67650400D01*
X59823500Y-67620300D01*
X59800700Y-67590600D01*
X59777400Y-67561400D01*
X59753600Y-67532500D01*
X59729300Y-67504100D01*
X59704600Y-67476100D01*
X59679300Y-67448500D01*
X59653500Y-67421300D01*
X59627300Y-67394700D01*
X59600700Y-67368500D01*
X59573500Y-67342700D01*
X59545900Y-67317400D01*
X59517900Y-67292700D01*
X59489500Y-67268400D01*
X59460600Y-67244600D01*
X59431400Y-67221300D01*
X59401700Y-67198500D01*
X59371600Y-67176300D01*
X59341200Y-67154600D01*
X59310400Y-67133400D01*
X59279200Y-67112700D01*
X59247600Y-67092600D01*
X59215700Y-67073100D01*
X59183500Y-67054100D01*
X59150900Y-67035700D01*
X59118100Y-67017800D01*
X59084900Y-67000600D01*
X59051400Y-66983900D01*
X59017700Y-66967800D01*
X58983600Y-66952300D01*
X58949300Y-66937400D01*
X58914800Y-66923000D01*
X58880000Y-66909300D01*
X58844900Y-66896200D01*
X58809700Y-66883800D01*
X58774200Y-66871900D01*
X58738600Y-66860600D01*
X58702700Y-66850000D01*
X58666600Y-66840000D01*
X58630400Y-66830700D01*
X58594100Y-66821900D01*
X58557600Y-66813800D01*
X58520900Y-66806400D01*
X58484100Y-66799600D01*
X58447200Y-66793400D01*
X58410200Y-66787900D01*
X58373200Y-66783000D01*
X58336000Y-66778700D01*
X58298800Y-66775200D01*
X58261500Y-66772200D01*
X58224200Y-66769900D01*
X58186800Y-66768300D01*
X58149400Y-66767300D01*
X58112000Y-66767000D01*
X58074600Y-66767300D01*
X58037200Y-66768300D01*
X57999800Y-66769900D01*
X57962500Y-66772200D01*
X57925200Y-66775200D01*
X57888000Y-66778700D01*
X57850800Y-66783000D01*
X57813800Y-66787900D01*
X57776800Y-66793400D01*
X57739900Y-66799600D01*
X57703100Y-66806400D01*
X57666400Y-66813800D01*
X57629900Y-66821900D01*
X57593600Y-66830700D01*
X57557400Y-66840000D01*
X57521300Y-66850000D01*
X57485400Y-66860600D01*
X57449800Y-66871900D01*
X57414300Y-66883800D01*
X57379100Y-66896200D01*
X57344000Y-66909300D01*
X57309200Y-66923000D01*
X57274700Y-66937400D01*
X57240400Y-66952300D01*
X57206300Y-66967800D01*
X57172600Y-66983900D01*
X57139100Y-67000600D01*
X57105900Y-67017800D01*
X57073100Y-67035700D01*
X57040500Y-67054100D01*
X57008300Y-67073100D01*
X56976400Y-67092600D01*
X56944800Y-67112700D01*
X56913600Y-67133400D01*
X56882800Y-67154600D01*
X56852400Y-67176300D01*
X56822300Y-67198500D01*
X56792600Y-67221300D01*
X56763400Y-67244600D01*
X56734500Y-67268400D01*
X56706100Y-67292700D01*
X56678100Y-67317400D01*
X56650500Y-67342700D01*
X56623300Y-67368500D01*
X56596700Y-67394700D01*
X56570500Y-67421300D01*
X56544700Y-67448500D01*
X56519400Y-67476100D01*
X56494700Y-67504100D01*
X56470400Y-67532500D01*
X56446600Y-67561400D01*
X56423300Y-67590600D01*
X56400500Y-67620300D01*
X56378300Y-67650400D01*
X56356600Y-67680800D01*
X56335400Y-67711600D01*
X56314700Y-67742800D01*
X56294600Y-67774400D01*
X56275100Y-67806300D01*
X56256100Y-67838500D01*
X56237700Y-67871100D01*
X56219800Y-67903900D01*
X56202600Y-67937100D01*
X56185900Y-67970600D01*
X56169800Y-68004300D01*
X56154300Y-68038400D01*
X56139400Y-68072700D01*
X56125000Y-68107200D01*
X56111300Y-68142000D01*
X56098200Y-68177100D01*
X56085800Y-68212300D01*
X56073900Y-68247800D01*
X56062600Y-68283400D01*
X56052000Y-68319300D01*
X56042000Y-68355400D01*
X56032700Y-68391600D01*
X56023900Y-68427900D01*
X56015800Y-68464400D01*
X56008400Y-68501100D01*
X56001600Y-68537900D01*
X55995400Y-68574800D01*
X55989900Y-68611800D01*
X55985000Y-68648800D01*
X55980700Y-68686000D01*
X55977200Y-68723200D01*
X55974200Y-68760500D01*
X55971900Y-68797800D01*
X55970300Y-68835200D01*
X55969300Y-68872600D01*
X55969000Y-68910000D01*
X53150000Y-68910000D01*
X53150000Y-66938000D01*
X53187000Y-66551000D01*
X53300000Y-66180000D01*
X53482000Y-65838000D01*
X53727000Y-65537000D01*
X54025000Y-65290000D01*
X54366000Y-65106000D01*
X54737000Y-64991000D01*
X55123000Y-64951000D01*
X59429000Y-64951000D01*
X61169000Y-64950000D01*
X61556000Y-64988000D01*
X61927000Y-65100000D01*
X62270000Y-65282000D01*
X62570000Y-65527000D01*
X62817000Y-65825000D01*
X63002000Y-66166000D01*
X63117000Y-66537000D01*
X63157000Y-66923000D01*
X63157000Y-74918000D01*
X63158000Y-74932000D01*
X63158000Y-74933000D01*
X63198000Y-75321000D01*
X63199000Y-75322000D01*
X63199000Y-75324000D01*
X63314000Y-75696000D01*
X63315000Y-75698000D01*
X63315000Y-75699000D01*
X63501000Y-76042000D01*
X63502000Y-76043000D01*
X63502000Y-76044000D01*
X63751000Y-76345000D01*
X63753000Y-76347000D01*
X64056000Y-76594000D01*
X64057000Y-76594000D01*
X64058000Y-76595000D01*
X64402000Y-76778000D01*
X64403000Y-76779000D01*
X64405000Y-76779000D01*
X64778000Y-76892000D01*
X64780000Y-76892000D01*
X64781000Y-76893000D01*
X65169000Y-76931000D01*
X75991000Y-76931000D01*
X76185000Y-76910000D01*
X76188000Y-76910000D01*
X76374000Y-76852000D01*
X76375000Y-76852000D01*
X76377000Y-76851000D01*
X76548000Y-76758000D01*
X76549000Y-76758000D01*
X76550000Y-76757000D01*
X76551000Y-76757000D01*
X76701000Y-76632000D01*
X76702000Y-76631000D01*
X76703000Y-76631000D01*
X76703000Y-76630000D01*
X76826000Y-76479000D01*
X76827000Y-76478000D01*
X76827000Y-76477000D01*
X76919000Y-76305000D01*
X76920000Y-76304000D01*
X76920000Y-76302000D01*
X76976000Y-76116000D01*
X76977000Y-76114000D01*
X76977000Y-76113000D01*
X76996000Y-75919000D01*
X76996000Y-75806000D01*
X76976000Y-75612000D01*
X76975000Y-75611000D01*
X76975000Y-75609000D01*
X76917000Y-75423000D01*
X76917000Y-75422000D01*
X76916000Y-75421000D01*
X76916000Y-75420000D01*
X76824000Y-75249000D01*
X76822000Y-75247000D01*
X76698000Y-75096000D01*
X76697000Y-75095000D01*
X76696000Y-75095000D01*
X76696000Y-75094000D01*
X76545000Y-74971000D01*
X76544000Y-74970000D01*
X76542000Y-74970000D01*
X76370000Y-74878000D01*
X76369000Y-74878000D01*
X76368000Y-74877000D01*
X76181000Y-74821000D01*
X76180000Y-74820000D01*
X76178000Y-74820000D01*
X75984000Y-74801000D01*
X73756000Y-74801000D01*
X70732000Y-74504000D01*
X70353000Y-74302000D01*
X69902000Y-73934000D01*
X69530000Y-73484000D01*
X69253000Y-72972000D01*
X69081000Y-72415000D01*
X69020000Y-71834000D01*
X69019000Y-71814000D01*
X69019000Y-71045000D01*
X69076000Y-70464000D01*
X69245000Y-69906000D01*
X69519000Y-69391000D01*
X69887000Y-68940000D01*
X70336000Y-68568000D01*
X70849000Y-68291000D01*
X71406000Y-68118000D01*
X71986000Y-68057000D01*
X79000000Y-68057000D01*
X79002000Y-68056000D01*
X79005000Y-68055000D01*
X79007000Y-68054000D01*
X79008000Y-68052000D01*
X79010000Y-68049000D01*
X79010000Y-68047000D01*
X79011000Y-68044000D01*
X79010000Y-68044000D01*
X79010000Y-67594000D01*
X79184000Y-67594000D01*
X79184000Y-68368000D01*
X78692000Y-68860000D01*
X72157000Y-68860000D01*
X71785000Y-68895000D01*
X71784000Y-68896000D01*
X71783000Y-68896000D01*
X71408000Y-69005000D01*
X71407000Y-69006000D01*
X71406000Y-69006000D01*
X71060000Y-69187000D01*
X71059000Y-69187000D01*
X71058000Y-69188000D01*
X70667000Y-69522000D01*
X70665000Y-69524000D01*
X70441000Y-69823000D01*
X70441000Y-69824000D01*
X70440000Y-69825000D01*
X70276000Y-70160000D01*
X70276000Y-70161000D01*
X70275000Y-70162000D01*
X70188000Y-70460000D01*
X70188000Y-70463000D01*
X70147000Y-70795000D01*
X70147000Y-70799000D01*
X70145000Y-70873000D01*
X70145000Y-71256000D01*
X70142000Y-71256000D01*
X70142000Y-71543000D01*
X70145000Y-71543000D01*
X70145000Y-71986000D01*
X70165000Y-72262000D01*
X70165000Y-72265000D01*
X70241000Y-72599000D01*
X70242000Y-72601000D01*
X70365000Y-72900000D01*
X70366000Y-72900000D01*
X70366000Y-72902000D01*
X70582000Y-73236000D01*
X70582000Y-73237000D01*
X70583000Y-73238000D01*
X70601000Y-73261000D01*
X70602000Y-73261000D01*
X70602000Y-73262000D01*
X70877000Y-73537000D01*
X70877000Y-73538000D01*
X70879000Y-73539000D01*
X71111000Y-73704000D01*
X71113000Y-73705000D01*
X71390000Y-73846000D01*
X71391000Y-73846000D01*
X71392000Y-73847000D01*
X71393000Y-73847000D01*
X71766000Y-73959000D01*
X71767000Y-73960000D01*
X71769000Y-73960000D01*
X72157000Y-73998000D01*
X86487000Y-73998000D01*
X86798000Y-73974000D01*
X86799000Y-73974000D01*
X86800000Y-73973000D01*
X87178000Y-73875000D01*
X87180000Y-73875000D01*
X87531000Y-73705000D01*
X87533000Y-73704000D01*
X87766000Y-73539000D01*
X87789000Y-73519000D01*
X87790000Y-73519000D01*
X87790000Y-73518000D01*
X88061000Y-73238000D01*
X88062000Y-73238000D01*
X88063000Y-73236000D01*
X88278000Y-72902000D01*
X88279000Y-72900000D01*
X88402000Y-72601000D01*
X88403000Y-72601000D01*
X88403000Y-72599000D01*
X88480000Y-72265000D01*
X88480000Y-72262000D01*
X88499000Y-71992000D01*
X88499000Y-71541000D01*
X88502000Y-71541000D01*
X88502000Y-71072000D01*
X88499000Y-71072000D01*
X88499000Y-70873000D01*
X88498000Y-70799000D01*
X88498000Y-70795000D01*
X88457000Y-70463000D01*
X88456000Y-70461000D01*
X88456000Y-70460000D01*
X88369000Y-70162000D01*
X88369000Y-70161000D01*
X88368000Y-70160000D01*
X88205000Y-69825000D01*
X88203000Y-69823000D01*
X87980000Y-69524000D01*
X87979000Y-69524000D01*
X87978000Y-69522000D01*
X87587000Y-69188000D01*
X87585000Y-69187000D01*
X87254000Y-69013000D01*
X87253000Y-69012000D01*
X87252000Y-69012000D01*
X86878000Y-68899000D01*
X86876000Y-68899000D01*
X86876000Y-68898000D01*
X86487000Y-68860000D01*
X79853000Y-68860000D01*
X79360000Y-68368000D01*
X79360000Y-67594000D01*
X79534000Y-67594000D01*
X79534000Y-68047000D01*
X79535000Y-68049000D01*
X79536000Y-68052000D01*
X79538000Y-68054000D01*
X79540000Y-68055000D01*
X79542000Y-68057000D01*
X79545000Y-68057000D01*
X79547000Y-68058000D01*
X86638000Y-68057000D01*
X87218000Y-68114000D01*
X87776000Y-68283000D01*
X88291000Y-68557000D01*
X88743000Y-68925000D01*
X89114000Y-69374000D01*
X89392000Y-69887000D01*
X89564000Y-70444000D01*
X89625000Y-71024000D01*
X89625000Y-71814000D01*
X89568000Y-72394000D01*
X89400000Y-72952000D01*
X89126000Y-73467000D01*
X88758000Y-73919000D01*
X88308000Y-74290000D01*
X84760000Y-74801000D01*
X83171000Y-74801000D01*
X82977000Y-74822000D01*
X82975000Y-74822000D01*
X82788000Y-74880000D01*
X82787000Y-74880000D01*
X82786000Y-74881000D01*
X82614000Y-74974000D01*
X82613000Y-74974000D01*
X82612000Y-74975000D01*
X82462000Y-75099000D01*
X82460000Y-75101000D01*
X82337000Y-75252000D01*
X82335000Y-75254000D01*
X82335000Y-75255000D01*
X82243000Y-75427000D01*
X82243000Y-75429000D01*
X82186000Y-75616000D01*
X82186000Y-75619000D01*
X82167000Y-75813000D01*
X82166000Y-75814000D01*
X82166000Y-75918000D01*
X82167000Y-75925000D01*
X82167000Y-75926000D01*
X82187000Y-76120000D01*
X82187000Y-76122000D01*
X82188000Y-76122000D01*
X82245000Y-76309000D01*
X82246000Y-76310000D01*
X82246000Y-76311000D01*
X82339000Y-76483000D01*
X82340000Y-76484000D01*
X82340000Y-76485000D01*
X82465000Y-76636000D01*
X82466000Y-76636000D01*
X82467000Y-76637000D01*
X82618000Y-76761000D01*
X82619000Y-76761000D01*
X82620000Y-76762000D01*
X82792000Y-76854000D01*
X82794000Y-76854000D01*
X82795000Y-76855000D01*
X82982000Y-76911000D01*
X82983000Y-76911000D01*
X82984000Y-76912000D01*
X83178000Y-76931000D01*
X93468000Y-76931000D01*
X93856000Y-76890000D01*
X93857000Y-76890000D01*
X93858000Y-76889000D01*
X94231000Y-76774000D01*
X94232000Y-76773000D01*
X94234000Y-76773000D01*
X94577000Y-76587000D01*
X94578000Y-76587000D01*
X94579000Y-76586000D01*
X94880000Y-76337000D01*
X94882000Y-76335000D01*
X95128000Y-76033000D01*
X95130000Y-76031000D01*
X95130000Y-76030000D01*
X95313000Y-75686000D01*
X95314000Y-75685000D01*
X95314000Y-75683000D01*
X95427000Y-75310000D01*
X95427000Y-75307000D01*
X95466000Y-74919000D01*
X95466000Y-68910000D01*
X98520000Y-68910000D01*
X98520300Y-68947400D01*
X98521300Y-68984800D01*
X98522900Y-69022200D01*
X98525200Y-69059500D01*
X98528200Y-69096800D01*
X98531700Y-69134000D01*
X98536000Y-69171200D01*
X98540900Y-69208200D01*
X98546400Y-69245200D01*
X98552600Y-69282100D01*
X98559400Y-69318900D01*
X98566800Y-69355600D01*
X98574900Y-69392100D01*
X98583700Y-69428400D01*
X98593000Y-69464600D01*
X98603000Y-69500700D01*
X98613600Y-69536600D01*
X98624900Y-69572200D01*
X98636800Y-69607700D01*
X98649200Y-69642900D01*
X98662300Y-69678000D01*
X98676000Y-69712800D01*
X98690400Y-69747300D01*
X98705300Y-69781600D01*
X98720800Y-69815700D01*
X98736900Y-69849400D01*
X98753600Y-69882900D01*
X98770800Y-69916100D01*
X98788700Y-69948900D01*
X98807100Y-69981500D01*
X98826100Y-70013700D01*
X98845600Y-70045600D01*
X98865700Y-70077200D01*
X98886400Y-70108400D01*
X98907600Y-70139200D01*
X98929300Y-70169600D01*
X98951500Y-70199700D01*
X98974300Y-70229400D01*
X98997600Y-70258600D01*
X99021400Y-70287500D01*
X99045700Y-70315900D01*
X99070400Y-70343900D01*
X99095700Y-70371500D01*
X99121500Y-70398700D01*
X99147700Y-70425300D01*
X99174300Y-70451500D01*
X99201500Y-70477300D01*
X99229100Y-70502600D01*
X99257100Y-70527300D01*
X99285500Y-70551600D01*
X99314400Y-70575400D01*
X99343600Y-70598700D01*
X99373300Y-70621500D01*
X99403400Y-70643700D01*
X99433800Y-70665400D01*
X99464600Y-70686600D01*
X99495800Y-70707300D01*
X99527400Y-70727400D01*
X99559300Y-70746900D01*
X99591500Y-70765900D01*
X99624100Y-70784300D01*
X99656900Y-70802200D01*
X99690100Y-70819400D01*
X99723600Y-70836100D01*
X99757300Y-70852200D01*
X99791400Y-70867700D01*
X99825700Y-70882600D01*
X99860200Y-70897000D01*
X99895000Y-70910700D01*
X99930100Y-70923800D01*
X99965300Y-70936200D01*
X100000800Y-70948100D01*
X100036400Y-70959400D01*
X100072300Y-70970000D01*
X100108400Y-70980000D01*
X100144600Y-70989300D01*
X100180900Y-70998100D01*
X100217400Y-71006200D01*
X100254100Y-71013600D01*
X100290900Y-71020400D01*
X100327800Y-71026600D01*
X100364800Y-71032100D01*
X100401800Y-71037000D01*
X100439000Y-71041300D01*
X100476200Y-71044800D01*
X100513500Y-71047800D01*
X100550800Y-71050100D01*
X100588200Y-71051700D01*
X100625600Y-71052700D01*
X100663000Y-71053000D01*
X100700400Y-71052700D01*
X100737800Y-71051700D01*
X100775200Y-71050100D01*
X100812500Y-71047800D01*
X100849800Y-71044800D01*
X100887000Y-71041300D01*
X100924200Y-71037000D01*
X100961200Y-71032100D01*
X100998200Y-71026600D01*
X101035100Y-71020400D01*
X101071900Y-71013600D01*
X101108600Y-71006200D01*
X101145100Y-70998100D01*
X101181400Y-70989300D01*
X101217600Y-70980000D01*
X101253700Y-70970000D01*
X101289600Y-70959400D01*
X101325200Y-70948100D01*
X101360700Y-70936200D01*
X101395900Y-70923800D01*
X101431000Y-70910700D01*
X101465800Y-70897000D01*
X101500300Y-70882600D01*
X101534600Y-70867700D01*
X101568700Y-70852200D01*
X101602400Y-70836100D01*
X101635900Y-70819400D01*
X101669100Y-70802200D01*
X101701900Y-70784300D01*
X101734500Y-70765900D01*
X101766700Y-70746900D01*
X101798600Y-70727400D01*
X101830200Y-70707300D01*
X101861400Y-70686600D01*
X101892200Y-70665400D01*
X101922600Y-70643700D01*
X101952700Y-70621500D01*
X101982400Y-70598700D01*
X102011600Y-70575400D01*
X102040500Y-70551600D01*
X102068900Y-70527300D01*
X102096900Y-70502600D01*
X102124500Y-70477300D01*
X102151700Y-70451500D01*
X102178300Y-70425300D01*
X102204500Y-70398700D01*
X102230300Y-70371500D01*
X102255600Y-70343900D01*
X102280300Y-70315900D01*
X102304600Y-70287500D01*
X102328400Y-70258600D01*
X102351700Y-70229400D01*
X102374500Y-70199700D01*
X102396700Y-70169600D01*
X102418400Y-70139200D01*
X102439600Y-70108400D01*
X102460300Y-70077200D01*
X102480400Y-70045600D01*
X102499900Y-70013700D01*
X102518900Y-69981500D01*
X102537300Y-69948900D01*
X102555200Y-69916100D01*
X102572400Y-69882900D01*
X102589100Y-69849400D01*
X102605200Y-69815700D01*
X102620700Y-69781600D01*
X102635600Y-69747300D01*
X102650000Y-69712800D01*
X102663700Y-69678000D01*
X102676800Y-69642900D01*
X102689200Y-69607700D01*
X102701100Y-69572200D01*
X102712400Y-69536600D01*
X102723000Y-69500700D01*
X102733000Y-69464600D01*
X102742300Y-69428400D01*
X102751100Y-69392100D01*
X102759200Y-69355600D01*
X102766600Y-69318900D01*
X102773400Y-69282100D01*
X102779600Y-69245200D01*
X102785100Y-69208200D01*
X102790000Y-69171200D01*
X102794300Y-69134000D01*
X102797800Y-69096800D01*
X102800800Y-69059500D01*
X102803100Y-69022200D01*
X102804700Y-68984800D01*
X102805700Y-68947400D01*
X102806000Y-68910000D01*
X102805700Y-68872600D01*
X102804700Y-68835200D01*
X102803100Y-68797800D01*
X102800800Y-68760500D01*
X102797800Y-68723200D01*
X102794300Y-68686000D01*
X102790000Y-68648800D01*
X102785100Y-68611800D01*
X102779600Y-68574800D01*
X102773400Y-68537900D01*
X102766600Y-68501100D01*
X102759200Y-68464400D01*
X102751100Y-68427900D01*
X102742300Y-68391600D01*
X102733000Y-68355400D01*
X102723000Y-68319300D01*
X102712400Y-68283400D01*
X102701100Y-68247800D01*
X102689200Y-68212300D01*
X102676800Y-68177100D01*
X102663700Y-68142000D01*
X102650000Y-68107200D01*
X102635600Y-68072700D01*
X102620700Y-68038400D01*
X102605200Y-68004300D01*
X102589100Y-67970600D01*
X102572400Y-67937100D01*
X102555200Y-67903900D01*
X102537300Y-67871100D01*
X102518900Y-67838500D01*
X102499900Y-67806300D01*
X102480400Y-67774400D01*
X102460300Y-67742800D01*
X102439600Y-67711600D01*
X102418400Y-67680800D01*
X102396700Y-67650400D01*
X102374500Y-67620300D01*
X102351700Y-67590600D01*
X102328400Y-67561400D01*
X102304600Y-67532500D01*
X102280300Y-67504100D01*
X102255600Y-67476100D01*
X102230300Y-67448500D01*
X102204500Y-67421300D01*
X102178300Y-67394700D01*
X102151700Y-67368500D01*
X102124500Y-67342700D01*
X102096900Y-67317400D01*
X102068900Y-67292700D01*
X102040500Y-67268400D01*
X102011600Y-67244600D01*
X101982400Y-67221300D01*
X101952700Y-67198500D01*
X101922600Y-67176300D01*
X101892200Y-67154600D01*
X101861400Y-67133400D01*
X101830200Y-67112700D01*
X101798600Y-67092600D01*
X101766700Y-67073100D01*
X101734500Y-67054100D01*
X101701900Y-67035700D01*
X101669100Y-67017800D01*
X101635900Y-67000600D01*
X101602400Y-66983900D01*
X101568700Y-66967800D01*
X101534600Y-66952300D01*
X101500300Y-66937400D01*
X101465800Y-66923000D01*
X101431000Y-66909300D01*
X101395900Y-66896200D01*
X101360700Y-66883800D01*
X101325200Y-66871900D01*
X101289600Y-66860600D01*
X101253700Y-66850000D01*
X101217600Y-66840000D01*
X101181400Y-66830700D01*
X101145100Y-66821900D01*
X101108600Y-66813800D01*
X101071900Y-66806400D01*
X101035100Y-66799600D01*
X100998200Y-66793400D01*
X100961200Y-66787900D01*
X100924200Y-66783000D01*
X100887000Y-66778700D01*
X100849800Y-66775200D01*
X100812500Y-66772200D01*
X100775200Y-66769900D01*
X100737800Y-66768300D01*
X100700400Y-66767300D01*
X100663000Y-66767000D01*
X100625600Y-66767300D01*
X100588200Y-66768300D01*
X100550800Y-66769900D01*
X100513500Y-66772200D01*
X100476200Y-66775200D01*
X100439000Y-66778700D01*
X100401800Y-66783000D01*
X100364800Y-66787900D01*
X100327800Y-66793400D01*
X100290900Y-66799600D01*
X100254100Y-66806400D01*
X100217400Y-66813800D01*
X100180900Y-66821900D01*
X100144600Y-66830700D01*
X100108400Y-66840000D01*
X100072300Y-66850000D01*
X100036400Y-66860600D01*
X100000800Y-66871900D01*
X99965300Y-66883800D01*
X99930100Y-66896200D01*
X99895000Y-66909300D01*
X99860200Y-66923000D01*
X99825700Y-66937400D01*
X99791400Y-66952300D01*
X99757300Y-66967800D01*
X99723600Y-66983900D01*
X99690100Y-67000600D01*
X99656900Y-67017800D01*
X99624100Y-67035700D01*
X99591500Y-67054100D01*
X99559300Y-67073100D01*
X99527400Y-67092600D01*
X99495800Y-67112700D01*
X99464600Y-67133400D01*
X99433800Y-67154600D01*
X99403400Y-67176300D01*
X99373300Y-67198500D01*
X99343600Y-67221300D01*
X99314400Y-67244600D01*
X99285500Y-67268400D01*
X99257100Y-67292700D01*
X99229100Y-67317400D01*
X99201500Y-67342700D01*
X99174300Y-67368500D01*
X99147700Y-67394700D01*
X99121500Y-67421300D01*
X99095700Y-67448500D01*
X99070400Y-67476100D01*
X99045700Y-67504100D01*
X99021400Y-67532500D01*
X98997600Y-67561400D01*
X98974300Y-67590600D01*
X98951500Y-67620300D01*
X98929300Y-67650400D01*
X98907600Y-67680800D01*
X98886400Y-67711600D01*
X98865700Y-67742800D01*
X98845600Y-67774400D01*
X98826100Y-67806300D01*
X98807100Y-67838500D01*
X98788700Y-67871100D01*
X98770800Y-67903900D01*
X98753600Y-67937100D01*
X98736900Y-67970600D01*
X98720800Y-68004300D01*
X98705300Y-68038400D01*
X98690400Y-68072700D01*
X98676000Y-68107200D01*
X98662300Y-68142000D01*
X98649200Y-68177100D01*
X98636800Y-68212300D01*
X98624900Y-68247800D01*
X98613600Y-68283400D01*
X98603000Y-68319300D01*
X98593000Y-68355400D01*
X98583700Y-68391600D01*
X98574900Y-68427900D01*
X98566800Y-68464400D01*
X98559400Y-68501100D01*
X98552600Y-68537900D01*
X98546400Y-68574800D01*
X98540900Y-68611800D01*
X98536000Y-68648800D01*
X98531700Y-68686000D01*
X98528200Y-68723200D01*
X98525200Y-68760500D01*
X98522900Y-68797800D01*
X98521300Y-68835200D01*
X98520300Y-68872600D01*
X98520000Y-68910000D01*
X95466000Y-68910000D01*
X95466000Y-66785000D01*
X95503000Y-66398000D01*
X95616000Y-66027000D01*
X95798000Y-65685000D01*
X96043000Y-65384000D01*
X96341000Y-65137000D01*
X96682000Y-64953000D01*
X97053000Y-64838000D01*
X97439000Y-64798000D01*
X101745000Y-64798000D01*
X103485000Y-64797000D01*
X103872000Y-64835000D01*
X104243000Y-64947000D01*
X104586000Y-65129000D01*
X104886000Y-65374000D01*
X105133000Y-65672000D01*
X105318000Y-66013000D01*
X105433000Y-66384000D01*
X105473000Y-66770000D01*
X105473000Y-74918000D01*
X105474000Y-74932000D01*
X105474000Y-74933000D01*
X105514000Y-75321000D01*
X105515000Y-75322000D01*
X105515000Y-75324000D01*
X105630000Y-75696000D01*
X105631000Y-75698000D01*
X105631000Y-75699000D01*
X105817000Y-76042000D01*
X105818000Y-76043000D01*
X105818000Y-76044000D01*
X106067000Y-76345000D01*
X106069000Y-76347000D01*
X106372000Y-76594000D01*
X106373000Y-76594000D01*
X106374000Y-76595000D01*
X106718000Y-76778000D01*
X106719000Y-76779000D01*
X106721000Y-76779000D01*
X107094000Y-76892000D01*
X107096000Y-76892000D01*
X107097000Y-76893000D01*
X107485000Y-76931000D01*
X109793000Y-76931000D01*
X110181000Y-76890000D01*
X110182000Y-76890000D01*
X110183000Y-76889000D01*
X110556000Y-76774000D01*
X110557000Y-76773000D01*
X110559000Y-76773000D01*
X110902000Y-76587000D01*
X110903000Y-76587000D01*
X110904000Y-76586000D01*
X111205000Y-76337000D01*
X111207000Y-76335000D01*
X111453000Y-76033000D01*
X111455000Y-76031000D01*
X111455000Y-76030000D01*
X111638000Y-75686000D01*
X111639000Y-75685000D01*
X111639000Y-75683000D01*
X111752000Y-75310000D01*
X111752000Y-75307000D01*
X111791000Y-74919000D01*
X111791000Y-58193000D01*
X111790000Y-58192000D01*
X111790000Y-58191000D01*
X111750000Y-57803000D01*
X111749000Y-57802000D01*
X111749000Y-57800000D01*
X111634000Y-57428000D01*
X111633000Y-57426000D01*
X111633000Y-57425000D01*
X111447000Y-57082000D01*
X111446000Y-57081000D01*
X111446000Y-57080000D01*
X111197000Y-56779000D01*
X111195000Y-56777000D01*
X110893000Y-56530000D01*
X110892000Y-56530000D01*
X110891000Y-56529000D01*
X110890000Y-56529000D01*
X110546000Y-56346000D01*
X110545000Y-56345000D01*
X110543000Y-56345000D01*
X110170000Y-56232000D01*
X110169000Y-56232000D01*
X110167000Y-56231000D01*
X109779000Y-56193000D01*
X104116000Y-56193000D01*
X104115000Y-56194000D01*
X104113000Y-56194000D01*
X104110000Y-56195000D01*
X104108000Y-56197000D01*
X104107000Y-56199000D01*
X104105000Y-56201000D01*
X104105000Y-56205000D01*
X104041000Y-56849000D01*
X103855000Y-57467000D01*
X103552000Y-58037000D01*
X103144000Y-58537000D01*
X102647000Y-58948000D01*
X102079000Y-59255000D01*
X101462000Y-59446000D01*
X100820000Y-59513000D01*
X100178000Y-59455000D01*
X99559000Y-59273000D01*
X98987000Y-58974000D01*
X98484000Y-58569000D01*
X98069000Y-58075000D01*
X97758000Y-57509000D01*
X97563000Y-56894000D01*
X97491000Y-56253000D01*
X97505320Y-56082300D01*
X98710700Y-56082300D01*
X98710800Y-56117400D01*
X98711500Y-56152500D01*
X98712800Y-56187500D01*
X98714700Y-56222600D01*
X98717300Y-56257600D01*
X98720400Y-56292500D01*
X98724200Y-56327400D01*
X98728500Y-56362200D01*
X98733500Y-56397000D01*
X98739100Y-56431600D01*
X98745300Y-56466200D01*
X98752100Y-56500600D01*
X98759500Y-56534900D01*
X98767500Y-56569100D01*
X98776100Y-56603100D01*
X98785300Y-56637000D01*
X98795100Y-56670700D01*
X98805500Y-56704200D01*
X98816500Y-56737500D01*
X98828100Y-56770600D01*
X98840200Y-56803600D01*
X98852900Y-56836300D01*
X98866200Y-56868800D01*
X98880000Y-56901000D01*
X98894400Y-56933000D01*
X98909400Y-56964800D01*
X98924900Y-56996200D01*
X98941000Y-57027400D01*
X98957600Y-57058300D01*
X98974800Y-57088900D01*
X98992500Y-57119200D01*
X99010700Y-57149200D01*
X99029500Y-57178900D01*
X99048700Y-57208200D01*
X99068500Y-57237200D01*
X99088800Y-57265900D01*
X99109600Y-57294100D01*
X99130900Y-57322000D01*
X99152600Y-57349600D01*
X99174900Y-57376700D01*
X99197600Y-57403500D01*
X99220700Y-57429800D01*
X99244400Y-57455800D01*
X99268500Y-57481300D01*
X99293000Y-57506400D01*
X99318000Y-57531000D01*
X99343400Y-57555300D01*
X99369200Y-57579000D01*
X99395400Y-57602300D01*
X99422100Y-57625200D01*
X99449100Y-57647600D01*
X99476500Y-57669400D01*
X99504300Y-57690900D01*
X99532500Y-57711800D01*
X99561000Y-57732200D01*
X99589900Y-57752100D01*
X99619200Y-57771500D01*
X99648700Y-57790400D01*
X99678600Y-57808800D01*
X99708900Y-57826700D01*
X99739400Y-57844000D01*
X99770200Y-57860700D01*
X99801300Y-57877000D01*
X99832700Y-57892700D01*
X99864400Y-57907800D01*
X99896300Y-57922400D01*
X99928500Y-57936400D01*
X99960900Y-57949800D01*
X99993600Y-57962700D01*
X100026400Y-57975000D01*
X100059500Y-57986700D01*
X100092800Y-57997800D01*
X100126300Y-58008400D01*
X100159900Y-58018300D01*
X100193700Y-58027700D01*
X100227700Y-58036500D01*
X100261800Y-58044700D01*
X100296100Y-58052300D01*
X100330500Y-58059200D01*
X100365000Y-58065600D01*
X100399600Y-58071400D01*
X100434300Y-58076500D01*
X100469100Y-58081100D01*
X100504000Y-58085000D01*
X100504000Y-58075000D01*
X101002000Y-58075000D01*
X101036600Y-58069600D01*
X101071200Y-58063600D01*
X101105600Y-58057000D01*
X101139900Y-58049800D01*
X101174000Y-58041900D01*
X101208100Y-58033500D01*
X101241900Y-58024500D01*
X101275600Y-58014900D01*
X101309200Y-58004700D01*
X101342500Y-57994000D01*
X101375700Y-57982600D01*
X101408600Y-57970700D01*
X101441400Y-57958100D01*
X101473900Y-57945100D01*
X101506200Y-57931400D01*
X101538200Y-57917200D01*
X101570000Y-57902400D01*
X101601500Y-57887100D01*
X101632700Y-57871200D01*
X101663700Y-57854800D01*
X101694400Y-57837800D01*
X101724700Y-57820300D01*
X101754800Y-57802300D01*
X101784500Y-57783700D01*
X101813900Y-57764700D01*
X101843000Y-57745100D01*
X101871700Y-57725000D01*
X101900100Y-57704400D01*
X101928100Y-57683300D01*
X101955700Y-57661800D01*
X101982900Y-57639700D01*
X102009800Y-57617200D01*
X102036200Y-57594200D01*
X102062300Y-57570800D01*
X102087900Y-57546900D01*
X102113100Y-57522500D01*
X102137900Y-57497700D01*
X102162200Y-57472500D01*
X102186100Y-57446900D01*
X102209600Y-57420800D01*
X102232600Y-57394300D01*
X102255100Y-57367500D01*
X102277100Y-57340200D01*
X102298700Y-57312600D01*
X102319700Y-57284600D01*
X102340300Y-57256200D01*
X102360400Y-57227500D01*
X102380000Y-57198400D01*
X102399000Y-57169000D01*
X102417600Y-57139300D01*
X102435600Y-57109200D01*
X102453100Y-57078800D01*
X102470000Y-57048200D01*
X102486400Y-57017200D01*
X102502300Y-56985900D01*
X102517600Y-56954400D01*
X102532400Y-56922600D01*
X102546600Y-56890600D01*
X102560200Y-56858300D01*
X102573300Y-56825800D01*
X102585800Y-56793100D01*
X102597700Y-56760100D01*
X102609100Y-56726900D01*
X102619800Y-56693600D01*
X102630000Y-56660000D01*
X102639600Y-56626300D01*
X102648600Y-56592500D01*
X102657000Y-56558400D01*
X102664800Y-56524300D01*
X102672000Y-56490000D01*
X102678600Y-56455600D01*
X102684600Y-56421000D01*
X102690000Y-56386400D01*
X102694800Y-56351700D01*
X102698900Y-56316900D01*
X102702500Y-56282000D01*
X102705500Y-56247100D01*
X102707800Y-56212100D01*
X102709500Y-56177100D01*
X102710600Y-56142100D01*
X102711100Y-56107000D01*
X102711000Y-56072000D01*
X102710300Y-56037000D01*
X102709000Y-56001900D01*
X102707000Y-55966900D01*
X102704400Y-55932000D01*
X102701300Y-55897100D01*
X102697500Y-55862200D01*
X102693100Y-55827500D01*
X102688100Y-55792800D01*
X102682400Y-55758200D01*
X102676200Y-55723700D01*
X102669400Y-55689300D01*
X102662000Y-55655100D01*
X102653900Y-55621000D01*
X102645300Y-55587000D01*
X102636100Y-55553200D01*
X102626300Y-55519500D01*
X102615900Y-55486100D01*
X102604900Y-55452800D01*
X102593400Y-55419700D01*
X102581200Y-55386800D01*
X102568500Y-55354100D01*
X102555200Y-55321700D01*
X102541400Y-55289500D01*
X102527000Y-55257600D01*
X102512000Y-55225900D01*
X102496500Y-55194500D01*
X102480400Y-55163300D01*
X102463800Y-55132500D01*
X102446700Y-55101900D01*
X102429000Y-55071600D01*
X102410800Y-55041700D01*
X102392000Y-55012100D01*
X102372800Y-54982800D01*
X102353000Y-54953800D01*
X102332800Y-54925200D01*
X102312000Y-54897000D01*
X101002000Y-56383000D01*
X101002000Y-58075000D01*
X100504000Y-58075000D01*
X100504000Y-56450000D01*
X99044000Y-54990000D01*
X99024900Y-55019400D01*
X99006200Y-55049200D01*
X98988100Y-55079200D01*
X98970600Y-55109600D01*
X98953500Y-55140300D01*
X98937100Y-55171300D01*
X98921100Y-55202500D01*
X98905700Y-55234100D01*
X98890900Y-55265900D01*
X98876600Y-55297900D01*
X98862900Y-55330200D01*
X98849800Y-55362800D01*
X98837200Y-55395500D01*
X98825200Y-55428500D01*
X98813800Y-55461700D01*
X98802900Y-55495100D01*
X98792700Y-55528700D01*
X98783100Y-55562400D01*
X98774000Y-55596300D01*
X98765500Y-55630400D01*
X98757700Y-55664600D01*
X98750400Y-55698900D01*
X98743800Y-55733400D01*
X98737700Y-55767900D01*
X98732300Y-55802600D01*
X98727400Y-55837300D01*
X98723200Y-55872200D01*
X98719600Y-55907100D01*
X98716600Y-55942100D01*
X98714200Y-55977100D01*
X98712400Y-56012100D01*
X98711300Y-56047200D01*
X98710700Y-56082300D01*
X97505320Y-56082300D01*
X97545000Y-55609000D01*
X97723000Y-54989000D01*
X97917790Y-54610000D01*
X99372000Y-54610000D01*
X100715000Y-55953000D01*
X101964000Y-54537000D01*
X101936300Y-54515100D01*
X101908300Y-54493800D01*
X101879800Y-54472900D01*
X101851000Y-54452600D01*
X101821900Y-54432700D01*
X101792400Y-54413400D01*
X101762600Y-54394600D01*
X101732400Y-54376300D01*
X101701900Y-54358600D01*
X101671100Y-54341400D01*
X101640100Y-54324700D01*
X101608700Y-54308600D01*
X101577000Y-54293000D01*
X101545100Y-54278100D01*
X101513000Y-54263600D01*
X101480500Y-54249800D01*
X101447900Y-54236500D01*
X101415000Y-54223800D01*
X101381800Y-54211700D01*
X101348500Y-54200100D01*
X101315000Y-54189200D01*
X101281300Y-54178800D01*
X101247400Y-54169100D01*
X101213400Y-54159900D01*
X101179100Y-54151300D01*
X101144800Y-54143400D01*
X101110300Y-54136000D01*
X101075700Y-54129300D01*
X101041000Y-54123200D01*
X101006100Y-54117700D01*
X100971200Y-54112800D01*
X100936200Y-54108500D01*
X100901100Y-54104800D01*
X100866000Y-54101800D01*
X100830800Y-54099300D01*
X100795600Y-54097500D01*
X100760300Y-54096400D01*
X100725100Y-54095800D01*
X100689800Y-54095900D01*
X100654600Y-54096500D01*
X100619300Y-54097800D01*
X100584100Y-54099800D01*
X100548900Y-54102300D01*
X100513800Y-54105500D01*
X100478800Y-54109300D01*
X100443800Y-54113700D01*
X100408900Y-54118700D01*
X100374100Y-54124300D01*
X100339300Y-54130600D01*
X100304800Y-54137400D01*
X100270300Y-54144900D01*
X100236000Y-54153000D01*
X100201800Y-54161600D01*
X100167800Y-54170900D01*
X100133900Y-54180800D01*
X100100200Y-54191200D01*
X100066800Y-54202300D01*
X100033500Y-54214000D01*
X100000400Y-54226200D01*
X99967500Y-54239000D01*
X99934900Y-54252400D01*
X99902500Y-54266400D01*
X99870400Y-54280900D01*
X99838500Y-54296000D01*
X99806900Y-54311700D01*
X99775600Y-54327900D01*
X99744600Y-54344700D01*
X99713900Y-54362000D01*
X99683500Y-54379800D01*
X99653400Y-54398200D01*
X99623600Y-54417100D01*
X99594200Y-54436500D01*
X99565100Y-54456500D01*
X99536400Y-54476900D01*
X99508000Y-54497900D01*
X99480000Y-54519300D01*
X99452400Y-54541300D01*
X99425200Y-54563700D01*
X99398400Y-54586600D01*
X99372000Y-54610000D01*
X97917790Y-54610000D01*
X98018000Y-54415000D01*
X98419000Y-53909000D01*
X98910000Y-53491000D01*
X99044000Y-53416200D01*
X99474000Y-53176000D01*
X100087000Y-52977000D01*
X100725100Y-52900500D01*
X100729000Y-52900000D01*
X100798000Y-52899000D01*
X111233000Y-52899000D01*
X111814000Y-52956000D01*
X112372000Y-53125000D01*
X112887000Y-53399000D01*
X113339000Y-53767000D01*
X113710000Y-54216000D01*
X113987000Y-54729000D01*
X114160000Y-55286000D01*
X114221000Y-55866000D01*
X114221000Y-75831000D01*
X114164000Y-76411000D01*
X113995000Y-76969000D01*
X113722000Y-77484000D01*
X113353000Y-77936000D01*
X112904000Y-78307000D01*
X112391000Y-78585000D01*
X111835000Y-78757000D01*
X111254000Y-78818000D01*
X105574000Y-78818000D01*
X105187000Y-78780000D01*
X104816000Y-78668000D01*
X104473000Y-78486000D01*
X101925000Y-76405000D01*
X101925000Y-73896000D01*
X101912000Y-73738000D01*
X101912000Y-73736000D01*
X101862000Y-73547000D01*
X101862000Y-73545000D01*
X101861000Y-73544000D01*
X101776000Y-73369000D01*
X101776000Y-73368000D01*
X101775000Y-73367000D01*
X101657000Y-73211000D01*
X101655000Y-73209000D01*
X101510000Y-73080000D01*
X101508000Y-73078000D01*
X101507000Y-73078000D01*
X101339000Y-72979000D01*
X101338000Y-72979000D01*
X101337000Y-72978000D01*
X101153000Y-72914000D01*
X101151000Y-72913000D01*
X101150000Y-72913000D01*
X100957000Y-72885000D01*
X100149000Y-72885000D01*
X99991000Y-72905000D01*
X99989000Y-72905000D01*
X99803000Y-72963000D01*
X99802000Y-72964000D01*
X99800000Y-72964000D01*
X99629000Y-73057000D01*
X99628000Y-73058000D01*
X99627000Y-73058000D01*
X99476000Y-73183000D01*
X99474000Y-73185000D01*
X99351000Y-73336000D01*
X99350000Y-73337000D01*
X99350000Y-73338000D01*
X99258000Y-73510000D01*
X99258000Y-73511000D01*
X99257000Y-73513000D01*
X99201000Y-73700000D01*
X99200000Y-73701000D01*
X99200000Y-73702000D01*
X99181000Y-73896000D01*
X99181000Y-74164000D01*
X99068000Y-74072000D01*
X99181000Y-74209000D01*
X99181000Y-76244000D01*
X96477000Y-78478000D01*
X96136000Y-78663000D01*
X95766000Y-78777000D01*
X95322000Y-78824000D01*
X63319000Y-78824000D01*
X62871000Y-78780000D01*
X62500000Y-78668000D01*
X62157000Y-78486000D01*
X59609000Y-76405000D01*
X59609000Y-73667000D01*
X59596000Y-73509000D01*
X59596000Y-73507000D01*
X59546000Y-73318000D01*
X59546000Y-73316000D01*
X59545000Y-73315000D01*
X59460000Y-73140000D01*
X59460000Y-73139000D01*
X59459000Y-73138000D01*
X59341000Y-72982000D01*
X59339000Y-72980000D01*
X59194000Y-72851000D01*
X59192000Y-72849000D01*
X59191000Y-72849000D01*
X59023000Y-72750000D01*
X59022000Y-72750000D01*
X59021000Y-72749000D01*
X58837000Y-72685000D01*
X58835000Y-72684000D01*
X58834000Y-72684000D01*
X58641000Y-72656000D01*
X57833000Y-72656000D01*
X57675000Y-72676000D01*
X57673000Y-72676000D01*
X57487000Y-72734000D01*
X57486000Y-72735000D01*
X57484000Y-72735000D01*
X57313000Y-72828000D01*
X57312000Y-72829000D01*
X57311000Y-72829000D01*
X57160000Y-72954000D01*
X57158000Y-72956000D01*
X57035000Y-73107000D01*
X57034000Y-73108000D01*
X57034000Y-73109000D01*
X56942000Y-73281000D01*
X56942000Y-73282000D01*
X56941000Y-73284000D01*
X56885000Y-73471000D01*
X56884000Y-73472000D01*
X56884000Y-73473000D01*
X56865000Y-73667000D01*
X56865000Y-74164000D01*
X56752000Y-74072000D01*
X56865000Y-74209000D01*
X56865000Y-76244000D01*
X54161000Y-78478000D01*
X53820000Y-78663000D01*
X53450000Y-78777000D01*
X53063000Y-78818000D01*
X47235000Y-78818000D01*
X46654000Y-78761000D01*
X46096000Y-78593000D01*
X45581000Y-78319000D01*
X45129000Y-77951000D01*
X44758000Y-77501000D01*
X44481000Y-76989000D01*
X44308000Y-76432000D01*
X44247000Y-75851000D01*
X44247000Y-55887000D01*
X44304000Y-55306000D01*
X44473000Y-54748000D01*
X44613480Y-54483000D01*
X57094000Y-54483000D01*
X58287000Y-55676000D01*
X59270000Y-54562000D01*
X59240800Y-54541900D01*
X59211300Y-54522300D01*
X59181400Y-54503300D01*
X59151200Y-54484800D01*
X59120700Y-54466800D01*
X59089900Y-54449400D01*
X59058700Y-54432500D01*
X59027300Y-54416200D01*
X58995600Y-54400400D01*
X58963600Y-54385200D01*
X58931300Y-54370500D01*
X58898800Y-54356500D01*
X58866100Y-54343000D01*
X58833100Y-54330100D01*
X58799900Y-54317800D01*
X58766400Y-54306100D01*
X58732800Y-54294900D01*
X58699000Y-54284400D01*
X58665000Y-54274500D01*
X58630800Y-54265100D01*
X58596500Y-54256400D01*
X58562000Y-54248300D01*
X58527400Y-54240800D01*
X58492600Y-54233900D01*
X58457800Y-54227600D01*
X58422800Y-54222000D01*
X58387700Y-54216900D01*
X58352600Y-54212500D01*
X58317400Y-54208700D01*
X58282100Y-54205600D01*
X58246800Y-54203000D01*
X58211400Y-54201100D01*
X58176000Y-54199800D01*
X58140600Y-54199200D01*
X58105200Y-54199200D01*
X58069700Y-54199700D01*
X58034300Y-54201000D01*
X57999000Y-54202800D01*
X57963600Y-54205300D01*
X57928300Y-54208400D01*
X57893100Y-54212100D01*
X57858000Y-54216500D01*
X57822900Y-54221500D01*
X57787900Y-54227000D01*
X57753000Y-54233300D01*
X57718300Y-54240100D01*
X57683600Y-54247500D01*
X57649100Y-54255600D01*
X57614800Y-54264200D01*
X57580600Y-54273500D01*
X57546600Y-54283400D01*
X57512800Y-54293900D01*
X57479100Y-54304900D01*
X57445700Y-54316600D01*
X57412400Y-54328900D01*
X57379400Y-54341700D01*
X57346600Y-54355100D01*
X57314100Y-54369100D01*
X57281800Y-54383700D01*
X57249800Y-54398900D01*
X57218100Y-54414600D01*
X57186600Y-54430900D01*
X57155400Y-54447700D01*
X57124600Y-54465100D01*
X57094000Y-54483000D01*
X44613480Y-54483000D01*
X44746000Y-54233000D01*
X45115000Y-53782000D01*
X45564000Y-53410000D01*
X46077000Y-53133000D01*
X46633000Y-52960000D01*
X47214000Y-52899000D01*
X58192000Y-52899000D01*
X58834000Y-52972000D01*
X59449000Y-53168000D01*
X59640000Y-53273100D01*
X60014000Y-53479000D01*
X60508000Y-53895000D01*
X60912000Y-54398000D01*
X61211000Y-54970000D01*
X61392000Y-55590000D01*
X61450000Y-56233000D01*
X61382000Y-56874000D01*
X61191000Y-57491000D01*
X60883000Y-58058000D01*
X60471000Y-58555000D01*
X59971000Y-58962000D01*
X59400000Y-59265000D01*
X58782000Y-59451000D01*
X58140000Y-59513000D01*
X57498000Y-59450000D01*
X56880000Y-59262000D01*
X56310000Y-58959000D01*
X55811000Y-58550000D01*
X55400000Y-58053000D01*
X55093000Y-57485000D01*
X54903000Y-56868000D01*
X54836000Y-56225000D01*
X54836000Y-56216000D01*
X56120900Y-56216000D01*
X56121500Y-56251000D01*
X56122700Y-56286000D01*
X56124600Y-56320900D01*
X56127000Y-56355800D01*
X56130100Y-56390700D01*
X56133700Y-56425500D01*
X56138000Y-56460200D01*
X56142900Y-56494800D01*
X56148400Y-56529400D01*
X56154500Y-56563900D01*
X56161200Y-56598200D01*
X56168500Y-56632400D01*
X56176400Y-56666500D01*
X56184800Y-56700500D01*
X56193900Y-56734300D01*
X56203600Y-56767900D01*
X56213800Y-56801300D01*
X56224700Y-56834600D01*
X56236100Y-56867700D01*
X56248100Y-56900600D01*
X56260700Y-56933200D01*
X56273800Y-56965600D01*
X56287500Y-56997800D01*
X56301800Y-57029800D01*
X56316600Y-57061500D01*
X56332000Y-57092900D01*
X56347900Y-57124100D01*
X56364300Y-57155000D01*
X56381300Y-57185500D01*
X56398900Y-57215800D01*
X56416900Y-57245800D01*
X56435500Y-57275400D01*
X56454600Y-57304800D01*
X56474200Y-57333700D01*
X56494300Y-57362400D01*
X56515000Y-57390700D01*
X56536100Y-57418600D01*
X56557600Y-57446100D01*
X56579700Y-57473300D01*
X56602300Y-57500000D01*
X56625300Y-57526400D01*
X56648700Y-57552400D01*
X56672600Y-57577900D01*
X56697000Y-57603000D01*
X56721800Y-57627700D01*
X56747000Y-57652000D01*
X56772600Y-57675800D01*
X56798700Y-57699200D01*
X56825100Y-57722100D01*
X56852000Y-57744500D01*
X56879200Y-57766500D01*
X56906800Y-57787900D01*
X56934800Y-57808900D01*
X56963200Y-57829400D01*
X56991900Y-57849400D01*
X57021000Y-57868900D01*
X57050400Y-57887900D01*
X57080100Y-57906400D01*
X57110100Y-57924300D01*
X57140500Y-57941800D01*
X57171100Y-57958600D01*
X57202000Y-57975000D01*
X57233300Y-57990800D01*
X57264800Y-58006000D01*
X57296500Y-58020700D01*
X57328500Y-58034900D01*
X57360800Y-58048500D01*
X57393200Y-58061500D01*
X57426000Y-58073900D01*
X57458900Y-58085800D01*
X57492000Y-58097100D01*
X57525300Y-58107800D01*
X57558800Y-58117900D01*
X57592500Y-58127500D01*
X57626300Y-58136400D01*
X57660300Y-58144800D01*
X57694400Y-58152500D01*
X57728600Y-58159700D01*
X57763000Y-58166200D01*
X57797500Y-58172200D01*
X57832100Y-58177500D01*
X57866700Y-58182300D01*
X57901500Y-58186400D01*
X57936300Y-58190000D01*
X57971200Y-58192900D01*
X58006100Y-58195200D01*
X58041000Y-58196900D01*
X58076000Y-58198000D01*
X58076000Y-58147000D01*
X58574000Y-58147000D01*
X58608100Y-58138800D01*
X58642000Y-58129900D01*
X58675800Y-58120500D01*
X58709400Y-58110500D01*
X58742800Y-58099900D01*
X58776000Y-58088700D01*
X58809100Y-58076900D01*
X58841900Y-58064600D01*
X58874500Y-58051600D01*
X58906800Y-58038200D01*
X58939000Y-58024100D01*
X58970800Y-58009500D01*
X59002500Y-57994300D01*
X59033800Y-57978600D01*
X59064900Y-57962300D01*
X59095600Y-57945500D01*
X59126100Y-57928200D01*
X59156300Y-57910300D01*
X59186100Y-57891900D01*
X59215600Y-57872900D01*
X59244800Y-57853500D01*
X59273600Y-57833500D01*
X59302100Y-57813100D01*
X59330200Y-57792100D01*
X59358000Y-57770700D01*
X59385300Y-57748800D01*
X59412300Y-57726400D01*
X59438900Y-57703500D01*
X59465100Y-57680200D01*
X59490800Y-57656400D01*
X59516200Y-57632200D01*
X59541100Y-57607500D01*
X59565600Y-57582400D01*
X59589600Y-57556900D01*
X59613200Y-57530900D01*
X59636300Y-57504500D01*
X59659000Y-57477800D01*
X59681100Y-57450600D01*
X59702900Y-57423100D01*
X59724100Y-57395200D01*
X59744800Y-57366900D01*
X59765000Y-57338300D01*
X59784800Y-57309300D01*
X59804000Y-57279900D01*
X59822700Y-57250300D01*
X59840800Y-57220300D01*
X59858500Y-57190000D01*
X59875600Y-57159400D01*
X59892200Y-57128500D01*
X59908200Y-57097300D01*
X59923700Y-57065800D01*
X59938600Y-57034100D01*
X59953000Y-57002100D01*
X59966800Y-56969900D01*
X59980000Y-56937400D01*
X59992700Y-56904700D01*
X60004700Y-56871800D01*
X60016300Y-56838700D01*
X60027200Y-56805400D01*
X60037500Y-56771900D01*
X60047300Y-56738200D01*
X60056400Y-56704300D01*
X60065000Y-56670300D01*
X60073000Y-56636200D01*
X60080300Y-56601900D01*
X60087100Y-56567500D01*
X60093300Y-56533000D01*
X60098800Y-56498400D01*
X60103800Y-56463700D01*
X60108100Y-56428900D01*
X60111900Y-56394000D01*
X60115000Y-56359100D01*
X60117500Y-56324100D01*
X60119400Y-56289100D01*
X60120700Y-56254000D01*
X60121300Y-56219000D01*
X60121400Y-56183900D01*
X60120800Y-56148900D01*
X60119600Y-56113800D01*
X60117800Y-56078800D01*
X60115400Y-56043800D01*
X60112400Y-56008900D01*
X60108800Y-55974000D01*
X60104500Y-55939200D01*
X60099700Y-55904500D01*
X60094200Y-55869800D01*
X60088200Y-55835300D01*
X60081500Y-55800900D01*
X60074200Y-55766600D01*
X60066300Y-55732400D01*
X60057900Y-55698400D01*
X60048800Y-55664500D01*
X60039100Y-55630800D01*
X60028900Y-55597300D01*
X60018100Y-55563900D01*
X60006600Y-55530800D01*
X59994600Y-55497800D01*
X59982100Y-55465100D01*
X59968900Y-55432600D01*
X59955200Y-55400300D01*
X59940900Y-55368300D01*
X59926100Y-55336500D01*
X59910700Y-55305000D01*
X59894800Y-55273800D01*
X59878300Y-55242800D01*
X59861300Y-55212200D01*
X59843700Y-55181800D01*
X59825600Y-55151800D01*
X59807000Y-55122100D01*
X59787900Y-55092700D01*
X59768300Y-55063600D01*
X59748100Y-55035000D01*
X59727500Y-55006600D01*
X59706300Y-54978600D01*
X59684700Y-54951000D01*
X59662600Y-54923800D01*
X59640000Y-54897000D01*
X58574000Y-56106000D01*
X58574000Y-58147000D01*
X58076000Y-58147000D01*
X58076000Y-56173000D01*
X56697000Y-54794000D01*
X56672600Y-54819100D01*
X56648700Y-54844700D01*
X56625300Y-54870600D01*
X56602300Y-54897000D01*
X56579700Y-54923800D01*
X56557700Y-54950900D01*
X56536100Y-54978500D01*
X56515000Y-55006400D01*
X56494400Y-55034600D01*
X56474300Y-55063300D01*
X56454600Y-55092300D01*
X56435500Y-55121600D01*
X56417000Y-55151200D01*
X56398900Y-55181200D01*
X56381400Y-55211500D01*
X56364400Y-55242100D01*
X56347900Y-55272900D01*
X56332000Y-55304100D01*
X56316600Y-55335500D01*
X56301800Y-55367200D01*
X56287500Y-55399200D01*
X56273800Y-55431400D01*
X56260700Y-55463800D01*
X56248100Y-55496500D01*
X56236100Y-55529300D01*
X56224700Y-55562400D01*
X56213800Y-55595700D01*
X56203600Y-55629100D01*
X56193900Y-55662800D01*
X56184800Y-55696600D01*
X56176400Y-55730500D01*
X56168500Y-55764600D01*
X56161200Y-55798800D01*
X56154500Y-55833200D01*
X56148400Y-55867600D01*
X56142900Y-55902200D01*
X56138000Y-55936800D01*
X56133700Y-55971600D01*
X56130100Y-56006400D01*
X56127000Y-56041200D01*
X56124600Y-56076100D01*
X56122700Y-56111100D01*
X56121500Y-56146000D01*
X56120900Y-56181000D01*
X56120900Y-56216000D01*
X54836000Y-56216000D01*
X54836000Y-56204000D01*
X54835000Y-56201000D01*
G37*
D10*
X79097000Y-67694000D03*
X79446000Y-67694000D03*
D11*
X74305000Y-59995000D03*
X73035000Y-59995000D03*
X71765000Y-59995000D03*
X70495000Y-59995000D03*
X70495000Y-64945000D03*
X71765000Y-64945000D03*
X73035000Y-64945000D03*
X74305000Y-64945000D03*
D12*
X77030000Y-66227500D03*
X77530000Y-66227500D03*
X78030000Y-66227500D03*
D13*
X78530000Y-66227500D03*
X79030000Y-66227500D03*
D12*
X79530000Y-66227500D03*
D14*
X80217500Y-65540000D03*
X80217500Y-65040000D03*
X80217500Y-64540000D03*
X80217500Y-64040000D03*
X80217500Y-63540000D03*
X80217500Y-63040000D03*
D12*
X79530000Y-62352500D03*
X79030000Y-62352500D03*
X78530000Y-62352500D03*
X78030000Y-62352500D03*
X77530000Y-62352500D03*
X77030000Y-62352500D03*
D14*
X76342500Y-63040000D03*
X76342500Y-63540000D03*
X76342500Y-64040000D03*
X76342500Y-64540000D03*
X76342500Y-65040000D03*
X76342500Y-65540000D03*
D15*
X78280000Y-64290000D03*
D16*
X74710000Y-64540000D02*
X74305000Y-64945000D01*
X76342500Y-64540000D02*
X74710000Y-64540000D01*
X76342500Y-63540000D02*
X77530000Y-63540000D01*
X77530000Y-61643959D02*
X74631041Y-58745000D01*
X79530000Y-65540000D02*
X78280000Y-64290000D01*
X80217500Y-65540000D02*
X79530000Y-65540000D01*
X74631041Y-58745000D02*
X71438959Y-58745000D01*
X70495000Y-59688959D02*
X70495000Y-59995000D01*
X77530000Y-63540000D02*
X78280000Y-64290000D01*
X77530000Y-62352500D02*
X77530000Y-63540000D01*
X77530000Y-62352500D02*
X77530000Y-61643959D01*
X71438959Y-58745000D02*
X70495000Y-59688959D01*
X76342500Y-64040000D02*
X75680000Y-64040000D01*
X74305000Y-62665000D02*
X74305000Y-59995000D01*
X75680000Y-64040000D02*
X74305000Y-62665000D01*
X79030000Y-67546000D02*
X79086000Y-67602000D01*
X79030000Y-66427500D02*
X79030000Y-67546000D01*
X79530000Y-67508000D02*
X79436000Y-67602000D01*
X79530000Y-66427500D02*
X79530000Y-67508000D01*
X76342500Y-65040000D02*
X75952703Y-65040000D01*
X70495000Y-65251041D02*
X70495000Y-64945000D01*
X74797703Y-66195000D02*
X71438959Y-66195000D01*
X71438959Y-66195000D02*
X70495000Y-65251041D01*
X75952703Y-65040000D02*
X74797703Y-66195000D01*
M02*
