G04 #@! TF.GenerationSoftware,KiCad,Pcbnew,6.0.9-8da3e8f707~117~ubuntu20.04.1*
G04 #@! TF.CreationDate,2022-12-15T16:29:10+01:00*
G04 #@! TF.ProjectId,picsyle-R_magnetic_915,70696373-796c-4652-9d52-5f6d61676e65,rev?*
G04 #@! TF.SameCoordinates,Original*
G04 #@! TF.FileFunction,Soldermask,Top*
G04 #@! TF.FilePolarity,Negative*
%FSLAX46Y46*%
G04 Gerber Fmt 4.6, Leading zero omitted, Abs format (unit mm)*
G04 Created by KiCad (PCBNEW 6.0.9-8da3e8f707~117~ubuntu20.04.1) date 2022-12-15 16:29:10*
%MOMM*%
%LPD*%
G01*
G04 APERTURE LIST*
G04 Aperture macros list*
%AMRoundRect*
0 Rectangle with rounded corners*
0 $1 Rounding radius*
0 $2 $3 $4 $5 $6 $7 $8 $9 X,Y pos of 4 corners*
0 Add a 4 corners polygon primitive as box body*
4,1,4,$2,$3,$4,$5,$6,$7,$8,$9,$2,$3,0*
0 Add four circle primitives for the rounded corners*
1,1,$1+$1,$2,$3*
1,1,$1+$1,$4,$5*
1,1,$1+$1,$6,$7*
1,1,$1+$1,$8,$9*
0 Add four rect primitives between the rounded corners*
20,1,$1+$1,$2,$3,$4,$5,0*
20,1,$1+$1,$4,$5,$6,$7,0*
20,1,$1+$1,$6,$7,$8,$9,0*
20,1,$1+$1,$8,$9,$2,$3,0*%
G04 Aperture macros list end*
%ADD10RoundRect,0.201000X-0.150000X0.825000X-0.150000X-0.825000X0.150000X-0.825000X0.150000X0.825000X0*%
%ADD11RoundRect,0.113500X0.062500X-0.350000X0.062500X0.350000X-0.062500X0.350000X-0.062500X-0.350000X0*%
%ADD12RoundRect,0.051000X0.125000X-0.412500X0.125000X0.412500X-0.125000X0.412500X-0.125000X-0.412500X0*%
%ADD13RoundRect,0.113500X0.350000X-0.062500X0.350000X0.062500X-0.350000X0.062500X-0.350000X-0.062500X0*%
%ADD14RoundRect,0.291000X1.010000X-1.010000X1.010000X1.010000X-1.010000X1.010000X-1.010000X-1.010000X0*%
G04 APERTURE END LIST*
D10*
X74305000Y-59995000D03*
X73035000Y-59995000D03*
X71765000Y-59995000D03*
X70495000Y-59995000D03*
X70495000Y-64945000D03*
X71765000Y-64945000D03*
X73035000Y-64945000D03*
X74305000Y-64945000D03*
D11*
X77030000Y-66227500D03*
X77530000Y-66227500D03*
X78030000Y-66227500D03*
D12*
X78530000Y-66227500D03*
X79030000Y-66227500D03*
D11*
X79530000Y-66227500D03*
D13*
X80217500Y-65540000D03*
X80217500Y-65040000D03*
X80217500Y-64540000D03*
X80217500Y-64040000D03*
X80217500Y-63540000D03*
X80217500Y-63040000D03*
D11*
X79530000Y-62352500D03*
X79030000Y-62352500D03*
X78530000Y-62352500D03*
X78030000Y-62352500D03*
X77530000Y-62352500D03*
X77030000Y-62352500D03*
D13*
X76342500Y-63040000D03*
X76342500Y-63540000D03*
X76342500Y-64040000D03*
X76342500Y-64540000D03*
X76342500Y-65040000D03*
X76342500Y-65540000D03*
D14*
X78280000Y-64290000D03*
G36*
X79455366Y-65538486D02*
G01*
X79456178Y-65540314D01*
X79455603Y-65541517D01*
X79448958Y-65548162D01*
X79450014Y-65549218D01*
X79450532Y-65551150D01*
X79449973Y-65552086D01*
X79423546Y-65577051D01*
X79406905Y-65644279D01*
X79429253Y-65709833D01*
X79483573Y-65752960D01*
X79530087Y-65762037D01*
X79531596Y-65763350D01*
X79531212Y-65765313D01*
X79529704Y-65766000D01*
X79467699Y-65766000D01*
X79424844Y-65774525D01*
X79388685Y-65798685D01*
X79364525Y-65834844D01*
X79356000Y-65877699D01*
X79356000Y-66577301D01*
X79364525Y-66620156D01*
X79385418Y-66651425D01*
X79385549Y-66653421D01*
X79383886Y-66654532D01*
X79382644Y-66654199D01*
X79368854Y-66644985D01*
X79368552Y-66645437D01*
X79366758Y-66646322D01*
X79365607Y-66645861D01*
X79344322Y-66628074D01*
X79275605Y-66619444D01*
X79212976Y-66649410D01*
X79203793Y-66660009D01*
X79201903Y-66660663D01*
X79200391Y-66659353D01*
X79200319Y-66658309D01*
X79204000Y-66639801D01*
X79204000Y-65815199D01*
X79200233Y-65796262D01*
X79189620Y-65780380D01*
X79173738Y-65769767D01*
X79154801Y-65766000D01*
X78905199Y-65766000D01*
X78886262Y-65769767D01*
X78870380Y-65780380D01*
X78859767Y-65796262D01*
X78856000Y-65815199D01*
X78856000Y-66639801D01*
X78859767Y-66658738D01*
X78867114Y-66669733D01*
X78867245Y-66671729D01*
X78865582Y-66672840D01*
X78864340Y-66672507D01*
X78850548Y-66663291D01*
X78849385Y-66665031D01*
X78847591Y-66665916D01*
X78846440Y-66665455D01*
X78829048Y-66650922D01*
X78760330Y-66642296D01*
X78712712Y-66665082D01*
X78710718Y-66664928D01*
X78710186Y-66664389D01*
X78709452Y-66663291D01*
X78695660Y-66672507D01*
X78693664Y-66672638D01*
X78692553Y-66670975D01*
X78692886Y-66669733D01*
X78700233Y-66658738D01*
X78704000Y-66639801D01*
X78704000Y-65815199D01*
X78700233Y-65796262D01*
X78689620Y-65780380D01*
X78673738Y-65769767D01*
X78654801Y-65766000D01*
X78405199Y-65766000D01*
X78386262Y-65769767D01*
X78370380Y-65780380D01*
X78359767Y-65796262D01*
X78356000Y-65815199D01*
X78356000Y-66639801D01*
X78359767Y-66658737D01*
X78363786Y-66664752D01*
X78363917Y-66666747D01*
X78362254Y-66667859D01*
X78360840Y-66667398D01*
X78313784Y-66628074D01*
X78245068Y-66619444D01*
X78192840Y-66644432D01*
X78192064Y-66644372D01*
X78189906Y-66645814D01*
X78189658Y-66645955D01*
X78182439Y-66649408D01*
X78179745Y-66652518D01*
X78179344Y-66652871D01*
X78177356Y-66654199D01*
X78175360Y-66654330D01*
X78174249Y-66652667D01*
X78174582Y-66651425D01*
X78195475Y-66620156D01*
X78204000Y-66577301D01*
X78204000Y-65877699D01*
X78195475Y-65834844D01*
X78171315Y-65798685D01*
X78135156Y-65774525D01*
X78092301Y-65766000D01*
X77967699Y-65766000D01*
X77924844Y-65774525D01*
X77893573Y-65795419D01*
X77891577Y-65795550D01*
X77890466Y-65793887D01*
X77890799Y-65792645D01*
X77896192Y-65784573D01*
X77916978Y-65718191D01*
X77898654Y-65651401D01*
X77847080Y-65605076D01*
X77793640Y-65592950D01*
X77792173Y-65591592D01*
X77792615Y-65589642D01*
X77794083Y-65589000D01*
X79289886Y-65589000D01*
X79356902Y-65581128D01*
X79453377Y-65538275D01*
X79455366Y-65538486D01*
G37*
G36*
X77183894Y-65810456D02*
G01*
X77230944Y-65849776D01*
X77299660Y-65858409D01*
X77362289Y-65828446D01*
X77369798Y-65819779D01*
X77371688Y-65819125D01*
X77373200Y-65820435D01*
X77372973Y-65822200D01*
X77364525Y-65834844D01*
X77356000Y-65877699D01*
X77356000Y-66577301D01*
X77364525Y-66620156D01*
X77379052Y-66641898D01*
X77379183Y-66643894D01*
X77377520Y-66645005D01*
X77376106Y-66644544D01*
X77329055Y-66605223D01*
X77260339Y-66596592D01*
X77197709Y-66626556D01*
X77190202Y-66635219D01*
X77188312Y-66635873D01*
X77186801Y-66634563D01*
X77187028Y-66632798D01*
X77195475Y-66620156D01*
X77204000Y-66577301D01*
X77204000Y-65877699D01*
X77195475Y-65834844D01*
X77180948Y-65813102D01*
X77180817Y-65811106D01*
X77182480Y-65809995D01*
X77183894Y-65810456D01*
G37*
G36*
X77683893Y-65810454D02*
G01*
X77730945Y-65849776D01*
X77799660Y-65858409D01*
X77862290Y-65828444D01*
X77869801Y-65819776D01*
X77871691Y-65819122D01*
X77873202Y-65820432D01*
X77872975Y-65822197D01*
X77864525Y-65834844D01*
X77856000Y-65877699D01*
X77856000Y-66577301D01*
X77864525Y-66620156D01*
X77879052Y-66641898D01*
X77879183Y-66643894D01*
X77877520Y-66645005D01*
X77876106Y-66644544D01*
X77829055Y-66605223D01*
X77760339Y-66596592D01*
X77697709Y-66626556D01*
X77690202Y-66635219D01*
X77688312Y-66635873D01*
X77686801Y-66634563D01*
X77687028Y-66632798D01*
X77695475Y-66620156D01*
X77704000Y-66577301D01*
X77704000Y-65877699D01*
X77695475Y-65834844D01*
X77680947Y-65813100D01*
X77680816Y-65811104D01*
X77682479Y-65809993D01*
X77683893Y-65810454D01*
G37*
G36*
X77767649Y-65590000D02*
G01*
X77767649Y-65592000D01*
X77766480Y-65592919D01*
X77699465Y-65612596D01*
X77654110Y-65664939D01*
X77644244Y-65733558D01*
X77663773Y-65784521D01*
X77669201Y-65792645D01*
X77669332Y-65794641D01*
X77667669Y-65795752D01*
X77666427Y-65795419D01*
X77635156Y-65774525D01*
X77592301Y-65766000D01*
X77467699Y-65766000D01*
X77424844Y-65774525D01*
X77393573Y-65795419D01*
X77391577Y-65795550D01*
X77390466Y-65793887D01*
X77390799Y-65792645D01*
X77396192Y-65784573D01*
X77416978Y-65718191D01*
X77398654Y-65651401D01*
X77347080Y-65605076D01*
X77293640Y-65592950D01*
X77292173Y-65591592D01*
X77292615Y-65589642D01*
X77294083Y-65589000D01*
X77765917Y-65589000D01*
X77767649Y-65590000D01*
G37*
G36*
X77106800Y-65538454D02*
G01*
X77203586Y-65581243D01*
X77270232Y-65589013D01*
X77271836Y-65590207D01*
X77272000Y-65591000D01*
X77272000Y-65593752D01*
X77271000Y-65595484D01*
X77270256Y-65595735D01*
X77215972Y-65602753D01*
X77162989Y-65647357D01*
X77142538Y-65713509D01*
X77163332Y-65783863D01*
X77169199Y-65792643D01*
X77169330Y-65794639D01*
X77167667Y-65795750D01*
X77166425Y-65795417D01*
X77135156Y-65774525D01*
X77092301Y-65766000D01*
X77030295Y-65766000D01*
X77028563Y-65765000D01*
X77028563Y-65763000D01*
X77029732Y-65762081D01*
X77096746Y-65742403D01*
X77142101Y-65690060D01*
X77151956Y-65621506D01*
X77123143Y-65558417D01*
X77112380Y-65549995D01*
X77112046Y-65549166D01*
X77104577Y-65541697D01*
X77104059Y-65539765D01*
X77105473Y-65538351D01*
X77106800Y-65538454D01*
G37*
G36*
X76980732Y-65298999D02*
G01*
X76980939Y-65299772D01*
X76980986Y-65299767D01*
X76988872Y-65366902D01*
X77031725Y-65463377D01*
X77031514Y-65465366D01*
X77029686Y-65466178D01*
X77028483Y-65465603D01*
X77021838Y-65458958D01*
X77020782Y-65460014D01*
X77018850Y-65460532D01*
X77017914Y-65459973D01*
X76992949Y-65433546D01*
X76925721Y-65416905D01*
X76860167Y-65439253D01*
X76817040Y-65493573D01*
X76807963Y-65540087D01*
X76806650Y-65541596D01*
X76804687Y-65541212D01*
X76804000Y-65539704D01*
X76804000Y-65477699D01*
X76795475Y-65434844D01*
X76774582Y-65403575D01*
X76774451Y-65401579D01*
X76776114Y-65400468D01*
X76777356Y-65400801D01*
X76786150Y-65406676D01*
X76852532Y-65427462D01*
X76919322Y-65409138D01*
X76965591Y-65357629D01*
X76974027Y-65299711D01*
X76975266Y-65298141D01*
X76976006Y-65297999D01*
X76979000Y-65297999D01*
X76980732Y-65298999D01*
G37*
G36*
X79585484Y-65299000D02*
G01*
X79585735Y-65299744D01*
X79592753Y-65354028D01*
X79637357Y-65407011D01*
X79703509Y-65427462D01*
X79773863Y-65406668D01*
X79782643Y-65400801D01*
X79784639Y-65400670D01*
X79785750Y-65402333D01*
X79785417Y-65403575D01*
X79764525Y-65434844D01*
X79756000Y-65477699D01*
X79756000Y-65539705D01*
X79755000Y-65541437D01*
X79753000Y-65541437D01*
X79752081Y-65540268D01*
X79732403Y-65473254D01*
X79680060Y-65427899D01*
X79611506Y-65418044D01*
X79548417Y-65446857D01*
X79539995Y-65457620D01*
X79539166Y-65457954D01*
X79531697Y-65465423D01*
X79529765Y-65465941D01*
X79528351Y-65464527D01*
X79528454Y-65463200D01*
X79571243Y-65366414D01*
X79579013Y-65299768D01*
X79580207Y-65298164D01*
X79581000Y-65298000D01*
X79583752Y-65298000D01*
X79585484Y-65299000D01*
G37*
G36*
X76760005Y-65192480D02*
G01*
X76759544Y-65193894D01*
X76720223Y-65240946D01*
X76711592Y-65309661D01*
X76741556Y-65372290D01*
X76750222Y-65379798D01*
X76750876Y-65381688D01*
X76749566Y-65383200D01*
X76747801Y-65382973D01*
X76735156Y-65374525D01*
X76692301Y-65366000D01*
X75992699Y-65366000D01*
X75949844Y-65374525D01*
X75928102Y-65389052D01*
X75926106Y-65389183D01*
X75924995Y-65387520D01*
X75925456Y-65386106D01*
X75964777Y-65339055D01*
X75973408Y-65270339D01*
X75943444Y-65207709D01*
X75934781Y-65200202D01*
X75934127Y-65198312D01*
X75935437Y-65196801D01*
X75937202Y-65197028D01*
X75949844Y-65205475D01*
X75992699Y-65214000D01*
X76692301Y-65214000D01*
X76735156Y-65205475D01*
X76756898Y-65190948D01*
X76758894Y-65190817D01*
X76760005Y-65192480D01*
G37*
G36*
X80635005Y-65192480D02*
G01*
X80634544Y-65193894D01*
X80595223Y-65240945D01*
X80586592Y-65309661D01*
X80616556Y-65372291D01*
X80625219Y-65379798D01*
X80625873Y-65381688D01*
X80624563Y-65383199D01*
X80622798Y-65382972D01*
X80610156Y-65374525D01*
X80567301Y-65366000D01*
X79867699Y-65366000D01*
X79824844Y-65374525D01*
X79803102Y-65389052D01*
X79801106Y-65389183D01*
X79799995Y-65387520D01*
X79800456Y-65386106D01*
X79839776Y-65339056D01*
X79848409Y-65270340D01*
X79818446Y-65207711D01*
X79809779Y-65200202D01*
X79809125Y-65198312D01*
X79810435Y-65196800D01*
X79812200Y-65197027D01*
X79824844Y-65205475D01*
X79867699Y-65214000D01*
X80567301Y-65214000D01*
X80610156Y-65205475D01*
X80631898Y-65190948D01*
X80633894Y-65190817D01*
X80635005Y-65192480D01*
G37*
G36*
X79582919Y-64803521D02*
G01*
X79602596Y-64870535D01*
X79654939Y-64915890D01*
X79723558Y-64925756D01*
X79774521Y-64906227D01*
X79782645Y-64900799D01*
X79784641Y-64900668D01*
X79785752Y-64902331D01*
X79785419Y-64903573D01*
X79764525Y-64934844D01*
X79756000Y-64977699D01*
X79756000Y-65102301D01*
X79764525Y-65145156D01*
X79785419Y-65176427D01*
X79785550Y-65178423D01*
X79783887Y-65179534D01*
X79782645Y-65179201D01*
X79774573Y-65173808D01*
X79708191Y-65153022D01*
X79641401Y-65171346D01*
X79595076Y-65222920D01*
X79582950Y-65276359D01*
X79581592Y-65277826D01*
X79579642Y-65277384D01*
X79579000Y-65275916D01*
X79579000Y-64804084D01*
X79580000Y-64802352D01*
X79582000Y-64802352D01*
X79582919Y-64803521D01*
G37*
G36*
X76980358Y-64802620D02*
G01*
X76981000Y-64804088D01*
X76981000Y-65275913D01*
X76980000Y-65277645D01*
X76978000Y-65277645D01*
X76977081Y-65276476D01*
X76957405Y-65209464D01*
X76905062Y-65164109D01*
X76836443Y-65154243D01*
X76785479Y-65173772D01*
X76777356Y-65179199D01*
X76775360Y-65179330D01*
X76774249Y-65177667D01*
X76774582Y-65176425D01*
X76795475Y-65145156D01*
X76804000Y-65102301D01*
X76804000Y-64977699D01*
X76795475Y-64934844D01*
X76774582Y-64903575D01*
X76774451Y-64901579D01*
X76776114Y-64900468D01*
X76777356Y-64900801D01*
X76785427Y-64906193D01*
X76851808Y-64926979D01*
X76918598Y-64908656D01*
X76964925Y-64857082D01*
X76977050Y-64803645D01*
X76978408Y-64802178D01*
X76980358Y-64802620D01*
G37*
G36*
X80635005Y-64692480D02*
G01*
X80634544Y-64693894D01*
X80595223Y-64740945D01*
X80586592Y-64809661D01*
X80616556Y-64872291D01*
X80625219Y-64879798D01*
X80625873Y-64881688D01*
X80624563Y-64883199D01*
X80622798Y-64882972D01*
X80610156Y-64874525D01*
X80567301Y-64866000D01*
X79867699Y-64866000D01*
X79824844Y-64874525D01*
X79803100Y-64889053D01*
X79801104Y-64889184D01*
X79799993Y-64887521D01*
X79800454Y-64886107D01*
X79839776Y-64839055D01*
X79848409Y-64770340D01*
X79818444Y-64707710D01*
X79809776Y-64700199D01*
X79809122Y-64698309D01*
X79810432Y-64696798D01*
X79812197Y-64697025D01*
X79824844Y-64705475D01*
X79867699Y-64714000D01*
X80567301Y-64714000D01*
X80610156Y-64705475D01*
X80631898Y-64690948D01*
X80633894Y-64690817D01*
X80635005Y-64692480D01*
G37*
G36*
X76760005Y-64692480D02*
G01*
X76759544Y-64693894D01*
X76720223Y-64740946D01*
X76711592Y-64809661D01*
X76741556Y-64872290D01*
X76750222Y-64879798D01*
X76750876Y-64881688D01*
X76749566Y-64883200D01*
X76747801Y-64882973D01*
X76735156Y-64874525D01*
X76692301Y-64866000D01*
X75992699Y-64866000D01*
X75949844Y-64874525D01*
X75928102Y-64889052D01*
X75926106Y-64889183D01*
X75924995Y-64887520D01*
X75925456Y-64886106D01*
X75964777Y-64839055D01*
X75973408Y-64770339D01*
X75943444Y-64707709D01*
X75934781Y-64700202D01*
X75934127Y-64698312D01*
X75935437Y-64696801D01*
X75937202Y-64697028D01*
X75949844Y-64705475D01*
X75992699Y-64714000D01*
X76692301Y-64714000D01*
X76735156Y-64705475D01*
X76756898Y-64690948D01*
X76758894Y-64690817D01*
X76760005Y-64692480D01*
G37*
G36*
X79582919Y-64303523D02*
G01*
X79602599Y-64370538D01*
X79654943Y-64415892D01*
X79723563Y-64425755D01*
X79774521Y-64406227D01*
X79782645Y-64400799D01*
X79784641Y-64400668D01*
X79785752Y-64402331D01*
X79785419Y-64403573D01*
X79764525Y-64434844D01*
X79756000Y-64477699D01*
X79756000Y-64602301D01*
X79764525Y-64645156D01*
X79785419Y-64676427D01*
X79785550Y-64678423D01*
X79783887Y-64679534D01*
X79782645Y-64679201D01*
X79774573Y-64673808D01*
X79708191Y-64653022D01*
X79641401Y-64671346D01*
X79595076Y-64722920D01*
X79582950Y-64776359D01*
X79581592Y-64777826D01*
X79579642Y-64777384D01*
X79579000Y-64775916D01*
X79579000Y-64304087D01*
X79580000Y-64302355D01*
X79582000Y-64302355D01*
X79582919Y-64303523D01*
G37*
G36*
X76980358Y-64302616D02*
G01*
X76981000Y-64304084D01*
X76981000Y-64775913D01*
X76980000Y-64777645D01*
X76978000Y-64777645D01*
X76977081Y-64776476D01*
X76957405Y-64709464D01*
X76905062Y-64664109D01*
X76836443Y-64654243D01*
X76785479Y-64673772D01*
X76777356Y-64679199D01*
X76775360Y-64679330D01*
X76774249Y-64677667D01*
X76774582Y-64676425D01*
X76795475Y-64645156D01*
X76804000Y-64602301D01*
X76804000Y-64477699D01*
X76795475Y-64434844D01*
X76774582Y-64403575D01*
X76774451Y-64401579D01*
X76776114Y-64400468D01*
X76777356Y-64400801D01*
X76785427Y-64406193D01*
X76851808Y-64426979D01*
X76918598Y-64408656D01*
X76964925Y-64357082D01*
X76977050Y-64303641D01*
X76978408Y-64302174D01*
X76980358Y-64302616D01*
G37*
G36*
X80635005Y-64192480D02*
G01*
X80634544Y-64193894D01*
X80595223Y-64240945D01*
X80586592Y-64309661D01*
X80616556Y-64372291D01*
X80625219Y-64379798D01*
X80625873Y-64381688D01*
X80624563Y-64383199D01*
X80622798Y-64382972D01*
X80610156Y-64374525D01*
X80567301Y-64366000D01*
X79867699Y-64366000D01*
X79824844Y-64374525D01*
X79803100Y-64389053D01*
X79801104Y-64389184D01*
X79799993Y-64387521D01*
X79800454Y-64386107D01*
X79839776Y-64339055D01*
X79848409Y-64270340D01*
X79818444Y-64207710D01*
X79809778Y-64200200D01*
X79809124Y-64198310D01*
X79810434Y-64196799D01*
X79812199Y-64197026D01*
X79824844Y-64205475D01*
X79867699Y-64214000D01*
X80567301Y-64214000D01*
X80610156Y-64205475D01*
X80631898Y-64190948D01*
X80633894Y-64190817D01*
X80635005Y-64192480D01*
G37*
G36*
X76760007Y-64192479D02*
G01*
X76759546Y-64193893D01*
X76720224Y-64240945D01*
X76711591Y-64309660D01*
X76741556Y-64372290D01*
X76750222Y-64379800D01*
X76750876Y-64381690D01*
X76749566Y-64383201D01*
X76747801Y-64382974D01*
X76735156Y-64374525D01*
X76692301Y-64366000D01*
X75992699Y-64366000D01*
X75949844Y-64374525D01*
X75928102Y-64389052D01*
X75926106Y-64389183D01*
X75924995Y-64387520D01*
X75925456Y-64386106D01*
X75964777Y-64339055D01*
X75973408Y-64270339D01*
X75943444Y-64207709D01*
X75934781Y-64200202D01*
X75934127Y-64198312D01*
X75935437Y-64196801D01*
X75937202Y-64197028D01*
X75949844Y-64205475D01*
X75992699Y-64214000D01*
X76692301Y-64214000D01*
X76735156Y-64205475D01*
X76756900Y-64190947D01*
X76758896Y-64190816D01*
X76760007Y-64192479D01*
G37*
G36*
X79582919Y-63803524D02*
G01*
X79602595Y-63870536D01*
X79654938Y-63915891D01*
X79723557Y-63925757D01*
X79774521Y-63906228D01*
X79782644Y-63900801D01*
X79784640Y-63900670D01*
X79785751Y-63902333D01*
X79785418Y-63903575D01*
X79764525Y-63934844D01*
X79756000Y-63977699D01*
X79756000Y-64102301D01*
X79764525Y-64145156D01*
X79785418Y-64176425D01*
X79785549Y-64178421D01*
X79783886Y-64179532D01*
X79782644Y-64179199D01*
X79774573Y-64173807D01*
X79708192Y-64153021D01*
X79641402Y-64171344D01*
X79595075Y-64222918D01*
X79582950Y-64276359D01*
X79581592Y-64277826D01*
X79579642Y-64277384D01*
X79579000Y-64275916D01*
X79579000Y-63804087D01*
X79580000Y-63802355D01*
X79582000Y-63802355D01*
X79582919Y-63803524D01*
G37*
G36*
X76980358Y-63802616D02*
G01*
X76981000Y-63804084D01*
X76981000Y-64275913D01*
X76980000Y-64277645D01*
X76978000Y-64277645D01*
X76977081Y-64276477D01*
X76957401Y-64209462D01*
X76905057Y-64164108D01*
X76836437Y-64154245D01*
X76785479Y-64173773D01*
X76777355Y-64179201D01*
X76775359Y-64179332D01*
X76774248Y-64177669D01*
X76774581Y-64176427D01*
X76795475Y-64145156D01*
X76804000Y-64102301D01*
X76804000Y-63977699D01*
X76795475Y-63934844D01*
X76774581Y-63903573D01*
X76774450Y-63901577D01*
X76776113Y-63900466D01*
X76777355Y-63900799D01*
X76785427Y-63906192D01*
X76851809Y-63926978D01*
X76918599Y-63908654D01*
X76964924Y-63857080D01*
X76977050Y-63803641D01*
X76978408Y-63802174D01*
X76980358Y-63802616D01*
G37*
G36*
X80635005Y-63692480D02*
G01*
X80634544Y-63693894D01*
X80595223Y-63740945D01*
X80586592Y-63809661D01*
X80616556Y-63872291D01*
X80625219Y-63879798D01*
X80625873Y-63881688D01*
X80624563Y-63883199D01*
X80622798Y-63882972D01*
X80610156Y-63874525D01*
X80567301Y-63866000D01*
X79867699Y-63866000D01*
X79824844Y-63874525D01*
X79803102Y-63889052D01*
X79801106Y-63889183D01*
X79799995Y-63887520D01*
X79800456Y-63886106D01*
X79839777Y-63839054D01*
X79848408Y-63770339D01*
X79818444Y-63707710D01*
X79809778Y-63700202D01*
X79809124Y-63698312D01*
X79810434Y-63696800D01*
X79812199Y-63697027D01*
X79824844Y-63705475D01*
X79867699Y-63714000D01*
X80567301Y-63714000D01*
X80610156Y-63705475D01*
X80631898Y-63690948D01*
X80633894Y-63690817D01*
X80635005Y-63692480D01*
G37*
G36*
X76760007Y-63692479D02*
G01*
X76759546Y-63693893D01*
X76720224Y-63740945D01*
X76711591Y-63809660D01*
X76741556Y-63872290D01*
X76750224Y-63879801D01*
X76750878Y-63881691D01*
X76749568Y-63883202D01*
X76747803Y-63882975D01*
X76735156Y-63874525D01*
X76692301Y-63866000D01*
X75992699Y-63866000D01*
X75949844Y-63874525D01*
X75928102Y-63889052D01*
X75926106Y-63889183D01*
X75924995Y-63887520D01*
X75925456Y-63886106D01*
X75964777Y-63839055D01*
X75973408Y-63770339D01*
X75943444Y-63707709D01*
X75934781Y-63700202D01*
X75934127Y-63698312D01*
X75935437Y-63696801D01*
X75937202Y-63697028D01*
X75949844Y-63705475D01*
X75992699Y-63714000D01*
X76692301Y-63714000D01*
X76735156Y-63705475D01*
X76756900Y-63690947D01*
X76758896Y-63690816D01*
X76760007Y-63692479D01*
G37*
G36*
X79582919Y-63303524D02*
G01*
X79602595Y-63370536D01*
X79654938Y-63415891D01*
X79723557Y-63425757D01*
X79774521Y-63406228D01*
X79782644Y-63400801D01*
X79784640Y-63400670D01*
X79785751Y-63402333D01*
X79785418Y-63403575D01*
X79764525Y-63434844D01*
X79756000Y-63477699D01*
X79756000Y-63602301D01*
X79764525Y-63645156D01*
X79785418Y-63676425D01*
X79785549Y-63678421D01*
X79783886Y-63679532D01*
X79782644Y-63679199D01*
X79774573Y-63673807D01*
X79708192Y-63653021D01*
X79641402Y-63671344D01*
X79595075Y-63722918D01*
X79582950Y-63776355D01*
X79581592Y-63777822D01*
X79579642Y-63777380D01*
X79579000Y-63775912D01*
X79579000Y-63304087D01*
X79580000Y-63302355D01*
X79582000Y-63302355D01*
X79582919Y-63303524D01*
G37*
G36*
X76980358Y-63302616D02*
G01*
X76981000Y-63304084D01*
X76981000Y-63775916D01*
X76980000Y-63777648D01*
X76978000Y-63777648D01*
X76977081Y-63776479D01*
X76957404Y-63709465D01*
X76905061Y-63664110D01*
X76836442Y-63654244D01*
X76785479Y-63673773D01*
X76777355Y-63679201D01*
X76775359Y-63679332D01*
X76774248Y-63677669D01*
X76774581Y-63676427D01*
X76795475Y-63645156D01*
X76804000Y-63602301D01*
X76804000Y-63477699D01*
X76795475Y-63434844D01*
X76774581Y-63403573D01*
X76774450Y-63401577D01*
X76776113Y-63400466D01*
X76777355Y-63400799D01*
X76785427Y-63406192D01*
X76851809Y-63426978D01*
X76918599Y-63408654D01*
X76964924Y-63357080D01*
X76977050Y-63303641D01*
X76978408Y-63302174D01*
X76980358Y-63302616D01*
G37*
G36*
X76760005Y-63192480D02*
G01*
X76759544Y-63193894D01*
X76720224Y-63240944D01*
X76711591Y-63309660D01*
X76741554Y-63372289D01*
X76750221Y-63379798D01*
X76750875Y-63381688D01*
X76749565Y-63383200D01*
X76747800Y-63382973D01*
X76735156Y-63374525D01*
X76692301Y-63366000D01*
X75992699Y-63366000D01*
X75949844Y-63374525D01*
X75928102Y-63389052D01*
X75926106Y-63389183D01*
X75924995Y-63387520D01*
X75925456Y-63386106D01*
X75964777Y-63339055D01*
X75973408Y-63270339D01*
X75943444Y-63207709D01*
X75934781Y-63200202D01*
X75934127Y-63198312D01*
X75935437Y-63196801D01*
X75937202Y-63197028D01*
X75949844Y-63205475D01*
X75992699Y-63214000D01*
X76692301Y-63214000D01*
X76735156Y-63205475D01*
X76756898Y-63190948D01*
X76758894Y-63190817D01*
X76760005Y-63192480D01*
G37*
G36*
X80635005Y-63192480D02*
G01*
X80634544Y-63193894D01*
X80595223Y-63240945D01*
X80586592Y-63309661D01*
X80616556Y-63372291D01*
X80625219Y-63379798D01*
X80625873Y-63381688D01*
X80624563Y-63383199D01*
X80622798Y-63382972D01*
X80610156Y-63374525D01*
X80567301Y-63366000D01*
X79867699Y-63366000D01*
X79824844Y-63374525D01*
X79803102Y-63389052D01*
X79801106Y-63389183D01*
X79799995Y-63387520D01*
X79800456Y-63386106D01*
X79839777Y-63339054D01*
X79848408Y-63270339D01*
X79818444Y-63207710D01*
X79809778Y-63200202D01*
X79809124Y-63198312D01*
X79810434Y-63196800D01*
X79812199Y-63197027D01*
X79824844Y-63205475D01*
X79867699Y-63214000D01*
X80567301Y-63214000D01*
X80610156Y-63205475D01*
X80631898Y-63190948D01*
X80633894Y-63190817D01*
X80635005Y-63192480D01*
G37*
G36*
X79755313Y-63038787D02*
G01*
X79756000Y-63040295D01*
X79756000Y-63102301D01*
X79764525Y-63145156D01*
X79785418Y-63176425D01*
X79785549Y-63178421D01*
X79783886Y-63179532D01*
X79782644Y-63179199D01*
X79773850Y-63173324D01*
X79707468Y-63152538D01*
X79640678Y-63170862D01*
X79594409Y-63222371D01*
X79585973Y-63280289D01*
X79584734Y-63281859D01*
X79583994Y-63282001D01*
X79581000Y-63282001D01*
X79579268Y-63281001D01*
X79579061Y-63280228D01*
X79579014Y-63280233D01*
X79571128Y-63213098D01*
X79528275Y-63116623D01*
X79528486Y-63114634D01*
X79530314Y-63113822D01*
X79531517Y-63114397D01*
X79538162Y-63121042D01*
X79539218Y-63119986D01*
X79541150Y-63119468D01*
X79542086Y-63120027D01*
X79567051Y-63146454D01*
X79634279Y-63163095D01*
X79699833Y-63140747D01*
X79742960Y-63086427D01*
X79752037Y-63039912D01*
X79753350Y-63038403D01*
X79755313Y-63038787D01*
G37*
G36*
X76807919Y-63039732D02*
G01*
X76827597Y-63106746D01*
X76879940Y-63152101D01*
X76948494Y-63161956D01*
X77011583Y-63133143D01*
X77020005Y-63122380D01*
X77020834Y-63122046D01*
X77028303Y-63114577D01*
X77030235Y-63114059D01*
X77031649Y-63115473D01*
X77031546Y-63116800D01*
X76988757Y-63213586D01*
X76980987Y-63280232D01*
X76979793Y-63281836D01*
X76979000Y-63282000D01*
X76976248Y-63282000D01*
X76974516Y-63281000D01*
X76974265Y-63280256D01*
X76967247Y-63225972D01*
X76922643Y-63172989D01*
X76856491Y-63152538D01*
X76786137Y-63173332D01*
X76777357Y-63179199D01*
X76775361Y-63179330D01*
X76774250Y-63177667D01*
X76774583Y-63176425D01*
X76795475Y-63145156D01*
X76804000Y-63102301D01*
X76804000Y-63040295D01*
X76805000Y-63038563D01*
X76807000Y-63038563D01*
X76807919Y-63039732D01*
G37*
G36*
X77169532Y-62786114D02*
G01*
X77169199Y-62787356D01*
X77163324Y-62796150D01*
X77142538Y-62862532D01*
X77160862Y-62929322D01*
X77212371Y-62975591D01*
X77270289Y-62984027D01*
X77271859Y-62985266D01*
X77272001Y-62986006D01*
X77272001Y-62989000D01*
X77271001Y-62990732D01*
X77270228Y-62990939D01*
X77270233Y-62990986D01*
X77203098Y-62998872D01*
X77106623Y-63041725D01*
X77104634Y-63041514D01*
X77103822Y-63039686D01*
X77104397Y-63038483D01*
X77111042Y-63031838D01*
X77109986Y-63030782D01*
X77109468Y-63028850D01*
X77110027Y-63027914D01*
X77136454Y-63002949D01*
X77153095Y-62935721D01*
X77130747Y-62870167D01*
X77076427Y-62827040D01*
X77029913Y-62817963D01*
X77028404Y-62816650D01*
X77028788Y-62814687D01*
X77030296Y-62814000D01*
X77092301Y-62814000D01*
X77135156Y-62805475D01*
X77166425Y-62784582D01*
X77168421Y-62784451D01*
X77169532Y-62786114D01*
G37*
G36*
X79393575Y-62784583D02*
G01*
X79424844Y-62805475D01*
X79467699Y-62814000D01*
X79529705Y-62814000D01*
X79531437Y-62815000D01*
X79531437Y-62817000D01*
X79530268Y-62817919D01*
X79463254Y-62837597D01*
X79417899Y-62889940D01*
X79408044Y-62958494D01*
X79436857Y-63021583D01*
X79447620Y-63030005D01*
X79447954Y-63030834D01*
X79455423Y-63038303D01*
X79455941Y-63040235D01*
X79454527Y-63041649D01*
X79453200Y-63041546D01*
X79356414Y-62998757D01*
X79289768Y-62990987D01*
X79288164Y-62989793D01*
X79288000Y-62989000D01*
X79288000Y-62986248D01*
X79289000Y-62984516D01*
X79289744Y-62984265D01*
X79344028Y-62977247D01*
X79397011Y-62932643D01*
X79417462Y-62866491D01*
X79396668Y-62796137D01*
X79390801Y-62787357D01*
X79390670Y-62785361D01*
X79392333Y-62784250D01*
X79393575Y-62784583D01*
G37*
G36*
X78393573Y-62784581D02*
G01*
X78424844Y-62805475D01*
X78467699Y-62814000D01*
X78592301Y-62814000D01*
X78635156Y-62805475D01*
X78666427Y-62784581D01*
X78668423Y-62784450D01*
X78669534Y-62786113D01*
X78669201Y-62787355D01*
X78663808Y-62795427D01*
X78643022Y-62861809D01*
X78661346Y-62928599D01*
X78712920Y-62974924D01*
X78766360Y-62987050D01*
X78767827Y-62988408D01*
X78767385Y-62990358D01*
X78765917Y-62991000D01*
X78294087Y-62991000D01*
X78292355Y-62990000D01*
X78292355Y-62988000D01*
X78293523Y-62987081D01*
X78360538Y-62967401D01*
X78405892Y-62915057D01*
X78415755Y-62846437D01*
X78396227Y-62795479D01*
X78390799Y-62787355D01*
X78390668Y-62785359D01*
X78392331Y-62784248D01*
X78393573Y-62784581D01*
G37*
G36*
X78893573Y-62784581D02*
G01*
X78924844Y-62805475D01*
X78967699Y-62814000D01*
X79092301Y-62814000D01*
X79135156Y-62805475D01*
X79166427Y-62784581D01*
X79168423Y-62784450D01*
X79169534Y-62786113D01*
X79169201Y-62787355D01*
X79163808Y-62795427D01*
X79143022Y-62861809D01*
X79161346Y-62928599D01*
X79212920Y-62974924D01*
X79266360Y-62987050D01*
X79267827Y-62988408D01*
X79267385Y-62990358D01*
X79265917Y-62991000D01*
X78794083Y-62991000D01*
X78792351Y-62990000D01*
X78792351Y-62988000D01*
X78793520Y-62987081D01*
X78860535Y-62967404D01*
X78905890Y-62915061D01*
X78915756Y-62846442D01*
X78896227Y-62795479D01*
X78890799Y-62787355D01*
X78890668Y-62785359D01*
X78892331Y-62784248D01*
X78893573Y-62784581D01*
G37*
G36*
X77393575Y-62784582D02*
G01*
X77424844Y-62805475D01*
X77467699Y-62814000D01*
X77592301Y-62814000D01*
X77635156Y-62805475D01*
X77666425Y-62784582D01*
X77668421Y-62784451D01*
X77669532Y-62786114D01*
X77669199Y-62787356D01*
X77663807Y-62795427D01*
X77643021Y-62861808D01*
X77661344Y-62928598D01*
X77712918Y-62974925D01*
X77766355Y-62987050D01*
X77767822Y-62988408D01*
X77767380Y-62990358D01*
X77765912Y-62991000D01*
X77294087Y-62991000D01*
X77292355Y-62990000D01*
X77292355Y-62988000D01*
X77293524Y-62987081D01*
X77360536Y-62967405D01*
X77405891Y-62915062D01*
X77415757Y-62846443D01*
X77396228Y-62795479D01*
X77390801Y-62787356D01*
X77390670Y-62785360D01*
X77392333Y-62784249D01*
X77393575Y-62784582D01*
G37*
G36*
X77893575Y-62784582D02*
G01*
X77924844Y-62805475D01*
X77967699Y-62814000D01*
X78092301Y-62814000D01*
X78135156Y-62805475D01*
X78166425Y-62784582D01*
X78168421Y-62784451D01*
X78169532Y-62786114D01*
X78169199Y-62787356D01*
X78163807Y-62795427D01*
X78143021Y-62861808D01*
X78161344Y-62928598D01*
X78212918Y-62974925D01*
X78266359Y-62987050D01*
X78267826Y-62988408D01*
X78267384Y-62990358D01*
X78265916Y-62991000D01*
X77794087Y-62991000D01*
X77792355Y-62990000D01*
X77792355Y-62988000D01*
X77793524Y-62987081D01*
X77860536Y-62967405D01*
X77905891Y-62915062D01*
X77915757Y-62846443D01*
X77896228Y-62795479D01*
X77890801Y-62787356D01*
X77890670Y-62785360D01*
X77892333Y-62784249D01*
X77893575Y-62784582D01*
G37*
G36*
X78683894Y-61935456D02*
G01*
X78730945Y-61974777D01*
X78799661Y-61983408D01*
X78862291Y-61953444D01*
X78869798Y-61944781D01*
X78871688Y-61944127D01*
X78873199Y-61945437D01*
X78872972Y-61947202D01*
X78864525Y-61959844D01*
X78856000Y-62002699D01*
X78856000Y-62702301D01*
X78864525Y-62745156D01*
X78879053Y-62766900D01*
X78879184Y-62768896D01*
X78877521Y-62770007D01*
X78876107Y-62769546D01*
X78829055Y-62730224D01*
X78760340Y-62721591D01*
X78697710Y-62751556D01*
X78690199Y-62760224D01*
X78688309Y-62760878D01*
X78686798Y-62759568D01*
X78687025Y-62757803D01*
X78695475Y-62745156D01*
X78704000Y-62702301D01*
X78704000Y-62002699D01*
X78695475Y-61959844D01*
X78680948Y-61938102D01*
X78680817Y-61936106D01*
X78682480Y-61934995D01*
X78683894Y-61935456D01*
G37*
G36*
X78183894Y-61935456D02*
G01*
X78230945Y-61974777D01*
X78299661Y-61983408D01*
X78362291Y-61953444D01*
X78369798Y-61944781D01*
X78371688Y-61944127D01*
X78373199Y-61945437D01*
X78372972Y-61947202D01*
X78364525Y-61959844D01*
X78356000Y-62002699D01*
X78356000Y-62702301D01*
X78364525Y-62745156D01*
X78379053Y-62766900D01*
X78379184Y-62768896D01*
X78377521Y-62770007D01*
X78376107Y-62769546D01*
X78329055Y-62730224D01*
X78260340Y-62721591D01*
X78197710Y-62751556D01*
X78190200Y-62760222D01*
X78188310Y-62760876D01*
X78186799Y-62759566D01*
X78187026Y-62757801D01*
X78195475Y-62745156D01*
X78204000Y-62702301D01*
X78204000Y-62002699D01*
X78195475Y-61959844D01*
X78180948Y-61938102D01*
X78180817Y-61936106D01*
X78182480Y-61934995D01*
X78183894Y-61935456D01*
G37*
G36*
X77683894Y-61935456D02*
G01*
X77730945Y-61974777D01*
X77799661Y-61983408D01*
X77862291Y-61953444D01*
X77869798Y-61944781D01*
X77871688Y-61944127D01*
X77873199Y-61945437D01*
X77872972Y-61947202D01*
X77864525Y-61959844D01*
X77856000Y-62002699D01*
X77856000Y-62702301D01*
X77864525Y-62745156D01*
X77879052Y-62766898D01*
X77879183Y-62768894D01*
X77877520Y-62770005D01*
X77876106Y-62769544D01*
X77829054Y-62730223D01*
X77760339Y-62721592D01*
X77697710Y-62751556D01*
X77690202Y-62760222D01*
X77688312Y-62760876D01*
X77686800Y-62759566D01*
X77687027Y-62757801D01*
X77695475Y-62745156D01*
X77704000Y-62702301D01*
X77704000Y-62002699D01*
X77695475Y-61959844D01*
X77680948Y-61938102D01*
X77680817Y-61936106D01*
X77682480Y-61934995D01*
X77683894Y-61935456D01*
G37*
G36*
X79183894Y-61935456D02*
G01*
X79230945Y-61974777D01*
X79299661Y-61983408D01*
X79362291Y-61953444D01*
X79369798Y-61944781D01*
X79371688Y-61944127D01*
X79373199Y-61945437D01*
X79372972Y-61947202D01*
X79364525Y-61959844D01*
X79356000Y-62002699D01*
X79356000Y-62702301D01*
X79364525Y-62745156D01*
X79379052Y-62766898D01*
X79379183Y-62768894D01*
X79377520Y-62770005D01*
X79376106Y-62769544D01*
X79329056Y-62730224D01*
X79260340Y-62721591D01*
X79197711Y-62751554D01*
X79190202Y-62760221D01*
X79188312Y-62760875D01*
X79186800Y-62759565D01*
X79187027Y-62757800D01*
X79195475Y-62745156D01*
X79204000Y-62702301D01*
X79204000Y-62002699D01*
X79195475Y-61959844D01*
X79180948Y-61938102D01*
X79180817Y-61936106D01*
X79182480Y-61934995D01*
X79183894Y-61935456D01*
G37*
G36*
X77183894Y-61935456D02*
G01*
X77230945Y-61974777D01*
X77299661Y-61983408D01*
X77362291Y-61953444D01*
X77369798Y-61944781D01*
X77371688Y-61944127D01*
X77373199Y-61945437D01*
X77372972Y-61947202D01*
X77364525Y-61959844D01*
X77356000Y-62002699D01*
X77356000Y-62702301D01*
X77364525Y-62745156D01*
X77379052Y-62766898D01*
X77379183Y-62768894D01*
X77377520Y-62770005D01*
X77376106Y-62769544D01*
X77329054Y-62730223D01*
X77260339Y-62721592D01*
X77197710Y-62751556D01*
X77190202Y-62760222D01*
X77188312Y-62760876D01*
X77186800Y-62759566D01*
X77187027Y-62757801D01*
X77195475Y-62745156D01*
X77204000Y-62702301D01*
X77204000Y-62002699D01*
X77195475Y-61959844D01*
X77180948Y-61938102D01*
X77180817Y-61936106D01*
X77182480Y-61934995D01*
X77183894Y-61935456D01*
G37*
M02*
