G04 #@! TF.GenerationSoftware,KiCad,Pcbnew,5.1.9*
G04 #@! TF.CreationDate,2021-04-15T09:28:22+02:00*
G04 #@! TF.ProjectId,picsyle-R_als_915,70696373-796c-4652-9d52-5f616c735f39,rev?*
G04 #@! TF.SameCoordinates,Original*
G04 #@! TF.FileFunction,Legend,Top*
G04 #@! TF.FilePolarity,Positive*
%FSLAX46Y46*%
G04 Gerber Fmt 4.6, Leading zero omitted, Abs format (unit mm)*
G04 Created by KiCad (PCBNEW 5.1.9) date 2021-04-15 09:28:22*
%MOMM*%
%LPD*%
G01*
G04 APERTURE LIST*
%ADD10C,0.300000*%
%ADD11C,0.120000*%
%ADD12C,0.010000*%
G04 APERTURE END LIST*
D10*
X67616571Y-115486571D02*
X67116571Y-114772285D01*
X66759428Y-115486571D02*
X66759428Y-113986571D01*
X67330857Y-113986571D01*
X67473714Y-114058000D01*
X67545142Y-114129428D01*
X67616571Y-114272285D01*
X67616571Y-114486571D01*
X67545142Y-114629428D01*
X67473714Y-114700857D01*
X67330857Y-114772285D01*
X66759428Y-114772285D01*
X68473714Y-115486571D02*
X68330857Y-115415142D01*
X68259428Y-115343714D01*
X68188000Y-115200857D01*
X68188000Y-114772285D01*
X68259428Y-114629428D01*
X68330857Y-114558000D01*
X68473714Y-114486571D01*
X68688000Y-114486571D01*
X68830857Y-114558000D01*
X68902285Y-114629428D01*
X68973714Y-114772285D01*
X68973714Y-115200857D01*
X68902285Y-115343714D01*
X68830857Y-115415142D01*
X68688000Y-115486571D01*
X68473714Y-115486571D01*
X69616571Y-115486571D02*
X69616571Y-113986571D01*
X69616571Y-114700857D02*
X70473714Y-114700857D01*
X70473714Y-115486571D02*
X70473714Y-113986571D01*
X71116571Y-115415142D02*
X71330857Y-115486571D01*
X71688000Y-115486571D01*
X71830857Y-115415142D01*
X71902285Y-115343714D01*
X71973714Y-115200857D01*
X71973714Y-115058000D01*
X71902285Y-114915142D01*
X71830857Y-114843714D01*
X71688000Y-114772285D01*
X71402285Y-114700857D01*
X71259428Y-114629428D01*
X71188000Y-114558000D01*
X71116571Y-114415142D01*
X71116571Y-114272285D01*
X71188000Y-114129428D01*
X71259428Y-114058000D01*
X71402285Y-113986571D01*
X71759428Y-113986571D01*
X71973714Y-114058000D01*
X74402285Y-115415142D02*
X74259428Y-115486571D01*
X73973714Y-115486571D01*
X73830857Y-115415142D01*
X73759428Y-115343714D01*
X73688000Y-115200857D01*
X73688000Y-114772285D01*
X73759428Y-114629428D01*
X73830857Y-114558000D01*
X73973714Y-114486571D01*
X74259428Y-114486571D01*
X74402285Y-114558000D01*
X75259428Y-115486571D02*
X75116571Y-115415142D01*
X75045142Y-115343714D01*
X74973714Y-115200857D01*
X74973714Y-114772285D01*
X75045142Y-114629428D01*
X75116571Y-114558000D01*
X75259428Y-114486571D01*
X75473714Y-114486571D01*
X75616571Y-114558000D01*
X75688000Y-114629428D01*
X75759428Y-114772285D01*
X75759428Y-115200857D01*
X75688000Y-115343714D01*
X75616571Y-115415142D01*
X75473714Y-115486571D01*
X75259428Y-115486571D01*
X76402285Y-115486571D02*
X76402285Y-114486571D01*
X76402285Y-114629428D02*
X76473714Y-114558000D01*
X76616571Y-114486571D01*
X76830857Y-114486571D01*
X76973714Y-114558000D01*
X77045142Y-114700857D01*
X77045142Y-115486571D01*
X77045142Y-114700857D02*
X77116571Y-114558000D01*
X77259428Y-114486571D01*
X77473714Y-114486571D01*
X77616571Y-114558000D01*
X77688000Y-114700857D01*
X77688000Y-115486571D01*
X78402285Y-114486571D02*
X78402285Y-115986571D01*
X78402285Y-114558000D02*
X78545142Y-114486571D01*
X78830857Y-114486571D01*
X78973714Y-114558000D01*
X79045142Y-114629428D01*
X79116571Y-114772285D01*
X79116571Y-115200857D01*
X79045142Y-115343714D01*
X78973714Y-115415142D01*
X78830857Y-115486571D01*
X78545142Y-115486571D01*
X78402285Y-115415142D01*
X79973714Y-115486571D02*
X79830857Y-115415142D01*
X79759428Y-115272285D01*
X79759428Y-113986571D01*
X80545142Y-115486571D02*
X80545142Y-114486571D01*
X80545142Y-113986571D02*
X80473714Y-114058000D01*
X80545142Y-114129428D01*
X80616571Y-114058000D01*
X80545142Y-113986571D01*
X80545142Y-114129428D01*
X81902285Y-115486571D02*
X81902285Y-114700857D01*
X81830857Y-114558000D01*
X81688000Y-114486571D01*
X81402285Y-114486571D01*
X81259428Y-114558000D01*
X81902285Y-115415142D02*
X81759428Y-115486571D01*
X81402285Y-115486571D01*
X81259428Y-115415142D01*
X81188000Y-115272285D01*
X81188000Y-115129428D01*
X81259428Y-114986571D01*
X81402285Y-114915142D01*
X81759428Y-114915142D01*
X81902285Y-114843714D01*
X82616571Y-114486571D02*
X82616571Y-115486571D01*
X82616571Y-114629428D02*
X82688000Y-114558000D01*
X82830857Y-114486571D01*
X83045142Y-114486571D01*
X83188000Y-114558000D01*
X83259428Y-114700857D01*
X83259428Y-115486571D01*
X83759428Y-114486571D02*
X84330857Y-114486571D01*
X83973714Y-113986571D02*
X83973714Y-115272285D01*
X84045142Y-115415142D01*
X84188000Y-115486571D01*
X84330857Y-115486571D01*
X109571428Y-95975000D02*
X110285714Y-95975000D01*
X109428571Y-96403571D02*
X109928571Y-94903571D01*
X110428571Y-96403571D01*
X110857142Y-96332142D02*
X111071428Y-96403571D01*
X111428571Y-96403571D01*
X111571428Y-96332142D01*
X111642857Y-96260714D01*
X111714285Y-96117857D01*
X111714285Y-95975000D01*
X111642857Y-95832142D01*
X111571428Y-95760714D01*
X111428571Y-95689285D01*
X111142857Y-95617857D01*
X111000000Y-95546428D01*
X110928571Y-95475000D01*
X110857142Y-95332142D01*
X110857142Y-95189285D01*
X110928571Y-95046428D01*
X111000000Y-94975000D01*
X111142857Y-94903571D01*
X111500000Y-94903571D01*
X111714285Y-94975000D01*
X112214285Y-94903571D02*
X113142857Y-94903571D01*
X112642857Y-95475000D01*
X112857142Y-95475000D01*
X113000000Y-95546428D01*
X113071428Y-95617857D01*
X113142857Y-95760714D01*
X113142857Y-96117857D01*
X113071428Y-96260714D01*
X113000000Y-96332142D01*
X112857142Y-96403571D01*
X112428571Y-96403571D01*
X112285714Y-96332142D01*
X112214285Y-96260714D01*
X113714285Y-95046428D02*
X113785714Y-94975000D01*
X113928571Y-94903571D01*
X114285714Y-94903571D01*
X114428571Y-94975000D01*
X114500000Y-95046428D01*
X114571428Y-95189285D01*
X114571428Y-95332142D01*
X114500000Y-95546428D01*
X113642857Y-96403571D01*
X114571428Y-96403571D01*
X116000000Y-96403571D02*
X115142857Y-96403571D01*
X115571428Y-96403571D02*
X115571428Y-94903571D01*
X115428571Y-95117857D01*
X115285714Y-95260714D01*
X115142857Y-95332142D01*
X116500000Y-94903571D02*
X117500000Y-96403571D01*
X117500000Y-94903571D02*
X116500000Y-96403571D01*
X118071428Y-95832142D02*
X119214285Y-95832142D01*
X119928571Y-95617857D02*
X120428571Y-95617857D01*
X120642857Y-96403571D02*
X119928571Y-96403571D01*
X119928571Y-94903571D01*
X120642857Y-94903571D01*
X121071428Y-94903571D02*
X121571428Y-96403571D01*
X122071428Y-94903571D01*
X122500000Y-95975000D02*
X123214285Y-95975000D01*
X122357142Y-96403571D02*
X122857142Y-94903571D01*
X123357142Y-96403571D01*
X124571428Y-96403571D02*
X123857142Y-96403571D01*
X123857142Y-94903571D01*
X125071428Y-95832142D02*
X126214285Y-95832142D01*
X127642857Y-96403571D02*
X126928571Y-96403571D01*
X126928571Y-94903571D01*
X128142857Y-96403571D02*
X128142857Y-94903571D01*
X129642857Y-94975000D02*
X129500000Y-94903571D01*
X129285714Y-94903571D01*
X129071428Y-94975000D01*
X128928571Y-95117857D01*
X128857142Y-95260714D01*
X128785714Y-95546428D01*
X128785714Y-95760714D01*
X128857142Y-96046428D01*
X128928571Y-96189285D01*
X129071428Y-96332142D01*
X129285714Y-96403571D01*
X129428571Y-96403571D01*
X129642857Y-96332142D01*
X129714285Y-96260714D01*
X129714285Y-95760714D01*
X129428571Y-95760714D01*
X130357142Y-96403571D02*
X130357142Y-94903571D01*
X130357142Y-95617857D02*
X131214285Y-95617857D01*
X131214285Y-96403571D02*
X131214285Y-94903571D01*
X131714285Y-94903571D02*
X132571428Y-94903571D01*
X132142857Y-96403571D02*
X132142857Y-94903571D01*
X114142857Y-98167857D02*
X113642857Y-98167857D01*
X113642857Y-98953571D02*
X113642857Y-97453571D01*
X114357142Y-97453571D01*
X115785714Y-98810714D02*
X115714285Y-98882142D01*
X115500000Y-98953571D01*
X115357142Y-98953571D01*
X115142857Y-98882142D01*
X115000000Y-98739285D01*
X114928571Y-98596428D01*
X114857142Y-98310714D01*
X114857142Y-98096428D01*
X114928571Y-97810714D01*
X115000000Y-97667857D01*
X115142857Y-97525000D01*
X115357142Y-97453571D01*
X115500000Y-97453571D01*
X115714285Y-97525000D01*
X115785714Y-97596428D01*
X117285714Y-98810714D02*
X117214285Y-98882142D01*
X117000000Y-98953571D01*
X116857142Y-98953571D01*
X116642857Y-98882142D01*
X116500000Y-98739285D01*
X116428571Y-98596428D01*
X116357142Y-98310714D01*
X116357142Y-98096428D01*
X116428571Y-97810714D01*
X116500000Y-97667857D01*
X116642857Y-97525000D01*
X116857142Y-97453571D01*
X117000000Y-97453571D01*
X117214285Y-97525000D01*
X117285714Y-97596428D01*
X119000000Y-98882142D02*
X119214285Y-98953571D01*
X119571428Y-98953571D01*
X119714285Y-98882142D01*
X119785714Y-98810714D01*
X119857142Y-98667857D01*
X119857142Y-98525000D01*
X119785714Y-98382142D01*
X119714285Y-98310714D01*
X119571428Y-98239285D01*
X119285714Y-98167857D01*
X119142857Y-98096428D01*
X119071428Y-98025000D01*
X119000000Y-97882142D01*
X119000000Y-97739285D01*
X119071428Y-97596428D01*
X119142857Y-97525000D01*
X119285714Y-97453571D01*
X119642857Y-97453571D01*
X119857142Y-97525000D01*
X120285714Y-97953571D02*
X120857142Y-97953571D01*
X120500000Y-97453571D02*
X120500000Y-98739285D01*
X120571428Y-98882142D01*
X120714285Y-98953571D01*
X120857142Y-98953571D01*
X122000000Y-98953571D02*
X122000000Y-98167857D01*
X121928571Y-98025000D01*
X121785714Y-97953571D01*
X121500000Y-97953571D01*
X121357142Y-98025000D01*
X122000000Y-98882142D02*
X121857142Y-98953571D01*
X121500000Y-98953571D01*
X121357142Y-98882142D01*
X121285714Y-98739285D01*
X121285714Y-98596428D01*
X121357142Y-98453571D01*
X121500000Y-98382142D01*
X121857142Y-98382142D01*
X122000000Y-98310714D01*
X122714285Y-97953571D02*
X122714285Y-98953571D01*
X122714285Y-98096428D02*
X122785714Y-98025000D01*
X122928571Y-97953571D01*
X123142857Y-97953571D01*
X123285714Y-98025000D01*
X123357142Y-98167857D01*
X123357142Y-98953571D01*
X124714285Y-98953571D02*
X124714285Y-97453571D01*
X124714285Y-98882142D02*
X124571428Y-98953571D01*
X124285714Y-98953571D01*
X124142857Y-98882142D01*
X124071428Y-98810714D01*
X124000000Y-98667857D01*
X124000000Y-98239285D01*
X124071428Y-98096428D01*
X124142857Y-98025000D01*
X124285714Y-97953571D01*
X124571428Y-97953571D01*
X124714285Y-98025000D01*
X126071428Y-98953571D02*
X126071428Y-98167857D01*
X126000000Y-98025000D01*
X125857142Y-97953571D01*
X125571428Y-97953571D01*
X125428571Y-98025000D01*
X126071428Y-98882142D02*
X125928571Y-98953571D01*
X125571428Y-98953571D01*
X125428571Y-98882142D01*
X125357142Y-98739285D01*
X125357142Y-98596428D01*
X125428571Y-98453571D01*
X125571428Y-98382142D01*
X125928571Y-98382142D01*
X126071428Y-98310714D01*
X126785714Y-98953571D02*
X126785714Y-97953571D01*
X126785714Y-98239285D02*
X126857142Y-98096428D01*
X126928571Y-98025000D01*
X127071428Y-97953571D01*
X127214285Y-97953571D01*
X128357142Y-98953571D02*
X128357142Y-97453571D01*
X128357142Y-98882142D02*
X128214285Y-98953571D01*
X127928571Y-98953571D01*
X127785714Y-98882142D01*
X127714285Y-98810714D01*
X127642857Y-98667857D01*
X127642857Y-98239285D01*
X127714285Y-98096428D01*
X127785714Y-98025000D01*
X127928571Y-97953571D01*
X128214285Y-97953571D01*
X128357142Y-98025000D01*
D11*
X96892160Y-99647700D02*
X96892160Y-100122700D01*
X101112160Y-95902700D02*
X100637160Y-95902700D01*
X101112160Y-96377700D02*
X101112160Y-95902700D01*
X101112160Y-100122700D02*
X100637160Y-100122700D01*
X101112160Y-99647700D02*
X101112160Y-100122700D01*
X96892160Y-95902700D02*
X97367160Y-95902700D01*
X96892160Y-96377700D02*
X96892160Y-95902700D01*
D12*
G36*
X108661623Y-111358479D02*
G01*
X108661587Y-111558066D01*
X108661473Y-111737520D01*
X108661269Y-111897875D01*
X108660964Y-112040163D01*
X108660548Y-112165420D01*
X108660010Y-112274679D01*
X108659338Y-112368972D01*
X108658522Y-112449335D01*
X108657550Y-112516800D01*
X108656413Y-112572401D01*
X108655098Y-112617172D01*
X108653596Y-112652146D01*
X108651894Y-112678358D01*
X108649983Y-112696840D01*
X108647851Y-112708626D01*
X108647328Y-112710500D01*
X108606253Y-112810996D01*
X108548816Y-112898086D01*
X108475260Y-112971482D01*
X108385831Y-113030895D01*
X108367365Y-113040431D01*
X108276927Y-113085245D01*
X107998569Y-113085245D01*
X107909408Y-113040899D01*
X107826849Y-112992173D01*
X107765987Y-112940358D01*
X107753186Y-112924682D01*
X107729129Y-112892711D01*
X107694605Y-112845556D01*
X107650399Y-112784327D01*
X107597298Y-112710137D01*
X107536090Y-112624097D01*
X107467562Y-112527318D01*
X107392500Y-112420911D01*
X107311692Y-112305989D01*
X107225925Y-112183661D01*
X107135986Y-112055041D01*
X107042661Y-111921238D01*
X106951070Y-111789598D01*
X106190415Y-110695035D01*
X106187723Y-111892786D01*
X106185032Y-113090537D01*
X105624206Y-113090537D01*
X105624206Y-111810474D01*
X105624283Y-111593572D01*
X105624516Y-111397375D01*
X105624910Y-111221420D01*
X105625469Y-111065246D01*
X105626196Y-110928392D01*
X105627095Y-110810395D01*
X105628172Y-110710795D01*
X105629429Y-110629129D01*
X105630870Y-110564935D01*
X105632501Y-110517753D01*
X105634324Y-110487120D01*
X105635902Y-110474328D01*
X105664422Y-110385092D01*
X105710451Y-110299082D01*
X105770499Y-110221222D01*
X105841077Y-110156433D01*
X105879947Y-110130043D01*
X105960768Y-110091886D01*
X106051327Y-110066770D01*
X106143331Y-110056652D01*
X106186532Y-110057769D01*
X106288784Y-110073523D01*
X106378946Y-110104963D01*
X106460709Y-110153667D01*
X106513584Y-110197630D01*
X106526400Y-110212639D01*
X106550640Y-110244270D01*
X106585729Y-110291710D01*
X106631090Y-110354147D01*
X106686144Y-110430768D01*
X106750315Y-110520761D01*
X106823026Y-110623313D01*
X106903700Y-110737611D01*
X106991759Y-110862844D01*
X107086627Y-110998197D01*
X107187726Y-111142860D01*
X107294480Y-111296018D01*
X107333793Y-111352516D01*
X108105998Y-112462757D01*
X108108689Y-111257939D01*
X108111379Y-110053120D01*
X108661623Y-110053120D01*
X108661623Y-111358479D01*
G37*
X108661623Y-111358479D02*
X108661587Y-111558066D01*
X108661473Y-111737520D01*
X108661269Y-111897875D01*
X108660964Y-112040163D01*
X108660548Y-112165420D01*
X108660010Y-112274679D01*
X108659338Y-112368972D01*
X108658522Y-112449335D01*
X108657550Y-112516800D01*
X108656413Y-112572401D01*
X108655098Y-112617172D01*
X108653596Y-112652146D01*
X108651894Y-112678358D01*
X108649983Y-112696840D01*
X108647851Y-112708626D01*
X108647328Y-112710500D01*
X108606253Y-112810996D01*
X108548816Y-112898086D01*
X108475260Y-112971482D01*
X108385831Y-113030895D01*
X108367365Y-113040431D01*
X108276927Y-113085245D01*
X107998569Y-113085245D01*
X107909408Y-113040899D01*
X107826849Y-112992173D01*
X107765987Y-112940358D01*
X107753186Y-112924682D01*
X107729129Y-112892711D01*
X107694605Y-112845556D01*
X107650399Y-112784327D01*
X107597298Y-112710137D01*
X107536090Y-112624097D01*
X107467562Y-112527318D01*
X107392500Y-112420911D01*
X107311692Y-112305989D01*
X107225925Y-112183661D01*
X107135986Y-112055041D01*
X107042661Y-111921238D01*
X106951070Y-111789598D01*
X106190415Y-110695035D01*
X106187723Y-111892786D01*
X106185032Y-113090537D01*
X105624206Y-113090537D01*
X105624206Y-111810474D01*
X105624283Y-111593572D01*
X105624516Y-111397375D01*
X105624910Y-111221420D01*
X105625469Y-111065246D01*
X105626196Y-110928392D01*
X105627095Y-110810395D01*
X105628172Y-110710795D01*
X105629429Y-110629129D01*
X105630870Y-110564935D01*
X105632501Y-110517753D01*
X105634324Y-110487120D01*
X105635902Y-110474328D01*
X105664422Y-110385092D01*
X105710451Y-110299082D01*
X105770499Y-110221222D01*
X105841077Y-110156433D01*
X105879947Y-110130043D01*
X105960768Y-110091886D01*
X106051327Y-110066770D01*
X106143331Y-110056652D01*
X106186532Y-110057769D01*
X106288784Y-110073523D01*
X106378946Y-110104963D01*
X106460709Y-110153667D01*
X106513584Y-110197630D01*
X106526400Y-110212639D01*
X106550640Y-110244270D01*
X106585729Y-110291710D01*
X106631090Y-110354147D01*
X106686144Y-110430768D01*
X106750315Y-110520761D01*
X106823026Y-110623313D01*
X106903700Y-110737611D01*
X106991759Y-110862844D01*
X107086627Y-110998197D01*
X107187726Y-111142860D01*
X107294480Y-111296018D01*
X107333793Y-111352516D01*
X108105998Y-112462757D01*
X108108689Y-111257939D01*
X108111379Y-110053120D01*
X108661623Y-110053120D01*
X108661623Y-111358479D01*
G36*
X104714040Y-110614037D02*
G01*
X102480956Y-110614037D01*
X102480956Y-112540203D01*
X104407123Y-112540203D01*
X104407123Y-111852287D01*
X102883123Y-111852287D01*
X102883123Y-111301953D01*
X103701108Y-111301953D01*
X103858034Y-111301960D01*
X103995301Y-111302044D01*
X104114416Y-111302297D01*
X104216887Y-111302811D01*
X104304221Y-111303679D01*
X104377926Y-111304995D01*
X104439509Y-111306849D01*
X104490477Y-111309336D01*
X104532339Y-111312548D01*
X104566601Y-111316577D01*
X104594771Y-111321516D01*
X104618357Y-111327458D01*
X104638865Y-111334495D01*
X104657804Y-111342720D01*
X104676681Y-111352226D01*
X104697003Y-111363105D01*
X104697098Y-111363156D01*
X104762209Y-111407539D01*
X104824343Y-111467067D01*
X104877995Y-111535868D01*
X104908955Y-111589206D01*
X104923214Y-111620269D01*
X104935103Y-111652085D01*
X104944800Y-111686785D01*
X104952485Y-111726497D01*
X104958335Y-111773349D01*
X104962528Y-111829472D01*
X104965244Y-111896993D01*
X104966660Y-111978043D01*
X104966955Y-112074750D01*
X104966307Y-112189243D01*
X104965565Y-112265037D01*
X104964375Y-112368336D01*
X104963178Y-112452823D01*
X104961840Y-112520852D01*
X104960227Y-112574777D01*
X104958207Y-112616952D01*
X104955645Y-112649731D01*
X104952408Y-112675468D01*
X104948363Y-112696517D01*
X104943376Y-112715232D01*
X104939308Y-112728038D01*
X104899470Y-112817283D01*
X104843256Y-112898710D01*
X104773814Y-112969380D01*
X104694289Y-113026352D01*
X104607830Y-113066686D01*
X104562891Y-113079717D01*
X104544813Y-113081417D01*
X104506431Y-113082988D01*
X104448604Y-113084421D01*
X104372193Y-113085709D01*
X104278061Y-113086844D01*
X104167067Y-113087818D01*
X104040072Y-113088623D01*
X103897939Y-113089251D01*
X103741527Y-113089695D01*
X103571698Y-113089947D01*
X103433456Y-113090005D01*
X102348665Y-113089990D01*
X102277457Y-113065722D01*
X102200099Y-113031704D01*
X102126273Y-112985215D01*
X102063774Y-112931367D01*
X102050349Y-112916801D01*
X102015971Y-112869294D01*
X101982501Y-112809200D01*
X101953958Y-112744870D01*
X101934362Y-112684654D01*
X101930784Y-112668404D01*
X101928903Y-112647716D01*
X101927198Y-112607733D01*
X101925668Y-112550249D01*
X101924312Y-112477054D01*
X101923130Y-112389939D01*
X101922120Y-112290696D01*
X101921282Y-112181115D01*
X101920614Y-112062988D01*
X101920118Y-111938105D01*
X101919790Y-111808259D01*
X101919631Y-111675240D01*
X101919640Y-111540839D01*
X101919816Y-111406848D01*
X101920159Y-111275057D01*
X101920667Y-111147258D01*
X101921340Y-111025242D01*
X101922177Y-110910801D01*
X101923177Y-110805724D01*
X101924340Y-110711804D01*
X101925664Y-110630831D01*
X101927149Y-110564597D01*
X101928794Y-110514893D01*
X101930599Y-110483510D01*
X101931735Y-110474328D01*
X101958951Y-110388766D01*
X102002696Y-110305914D01*
X102059564Y-110230222D01*
X102126151Y-110166140D01*
X102199051Y-110118115D01*
X102207642Y-110113844D01*
X102226703Y-110104638D01*
X102244258Y-110096419D01*
X102261553Y-110089128D01*
X102279835Y-110082711D01*
X102300349Y-110077112D01*
X102324342Y-110072275D01*
X102353060Y-110068143D01*
X102387748Y-110064662D01*
X102429653Y-110061775D01*
X102480021Y-110059426D01*
X102540098Y-110057559D01*
X102611130Y-110056119D01*
X102694363Y-110055049D01*
X102791042Y-110054294D01*
X102902415Y-110053797D01*
X103029727Y-110053504D01*
X103174225Y-110053357D01*
X103337153Y-110053301D01*
X103519759Y-110053281D01*
X103557810Y-110053276D01*
X104714040Y-110053120D01*
X104714040Y-110614037D01*
G37*
X104714040Y-110614037D02*
X102480956Y-110614037D01*
X102480956Y-112540203D01*
X104407123Y-112540203D01*
X104407123Y-111852287D01*
X102883123Y-111852287D01*
X102883123Y-111301953D01*
X103701108Y-111301953D01*
X103858034Y-111301960D01*
X103995301Y-111302044D01*
X104114416Y-111302297D01*
X104216887Y-111302811D01*
X104304221Y-111303679D01*
X104377926Y-111304995D01*
X104439509Y-111306849D01*
X104490477Y-111309336D01*
X104532339Y-111312548D01*
X104566601Y-111316577D01*
X104594771Y-111321516D01*
X104618357Y-111327458D01*
X104638865Y-111334495D01*
X104657804Y-111342720D01*
X104676681Y-111352226D01*
X104697003Y-111363105D01*
X104697098Y-111363156D01*
X104762209Y-111407539D01*
X104824343Y-111467067D01*
X104877995Y-111535868D01*
X104908955Y-111589206D01*
X104923214Y-111620269D01*
X104935103Y-111652085D01*
X104944800Y-111686785D01*
X104952485Y-111726497D01*
X104958335Y-111773349D01*
X104962528Y-111829472D01*
X104965244Y-111896993D01*
X104966660Y-111978043D01*
X104966955Y-112074750D01*
X104966307Y-112189243D01*
X104965565Y-112265037D01*
X104964375Y-112368336D01*
X104963178Y-112452823D01*
X104961840Y-112520852D01*
X104960227Y-112574777D01*
X104958207Y-112616952D01*
X104955645Y-112649731D01*
X104952408Y-112675468D01*
X104948363Y-112696517D01*
X104943376Y-112715232D01*
X104939308Y-112728038D01*
X104899470Y-112817283D01*
X104843256Y-112898710D01*
X104773814Y-112969380D01*
X104694289Y-113026352D01*
X104607830Y-113066686D01*
X104562891Y-113079717D01*
X104544813Y-113081417D01*
X104506431Y-113082988D01*
X104448604Y-113084421D01*
X104372193Y-113085709D01*
X104278061Y-113086844D01*
X104167067Y-113087818D01*
X104040072Y-113088623D01*
X103897939Y-113089251D01*
X103741527Y-113089695D01*
X103571698Y-113089947D01*
X103433456Y-113090005D01*
X102348665Y-113089990D01*
X102277457Y-113065722D01*
X102200099Y-113031704D01*
X102126273Y-112985215D01*
X102063774Y-112931367D01*
X102050349Y-112916801D01*
X102015971Y-112869294D01*
X101982501Y-112809200D01*
X101953958Y-112744870D01*
X101934362Y-112684654D01*
X101930784Y-112668404D01*
X101928903Y-112647716D01*
X101927198Y-112607733D01*
X101925668Y-112550249D01*
X101924312Y-112477054D01*
X101923130Y-112389939D01*
X101922120Y-112290696D01*
X101921282Y-112181115D01*
X101920614Y-112062988D01*
X101920118Y-111938105D01*
X101919790Y-111808259D01*
X101919631Y-111675240D01*
X101919640Y-111540839D01*
X101919816Y-111406848D01*
X101920159Y-111275057D01*
X101920667Y-111147258D01*
X101921340Y-111025242D01*
X101922177Y-110910801D01*
X101923177Y-110805724D01*
X101924340Y-110711804D01*
X101925664Y-110630831D01*
X101927149Y-110564597D01*
X101928794Y-110514893D01*
X101930599Y-110483510D01*
X101931735Y-110474328D01*
X101958951Y-110388766D01*
X102002696Y-110305914D01*
X102059564Y-110230222D01*
X102126151Y-110166140D01*
X102199051Y-110118115D01*
X102207642Y-110113844D01*
X102226703Y-110104638D01*
X102244258Y-110096419D01*
X102261553Y-110089128D01*
X102279835Y-110082711D01*
X102300349Y-110077112D01*
X102324342Y-110072275D01*
X102353060Y-110068143D01*
X102387748Y-110064662D01*
X102429653Y-110061775D01*
X102480021Y-110059426D01*
X102540098Y-110057559D01*
X102611130Y-110056119D01*
X102694363Y-110055049D01*
X102791042Y-110054294D01*
X102902415Y-110053797D01*
X103029727Y-110053504D01*
X103174225Y-110053357D01*
X103337153Y-110053301D01*
X103519759Y-110053281D01*
X103557810Y-110053276D01*
X104714040Y-110053120D01*
X104714040Y-110614037D01*
G36*
X92095674Y-110053128D02*
G01*
X92259026Y-110053167D01*
X92403664Y-110053257D01*
X92530818Y-110053419D01*
X92641713Y-110053675D01*
X92737576Y-110054045D01*
X92819635Y-110054550D01*
X92889116Y-110055210D01*
X92947248Y-110056048D01*
X92995256Y-110057083D01*
X93034368Y-110058337D01*
X93065810Y-110059831D01*
X93090811Y-110061585D01*
X93110596Y-110063621D01*
X93126393Y-110065959D01*
X93139430Y-110068620D01*
X93150932Y-110071625D01*
X93160157Y-110074385D01*
X93249371Y-110112182D01*
X93331220Y-110166766D01*
X93401725Y-110234777D01*
X93456908Y-110312857D01*
X93468427Y-110334743D01*
X93477858Y-110353899D01*
X93486228Y-110371470D01*
X93493600Y-110388773D01*
X93500037Y-110407124D01*
X93505603Y-110427840D01*
X93510361Y-110452238D01*
X93514373Y-110481635D01*
X93517705Y-110517347D01*
X93520418Y-110560691D01*
X93522576Y-110612984D01*
X93524243Y-110675542D01*
X93525481Y-110749683D01*
X93526354Y-110836722D01*
X93526925Y-110937977D01*
X93527258Y-111054764D01*
X93527415Y-111188400D01*
X93527460Y-111340202D01*
X93527457Y-111511486D01*
X93527456Y-111562947D01*
X93527356Y-111761114D01*
X93527052Y-111938543D01*
X93526540Y-112095664D01*
X93525816Y-112232905D01*
X93524874Y-112350695D01*
X93523711Y-112449463D01*
X93522321Y-112529637D01*
X93520701Y-112591646D01*
X93518845Y-112635919D01*
X93516750Y-112662885D01*
X93515761Y-112669328D01*
X93489105Y-112753561D01*
X93446408Y-112835410D01*
X93391056Y-112910442D01*
X93326435Y-112974225D01*
X93255932Y-113022328D01*
X93239841Y-113030427D01*
X93219545Y-113039986D01*
X93200820Y-113048469D01*
X93182341Y-113055939D01*
X93162785Y-113062459D01*
X93140825Y-113068091D01*
X93115137Y-113072900D01*
X93084397Y-113076947D01*
X93047279Y-113080295D01*
X93002459Y-113083008D01*
X92948613Y-113085149D01*
X92884415Y-113086781D01*
X92808541Y-113087966D01*
X92719666Y-113088767D01*
X92616465Y-113089248D01*
X92497613Y-113089472D01*
X92361787Y-113089501D01*
X92207660Y-113089398D01*
X92033909Y-113089227D01*
X92003456Y-113089196D01*
X91841959Y-113088936D01*
X91689084Y-113088489D01*
X91546085Y-113087868D01*
X91414216Y-113087086D01*
X91294732Y-113086155D01*
X91188885Y-113085088D01*
X91097931Y-113083898D01*
X91023122Y-113082597D01*
X90965714Y-113081198D01*
X90926959Y-113079714D01*
X90908113Y-113078157D01*
X90908081Y-113078151D01*
X90821525Y-113051912D01*
X90737246Y-113008087D01*
X90660015Y-112950109D01*
X90594597Y-112881412D01*
X90555965Y-112824585D01*
X90541008Y-112797850D01*
X90528471Y-112773317D01*
X90518152Y-112748903D01*
X90509852Y-112722527D01*
X90503371Y-112692106D01*
X90498507Y-112655559D01*
X90495062Y-112610802D01*
X90492835Y-112555753D01*
X90491625Y-112488331D01*
X90491232Y-112406453D01*
X90491457Y-112308037D01*
X90492099Y-112191001D01*
X90492278Y-112162211D01*
X90495331Y-111676019D01*
X90540214Y-111585465D01*
X90596491Y-111493845D01*
X90666519Y-111418315D01*
X90750287Y-111358887D01*
X90847785Y-111315567D01*
X90870315Y-111308425D01*
X90882910Y-111305245D01*
X90898766Y-111302479D01*
X90919340Y-111300100D01*
X90946090Y-111298080D01*
X90980474Y-111296390D01*
X91023947Y-111295002D01*
X91077968Y-111293887D01*
X91143994Y-111293019D01*
X91223482Y-111292368D01*
X91317890Y-111291906D01*
X91428674Y-111291605D01*
X91557293Y-111291436D01*
X91705203Y-111291373D01*
X91751377Y-111291370D01*
X92574956Y-111291370D01*
X92574956Y-111841703D01*
X91040373Y-111841703D01*
X91040373Y-112529620D01*
X92966540Y-112529620D01*
X92966540Y-110603453D01*
X90733456Y-110603453D01*
X90733456Y-110053120D01*
X91912383Y-110053120D01*
X92095674Y-110053128D01*
G37*
X92095674Y-110053128D02*
X92259026Y-110053167D01*
X92403664Y-110053257D01*
X92530818Y-110053419D01*
X92641713Y-110053675D01*
X92737576Y-110054045D01*
X92819635Y-110054550D01*
X92889116Y-110055210D01*
X92947248Y-110056048D01*
X92995256Y-110057083D01*
X93034368Y-110058337D01*
X93065810Y-110059831D01*
X93090811Y-110061585D01*
X93110596Y-110063621D01*
X93126393Y-110065959D01*
X93139430Y-110068620D01*
X93150932Y-110071625D01*
X93160157Y-110074385D01*
X93249371Y-110112182D01*
X93331220Y-110166766D01*
X93401725Y-110234777D01*
X93456908Y-110312857D01*
X93468427Y-110334743D01*
X93477858Y-110353899D01*
X93486228Y-110371470D01*
X93493600Y-110388773D01*
X93500037Y-110407124D01*
X93505603Y-110427840D01*
X93510361Y-110452238D01*
X93514373Y-110481635D01*
X93517705Y-110517347D01*
X93520418Y-110560691D01*
X93522576Y-110612984D01*
X93524243Y-110675542D01*
X93525481Y-110749683D01*
X93526354Y-110836722D01*
X93526925Y-110937977D01*
X93527258Y-111054764D01*
X93527415Y-111188400D01*
X93527460Y-111340202D01*
X93527457Y-111511486D01*
X93527456Y-111562947D01*
X93527356Y-111761114D01*
X93527052Y-111938543D01*
X93526540Y-112095664D01*
X93525816Y-112232905D01*
X93524874Y-112350695D01*
X93523711Y-112449463D01*
X93522321Y-112529637D01*
X93520701Y-112591646D01*
X93518845Y-112635919D01*
X93516750Y-112662885D01*
X93515761Y-112669328D01*
X93489105Y-112753561D01*
X93446408Y-112835410D01*
X93391056Y-112910442D01*
X93326435Y-112974225D01*
X93255932Y-113022328D01*
X93239841Y-113030427D01*
X93219545Y-113039986D01*
X93200820Y-113048469D01*
X93182341Y-113055939D01*
X93162785Y-113062459D01*
X93140825Y-113068091D01*
X93115137Y-113072900D01*
X93084397Y-113076947D01*
X93047279Y-113080295D01*
X93002459Y-113083008D01*
X92948613Y-113085149D01*
X92884415Y-113086781D01*
X92808541Y-113087966D01*
X92719666Y-113088767D01*
X92616465Y-113089248D01*
X92497613Y-113089472D01*
X92361787Y-113089501D01*
X92207660Y-113089398D01*
X92033909Y-113089227D01*
X92003456Y-113089196D01*
X91841959Y-113088936D01*
X91689084Y-113088489D01*
X91546085Y-113087868D01*
X91414216Y-113087086D01*
X91294732Y-113086155D01*
X91188885Y-113085088D01*
X91097931Y-113083898D01*
X91023122Y-113082597D01*
X90965714Y-113081198D01*
X90926959Y-113079714D01*
X90908113Y-113078157D01*
X90908081Y-113078151D01*
X90821525Y-113051912D01*
X90737246Y-113008087D01*
X90660015Y-112950109D01*
X90594597Y-112881412D01*
X90555965Y-112824585D01*
X90541008Y-112797850D01*
X90528471Y-112773317D01*
X90518152Y-112748903D01*
X90509852Y-112722527D01*
X90503371Y-112692106D01*
X90498507Y-112655559D01*
X90495062Y-112610802D01*
X90492835Y-112555753D01*
X90491625Y-112488331D01*
X90491232Y-112406453D01*
X90491457Y-112308037D01*
X90492099Y-112191001D01*
X90492278Y-112162211D01*
X90495331Y-111676019D01*
X90540214Y-111585465D01*
X90596491Y-111493845D01*
X90666519Y-111418315D01*
X90750287Y-111358887D01*
X90847785Y-111315567D01*
X90870315Y-111308425D01*
X90882910Y-111305245D01*
X90898766Y-111302479D01*
X90919340Y-111300100D01*
X90946090Y-111298080D01*
X90980474Y-111296390D01*
X91023947Y-111295002D01*
X91077968Y-111293887D01*
X91143994Y-111293019D01*
X91223482Y-111292368D01*
X91317890Y-111291906D01*
X91428674Y-111291605D01*
X91557293Y-111291436D01*
X91705203Y-111291373D01*
X91751377Y-111291370D01*
X92574956Y-111291370D01*
X92574956Y-111841703D01*
X91040373Y-111841703D01*
X91040373Y-112529620D01*
X92966540Y-112529620D01*
X92966540Y-110603453D01*
X90733456Y-110603453D01*
X90733456Y-110053120D01*
X91912383Y-110053120D01*
X92095674Y-110053128D01*
G36*
X96956456Y-110614037D02*
G01*
X94723373Y-110614037D01*
X94723373Y-111301953D01*
X95742019Y-111302079D01*
X95915226Y-111302098D01*
X96068611Y-111302150D01*
X96203516Y-111302296D01*
X96321286Y-111302597D01*
X96423262Y-111303115D01*
X96510791Y-111303908D01*
X96585213Y-111305040D01*
X96647875Y-111306570D01*
X96700118Y-111308559D01*
X96743286Y-111311069D01*
X96778724Y-111314160D01*
X96807774Y-111317892D01*
X96831780Y-111322328D01*
X96852086Y-111327527D01*
X96870036Y-111333551D01*
X96886972Y-111340461D01*
X96904239Y-111348317D01*
X96919415Y-111355427D01*
X96961068Y-111380879D01*
X97008516Y-111419199D01*
X97056544Y-111465175D01*
X97099942Y-111513595D01*
X97133496Y-111559245D01*
X97146399Y-111582412D01*
X97158758Y-111609556D01*
X97169042Y-111634782D01*
X97177440Y-111660294D01*
X97184144Y-111688295D01*
X97189346Y-111720989D01*
X97193237Y-111760580D01*
X97196008Y-111809271D01*
X97197850Y-111869266D01*
X97198955Y-111942768D01*
X97199514Y-112031983D01*
X97199719Y-112139112D01*
X97199747Y-112196970D01*
X97199679Y-112310732D01*
X97199362Y-112405377D01*
X97198728Y-112482953D01*
X97197712Y-112545508D01*
X97196246Y-112595090D01*
X97194263Y-112633748D01*
X97191696Y-112663529D01*
X97188479Y-112686484D01*
X97184545Y-112704658D01*
X97182988Y-112710261D01*
X97144744Y-112805460D01*
X97089948Y-112891136D01*
X97021108Y-112964978D01*
X96940729Y-113024672D01*
X96851317Y-113067906D01*
X96771950Y-113089650D01*
X96751365Y-113091642D01*
X96712338Y-113093438D01*
X96654603Y-113095039D01*
X96577893Y-113096448D01*
X96481942Y-113097667D01*
X96366484Y-113098698D01*
X96231252Y-113099543D01*
X96075979Y-113100205D01*
X95900399Y-113100687D01*
X95704246Y-113100989D01*
X95487253Y-113101115D01*
X95435804Y-113101120D01*
X94162456Y-113101120D01*
X94162456Y-112540203D01*
X96649540Y-112540203D01*
X96649540Y-111852287D01*
X95624071Y-111852287D01*
X95453694Y-111852275D01*
X95303158Y-111852223D01*
X95171137Y-111852106D01*
X95056304Y-111851897D01*
X94957333Y-111851572D01*
X94872898Y-111851105D01*
X94801674Y-111850470D01*
X94742334Y-111849643D01*
X94693552Y-111848596D01*
X94654001Y-111847306D01*
X94622357Y-111845746D01*
X94597293Y-111843892D01*
X94577482Y-111841716D01*
X94561599Y-111839195D01*
X94548317Y-111836303D01*
X94536311Y-111833014D01*
X94530578Y-111831276D01*
X94436299Y-111791518D01*
X94352243Y-111734776D01*
X94280740Y-111663473D01*
X94224124Y-111580033D01*
X94184726Y-111486878D01*
X94178679Y-111465625D01*
X94174076Y-111436552D01*
X94170156Y-111389245D01*
X94166917Y-111326623D01*
X94164360Y-111251606D01*
X94162486Y-111167114D01*
X94161294Y-111076069D01*
X94160784Y-110981390D01*
X94160957Y-110885997D01*
X94161812Y-110792810D01*
X94163349Y-110704751D01*
X94165570Y-110624738D01*
X94168472Y-110555693D01*
X94172058Y-110500535D01*
X94176326Y-110462185D01*
X94178661Y-110450435D01*
X94213463Y-110356900D01*
X94265630Y-110271653D01*
X94332477Y-110197213D01*
X94411315Y-110136096D01*
X94499459Y-110090821D01*
X94590379Y-110064590D01*
X94611970Y-110062483D01*
X94652607Y-110060595D01*
X94712514Y-110058925D01*
X94791912Y-110057470D01*
X94891024Y-110056229D01*
X95010072Y-110055199D01*
X95149279Y-110054378D01*
X95308866Y-110053764D01*
X95489058Y-110053354D01*
X95690075Y-110053148D01*
X95804817Y-110053120D01*
X96956456Y-110053120D01*
X96956456Y-110614037D01*
G37*
X96956456Y-110614037D02*
X94723373Y-110614037D01*
X94723373Y-111301953D01*
X95742019Y-111302079D01*
X95915226Y-111302098D01*
X96068611Y-111302150D01*
X96203516Y-111302296D01*
X96321286Y-111302597D01*
X96423262Y-111303115D01*
X96510791Y-111303908D01*
X96585213Y-111305040D01*
X96647875Y-111306570D01*
X96700118Y-111308559D01*
X96743286Y-111311069D01*
X96778724Y-111314160D01*
X96807774Y-111317892D01*
X96831780Y-111322328D01*
X96852086Y-111327527D01*
X96870036Y-111333551D01*
X96886972Y-111340461D01*
X96904239Y-111348317D01*
X96919415Y-111355427D01*
X96961068Y-111380879D01*
X97008516Y-111419199D01*
X97056544Y-111465175D01*
X97099942Y-111513595D01*
X97133496Y-111559245D01*
X97146399Y-111582412D01*
X97158758Y-111609556D01*
X97169042Y-111634782D01*
X97177440Y-111660294D01*
X97184144Y-111688295D01*
X97189346Y-111720989D01*
X97193237Y-111760580D01*
X97196008Y-111809271D01*
X97197850Y-111869266D01*
X97198955Y-111942768D01*
X97199514Y-112031983D01*
X97199719Y-112139112D01*
X97199747Y-112196970D01*
X97199679Y-112310732D01*
X97199362Y-112405377D01*
X97198728Y-112482953D01*
X97197712Y-112545508D01*
X97196246Y-112595090D01*
X97194263Y-112633748D01*
X97191696Y-112663529D01*
X97188479Y-112686484D01*
X97184545Y-112704658D01*
X97182988Y-112710261D01*
X97144744Y-112805460D01*
X97089948Y-112891136D01*
X97021108Y-112964978D01*
X96940729Y-113024672D01*
X96851317Y-113067906D01*
X96771950Y-113089650D01*
X96751365Y-113091642D01*
X96712338Y-113093438D01*
X96654603Y-113095039D01*
X96577893Y-113096448D01*
X96481942Y-113097667D01*
X96366484Y-113098698D01*
X96231252Y-113099543D01*
X96075979Y-113100205D01*
X95900399Y-113100687D01*
X95704246Y-113100989D01*
X95487253Y-113101115D01*
X95435804Y-113101120D01*
X94162456Y-113101120D01*
X94162456Y-112540203D01*
X96649540Y-112540203D01*
X96649540Y-111852287D01*
X95624071Y-111852287D01*
X95453694Y-111852275D01*
X95303158Y-111852223D01*
X95171137Y-111852106D01*
X95056304Y-111851897D01*
X94957333Y-111851572D01*
X94872898Y-111851105D01*
X94801674Y-111850470D01*
X94742334Y-111849643D01*
X94693552Y-111848596D01*
X94654001Y-111847306D01*
X94622357Y-111845746D01*
X94597293Y-111843892D01*
X94577482Y-111841716D01*
X94561599Y-111839195D01*
X94548317Y-111836303D01*
X94536311Y-111833014D01*
X94530578Y-111831276D01*
X94436299Y-111791518D01*
X94352243Y-111734776D01*
X94280740Y-111663473D01*
X94224124Y-111580033D01*
X94184726Y-111486878D01*
X94178679Y-111465625D01*
X94174076Y-111436552D01*
X94170156Y-111389245D01*
X94166917Y-111326623D01*
X94164360Y-111251606D01*
X94162486Y-111167114D01*
X94161294Y-111076069D01*
X94160784Y-110981390D01*
X94160957Y-110885997D01*
X94161812Y-110792810D01*
X94163349Y-110704751D01*
X94165570Y-110624738D01*
X94168472Y-110555693D01*
X94172058Y-110500535D01*
X94176326Y-110462185D01*
X94178661Y-110450435D01*
X94213463Y-110356900D01*
X94265630Y-110271653D01*
X94332477Y-110197213D01*
X94411315Y-110136096D01*
X94499459Y-110090821D01*
X94590379Y-110064590D01*
X94611970Y-110062483D01*
X94652607Y-110060595D01*
X94712514Y-110058925D01*
X94791912Y-110057470D01*
X94891024Y-110056229D01*
X95010072Y-110055199D01*
X95149279Y-110054378D01*
X95308866Y-110053764D01*
X95489058Y-110053354D01*
X95690075Y-110053148D01*
X95804817Y-110053120D01*
X96956456Y-110053120D01*
X96956456Y-110614037D01*
G36*
X98279373Y-110821545D02*
G01*
X98883863Y-111323687D01*
X98981709Y-111404852D01*
X99074918Y-111481950D01*
X99162199Y-111553928D01*
X99242262Y-111619730D01*
X99313816Y-111678303D01*
X99375569Y-111728593D01*
X99426231Y-111769544D01*
X99464511Y-111800103D01*
X99489117Y-111819216D01*
X99498758Y-111825828D01*
X99498760Y-111825828D01*
X99508380Y-111819213D01*
X99532943Y-111800072D01*
X99571160Y-111769462D01*
X99621739Y-111728442D01*
X99683391Y-111678067D01*
X99754826Y-111619395D01*
X99834752Y-111553483D01*
X99921881Y-111481388D01*
X100014921Y-111404168D01*
X100111890Y-111323457D01*
X100714614Y-110821086D01*
X100707114Y-110193686D01*
X100699614Y-109566287D01*
X101263873Y-109566287D01*
X101263716Y-110230391D01*
X101263649Y-110373528D01*
X101263434Y-110497205D01*
X101262944Y-110603126D01*
X101262050Y-110692999D01*
X101260623Y-110768528D01*
X101258537Y-110831419D01*
X101255662Y-110883378D01*
X101251871Y-110926112D01*
X101247036Y-110961325D01*
X101241027Y-110990724D01*
X101233718Y-111016014D01*
X101224981Y-111038902D01*
X101214686Y-111061092D01*
X101202706Y-111084292D01*
X101199059Y-111091149D01*
X101173333Y-111133074D01*
X101142091Y-111175398D01*
X101122414Y-111197967D01*
X101107443Y-111211851D01*
X101077512Y-111238126D01*
X101033950Y-111275667D01*
X100978087Y-111323351D01*
X100911253Y-111380052D01*
X100834776Y-111444646D01*
X100749987Y-111516009D01*
X100658215Y-111593015D01*
X100560789Y-111674542D01*
X100459039Y-111759463D01*
X100424962Y-111787855D01*
X99771623Y-112331965D01*
X99771623Y-113587953D01*
X99221290Y-113587953D01*
X99220971Y-112960891D01*
X99220652Y-112333828D01*
X98540991Y-111767620D01*
X98414139Y-111661913D01*
X98302511Y-111568734D01*
X98205065Y-111487069D01*
X98120760Y-111415905D01*
X98048552Y-111354226D01*
X97987399Y-111301020D01*
X97936259Y-111255271D01*
X97894088Y-111215966D01*
X97859845Y-111182091D01*
X97832487Y-111152631D01*
X97810972Y-111126572D01*
X97794256Y-111102901D01*
X97781298Y-111080603D01*
X97771055Y-111058664D01*
X97762484Y-111036070D01*
X97754543Y-111011807D01*
X97750446Y-110998613D01*
X97746137Y-110983944D01*
X97742448Y-110968825D01*
X97739331Y-110951572D01*
X97736737Y-110930500D01*
X97734620Y-110903925D01*
X97732929Y-110870163D01*
X97731619Y-110827530D01*
X97730640Y-110774341D01*
X97729945Y-110708912D01*
X97729486Y-110629559D01*
X97729214Y-110534597D01*
X97729082Y-110422342D01*
X97729041Y-110291111D01*
X97729040Y-110247797D01*
X97729040Y-109566287D01*
X98279373Y-109566287D01*
X98279373Y-110821545D01*
G37*
X98279373Y-110821545D02*
X98883863Y-111323687D01*
X98981709Y-111404852D01*
X99074918Y-111481950D01*
X99162199Y-111553928D01*
X99242262Y-111619730D01*
X99313816Y-111678303D01*
X99375569Y-111728593D01*
X99426231Y-111769544D01*
X99464511Y-111800103D01*
X99489117Y-111819216D01*
X99498758Y-111825828D01*
X99498760Y-111825828D01*
X99508380Y-111819213D01*
X99532943Y-111800072D01*
X99571160Y-111769462D01*
X99621739Y-111728442D01*
X99683391Y-111678067D01*
X99754826Y-111619395D01*
X99834752Y-111553483D01*
X99921881Y-111481388D01*
X100014921Y-111404168D01*
X100111890Y-111323457D01*
X100714614Y-110821086D01*
X100707114Y-110193686D01*
X100699614Y-109566287D01*
X101263873Y-109566287D01*
X101263716Y-110230391D01*
X101263649Y-110373528D01*
X101263434Y-110497205D01*
X101262944Y-110603126D01*
X101262050Y-110692999D01*
X101260623Y-110768528D01*
X101258537Y-110831419D01*
X101255662Y-110883378D01*
X101251871Y-110926112D01*
X101247036Y-110961325D01*
X101241027Y-110990724D01*
X101233718Y-111016014D01*
X101224981Y-111038902D01*
X101214686Y-111061092D01*
X101202706Y-111084292D01*
X101199059Y-111091149D01*
X101173333Y-111133074D01*
X101142091Y-111175398D01*
X101122414Y-111197967D01*
X101107443Y-111211851D01*
X101077512Y-111238126D01*
X101033950Y-111275667D01*
X100978087Y-111323351D01*
X100911253Y-111380052D01*
X100834776Y-111444646D01*
X100749987Y-111516009D01*
X100658215Y-111593015D01*
X100560789Y-111674542D01*
X100459039Y-111759463D01*
X100424962Y-111787855D01*
X99771623Y-112331965D01*
X99771623Y-113587953D01*
X99221290Y-113587953D01*
X99220971Y-112960891D01*
X99220652Y-112333828D01*
X98540991Y-111767620D01*
X98414139Y-111661913D01*
X98302511Y-111568734D01*
X98205065Y-111487069D01*
X98120760Y-111415905D01*
X98048552Y-111354226D01*
X97987399Y-111301020D01*
X97936259Y-111255271D01*
X97894088Y-111215966D01*
X97859845Y-111182091D01*
X97832487Y-111152631D01*
X97810972Y-111126572D01*
X97794256Y-111102901D01*
X97781298Y-111080603D01*
X97771055Y-111058664D01*
X97762484Y-111036070D01*
X97754543Y-111011807D01*
X97750446Y-110998613D01*
X97746137Y-110983944D01*
X97742448Y-110968825D01*
X97739331Y-110951572D01*
X97736737Y-110930500D01*
X97734620Y-110903925D01*
X97732929Y-110870163D01*
X97731619Y-110827530D01*
X97730640Y-110774341D01*
X97729945Y-110708912D01*
X97729486Y-110629559D01*
X97729214Y-110534597D01*
X97729082Y-110422342D01*
X97729041Y-110291111D01*
X97729040Y-110247797D01*
X97729040Y-109566287D01*
X98279373Y-109566287D01*
X98279373Y-110821545D01*
G36*
X82012577Y-99477130D02*
G01*
X82078723Y-99477184D01*
X82134154Y-99477314D01*
X82179864Y-99477554D01*
X82216847Y-99477937D01*
X82246097Y-99478495D01*
X82268609Y-99479261D01*
X82285376Y-99480268D01*
X82297393Y-99481550D01*
X82305653Y-99483139D01*
X82311151Y-99485069D01*
X82314881Y-99487371D01*
X82317579Y-99489822D01*
X82328625Y-99505394D01*
X82327594Y-99519295D01*
X82318667Y-99530123D01*
X82315336Y-99532334D01*
X82309969Y-99534215D01*
X82301593Y-99535791D01*
X82289239Y-99537089D01*
X82271936Y-99538136D01*
X82248713Y-99538957D01*
X82218600Y-99539580D01*
X82180626Y-99540031D01*
X82133820Y-99540335D01*
X82077212Y-99540519D01*
X82009831Y-99540611D01*
X81931674Y-99540635D01*
X81852424Y-99540606D01*
X81784922Y-99540502D01*
X81728210Y-99540299D01*
X81681334Y-99539973D01*
X81643337Y-99539497D01*
X81613263Y-99538848D01*
X81590156Y-99538000D01*
X81573060Y-99536929D01*
X81561020Y-99535611D01*
X81553079Y-99534019D01*
X81548281Y-99532131D01*
X81546315Y-99530654D01*
X81537186Y-99514367D01*
X81540116Y-99497943D01*
X81550450Y-99487006D01*
X81554652Y-99484900D01*
X81561415Y-99483111D01*
X81571710Y-99481613D01*
X81586507Y-99480381D01*
X81606777Y-99479391D01*
X81633490Y-99478617D01*
X81667616Y-99478036D01*
X81710127Y-99477620D01*
X81761992Y-99477347D01*
X81824181Y-99477190D01*
X81897667Y-99477125D01*
X81934721Y-99477119D01*
X82012577Y-99477130D01*
G37*
X82012577Y-99477130D02*
X82078723Y-99477184D01*
X82134154Y-99477314D01*
X82179864Y-99477554D01*
X82216847Y-99477937D01*
X82246097Y-99478495D01*
X82268609Y-99479261D01*
X82285376Y-99480268D01*
X82297393Y-99481550D01*
X82305653Y-99483139D01*
X82311151Y-99485069D01*
X82314881Y-99487371D01*
X82317579Y-99489822D01*
X82328625Y-99505394D01*
X82327594Y-99519295D01*
X82318667Y-99530123D01*
X82315336Y-99532334D01*
X82309969Y-99534215D01*
X82301593Y-99535791D01*
X82289239Y-99537089D01*
X82271936Y-99538136D01*
X82248713Y-99538957D01*
X82218600Y-99539580D01*
X82180626Y-99540031D01*
X82133820Y-99540335D01*
X82077212Y-99540519D01*
X82009831Y-99540611D01*
X81931674Y-99540635D01*
X81852424Y-99540606D01*
X81784922Y-99540502D01*
X81728210Y-99540299D01*
X81681334Y-99539973D01*
X81643337Y-99539497D01*
X81613263Y-99538848D01*
X81590156Y-99538000D01*
X81573060Y-99536929D01*
X81561020Y-99535611D01*
X81553079Y-99534019D01*
X81548281Y-99532131D01*
X81546315Y-99530654D01*
X81537186Y-99514367D01*
X81540116Y-99497943D01*
X81550450Y-99487006D01*
X81554652Y-99484900D01*
X81561415Y-99483111D01*
X81571710Y-99481613D01*
X81586507Y-99480381D01*
X81606777Y-99479391D01*
X81633490Y-99478617D01*
X81667616Y-99478036D01*
X81710127Y-99477620D01*
X81761992Y-99477347D01*
X81824181Y-99477190D01*
X81897667Y-99477125D01*
X81934721Y-99477119D01*
X82012577Y-99477130D01*
G36*
X82036873Y-99292931D02*
G01*
X82129008Y-99292963D01*
X82209925Y-99293033D01*
X82280369Y-99293154D01*
X82341080Y-99293340D01*
X82392803Y-99293603D01*
X82436280Y-99293958D01*
X82472254Y-99294417D01*
X82501467Y-99294994D01*
X82524664Y-99295702D01*
X82542586Y-99296554D01*
X82555977Y-99297564D01*
X82565579Y-99298746D01*
X82572136Y-99300111D01*
X82576390Y-99301675D01*
X82579083Y-99303449D01*
X82580186Y-99304538D01*
X82589748Y-99321330D01*
X82586701Y-99337032D01*
X82579082Y-99345927D01*
X82576416Y-99347653D01*
X82571969Y-99349180D01*
X82565003Y-99350521D01*
X82554780Y-99351688D01*
X82540562Y-99352692D01*
X82521611Y-99353545D01*
X82497189Y-99354260D01*
X82466559Y-99354849D01*
X82428982Y-99355323D01*
X82383721Y-99355694D01*
X82330038Y-99355975D01*
X82267194Y-99356177D01*
X82194452Y-99356312D01*
X82111074Y-99356393D01*
X82016323Y-99356431D01*
X81931674Y-99356439D01*
X81826969Y-99356424D01*
X81734238Y-99356371D01*
X81652753Y-99356270D01*
X81581784Y-99356108D01*
X81520602Y-99355875D01*
X81468479Y-99355560D01*
X81424685Y-99355150D01*
X81388492Y-99354635D01*
X81359171Y-99354004D01*
X81335992Y-99353245D01*
X81318227Y-99352348D01*
X81305147Y-99351299D01*
X81296023Y-99350090D01*
X81290125Y-99348707D01*
X81286726Y-99347141D01*
X81285900Y-99346458D01*
X81277708Y-99333189D01*
X81275919Y-99324681D01*
X81280215Y-99310704D01*
X81285900Y-99302904D01*
X81288499Y-99301262D01*
X81293303Y-99299808D01*
X81301040Y-99298531D01*
X81312438Y-99297420D01*
X81328226Y-99296463D01*
X81349131Y-99295650D01*
X81375882Y-99294969D01*
X81409207Y-99294409D01*
X81449835Y-99293958D01*
X81498494Y-99293605D01*
X81555911Y-99293340D01*
X81622817Y-99293151D01*
X81699938Y-99293026D01*
X81788003Y-99292955D01*
X81887740Y-99292925D01*
X81932777Y-99292923D01*
X82036873Y-99292931D01*
G37*
X82036873Y-99292931D02*
X82129008Y-99292963D01*
X82209925Y-99293033D01*
X82280369Y-99293154D01*
X82341080Y-99293340D01*
X82392803Y-99293603D01*
X82436280Y-99293958D01*
X82472254Y-99294417D01*
X82501467Y-99294994D01*
X82524664Y-99295702D01*
X82542586Y-99296554D01*
X82555977Y-99297564D01*
X82565579Y-99298746D01*
X82572136Y-99300111D01*
X82576390Y-99301675D01*
X82579083Y-99303449D01*
X82580186Y-99304538D01*
X82589748Y-99321330D01*
X82586701Y-99337032D01*
X82579082Y-99345927D01*
X82576416Y-99347653D01*
X82571969Y-99349180D01*
X82565003Y-99350521D01*
X82554780Y-99351688D01*
X82540562Y-99352692D01*
X82521611Y-99353545D01*
X82497189Y-99354260D01*
X82466559Y-99354849D01*
X82428982Y-99355323D01*
X82383721Y-99355694D01*
X82330038Y-99355975D01*
X82267194Y-99356177D01*
X82194452Y-99356312D01*
X82111074Y-99356393D01*
X82016323Y-99356431D01*
X81931674Y-99356439D01*
X81826969Y-99356424D01*
X81734238Y-99356371D01*
X81652753Y-99356270D01*
X81581784Y-99356108D01*
X81520602Y-99355875D01*
X81468479Y-99355560D01*
X81424685Y-99355150D01*
X81388492Y-99354635D01*
X81359171Y-99354004D01*
X81335992Y-99353245D01*
X81318227Y-99352348D01*
X81305147Y-99351299D01*
X81296023Y-99350090D01*
X81290125Y-99348707D01*
X81286726Y-99347141D01*
X81285900Y-99346458D01*
X81277708Y-99333189D01*
X81275919Y-99324681D01*
X81280215Y-99310704D01*
X81285900Y-99302904D01*
X81288499Y-99301262D01*
X81293303Y-99299808D01*
X81301040Y-99298531D01*
X81312438Y-99297420D01*
X81328226Y-99296463D01*
X81349131Y-99295650D01*
X81375882Y-99294969D01*
X81409207Y-99294409D01*
X81449835Y-99293958D01*
X81498494Y-99293605D01*
X81555911Y-99293340D01*
X81622817Y-99293151D01*
X81699938Y-99293026D01*
X81788003Y-99292955D01*
X81887740Y-99292925D01*
X81932777Y-99292923D01*
X82036873Y-99292931D01*
G36*
X82035999Y-99102390D02*
G01*
X82129073Y-99102442D01*
X82210897Y-99102543D01*
X82282197Y-99102703D01*
X82343701Y-99102934D01*
X82396134Y-99103247D01*
X82440224Y-99103653D01*
X82476697Y-99104164D01*
X82506280Y-99104789D01*
X82529699Y-99105542D01*
X82547681Y-99106432D01*
X82560953Y-99107471D01*
X82570241Y-99108670D01*
X82576271Y-99110040D01*
X82579771Y-99111592D01*
X82580716Y-99112356D01*
X82589845Y-99128643D01*
X82586916Y-99145067D01*
X82576581Y-99156004D01*
X82573209Y-99157642D01*
X82567564Y-99159092D01*
X82558910Y-99160365D01*
X82546510Y-99161471D01*
X82529630Y-99162421D01*
X82507533Y-99163229D01*
X82479484Y-99163903D01*
X82444747Y-99164457D01*
X82402586Y-99164901D01*
X82352266Y-99165246D01*
X82293050Y-99165504D01*
X82224203Y-99165686D01*
X82144990Y-99165804D01*
X82054674Y-99165868D01*
X81952520Y-99165891D01*
X81933308Y-99165891D01*
X81829000Y-99165875D01*
X81736659Y-99165819D01*
X81655549Y-99165711D01*
X81584936Y-99165541D01*
X81524083Y-99165297D01*
X81472254Y-99164968D01*
X81428714Y-99164542D01*
X81392726Y-99164009D01*
X81363556Y-99163356D01*
X81340468Y-99162573D01*
X81322725Y-99161648D01*
X81309592Y-99160571D01*
X81300333Y-99159328D01*
X81294213Y-99157910D01*
X81290495Y-99156306D01*
X81290035Y-99156004D01*
X81278806Y-99141930D01*
X81276439Y-99124800D01*
X81283541Y-99109997D01*
X81287787Y-99108686D01*
X81298134Y-99107520D01*
X81315149Y-99106493D01*
X81339402Y-99105598D01*
X81371460Y-99104828D01*
X81411894Y-99104177D01*
X81461270Y-99103638D01*
X81520159Y-99103204D01*
X81589129Y-99102869D01*
X81668748Y-99102626D01*
X81759585Y-99102468D01*
X81862209Y-99102388D01*
X81930949Y-99102375D01*
X82035999Y-99102390D01*
G37*
X82035999Y-99102390D02*
X82129073Y-99102442D01*
X82210897Y-99102543D01*
X82282197Y-99102703D01*
X82343701Y-99102934D01*
X82396134Y-99103247D01*
X82440224Y-99103653D01*
X82476697Y-99104164D01*
X82506280Y-99104789D01*
X82529699Y-99105542D01*
X82547681Y-99106432D01*
X82560953Y-99107471D01*
X82570241Y-99108670D01*
X82576271Y-99110040D01*
X82579771Y-99111592D01*
X82580716Y-99112356D01*
X82589845Y-99128643D01*
X82586916Y-99145067D01*
X82576581Y-99156004D01*
X82573209Y-99157642D01*
X82567564Y-99159092D01*
X82558910Y-99160365D01*
X82546510Y-99161471D01*
X82529630Y-99162421D01*
X82507533Y-99163229D01*
X82479484Y-99163903D01*
X82444747Y-99164457D01*
X82402586Y-99164901D01*
X82352266Y-99165246D01*
X82293050Y-99165504D01*
X82224203Y-99165686D01*
X82144990Y-99165804D01*
X82054674Y-99165868D01*
X81952520Y-99165891D01*
X81933308Y-99165891D01*
X81829000Y-99165875D01*
X81736659Y-99165819D01*
X81655549Y-99165711D01*
X81584936Y-99165541D01*
X81524083Y-99165297D01*
X81472254Y-99164968D01*
X81428714Y-99164542D01*
X81392726Y-99164009D01*
X81363556Y-99163356D01*
X81340468Y-99162573D01*
X81322725Y-99161648D01*
X81309592Y-99160571D01*
X81300333Y-99159328D01*
X81294213Y-99157910D01*
X81290495Y-99156306D01*
X81290035Y-99156004D01*
X81278806Y-99141930D01*
X81276439Y-99124800D01*
X81283541Y-99109997D01*
X81287787Y-99108686D01*
X81298134Y-99107520D01*
X81315149Y-99106493D01*
X81339402Y-99105598D01*
X81371460Y-99104828D01*
X81411894Y-99104177D01*
X81461270Y-99103638D01*
X81520159Y-99103204D01*
X81589129Y-99102869D01*
X81668748Y-99102626D01*
X81759585Y-99102468D01*
X81862209Y-99102388D01*
X81930949Y-99102375D01*
X82035999Y-99102390D01*
G36*
X81741927Y-98900332D02*
G01*
X81845451Y-98900480D01*
X81936479Y-98900682D01*
X82041414Y-98900958D01*
X82134373Y-98901234D01*
X82216087Y-98901526D01*
X82287283Y-98901845D01*
X82348690Y-98902208D01*
X82401037Y-98902626D01*
X82445052Y-98903113D01*
X82481464Y-98903684D01*
X82511001Y-98904352D01*
X82534392Y-98905131D01*
X82552366Y-98906035D01*
X82565651Y-98907077D01*
X82574975Y-98908270D01*
X82581068Y-98909630D01*
X82584657Y-98911168D01*
X82586472Y-98912900D01*
X82586486Y-98912922D01*
X82589740Y-98926906D01*
X82585726Y-98939917D01*
X82578267Y-98956289D01*
X81934715Y-98956289D01*
X81824275Y-98956254D01*
X81725972Y-98956145D01*
X81639237Y-98955956D01*
X81563504Y-98955680D01*
X81498205Y-98955310D01*
X81442773Y-98954839D01*
X81396641Y-98954261D01*
X81359243Y-98953570D01*
X81330010Y-98952758D01*
X81308375Y-98951819D01*
X81293772Y-98950746D01*
X81285633Y-98949534D01*
X81283541Y-98948667D01*
X81276775Y-98934484D01*
X81277583Y-98917732D01*
X81284546Y-98906223D01*
X81289875Y-98904973D01*
X81302963Y-98903879D01*
X81324268Y-98902940D01*
X81354246Y-98902149D01*
X81393357Y-98901505D01*
X81442058Y-98901002D01*
X81500807Y-98900637D01*
X81570063Y-98900407D01*
X81650284Y-98900306D01*
X81741927Y-98900332D01*
G37*
X81741927Y-98900332D02*
X81845451Y-98900480D01*
X81936479Y-98900682D01*
X82041414Y-98900958D01*
X82134373Y-98901234D01*
X82216087Y-98901526D01*
X82287283Y-98901845D01*
X82348690Y-98902208D01*
X82401037Y-98902626D01*
X82445052Y-98903113D01*
X82481464Y-98903684D01*
X82511001Y-98904352D01*
X82534392Y-98905131D01*
X82552366Y-98906035D01*
X82565651Y-98907077D01*
X82574975Y-98908270D01*
X82581068Y-98909630D01*
X82584657Y-98911168D01*
X82586472Y-98912900D01*
X82586486Y-98912922D01*
X82589740Y-98926906D01*
X82585726Y-98939917D01*
X82578267Y-98956289D01*
X81934715Y-98956289D01*
X81824275Y-98956254D01*
X81725972Y-98956145D01*
X81639237Y-98955956D01*
X81563504Y-98955680D01*
X81498205Y-98955310D01*
X81442773Y-98954839D01*
X81396641Y-98954261D01*
X81359243Y-98953570D01*
X81330010Y-98952758D01*
X81308375Y-98951819D01*
X81293772Y-98950746D01*
X81285633Y-98949534D01*
X81283541Y-98948667D01*
X81276775Y-98934484D01*
X81277583Y-98917732D01*
X81284546Y-98906223D01*
X81289875Y-98904973D01*
X81302963Y-98903879D01*
X81324268Y-98902940D01*
X81354246Y-98902149D01*
X81393357Y-98901505D01*
X81442058Y-98901002D01*
X81500807Y-98900637D01*
X81570063Y-98900407D01*
X81650284Y-98900306D01*
X81741927Y-98900332D01*
G36*
X81968440Y-96790744D02*
G01*
X81985085Y-96802805D01*
X82005962Y-96820086D01*
X82017674Y-96830031D01*
X82067653Y-96875494D01*
X82110667Y-96920805D01*
X82145901Y-96964817D01*
X82172538Y-97006382D01*
X82189763Y-97044352D01*
X82196759Y-97077580D01*
X82196875Y-97081997D01*
X82193902Y-97108740D01*
X82184247Y-97130934D01*
X82166738Y-97149457D01*
X82140204Y-97165186D01*
X82103471Y-97178998D01*
X82055367Y-97191770D01*
X82047858Y-97193481D01*
X81984121Y-97207767D01*
X81980605Y-97385953D01*
X82010945Y-97390492D01*
X82048474Y-97398065D01*
X82086192Y-97409080D01*
X82120697Y-97422274D01*
X82148585Y-97436385D01*
X82163385Y-97447059D01*
X82178290Y-97463209D01*
X82185821Y-97479998D01*
X82188755Y-97498993D01*
X82187890Y-97526182D01*
X82179264Y-97549496D01*
X82162030Y-97569508D01*
X82135342Y-97586792D01*
X82098352Y-97601922D01*
X82050214Y-97615472D01*
X82001588Y-97625853D01*
X81980945Y-97629816D01*
X81980945Y-97754215D01*
X82007672Y-97758489D01*
X82036976Y-97764953D01*
X82070684Y-97775098D01*
X82104397Y-97787346D01*
X82133713Y-97800121D01*
X82151668Y-97810071D01*
X82176063Y-97831903D01*
X82188731Y-97856534D01*
X82189419Y-97882576D01*
X82177875Y-97908639D01*
X82171110Y-97917270D01*
X82144774Y-97938479D01*
X82106309Y-97955937D01*
X82055720Y-97969641D01*
X82032635Y-97973979D01*
X81984121Y-97982163D01*
X81982334Y-98056074D01*
X81980547Y-98129986D01*
X82007740Y-98136778D01*
X82054345Y-98148783D01*
X82090402Y-98159104D01*
X82117820Y-98168547D01*
X82138507Y-98177920D01*
X82154371Y-98188028D01*
X82167321Y-98199680D01*
X82173870Y-98207010D01*
X82187968Y-98232513D01*
X82190307Y-98259742D01*
X82180868Y-98285984D01*
X82174520Y-98294741D01*
X82161026Y-98307846D01*
X82142337Y-98320431D01*
X82116620Y-98333439D01*
X82082042Y-98347811D01*
X82042779Y-98362350D01*
X81984121Y-98383291D01*
X81982427Y-98553350D01*
X81981791Y-98607094D01*
X81980948Y-98649474D01*
X81979706Y-98681826D01*
X81977875Y-98705489D01*
X81975265Y-98721800D01*
X81971683Y-98732098D01*
X81966940Y-98737720D01*
X81960844Y-98740005D01*
X81955746Y-98740335D01*
X81946623Y-98736720D01*
X81929791Y-98726869D01*
X81907621Y-98712272D01*
X81882488Y-98694419D01*
X81881656Y-98693806D01*
X81824227Y-98648737D01*
X81778803Y-98606937D01*
X81745184Y-98568159D01*
X81723166Y-98532157D01*
X81712549Y-98498685D01*
X81711447Y-98485776D01*
X81711732Y-98480906D01*
X81760175Y-98480906D01*
X81762152Y-98493267D01*
X81764724Y-98501342D01*
X81774668Y-98520443D01*
X81792690Y-98544729D01*
X81816643Y-98571845D01*
X81844383Y-98599437D01*
X81873762Y-98625150D01*
X81887057Y-98635564D01*
X81905628Y-98649287D01*
X81919918Y-98659402D01*
X81927238Y-98664015D01*
X81927586Y-98664116D01*
X81928343Y-98658074D01*
X81929011Y-98641187D01*
X81929553Y-98615312D01*
X81929935Y-98582307D01*
X81930120Y-98544030D01*
X81930132Y-98531036D01*
X81930132Y-98397957D01*
X81899962Y-98407018D01*
X81847984Y-98424282D01*
X81808130Y-98441184D01*
X81780662Y-98457610D01*
X81777546Y-98460092D01*
X81764736Y-98471685D01*
X81760175Y-98480906D01*
X81711732Y-98480906D01*
X81712701Y-98464382D01*
X81718833Y-98448958D01*
X81730057Y-98435284D01*
X81757206Y-98413407D01*
X81796612Y-98391917D01*
X81847835Y-98371038D01*
X81874556Y-98361923D01*
X81930132Y-98343918D01*
X81930132Y-98254010D01*
X81980945Y-98254010D01*
X81981431Y-98283890D01*
X81982764Y-98307589D01*
X81984762Y-98322843D01*
X81986918Y-98327482D01*
X81995405Y-98325476D01*
X82012448Y-98320169D01*
X82034672Y-98312622D01*
X82039319Y-98310982D01*
X82083032Y-98293882D01*
X82114168Y-98278129D01*
X82132710Y-98263731D01*
X82138641Y-98250698D01*
X82138525Y-98249357D01*
X82130615Y-98235921D01*
X82111810Y-98222301D01*
X82083865Y-98209468D01*
X82048537Y-98198396D01*
X82044885Y-98197478D01*
X82021840Y-98191711D01*
X82002625Y-98186754D01*
X81992060Y-98183866D01*
X81987290Y-98183464D01*
X81984114Y-98186996D01*
X81982213Y-98196471D01*
X81981268Y-98213901D01*
X81980961Y-98241296D01*
X81980945Y-98254010D01*
X81930132Y-98254010D01*
X81930132Y-98170315D01*
X81904909Y-98166282D01*
X81886718Y-98162404D01*
X81861370Y-98155785D01*
X81833751Y-98147716D01*
X81828232Y-98145994D01*
X81798177Y-98135363D01*
X81775776Y-98124077D01*
X81756153Y-98109401D01*
X81745479Y-98099571D01*
X81728384Y-98082147D01*
X81718906Y-98068977D01*
X81714896Y-98056195D01*
X81714355Y-98046487D01*
X81764171Y-98046487D01*
X81772895Y-98060957D01*
X81793941Y-98075979D01*
X81827264Y-98091263D01*
X81869792Y-98105627D01*
X81896391Y-98113466D01*
X81913757Y-98116893D01*
X81923851Y-98114241D01*
X81928637Y-98103842D01*
X81930077Y-98084029D01*
X81930132Y-98054363D01*
X81930212Y-98025705D01*
X81929070Y-98006629D01*
X81924633Y-97995664D01*
X81914827Y-97991338D01*
X81897580Y-97992180D01*
X81870818Y-97996717D01*
X81853392Y-97999882D01*
X81812380Y-98009264D01*
X81783869Y-98020352D01*
X81767814Y-98032855D01*
X81764171Y-98046487D01*
X81714355Y-98046487D01*
X81714178Y-98043315D01*
X81717468Y-98019277D01*
X81728059Y-97999364D01*
X81747034Y-97982880D01*
X81775475Y-97969129D01*
X81814466Y-97957415D01*
X81863560Y-97947310D01*
X81926957Y-97936135D01*
X81928728Y-97866197D01*
X81980945Y-97866197D01*
X81980995Y-97895135D01*
X81982574Y-97913935D01*
X81987825Y-97924169D01*
X81998890Y-97927405D01*
X82017913Y-97925214D01*
X82047037Y-97919165D01*
X82051853Y-97918140D01*
X82088924Y-97908408D01*
X82116658Y-97897129D01*
X82133720Y-97884917D01*
X82137949Y-97878362D01*
X82136228Y-97866356D01*
X82123366Y-97853409D01*
X82100815Y-97840254D01*
X82070028Y-97827628D01*
X82032456Y-97816265D01*
X82001126Y-97809100D01*
X81980945Y-97805063D01*
X81980945Y-97866197D01*
X81928728Y-97866197D01*
X81928750Y-97865342D01*
X81930543Y-97794548D01*
X81903343Y-97787535D01*
X81848992Y-97773072D01*
X81805877Y-97760364D01*
X81772765Y-97748726D01*
X81748427Y-97737474D01*
X81731630Y-97725922D01*
X81721144Y-97713386D01*
X81715737Y-97699180D01*
X81714262Y-97683500D01*
X81766690Y-97683500D01*
X81770851Y-97690234D01*
X81785308Y-97698888D01*
X81807961Y-97708587D01*
X81836715Y-97718461D01*
X81869471Y-97727637D01*
X81877556Y-97729606D01*
X81926957Y-97741280D01*
X81928814Y-97690606D01*
X81929364Y-97666609D01*
X81929171Y-97648000D01*
X81928287Y-97638002D01*
X81927945Y-97637205D01*
X81920894Y-97637009D01*
X81904350Y-97638797D01*
X81881308Y-97642212D01*
X81869836Y-97644145D01*
X81833449Y-97651871D01*
X81803045Y-97661022D01*
X81780633Y-97670834D01*
X81768222Y-97680539D01*
X81766690Y-97683500D01*
X81714262Y-97683500D01*
X81714179Y-97682620D01*
X81714178Y-97682310D01*
X81720202Y-97658009D01*
X81738312Y-97636940D01*
X81768567Y-97619070D01*
X81811026Y-97604362D01*
X81865746Y-97592784D01*
X81866148Y-97592718D01*
X81930132Y-97582215D01*
X81930132Y-97498066D01*
X81980931Y-97498066D01*
X81980945Y-97508415D01*
X81980945Y-97578570D01*
X82004764Y-97574657D01*
X82023672Y-97570758D01*
X82048729Y-97564582D01*
X82070146Y-97558705D01*
X82104379Y-97545795D01*
X82126880Y-97530423D01*
X82137336Y-97512868D01*
X82137099Y-97498489D01*
X82128373Y-97484521D01*
X82109021Y-97471467D01*
X82078322Y-97458946D01*
X82041141Y-97448016D01*
X82015623Y-97441411D01*
X81998558Y-97438518D01*
X81988250Y-97441037D01*
X81983006Y-97450668D01*
X81981131Y-97469111D01*
X81980931Y-97498066D01*
X81930132Y-97498066D01*
X81930132Y-97425798D01*
X81912666Y-97421838D01*
X81866076Y-97410630D01*
X81829698Y-97400133D01*
X81801157Y-97389341D01*
X81778079Y-97377246D01*
X81758088Y-97362842D01*
X81744210Y-97350415D01*
X81722324Y-97322743D01*
X81712135Y-97293834D01*
X81712413Y-97289037D01*
X81764816Y-97289037D01*
X81773557Y-97307495D01*
X81792010Y-97325617D01*
X81813638Y-97338931D01*
X81827633Y-97344753D01*
X81849018Y-97352326D01*
X81873715Y-97360360D01*
X81897650Y-97367565D01*
X81916747Y-97372651D01*
X81925369Y-97374292D01*
X81927174Y-97368521D01*
X81928665Y-97352436D01*
X81929698Y-97328427D01*
X81930128Y-97298884D01*
X81930132Y-97295507D01*
X81930132Y-97216271D01*
X81909490Y-97219878D01*
X81883054Y-97225317D01*
X81853684Y-97232638D01*
X81824889Y-97240819D01*
X81800179Y-97248840D01*
X81783064Y-97255680D01*
X81779282Y-97257756D01*
X81766490Y-97271903D01*
X81764816Y-97289037D01*
X81712413Y-97289037D01*
X81713796Y-97265181D01*
X81727461Y-97238275D01*
X81732087Y-97232746D01*
X81755041Y-97214837D01*
X81789831Y-97198424D01*
X81835648Y-97183802D01*
X81891683Y-97171271D01*
X81906314Y-97168650D01*
X81930132Y-97164565D01*
X81930132Y-97157149D01*
X81980945Y-97157149D01*
X82011115Y-97151630D01*
X82033649Y-97146740D01*
X82061513Y-97139647D01*
X82083742Y-97133339D01*
X82116683Y-97120774D01*
X82137597Y-97106222D01*
X82147082Y-97089061D01*
X82145871Y-97069117D01*
X82130481Y-97033175D01*
X82103681Y-96992527D01*
X82065724Y-96947506D01*
X82016863Y-96898442D01*
X82014168Y-96895917D01*
X81980945Y-96864878D01*
X81980945Y-97157149D01*
X81930132Y-97157149D01*
X81930132Y-96981927D01*
X81930172Y-96922300D01*
X81930610Y-96874544D01*
X81931925Y-96837828D01*
X81934598Y-96811321D01*
X81939106Y-96794190D01*
X81945930Y-96785604D01*
X81955548Y-96784733D01*
X81968440Y-96790744D01*
G37*
X81968440Y-96790744D02*
X81985085Y-96802805D01*
X82005962Y-96820086D01*
X82017674Y-96830031D01*
X82067653Y-96875494D01*
X82110667Y-96920805D01*
X82145901Y-96964817D01*
X82172538Y-97006382D01*
X82189763Y-97044352D01*
X82196759Y-97077580D01*
X82196875Y-97081997D01*
X82193902Y-97108740D01*
X82184247Y-97130934D01*
X82166738Y-97149457D01*
X82140204Y-97165186D01*
X82103471Y-97178998D01*
X82055367Y-97191770D01*
X82047858Y-97193481D01*
X81984121Y-97207767D01*
X81980605Y-97385953D01*
X82010945Y-97390492D01*
X82048474Y-97398065D01*
X82086192Y-97409080D01*
X82120697Y-97422274D01*
X82148585Y-97436385D01*
X82163385Y-97447059D01*
X82178290Y-97463209D01*
X82185821Y-97479998D01*
X82188755Y-97498993D01*
X82187890Y-97526182D01*
X82179264Y-97549496D01*
X82162030Y-97569508D01*
X82135342Y-97586792D01*
X82098352Y-97601922D01*
X82050214Y-97615472D01*
X82001588Y-97625853D01*
X81980945Y-97629816D01*
X81980945Y-97754215D01*
X82007672Y-97758489D01*
X82036976Y-97764953D01*
X82070684Y-97775098D01*
X82104397Y-97787346D01*
X82133713Y-97800121D01*
X82151668Y-97810071D01*
X82176063Y-97831903D01*
X82188731Y-97856534D01*
X82189419Y-97882576D01*
X82177875Y-97908639D01*
X82171110Y-97917270D01*
X82144774Y-97938479D01*
X82106309Y-97955937D01*
X82055720Y-97969641D01*
X82032635Y-97973979D01*
X81984121Y-97982163D01*
X81982334Y-98056074D01*
X81980547Y-98129986D01*
X82007740Y-98136778D01*
X82054345Y-98148783D01*
X82090402Y-98159104D01*
X82117820Y-98168547D01*
X82138507Y-98177920D01*
X82154371Y-98188028D01*
X82167321Y-98199680D01*
X82173870Y-98207010D01*
X82187968Y-98232513D01*
X82190307Y-98259742D01*
X82180868Y-98285984D01*
X82174520Y-98294741D01*
X82161026Y-98307846D01*
X82142337Y-98320431D01*
X82116620Y-98333439D01*
X82082042Y-98347811D01*
X82042779Y-98362350D01*
X81984121Y-98383291D01*
X81982427Y-98553350D01*
X81981791Y-98607094D01*
X81980948Y-98649474D01*
X81979706Y-98681826D01*
X81977875Y-98705489D01*
X81975265Y-98721800D01*
X81971683Y-98732098D01*
X81966940Y-98737720D01*
X81960844Y-98740005D01*
X81955746Y-98740335D01*
X81946623Y-98736720D01*
X81929791Y-98726869D01*
X81907621Y-98712272D01*
X81882488Y-98694419D01*
X81881656Y-98693806D01*
X81824227Y-98648737D01*
X81778803Y-98606937D01*
X81745184Y-98568159D01*
X81723166Y-98532157D01*
X81712549Y-98498685D01*
X81711447Y-98485776D01*
X81711732Y-98480906D01*
X81760175Y-98480906D01*
X81762152Y-98493267D01*
X81764724Y-98501342D01*
X81774668Y-98520443D01*
X81792690Y-98544729D01*
X81816643Y-98571845D01*
X81844383Y-98599437D01*
X81873762Y-98625150D01*
X81887057Y-98635564D01*
X81905628Y-98649287D01*
X81919918Y-98659402D01*
X81927238Y-98664015D01*
X81927586Y-98664116D01*
X81928343Y-98658074D01*
X81929011Y-98641187D01*
X81929553Y-98615312D01*
X81929935Y-98582307D01*
X81930120Y-98544030D01*
X81930132Y-98531036D01*
X81930132Y-98397957D01*
X81899962Y-98407018D01*
X81847984Y-98424282D01*
X81808130Y-98441184D01*
X81780662Y-98457610D01*
X81777546Y-98460092D01*
X81764736Y-98471685D01*
X81760175Y-98480906D01*
X81711732Y-98480906D01*
X81712701Y-98464382D01*
X81718833Y-98448958D01*
X81730057Y-98435284D01*
X81757206Y-98413407D01*
X81796612Y-98391917D01*
X81847835Y-98371038D01*
X81874556Y-98361923D01*
X81930132Y-98343918D01*
X81930132Y-98254010D01*
X81980945Y-98254010D01*
X81981431Y-98283890D01*
X81982764Y-98307589D01*
X81984762Y-98322843D01*
X81986918Y-98327482D01*
X81995405Y-98325476D01*
X82012448Y-98320169D01*
X82034672Y-98312622D01*
X82039319Y-98310982D01*
X82083032Y-98293882D01*
X82114168Y-98278129D01*
X82132710Y-98263731D01*
X82138641Y-98250698D01*
X82138525Y-98249357D01*
X82130615Y-98235921D01*
X82111810Y-98222301D01*
X82083865Y-98209468D01*
X82048537Y-98198396D01*
X82044885Y-98197478D01*
X82021840Y-98191711D01*
X82002625Y-98186754D01*
X81992060Y-98183866D01*
X81987290Y-98183464D01*
X81984114Y-98186996D01*
X81982213Y-98196471D01*
X81981268Y-98213901D01*
X81980961Y-98241296D01*
X81980945Y-98254010D01*
X81930132Y-98254010D01*
X81930132Y-98170315D01*
X81904909Y-98166282D01*
X81886718Y-98162404D01*
X81861370Y-98155785D01*
X81833751Y-98147716D01*
X81828232Y-98145994D01*
X81798177Y-98135363D01*
X81775776Y-98124077D01*
X81756153Y-98109401D01*
X81745479Y-98099571D01*
X81728384Y-98082147D01*
X81718906Y-98068977D01*
X81714896Y-98056195D01*
X81714355Y-98046487D01*
X81764171Y-98046487D01*
X81772895Y-98060957D01*
X81793941Y-98075979D01*
X81827264Y-98091263D01*
X81869792Y-98105627D01*
X81896391Y-98113466D01*
X81913757Y-98116893D01*
X81923851Y-98114241D01*
X81928637Y-98103842D01*
X81930077Y-98084029D01*
X81930132Y-98054363D01*
X81930212Y-98025705D01*
X81929070Y-98006629D01*
X81924633Y-97995664D01*
X81914827Y-97991338D01*
X81897580Y-97992180D01*
X81870818Y-97996717D01*
X81853392Y-97999882D01*
X81812380Y-98009264D01*
X81783869Y-98020352D01*
X81767814Y-98032855D01*
X81764171Y-98046487D01*
X81714355Y-98046487D01*
X81714178Y-98043315D01*
X81717468Y-98019277D01*
X81728059Y-97999364D01*
X81747034Y-97982880D01*
X81775475Y-97969129D01*
X81814466Y-97957415D01*
X81863560Y-97947310D01*
X81926957Y-97936135D01*
X81928728Y-97866197D01*
X81980945Y-97866197D01*
X81980995Y-97895135D01*
X81982574Y-97913935D01*
X81987825Y-97924169D01*
X81998890Y-97927405D01*
X82017913Y-97925214D01*
X82047037Y-97919165D01*
X82051853Y-97918140D01*
X82088924Y-97908408D01*
X82116658Y-97897129D01*
X82133720Y-97884917D01*
X82137949Y-97878362D01*
X82136228Y-97866356D01*
X82123366Y-97853409D01*
X82100815Y-97840254D01*
X82070028Y-97827628D01*
X82032456Y-97816265D01*
X82001126Y-97809100D01*
X81980945Y-97805063D01*
X81980945Y-97866197D01*
X81928728Y-97866197D01*
X81928750Y-97865342D01*
X81930543Y-97794548D01*
X81903343Y-97787535D01*
X81848992Y-97773072D01*
X81805877Y-97760364D01*
X81772765Y-97748726D01*
X81748427Y-97737474D01*
X81731630Y-97725922D01*
X81721144Y-97713386D01*
X81715737Y-97699180D01*
X81714262Y-97683500D01*
X81766690Y-97683500D01*
X81770851Y-97690234D01*
X81785308Y-97698888D01*
X81807961Y-97708587D01*
X81836715Y-97718461D01*
X81869471Y-97727637D01*
X81877556Y-97729606D01*
X81926957Y-97741280D01*
X81928814Y-97690606D01*
X81929364Y-97666609D01*
X81929171Y-97648000D01*
X81928287Y-97638002D01*
X81927945Y-97637205D01*
X81920894Y-97637009D01*
X81904350Y-97638797D01*
X81881308Y-97642212D01*
X81869836Y-97644145D01*
X81833449Y-97651871D01*
X81803045Y-97661022D01*
X81780633Y-97670834D01*
X81768222Y-97680539D01*
X81766690Y-97683500D01*
X81714262Y-97683500D01*
X81714179Y-97682620D01*
X81714178Y-97682310D01*
X81720202Y-97658009D01*
X81738312Y-97636940D01*
X81768567Y-97619070D01*
X81811026Y-97604362D01*
X81865746Y-97592784D01*
X81866148Y-97592718D01*
X81930132Y-97582215D01*
X81930132Y-97498066D01*
X81980931Y-97498066D01*
X81980945Y-97508415D01*
X81980945Y-97578570D01*
X82004764Y-97574657D01*
X82023672Y-97570758D01*
X82048729Y-97564582D01*
X82070146Y-97558705D01*
X82104379Y-97545795D01*
X82126880Y-97530423D01*
X82137336Y-97512868D01*
X82137099Y-97498489D01*
X82128373Y-97484521D01*
X82109021Y-97471467D01*
X82078322Y-97458946D01*
X82041141Y-97448016D01*
X82015623Y-97441411D01*
X81998558Y-97438518D01*
X81988250Y-97441037D01*
X81983006Y-97450668D01*
X81981131Y-97469111D01*
X81980931Y-97498066D01*
X81930132Y-97498066D01*
X81930132Y-97425798D01*
X81912666Y-97421838D01*
X81866076Y-97410630D01*
X81829698Y-97400133D01*
X81801157Y-97389341D01*
X81778079Y-97377246D01*
X81758088Y-97362842D01*
X81744210Y-97350415D01*
X81722324Y-97322743D01*
X81712135Y-97293834D01*
X81712413Y-97289037D01*
X81764816Y-97289037D01*
X81773557Y-97307495D01*
X81792010Y-97325617D01*
X81813638Y-97338931D01*
X81827633Y-97344753D01*
X81849018Y-97352326D01*
X81873715Y-97360360D01*
X81897650Y-97367565D01*
X81916747Y-97372651D01*
X81925369Y-97374292D01*
X81927174Y-97368521D01*
X81928665Y-97352436D01*
X81929698Y-97328427D01*
X81930128Y-97298884D01*
X81930132Y-97295507D01*
X81930132Y-97216271D01*
X81909490Y-97219878D01*
X81883054Y-97225317D01*
X81853684Y-97232638D01*
X81824889Y-97240819D01*
X81800179Y-97248840D01*
X81783064Y-97255680D01*
X81779282Y-97257756D01*
X81766490Y-97271903D01*
X81764816Y-97289037D01*
X81712413Y-97289037D01*
X81713796Y-97265181D01*
X81727461Y-97238275D01*
X81732087Y-97232746D01*
X81755041Y-97214837D01*
X81789831Y-97198424D01*
X81835648Y-97183802D01*
X81891683Y-97171271D01*
X81906314Y-97168650D01*
X81930132Y-97164565D01*
X81930132Y-97157149D01*
X81980945Y-97157149D01*
X82011115Y-97151630D01*
X82033649Y-97146740D01*
X82061513Y-97139647D01*
X82083742Y-97133339D01*
X82116683Y-97120774D01*
X82137597Y-97106222D01*
X82147082Y-97089061D01*
X82145871Y-97069117D01*
X82130481Y-97033175D01*
X82103681Y-96992527D01*
X82065724Y-96947506D01*
X82016863Y-96898442D01*
X82014168Y-96895917D01*
X81980945Y-96864878D01*
X81980945Y-97157149D01*
X81930132Y-97157149D01*
X81930132Y-96981927D01*
X81930172Y-96922300D01*
X81930610Y-96874544D01*
X81931925Y-96837828D01*
X81934598Y-96811321D01*
X81939106Y-96794190D01*
X81945930Y-96785604D01*
X81955548Y-96784733D01*
X81968440Y-96790744D01*
G36*
X82075459Y-95398501D02*
G01*
X82131540Y-95405429D01*
X82261679Y-95430001D01*
X82384349Y-95464355D01*
X82499302Y-95508318D01*
X82606293Y-95561719D01*
X82705074Y-95624389D01*
X82795399Y-95696154D01*
X82877021Y-95776845D01*
X82949695Y-95866290D01*
X83013172Y-95964318D01*
X83056441Y-96047261D01*
X83103875Y-96161752D01*
X83139969Y-96280210D01*
X83164882Y-96403384D01*
X83178775Y-96532023D01*
X83182064Y-96634783D01*
X83181094Y-96706740D01*
X83177709Y-96773234D01*
X83171459Y-96836188D01*
X83161895Y-96897528D01*
X83148567Y-96959175D01*
X83131026Y-97023055D01*
X83108821Y-97091092D01*
X83081505Y-97165208D01*
X83048627Y-97247329D01*
X83026772Y-97299528D01*
X82980029Y-97410388D01*
X82938349Y-97510771D01*
X82901413Y-97601707D01*
X82868905Y-97684225D01*
X82840507Y-97759356D01*
X82815902Y-97828129D01*
X82794773Y-97891576D01*
X82776802Y-97950725D01*
X82761671Y-98006608D01*
X82749064Y-98060254D01*
X82738663Y-98112693D01*
X82730151Y-98164956D01*
X82723210Y-98218073D01*
X82717523Y-98273073D01*
X82713999Y-98314778D01*
X82702774Y-98404063D01*
X82683736Y-98486097D01*
X82657253Y-98559403D01*
X82648666Y-98577932D01*
X82632054Y-98608913D01*
X82613141Y-98639322D01*
X82593488Y-98667126D01*
X82574659Y-98690293D01*
X82558216Y-98706788D01*
X82545722Y-98714579D01*
X82543388Y-98714928D01*
X82536151Y-98709636D01*
X82527352Y-98696335D01*
X82524131Y-98689801D01*
X82512800Y-98664673D01*
X82542205Y-98631968D01*
X82576825Y-98584688D01*
X82605601Y-98526588D01*
X82628344Y-98458224D01*
X82644864Y-98380152D01*
X82654078Y-98304168D01*
X82660082Y-98241075D01*
X82667366Y-98180739D01*
X82676276Y-98122009D01*
X82687159Y-98063733D01*
X82700362Y-98004761D01*
X82716231Y-97943941D01*
X82735113Y-97880122D01*
X82757355Y-97812153D01*
X82783304Y-97738883D01*
X82813305Y-97659161D01*
X82847706Y-97571836D01*
X82886854Y-97475757D01*
X82931096Y-97369772D01*
X82946435Y-97333458D01*
X82977348Y-97260034D01*
X83003528Y-97196766D01*
X83025472Y-97142232D01*
X83043674Y-97095011D01*
X83058628Y-97053680D01*
X83070829Y-97016817D01*
X83080772Y-96983001D01*
X83088951Y-96950808D01*
X83095861Y-96918818D01*
X83101773Y-96886903D01*
X83117979Y-96761007D01*
X83123141Y-96635666D01*
X83117485Y-96511926D01*
X83101233Y-96390833D01*
X83074609Y-96273435D01*
X83037838Y-96160775D01*
X82991141Y-96053902D01*
X82934743Y-95953860D01*
X82887904Y-95886181D01*
X82815199Y-95800029D01*
X82733820Y-95723151D01*
X82643791Y-95655560D01*
X82545136Y-95597269D01*
X82437876Y-95548293D01*
X82322035Y-95508645D01*
X82200075Y-95478827D01*
X82095695Y-95461546D01*
X81995442Y-95452889D01*
X81896549Y-95452944D01*
X81796252Y-95461800D01*
X81691783Y-95479547D01*
X81612759Y-95497797D01*
X81501824Y-95531716D01*
X81396172Y-95575638D01*
X81296946Y-95628893D01*
X81205288Y-95690811D01*
X81122341Y-95760720D01*
X81065601Y-95819039D01*
X80996094Y-95906523D01*
X80935393Y-96002347D01*
X80883837Y-96105383D01*
X80841761Y-96214506D01*
X80809502Y-96328586D01*
X80787398Y-96446496D01*
X80775785Y-96567111D01*
X80775000Y-96689301D01*
X80780777Y-96772257D01*
X80789230Y-96840873D01*
X80800759Y-96906733D01*
X80816031Y-96972187D01*
X80835714Y-97039585D01*
X80860474Y-97111279D01*
X80890979Y-97189619D01*
X80916628Y-97250887D01*
X80965928Y-97366769D01*
X81009957Y-97472241D01*
X81049035Y-97568302D01*
X81083479Y-97655949D01*
X81113606Y-97736181D01*
X81139735Y-97809998D01*
X81162184Y-97878396D01*
X81181270Y-97942375D01*
X81197312Y-98002932D01*
X81210627Y-98061067D01*
X81221533Y-98117777D01*
X81230349Y-98174061D01*
X81237391Y-98230917D01*
X81241357Y-98270720D01*
X81245264Y-98310531D01*
X81249589Y-98349285D01*
X81253940Y-98383805D01*
X81257924Y-98410912D01*
X81260140Y-98423084D01*
X81277916Y-98488422D01*
X81302449Y-98549287D01*
X81332474Y-98602992D01*
X81364014Y-98643933D01*
X81385418Y-98667291D01*
X81373541Y-98689093D01*
X81364199Y-98703694D01*
X81356003Y-98712426D01*
X81354585Y-98713155D01*
X81347223Y-98709862D01*
X81334156Y-98699097D01*
X81317951Y-98683026D01*
X81314593Y-98679403D01*
X81290434Y-98648160D01*
X81265914Y-98607985D01*
X81242829Y-98562467D01*
X81222972Y-98515192D01*
X81208140Y-98469750D01*
X81206437Y-98463225D01*
X81202363Y-98446304D01*
X81198833Y-98429581D01*
X81195618Y-98411286D01*
X81192487Y-98389651D01*
X81189213Y-98362906D01*
X81185566Y-98329284D01*
X81181317Y-98287014D01*
X81176237Y-98234329D01*
X81174722Y-98218385D01*
X81166894Y-98155154D01*
X81154935Y-98088375D01*
X81138547Y-98017083D01*
X81117433Y-97940312D01*
X81091294Y-97857098D01*
X81059834Y-97766474D01*
X81022755Y-97667474D01*
X80979759Y-97559135D01*
X80946951Y-97479545D01*
X80927111Y-97432074D01*
X80904604Y-97378282D01*
X80881490Y-97323090D01*
X80859831Y-97271419D01*
X80847218Y-97241360D01*
X80825344Y-97188842D01*
X80807806Y-97145549D01*
X80793774Y-97109099D01*
X80782417Y-97077112D01*
X80772905Y-97047207D01*
X80764407Y-97017003D01*
X80756093Y-96984120D01*
X80753044Y-96971418D01*
X80736157Y-96889459D01*
X80724731Y-96807253D01*
X80718338Y-96720814D01*
X80716536Y-96631608D01*
X80722212Y-96500088D01*
X80738719Y-96373412D01*
X80765851Y-96252094D01*
X80803399Y-96136651D01*
X80851156Y-96027598D01*
X80908914Y-95925451D01*
X80976466Y-95830727D01*
X81053604Y-95743941D01*
X81086382Y-95712227D01*
X81174034Y-95639433D01*
X81270091Y-95575289D01*
X81373336Y-95520151D01*
X81482547Y-95474378D01*
X81596508Y-95438326D01*
X81713998Y-95412355D01*
X81833799Y-95396822D01*
X81954692Y-95392085D01*
X82075459Y-95398501D01*
G37*
X82075459Y-95398501D02*
X82131540Y-95405429D01*
X82261679Y-95430001D01*
X82384349Y-95464355D01*
X82499302Y-95508318D01*
X82606293Y-95561719D01*
X82705074Y-95624389D01*
X82795399Y-95696154D01*
X82877021Y-95776845D01*
X82949695Y-95866290D01*
X83013172Y-95964318D01*
X83056441Y-96047261D01*
X83103875Y-96161752D01*
X83139969Y-96280210D01*
X83164882Y-96403384D01*
X83178775Y-96532023D01*
X83182064Y-96634783D01*
X83181094Y-96706740D01*
X83177709Y-96773234D01*
X83171459Y-96836188D01*
X83161895Y-96897528D01*
X83148567Y-96959175D01*
X83131026Y-97023055D01*
X83108821Y-97091092D01*
X83081505Y-97165208D01*
X83048627Y-97247329D01*
X83026772Y-97299528D01*
X82980029Y-97410388D01*
X82938349Y-97510771D01*
X82901413Y-97601707D01*
X82868905Y-97684225D01*
X82840507Y-97759356D01*
X82815902Y-97828129D01*
X82794773Y-97891576D01*
X82776802Y-97950725D01*
X82761671Y-98006608D01*
X82749064Y-98060254D01*
X82738663Y-98112693D01*
X82730151Y-98164956D01*
X82723210Y-98218073D01*
X82717523Y-98273073D01*
X82713999Y-98314778D01*
X82702774Y-98404063D01*
X82683736Y-98486097D01*
X82657253Y-98559403D01*
X82648666Y-98577932D01*
X82632054Y-98608913D01*
X82613141Y-98639322D01*
X82593488Y-98667126D01*
X82574659Y-98690293D01*
X82558216Y-98706788D01*
X82545722Y-98714579D01*
X82543388Y-98714928D01*
X82536151Y-98709636D01*
X82527352Y-98696335D01*
X82524131Y-98689801D01*
X82512800Y-98664673D01*
X82542205Y-98631968D01*
X82576825Y-98584688D01*
X82605601Y-98526588D01*
X82628344Y-98458224D01*
X82644864Y-98380152D01*
X82654078Y-98304168D01*
X82660082Y-98241075D01*
X82667366Y-98180739D01*
X82676276Y-98122009D01*
X82687159Y-98063733D01*
X82700362Y-98004761D01*
X82716231Y-97943941D01*
X82735113Y-97880122D01*
X82757355Y-97812153D01*
X82783304Y-97738883D01*
X82813305Y-97659161D01*
X82847706Y-97571836D01*
X82886854Y-97475757D01*
X82931096Y-97369772D01*
X82946435Y-97333458D01*
X82977348Y-97260034D01*
X83003528Y-97196766D01*
X83025472Y-97142232D01*
X83043674Y-97095011D01*
X83058628Y-97053680D01*
X83070829Y-97016817D01*
X83080772Y-96983001D01*
X83088951Y-96950808D01*
X83095861Y-96918818D01*
X83101773Y-96886903D01*
X83117979Y-96761007D01*
X83123141Y-96635666D01*
X83117485Y-96511926D01*
X83101233Y-96390833D01*
X83074609Y-96273435D01*
X83037838Y-96160775D01*
X82991141Y-96053902D01*
X82934743Y-95953860D01*
X82887904Y-95886181D01*
X82815199Y-95800029D01*
X82733820Y-95723151D01*
X82643791Y-95655560D01*
X82545136Y-95597269D01*
X82437876Y-95548293D01*
X82322035Y-95508645D01*
X82200075Y-95478827D01*
X82095695Y-95461546D01*
X81995442Y-95452889D01*
X81896549Y-95452944D01*
X81796252Y-95461800D01*
X81691783Y-95479547D01*
X81612759Y-95497797D01*
X81501824Y-95531716D01*
X81396172Y-95575638D01*
X81296946Y-95628893D01*
X81205288Y-95690811D01*
X81122341Y-95760720D01*
X81065601Y-95819039D01*
X80996094Y-95906523D01*
X80935393Y-96002347D01*
X80883837Y-96105383D01*
X80841761Y-96214506D01*
X80809502Y-96328586D01*
X80787398Y-96446496D01*
X80775785Y-96567111D01*
X80775000Y-96689301D01*
X80780777Y-96772257D01*
X80789230Y-96840873D01*
X80800759Y-96906733D01*
X80816031Y-96972187D01*
X80835714Y-97039585D01*
X80860474Y-97111279D01*
X80890979Y-97189619D01*
X80916628Y-97250887D01*
X80965928Y-97366769D01*
X81009957Y-97472241D01*
X81049035Y-97568302D01*
X81083479Y-97655949D01*
X81113606Y-97736181D01*
X81139735Y-97809998D01*
X81162184Y-97878396D01*
X81181270Y-97942375D01*
X81197312Y-98002932D01*
X81210627Y-98061067D01*
X81221533Y-98117777D01*
X81230349Y-98174061D01*
X81237391Y-98230917D01*
X81241357Y-98270720D01*
X81245264Y-98310531D01*
X81249589Y-98349285D01*
X81253940Y-98383805D01*
X81257924Y-98410912D01*
X81260140Y-98423084D01*
X81277916Y-98488422D01*
X81302449Y-98549287D01*
X81332474Y-98602992D01*
X81364014Y-98643933D01*
X81385418Y-98667291D01*
X81373541Y-98689093D01*
X81364199Y-98703694D01*
X81356003Y-98712426D01*
X81354585Y-98713155D01*
X81347223Y-98709862D01*
X81334156Y-98699097D01*
X81317951Y-98683026D01*
X81314593Y-98679403D01*
X81290434Y-98648160D01*
X81265914Y-98607985D01*
X81242829Y-98562467D01*
X81222972Y-98515192D01*
X81208140Y-98469750D01*
X81206437Y-98463225D01*
X81202363Y-98446304D01*
X81198833Y-98429581D01*
X81195618Y-98411286D01*
X81192487Y-98389651D01*
X81189213Y-98362906D01*
X81185566Y-98329284D01*
X81181317Y-98287014D01*
X81176237Y-98234329D01*
X81174722Y-98218385D01*
X81166894Y-98155154D01*
X81154935Y-98088375D01*
X81138547Y-98017083D01*
X81117433Y-97940312D01*
X81091294Y-97857098D01*
X81059834Y-97766474D01*
X81022755Y-97667474D01*
X80979759Y-97559135D01*
X80946951Y-97479545D01*
X80927111Y-97432074D01*
X80904604Y-97378282D01*
X80881490Y-97323090D01*
X80859831Y-97271419D01*
X80847218Y-97241360D01*
X80825344Y-97188842D01*
X80807806Y-97145549D01*
X80793774Y-97109099D01*
X80782417Y-97077112D01*
X80772905Y-97047207D01*
X80764407Y-97017003D01*
X80756093Y-96984120D01*
X80753044Y-96971418D01*
X80736157Y-96889459D01*
X80724731Y-96807253D01*
X80718338Y-96720814D01*
X80716536Y-96631608D01*
X80722212Y-96500088D01*
X80738719Y-96373412D01*
X80765851Y-96252094D01*
X80803399Y-96136651D01*
X80851156Y-96027598D01*
X80908914Y-95925451D01*
X80976466Y-95830727D01*
X81053604Y-95743941D01*
X81086382Y-95712227D01*
X81174034Y-95639433D01*
X81270091Y-95575289D01*
X81373336Y-95520151D01*
X81482547Y-95474378D01*
X81596508Y-95438326D01*
X81713998Y-95412355D01*
X81833799Y-95396822D01*
X81954692Y-95392085D01*
X82075459Y-95398501D01*
G36*
X84105959Y-96000660D02*
G01*
X84116165Y-96010367D01*
X84119187Y-96025058D01*
X84113827Y-96038513D01*
X84113346Y-96039013D01*
X84103254Y-96044385D01*
X84083978Y-96051003D01*
X84058826Y-96057805D01*
X84044413Y-96061087D01*
X84022563Y-96065780D01*
X83990540Y-96072708D01*
X83950581Y-96081384D01*
X83904923Y-96091324D01*
X83855801Y-96102040D01*
X83805451Y-96113046D01*
X83798786Y-96114505D01*
X83751092Y-96124814D01*
X83706685Y-96134164D01*
X83667286Y-96142212D01*
X83634615Y-96148616D01*
X83610392Y-96153032D01*
X83596335Y-96155118D01*
X83594376Y-96155238D01*
X83578051Y-96151315D01*
X83572302Y-96143430D01*
X83571482Y-96125598D01*
X83579544Y-96112097D01*
X83586896Y-96108187D01*
X83596185Y-96105955D01*
X83615791Y-96101569D01*
X83643599Y-96095490D01*
X83677494Y-96088180D01*
X83715363Y-96080101D01*
X83718104Y-96079520D01*
X83765643Y-96069388D01*
X83820602Y-96057594D01*
X83877997Y-96045212D01*
X83932842Y-96033317D01*
X83968054Y-96025636D01*
X84007228Y-96017304D01*
X84042469Y-96010263D01*
X84071796Y-96004874D01*
X84093230Y-96001494D01*
X84104790Y-96000482D01*
X84105959Y-96000660D01*
G37*
X84105959Y-96000660D02*
X84116165Y-96010367D01*
X84119187Y-96025058D01*
X84113827Y-96038513D01*
X84113346Y-96039013D01*
X84103254Y-96044385D01*
X84083978Y-96051003D01*
X84058826Y-96057805D01*
X84044413Y-96061087D01*
X84022563Y-96065780D01*
X83990540Y-96072708D01*
X83950581Y-96081384D01*
X83904923Y-96091324D01*
X83855801Y-96102040D01*
X83805451Y-96113046D01*
X83798786Y-96114505D01*
X83751092Y-96124814D01*
X83706685Y-96134164D01*
X83667286Y-96142212D01*
X83634615Y-96148616D01*
X83610392Y-96153032D01*
X83596335Y-96155118D01*
X83594376Y-96155238D01*
X83578051Y-96151315D01*
X83572302Y-96143430D01*
X83571482Y-96125598D01*
X83579544Y-96112097D01*
X83586896Y-96108187D01*
X83596185Y-96105955D01*
X83615791Y-96101569D01*
X83643599Y-96095490D01*
X83677494Y-96088180D01*
X83715363Y-96080101D01*
X83718104Y-96079520D01*
X83765643Y-96069388D01*
X83820602Y-96057594D01*
X83877997Y-96045212D01*
X83932842Y-96033317D01*
X83968054Y-96025636D01*
X84007228Y-96017304D01*
X84042469Y-96010263D01*
X84071796Y-96004874D01*
X84093230Y-96001494D01*
X84104790Y-96000482D01*
X84105959Y-96000660D01*
G36*
X79903853Y-95943352D02*
G01*
X79923083Y-95946076D01*
X79950619Y-95950950D01*
X79984428Y-95957608D01*
X80022476Y-95965686D01*
X80029691Y-95967280D01*
X80079679Y-95978320D01*
X80136526Y-95990772D01*
X80194903Y-96003474D01*
X80249479Y-96015265D01*
X80278720Y-96021534D01*
X80317298Y-96029813D01*
X80352079Y-96037353D01*
X80380975Y-96043697D01*
X80401903Y-96048386D01*
X80412775Y-96050960D01*
X80413366Y-96051123D01*
X80424664Y-96060045D01*
X80429091Y-96074531D01*
X80424843Y-96088493D01*
X80424553Y-96088852D01*
X80416135Y-96094791D01*
X80402515Y-96096864D01*
X80381578Y-96095029D01*
X80351210Y-96089245D01*
X80342235Y-96087254D01*
X80325857Y-96083601D01*
X80298938Y-96077657D01*
X80263350Y-96069834D01*
X80220967Y-96060541D01*
X80173660Y-96050190D01*
X80123301Y-96039191D01*
X80097699Y-96033607D01*
X80048373Y-96022659D01*
X80002844Y-96012182D01*
X79962648Y-96002559D01*
X79929325Y-95994173D01*
X79904413Y-95987407D01*
X79889449Y-95982643D01*
X79885856Y-95980877D01*
X79880645Y-95968207D01*
X79883851Y-95953717D01*
X79893993Y-95943548D01*
X79894962Y-95943142D01*
X79903853Y-95943352D01*
G37*
X79903853Y-95943352D02*
X79923083Y-95946076D01*
X79950619Y-95950950D01*
X79984428Y-95957608D01*
X80022476Y-95965686D01*
X80029691Y-95967280D01*
X80079679Y-95978320D01*
X80136526Y-95990772D01*
X80194903Y-96003474D01*
X80249479Y-96015265D01*
X80278720Y-96021534D01*
X80317298Y-96029813D01*
X80352079Y-96037353D01*
X80380975Y-96043697D01*
X80401903Y-96048386D01*
X80412775Y-96050960D01*
X80413366Y-96051123D01*
X80424664Y-96060045D01*
X80429091Y-96074531D01*
X80424843Y-96088493D01*
X80424553Y-96088852D01*
X80416135Y-96094791D01*
X80402515Y-96096864D01*
X80381578Y-96095029D01*
X80351210Y-96089245D01*
X80342235Y-96087254D01*
X80325857Y-96083601D01*
X80298938Y-96077657D01*
X80263350Y-96069834D01*
X80220967Y-96060541D01*
X80173660Y-96050190D01*
X80123301Y-96039191D01*
X80097699Y-96033607D01*
X80048373Y-96022659D01*
X80002844Y-96012182D01*
X79962648Y-96002559D01*
X79929325Y-95994173D01*
X79904413Y-95987407D01*
X79889449Y-95982643D01*
X79885856Y-95980877D01*
X79880645Y-95968207D01*
X79883851Y-95953717D01*
X79893993Y-95943548D01*
X79894962Y-95943142D01*
X79903853Y-95943352D01*
G36*
X83702576Y-95219390D02*
G01*
X83705668Y-95225761D01*
X83707342Y-95235128D01*
X83707767Y-95239450D01*
X83707454Y-95243646D01*
X83705624Y-95248451D01*
X83701504Y-95254601D01*
X83694315Y-95262829D01*
X83683281Y-95273871D01*
X83667628Y-95288460D01*
X83646577Y-95307333D01*
X83619354Y-95331223D01*
X83585181Y-95360866D01*
X83543282Y-95396996D01*
X83492881Y-95440348D01*
X83467217Y-95462412D01*
X83421396Y-95501590D01*
X83384056Y-95532946D01*
X83354229Y-95557152D01*
X83330952Y-95574880D01*
X83313258Y-95586801D01*
X83300182Y-95593588D01*
X83290758Y-95595912D01*
X83284020Y-95594446D01*
X83280903Y-95592064D01*
X83276874Y-95586848D01*
X83275465Y-95580865D01*
X83277419Y-95573337D01*
X83283478Y-95563487D01*
X83294384Y-95550538D01*
X83310881Y-95533713D01*
X83333710Y-95512234D01*
X83363614Y-95485324D01*
X83401335Y-95452206D01*
X83447617Y-95412102D01*
X83476961Y-95386810D01*
X83529365Y-95341807D01*
X83573038Y-95304653D01*
X83608793Y-95274813D01*
X83637444Y-95251751D01*
X83659802Y-95234933D01*
X83676682Y-95223823D01*
X83688896Y-95217886D01*
X83697256Y-95216587D01*
X83702576Y-95219390D01*
G37*
X83702576Y-95219390D02*
X83705668Y-95225761D01*
X83707342Y-95235128D01*
X83707767Y-95239450D01*
X83707454Y-95243646D01*
X83705624Y-95248451D01*
X83701504Y-95254601D01*
X83694315Y-95262829D01*
X83683281Y-95273871D01*
X83667628Y-95288460D01*
X83646577Y-95307333D01*
X83619354Y-95331223D01*
X83585181Y-95360866D01*
X83543282Y-95396996D01*
X83492881Y-95440348D01*
X83467217Y-95462412D01*
X83421396Y-95501590D01*
X83384056Y-95532946D01*
X83354229Y-95557152D01*
X83330952Y-95574880D01*
X83313258Y-95586801D01*
X83300182Y-95593588D01*
X83290758Y-95595912D01*
X83284020Y-95594446D01*
X83280903Y-95592064D01*
X83276874Y-95586848D01*
X83275465Y-95580865D01*
X83277419Y-95573337D01*
X83283478Y-95563487D01*
X83294384Y-95550538D01*
X83310881Y-95533713D01*
X83333710Y-95512234D01*
X83363614Y-95485324D01*
X83401335Y-95452206D01*
X83447617Y-95412102D01*
X83476961Y-95386810D01*
X83529365Y-95341807D01*
X83573038Y-95304653D01*
X83608793Y-95274813D01*
X83637444Y-95251751D01*
X83659802Y-95234933D01*
X83676682Y-95223823D01*
X83688896Y-95217886D01*
X83697256Y-95216587D01*
X83702576Y-95219390D01*
G36*
X80319655Y-95162182D02*
G01*
X80336678Y-95174217D01*
X80361680Y-95193553D01*
X80393924Y-95219600D01*
X80432671Y-95251767D01*
X80477183Y-95289463D01*
X80499847Y-95308889D01*
X80553147Y-95354753D01*
X80597583Y-95393080D01*
X80633925Y-95424617D01*
X80662941Y-95450108D01*
X80685401Y-95470299D01*
X80702073Y-95485936D01*
X80713727Y-95497765D01*
X80721131Y-95506530D01*
X80725055Y-95512978D01*
X80726267Y-95517853D01*
X80725536Y-95521901D01*
X80723640Y-95525853D01*
X80713657Y-95536369D01*
X80699377Y-95537290D01*
X80679855Y-95528355D01*
X80654147Y-95509306D01*
X80649638Y-95505508D01*
X80629514Y-95488262D01*
X80603190Y-95465591D01*
X80574045Y-95440410D01*
X80545459Y-95415638D01*
X80544837Y-95415097D01*
X80516750Y-95390739D01*
X80482453Y-95361042D01*
X80445360Y-95328960D01*
X80408885Y-95297445D01*
X80389676Y-95280866D01*
X80360844Y-95255845D01*
X80334991Y-95233132D01*
X80313808Y-95214238D01*
X80298991Y-95200671D01*
X80292373Y-95194118D01*
X80288209Y-95180903D01*
X80293230Y-95167609D01*
X80304899Y-95159057D01*
X80311350Y-95158039D01*
X80319655Y-95162182D01*
G37*
X80319655Y-95162182D02*
X80336678Y-95174217D01*
X80361680Y-95193553D01*
X80393924Y-95219600D01*
X80432671Y-95251767D01*
X80477183Y-95289463D01*
X80499847Y-95308889D01*
X80553147Y-95354753D01*
X80597583Y-95393080D01*
X80633925Y-95424617D01*
X80662941Y-95450108D01*
X80685401Y-95470299D01*
X80702073Y-95485936D01*
X80713727Y-95497765D01*
X80721131Y-95506530D01*
X80725055Y-95512978D01*
X80726267Y-95517853D01*
X80725536Y-95521901D01*
X80723640Y-95525853D01*
X80713657Y-95536369D01*
X80699377Y-95537290D01*
X80679855Y-95528355D01*
X80654147Y-95509306D01*
X80649638Y-95505508D01*
X80629514Y-95488262D01*
X80603190Y-95465591D01*
X80574045Y-95440410D01*
X80545459Y-95415638D01*
X80544837Y-95415097D01*
X80516750Y-95390739D01*
X80482453Y-95361042D01*
X80445360Y-95328960D01*
X80408885Y-95297445D01*
X80389676Y-95280866D01*
X80360844Y-95255845D01*
X80334991Y-95233132D01*
X80313808Y-95214238D01*
X80298991Y-95200671D01*
X80292373Y-95194118D01*
X80288209Y-95180903D01*
X80293230Y-95167609D01*
X80304899Y-95159057D01*
X80311350Y-95158039D01*
X80319655Y-95162182D01*
G36*
X82932466Y-94663879D02*
G01*
X82941195Y-94665252D01*
X82947761Y-94667684D01*
X82951805Y-94672156D01*
X82952969Y-94679650D01*
X82950895Y-94691151D01*
X82945225Y-94707639D01*
X82935600Y-94730097D01*
X82921663Y-94759508D01*
X82903055Y-94796854D01*
X82879418Y-94843117D01*
X82850394Y-94899280D01*
X82837763Y-94923645D01*
X82806349Y-94984081D01*
X82780125Y-95034070D01*
X82758507Y-95074481D01*
X82740912Y-95106184D01*
X82726756Y-95130048D01*
X82715457Y-95146941D01*
X82706431Y-95157732D01*
X82699094Y-95163292D01*
X82692863Y-95164488D01*
X82687156Y-95162190D01*
X82681388Y-95157266D01*
X82681133Y-95157012D01*
X82674199Y-95145455D01*
X82673268Y-95140415D01*
X82676107Y-95133062D01*
X82684217Y-95115675D01*
X82696985Y-95089480D01*
X82713798Y-95055702D01*
X82734045Y-95015566D01*
X82757114Y-94970299D01*
X82782393Y-94921125D01*
X82794960Y-94896825D01*
X82824923Y-94839078D01*
X82849677Y-94791639D01*
X82869808Y-94753512D01*
X82885905Y-94723703D01*
X82898555Y-94701214D01*
X82908345Y-94685052D01*
X82915864Y-94674221D01*
X82921698Y-94667725D01*
X82926436Y-94664568D01*
X82930665Y-94663756D01*
X82932466Y-94663879D01*
G37*
X82932466Y-94663879D02*
X82941195Y-94665252D01*
X82947761Y-94667684D01*
X82951805Y-94672156D01*
X82952969Y-94679650D01*
X82950895Y-94691151D01*
X82945225Y-94707639D01*
X82935600Y-94730097D01*
X82921663Y-94759508D01*
X82903055Y-94796854D01*
X82879418Y-94843117D01*
X82850394Y-94899280D01*
X82837763Y-94923645D01*
X82806349Y-94984081D01*
X82780125Y-95034070D01*
X82758507Y-95074481D01*
X82740912Y-95106184D01*
X82726756Y-95130048D01*
X82715457Y-95146941D01*
X82706431Y-95157732D01*
X82699094Y-95163292D01*
X82692863Y-95164488D01*
X82687156Y-95162190D01*
X82681388Y-95157266D01*
X82681133Y-95157012D01*
X82674199Y-95145455D01*
X82673268Y-95140415D01*
X82676107Y-95133062D01*
X82684217Y-95115675D01*
X82696985Y-95089480D01*
X82713798Y-95055702D01*
X82734045Y-95015566D01*
X82757114Y-94970299D01*
X82782393Y-94921125D01*
X82794960Y-94896825D01*
X82824923Y-94839078D01*
X82849677Y-94791639D01*
X82869808Y-94753512D01*
X82885905Y-94723703D01*
X82898555Y-94701214D01*
X82908345Y-94685052D01*
X82915864Y-94674221D01*
X82921698Y-94667725D01*
X82926436Y-94664568D01*
X82930665Y-94663756D01*
X82932466Y-94663879D01*
G36*
X81077101Y-94604504D02*
G01*
X81082992Y-94611677D01*
X81093466Y-94628311D01*
X81107424Y-94652502D01*
X81123766Y-94682351D01*
X81140429Y-94714079D01*
X81160379Y-94752818D01*
X81184219Y-94799108D01*
X81210021Y-94849207D01*
X81235858Y-94899372D01*
X81259803Y-94945861D01*
X81261950Y-94950029D01*
X81284143Y-94993463D01*
X81300838Y-95027068D01*
X81312604Y-95052179D01*
X81320008Y-95070128D01*
X81323620Y-95082249D01*
X81324008Y-95089875D01*
X81322872Y-95092940D01*
X81311004Y-95103214D01*
X81296348Y-95105839D01*
X81284408Y-95099868D01*
X81284186Y-95099593D01*
X81279937Y-95092311D01*
X81270529Y-95074974D01*
X81256617Y-95048826D01*
X81238852Y-95015108D01*
X81217889Y-94975062D01*
X81194382Y-94929931D01*
X81168983Y-94880956D01*
X81158811Y-94861287D01*
X81125354Y-94796131D01*
X81097881Y-94741724D01*
X81076219Y-94697706D01*
X81060199Y-94663713D01*
X81049648Y-94639385D01*
X81044393Y-94624359D01*
X81043841Y-94618926D01*
X81053388Y-94605566D01*
X81067968Y-94601624D01*
X81077101Y-94604504D01*
G37*
X81077101Y-94604504D02*
X81082992Y-94611677D01*
X81093466Y-94628311D01*
X81107424Y-94652502D01*
X81123766Y-94682351D01*
X81140429Y-94714079D01*
X81160379Y-94752818D01*
X81184219Y-94799108D01*
X81210021Y-94849207D01*
X81235858Y-94899372D01*
X81259803Y-94945861D01*
X81261950Y-94950029D01*
X81284143Y-94993463D01*
X81300838Y-95027068D01*
X81312604Y-95052179D01*
X81320008Y-95070128D01*
X81323620Y-95082249D01*
X81324008Y-95089875D01*
X81322872Y-95092940D01*
X81311004Y-95103214D01*
X81296348Y-95105839D01*
X81284408Y-95099868D01*
X81284186Y-95099593D01*
X81279937Y-95092311D01*
X81270529Y-95074974D01*
X81256617Y-95048826D01*
X81238852Y-95015108D01*
X81217889Y-94975062D01*
X81194382Y-94929931D01*
X81168983Y-94880956D01*
X81158811Y-94861287D01*
X81125354Y-94796131D01*
X81097881Y-94741724D01*
X81076219Y-94697706D01*
X81060199Y-94663713D01*
X81049648Y-94639385D01*
X81044393Y-94624359D01*
X81043841Y-94618926D01*
X81053388Y-94605566D01*
X81067968Y-94601624D01*
X81077101Y-94604504D01*
G36*
X81968242Y-94465716D02*
G01*
X81971331Y-94467718D01*
X81973874Y-94470876D01*
X81975924Y-94476344D01*
X81977534Y-94485277D01*
X81978758Y-94498828D01*
X81979647Y-94518153D01*
X81980256Y-94544406D01*
X81980637Y-94578740D01*
X81980844Y-94622311D01*
X81980929Y-94676273D01*
X81980945Y-94741780D01*
X81980945Y-94742010D01*
X81980925Y-94807593D01*
X81980832Y-94861624D01*
X81980615Y-94905258D01*
X81980221Y-94939647D01*
X81979600Y-94965942D01*
X81978701Y-94985297D01*
X81977471Y-94998865D01*
X81975861Y-95007797D01*
X81973817Y-95013246D01*
X81971291Y-95016366D01*
X81968659Y-95018081D01*
X81957852Y-95023390D01*
X81950702Y-95022980D01*
X81941248Y-95017795D01*
X81938534Y-95015489D01*
X81936300Y-95011265D01*
X81934499Y-95003977D01*
X81933084Y-94992481D01*
X81932010Y-94975633D01*
X81931231Y-94952287D01*
X81930700Y-94921298D01*
X81930372Y-94881521D01*
X81930199Y-94831812D01*
X81930137Y-94771026D01*
X81930132Y-94741918D01*
X81930149Y-94676384D01*
X81930234Y-94622400D01*
X81930440Y-94578809D01*
X81930820Y-94544457D01*
X81931429Y-94518191D01*
X81932318Y-94498854D01*
X81933540Y-94485294D01*
X81935150Y-94476355D01*
X81937200Y-94470882D01*
X81939742Y-94467721D01*
X81942831Y-94465718D01*
X81942836Y-94465716D01*
X81959078Y-94462392D01*
X81968242Y-94465716D01*
G37*
X81968242Y-94465716D02*
X81971331Y-94467718D01*
X81973874Y-94470876D01*
X81975924Y-94476344D01*
X81977534Y-94485277D01*
X81978758Y-94498828D01*
X81979647Y-94518153D01*
X81980256Y-94544406D01*
X81980637Y-94578740D01*
X81980844Y-94622311D01*
X81980929Y-94676273D01*
X81980945Y-94741780D01*
X81980945Y-94742010D01*
X81980925Y-94807593D01*
X81980832Y-94861624D01*
X81980615Y-94905258D01*
X81980221Y-94939647D01*
X81979600Y-94965942D01*
X81978701Y-94985297D01*
X81977471Y-94998865D01*
X81975861Y-95007797D01*
X81973817Y-95013246D01*
X81971291Y-95016366D01*
X81968659Y-95018081D01*
X81957852Y-95023390D01*
X81950702Y-95022980D01*
X81941248Y-95017795D01*
X81938534Y-95015489D01*
X81936300Y-95011265D01*
X81934499Y-95003977D01*
X81933084Y-94992481D01*
X81932010Y-94975633D01*
X81931231Y-94952287D01*
X81930700Y-94921298D01*
X81930372Y-94881521D01*
X81930199Y-94831812D01*
X81930137Y-94771026D01*
X81930132Y-94741918D01*
X81930149Y-94676384D01*
X81930234Y-94622400D01*
X81930440Y-94578809D01*
X81930820Y-94544457D01*
X81931429Y-94518191D01*
X81932318Y-94498854D01*
X81933540Y-94485294D01*
X81935150Y-94476355D01*
X81937200Y-94470882D01*
X81939742Y-94467721D01*
X81942831Y-94465718D01*
X81942836Y-94465716D01*
X81959078Y-94462392D01*
X81968242Y-94465716D01*
M02*
