G04 #@! TF.GenerationSoftware,KiCad,Pcbnew,6.0.9-8da3e8f707~117~ubuntu20.04.1*
G04 #@! TF.CreationDate,2022-12-15T16:30:46+01:00*
G04 #@! TF.ProjectId,picsyle-R_motion_915,70696373-796c-4652-9d52-5f6d6f74696f,rev?*
G04 #@! TF.SameCoordinates,Original*
G04 #@! TF.FileFunction,Copper,L1,Top*
G04 #@! TF.FilePolarity,Positive*
%FSLAX46Y46*%
G04 Gerber Fmt 4.6, Leading zero omitted, Abs format (unit mm)*
G04 Created by KiCad (PCBNEW 6.0.9-8da3e8f707~117~ubuntu20.04.1) date 2022-12-15 16:30:46*
%MOMM*%
%LPD*%
G01*
G04 APERTURE LIST*
G04 Aperture macros list*
%AMRoundRect*
0 Rectangle with rounded corners*
0 $1 Rounding radius*
0 $2 $3 $4 $5 $6 $7 $8 $9 X,Y pos of 4 corners*
0 Add a 4 corners polygon primitive as box body*
4,1,4,$2,$3,$4,$5,$6,$7,$8,$9,$2,$3,0*
0 Add four circle primitives for the rounded corners*
1,1,$1+$1,$2,$3*
1,1,$1+$1,$4,$5*
1,1,$1+$1,$6,$7*
1,1,$1+$1,$8,$9*
0 Add four rect primitives between the rounded corners*
20,1,$1+$1,$2,$3,$4,$5,0*
20,1,$1+$1,$4,$5,$6,$7,0*
20,1,$1+$1,$6,$7,$8,$9,0*
20,1,$1+$1,$8,$9,$2,$3,0*%
G04 Aperture macros list end*
G04 #@! TA.AperFunction,SMDPad,CuDef*
%ADD10RoundRect,0.062500X0.062500X-0.350000X0.062500X0.350000X-0.062500X0.350000X-0.062500X-0.350000X0*%
G04 #@! TD*
G04 #@! TA.AperFunction,SMDPad,CuDef*
%ADD11R,0.250000X0.825000*%
G04 #@! TD*
G04 #@! TA.AperFunction,SMDPad,CuDef*
%ADD12RoundRect,0.062500X0.350000X-0.062500X0.350000X0.062500X-0.350000X0.062500X-0.350000X-0.062500X0*%
G04 #@! TD*
G04 #@! TA.AperFunction,SMDPad,CuDef*
%ADD13RoundRect,0.240000X1.010000X-1.010000X1.010000X1.010000X-1.010000X1.010000X-1.010000X-1.010000X0*%
G04 #@! TD*
G04 #@! TA.AperFunction,SMDPad,CuDef*
%ADD14R,0.175000X0.500000*%
G04 #@! TD*
G04 #@! TA.AperFunction,SMDPad,CuDef*
%ADD15R,0.550000X0.400000*%
G04 #@! TD*
G04 #@! TA.AperFunction,SMDPad,CuDef*
%ADD16R,0.550000X0.200000*%
G04 #@! TD*
G04 #@! TA.AperFunction,Conductor*
%ADD17C,0.250000*%
G04 #@! TD*
G04 #@! TA.AperFunction,Conductor*
%ADD18C,0.200000*%
G04 #@! TD*
G04 APERTURE END LIST*
G36*
X45125000Y-48321000D02*
G01*
X45124000Y-48319000D01*
X45120000Y-48315000D01*
X45118000Y-48314000D01*
X45116000Y-48314000D01*
X45114000Y-48313000D01*
X38854000Y-48313000D01*
X38466000Y-48354000D01*
X38465000Y-48354000D01*
X38464000Y-48355000D01*
X38091000Y-48470000D01*
X38090000Y-48471000D01*
X38088000Y-48471000D01*
X37745000Y-48657000D01*
X37744000Y-48658000D01*
X37743000Y-48658000D01*
X37442000Y-48907000D01*
X37440000Y-48909000D01*
X37194000Y-49211000D01*
X37192000Y-49213000D01*
X37192000Y-49214000D01*
X37009000Y-49558000D01*
X37008000Y-49559000D01*
X37008000Y-49561000D01*
X36895000Y-49934000D01*
X36895000Y-49937000D01*
X36857000Y-50325000D01*
X36856000Y-50326000D01*
X36856000Y-67038000D01*
X36857000Y-67052000D01*
X36857000Y-67053000D01*
X36897000Y-67441000D01*
X36898000Y-67442000D01*
X36898000Y-67444000D01*
X37013000Y-67816000D01*
X37014000Y-67818000D01*
X37014000Y-67819000D01*
X37200000Y-68162000D01*
X37201000Y-68163000D01*
X37201000Y-68164000D01*
X37450000Y-68465000D01*
X37452000Y-68467000D01*
X37755000Y-68714000D01*
X37756000Y-68714000D01*
X37757000Y-68715000D01*
X38101000Y-68898000D01*
X38102000Y-68899000D01*
X38104000Y-68899000D01*
X38477000Y-69012000D01*
X38479000Y-69012000D01*
X38480000Y-69013000D01*
X38868000Y-69051000D01*
X41442000Y-69051000D01*
X41830000Y-69010000D01*
X41831000Y-69010000D01*
X41832000Y-69009000D01*
X42205000Y-68894000D01*
X42206000Y-68893000D01*
X42208000Y-68893000D01*
X42551000Y-68707000D01*
X42552000Y-68707000D01*
X42553000Y-68706000D01*
X42854000Y-68457000D01*
X42856000Y-68455000D01*
X43102000Y-68153000D01*
X43104000Y-68151000D01*
X43104000Y-68150000D01*
X43287000Y-67806000D01*
X43288000Y-67805000D01*
X43288000Y-67803000D01*
X43401000Y-67430000D01*
X43401000Y-67427000D01*
X43440000Y-67039000D01*
X43440000Y-61030000D01*
X46259000Y-61030000D01*
X46259300Y-61067400D01*
X46260300Y-61104800D01*
X46261900Y-61142200D01*
X46264200Y-61179500D01*
X46267200Y-61216800D01*
X46270700Y-61254000D01*
X46275000Y-61291200D01*
X46279900Y-61328200D01*
X46285400Y-61365200D01*
X46291600Y-61402100D01*
X46298400Y-61438900D01*
X46305800Y-61475600D01*
X46313900Y-61512100D01*
X46322700Y-61548400D01*
X46332000Y-61584600D01*
X46342000Y-61620700D01*
X46352600Y-61656600D01*
X46363900Y-61692200D01*
X46375800Y-61727700D01*
X46388200Y-61762900D01*
X46401300Y-61798000D01*
X46415000Y-61832800D01*
X46429400Y-61867300D01*
X46444300Y-61901600D01*
X46459800Y-61935700D01*
X46475900Y-61969400D01*
X46492600Y-62002900D01*
X46509800Y-62036100D01*
X46527700Y-62068900D01*
X46546100Y-62101500D01*
X46565100Y-62133700D01*
X46584600Y-62165600D01*
X46604700Y-62197200D01*
X46625400Y-62228400D01*
X46646600Y-62259200D01*
X46668300Y-62289600D01*
X46690500Y-62319700D01*
X46713300Y-62349400D01*
X46736600Y-62378600D01*
X46760400Y-62407500D01*
X46784700Y-62435900D01*
X46809400Y-62463900D01*
X46834700Y-62491500D01*
X46860500Y-62518700D01*
X46886700Y-62545300D01*
X46913300Y-62571500D01*
X46940500Y-62597300D01*
X46968100Y-62622600D01*
X46996100Y-62647300D01*
X47024500Y-62671600D01*
X47053400Y-62695400D01*
X47082600Y-62718700D01*
X47112300Y-62741500D01*
X47142400Y-62763700D01*
X47172800Y-62785400D01*
X47203600Y-62806600D01*
X47234800Y-62827300D01*
X47266400Y-62847400D01*
X47298300Y-62866900D01*
X47330500Y-62885900D01*
X47363100Y-62904300D01*
X47395900Y-62922200D01*
X47429100Y-62939400D01*
X47462600Y-62956100D01*
X47496300Y-62972200D01*
X47530400Y-62987700D01*
X47564700Y-63002600D01*
X47599200Y-63017000D01*
X47634000Y-63030700D01*
X47669100Y-63043800D01*
X47704300Y-63056200D01*
X47739800Y-63068100D01*
X47775400Y-63079400D01*
X47811300Y-63090000D01*
X47847400Y-63100000D01*
X47883600Y-63109300D01*
X47919900Y-63118100D01*
X47956400Y-63126200D01*
X47993100Y-63133600D01*
X48029900Y-63140400D01*
X48066800Y-63146600D01*
X48103800Y-63152100D01*
X48140800Y-63157000D01*
X48178000Y-63161300D01*
X48215200Y-63164800D01*
X48252500Y-63167800D01*
X48289800Y-63170100D01*
X48327200Y-63171700D01*
X48364600Y-63172700D01*
X48402000Y-63173000D01*
X48439400Y-63172700D01*
X48476800Y-63171700D01*
X48514200Y-63170100D01*
X48551500Y-63167800D01*
X48588800Y-63164800D01*
X48626000Y-63161300D01*
X48663200Y-63157000D01*
X48700200Y-63152100D01*
X48737200Y-63146600D01*
X48774100Y-63140400D01*
X48810900Y-63133600D01*
X48847600Y-63126200D01*
X48884100Y-63118100D01*
X48920400Y-63109300D01*
X48956600Y-63100000D01*
X48992700Y-63090000D01*
X49028600Y-63079400D01*
X49064200Y-63068100D01*
X49099700Y-63056200D01*
X49134900Y-63043800D01*
X49170000Y-63030700D01*
X49204800Y-63017000D01*
X49239300Y-63002600D01*
X49273600Y-62987700D01*
X49307700Y-62972200D01*
X49341400Y-62956100D01*
X49374900Y-62939400D01*
X49408100Y-62922200D01*
X49440900Y-62904300D01*
X49473500Y-62885900D01*
X49505700Y-62866900D01*
X49537600Y-62847400D01*
X49569200Y-62827300D01*
X49600400Y-62806600D01*
X49631200Y-62785400D01*
X49661600Y-62763700D01*
X49691700Y-62741500D01*
X49721400Y-62718700D01*
X49750600Y-62695400D01*
X49779500Y-62671600D01*
X49807900Y-62647300D01*
X49835900Y-62622600D01*
X49863500Y-62597300D01*
X49890700Y-62571500D01*
X49917300Y-62545300D01*
X49943500Y-62518700D01*
X49969300Y-62491500D01*
X49994600Y-62463900D01*
X50019300Y-62435900D01*
X50043600Y-62407500D01*
X50067400Y-62378600D01*
X50090700Y-62349400D01*
X50113500Y-62319700D01*
X50135700Y-62289600D01*
X50157400Y-62259200D01*
X50178600Y-62228400D01*
X50199300Y-62197200D01*
X50219400Y-62165600D01*
X50238900Y-62133700D01*
X50257900Y-62101500D01*
X50276300Y-62068900D01*
X50294200Y-62036100D01*
X50311400Y-62002900D01*
X50328100Y-61969400D01*
X50344200Y-61935700D01*
X50359700Y-61901600D01*
X50374600Y-61867300D01*
X50389000Y-61832800D01*
X50402700Y-61798000D01*
X50415800Y-61762900D01*
X50428200Y-61727700D01*
X50440100Y-61692200D01*
X50451400Y-61656600D01*
X50462000Y-61620700D01*
X50472000Y-61584600D01*
X50481300Y-61548400D01*
X50490100Y-61512100D01*
X50498200Y-61475600D01*
X50505600Y-61438900D01*
X50512400Y-61402100D01*
X50518600Y-61365200D01*
X50524100Y-61328200D01*
X50529000Y-61291200D01*
X50533300Y-61254000D01*
X50536800Y-61216800D01*
X50539800Y-61179500D01*
X50542100Y-61142200D01*
X50543700Y-61104800D01*
X50544700Y-61067400D01*
X50545000Y-61030000D01*
X50544700Y-60992600D01*
X50543700Y-60955200D01*
X50542100Y-60917800D01*
X50539800Y-60880500D01*
X50536800Y-60843200D01*
X50533300Y-60806000D01*
X50529000Y-60768800D01*
X50524100Y-60731800D01*
X50518600Y-60694800D01*
X50512400Y-60657900D01*
X50505600Y-60621100D01*
X50498200Y-60584400D01*
X50490100Y-60547900D01*
X50481300Y-60511600D01*
X50472000Y-60475400D01*
X50462000Y-60439300D01*
X50451400Y-60403400D01*
X50440100Y-60367800D01*
X50428200Y-60332300D01*
X50415800Y-60297100D01*
X50402700Y-60262000D01*
X50389000Y-60227200D01*
X50374600Y-60192700D01*
X50359700Y-60158400D01*
X50344200Y-60124300D01*
X50328100Y-60090600D01*
X50311400Y-60057100D01*
X50294200Y-60023900D01*
X50276300Y-59991100D01*
X50257900Y-59958500D01*
X50238900Y-59926300D01*
X50219400Y-59894400D01*
X50199300Y-59862800D01*
X50178600Y-59831600D01*
X50157400Y-59800800D01*
X50135700Y-59770400D01*
X50113500Y-59740300D01*
X50090700Y-59710600D01*
X50067400Y-59681400D01*
X50043600Y-59652500D01*
X50019300Y-59624100D01*
X49994600Y-59596100D01*
X49969300Y-59568500D01*
X49943500Y-59541300D01*
X49917300Y-59514700D01*
X49890700Y-59488500D01*
X49863500Y-59462700D01*
X49835900Y-59437400D01*
X49807900Y-59412700D01*
X49779500Y-59388400D01*
X49750600Y-59364600D01*
X49721400Y-59341300D01*
X49691700Y-59318500D01*
X49661600Y-59296300D01*
X49631200Y-59274600D01*
X49600400Y-59253400D01*
X49569200Y-59232700D01*
X49537600Y-59212600D01*
X49505700Y-59193100D01*
X49473500Y-59174100D01*
X49440900Y-59155700D01*
X49408100Y-59137800D01*
X49374900Y-59120600D01*
X49341400Y-59103900D01*
X49307700Y-59087800D01*
X49273600Y-59072300D01*
X49239300Y-59057400D01*
X49204800Y-59043000D01*
X49170000Y-59029300D01*
X49134900Y-59016200D01*
X49099700Y-59003800D01*
X49064200Y-58991900D01*
X49028600Y-58980600D01*
X48992700Y-58970000D01*
X48956600Y-58960000D01*
X48920400Y-58950700D01*
X48884100Y-58941900D01*
X48847600Y-58933800D01*
X48810900Y-58926400D01*
X48774100Y-58919600D01*
X48737200Y-58913400D01*
X48700200Y-58907900D01*
X48663200Y-58903000D01*
X48626000Y-58898700D01*
X48588800Y-58895200D01*
X48551500Y-58892200D01*
X48514200Y-58889900D01*
X48476800Y-58888300D01*
X48439400Y-58887300D01*
X48402000Y-58887000D01*
X48364600Y-58887300D01*
X48327200Y-58888300D01*
X48289800Y-58889900D01*
X48252500Y-58892200D01*
X48215200Y-58895200D01*
X48178000Y-58898700D01*
X48140800Y-58903000D01*
X48103800Y-58907900D01*
X48066800Y-58913400D01*
X48029900Y-58919600D01*
X47993100Y-58926400D01*
X47956400Y-58933800D01*
X47919900Y-58941900D01*
X47883600Y-58950700D01*
X47847400Y-58960000D01*
X47811300Y-58970000D01*
X47775400Y-58980600D01*
X47739800Y-58991900D01*
X47704300Y-59003800D01*
X47669100Y-59016200D01*
X47634000Y-59029300D01*
X47599200Y-59043000D01*
X47564700Y-59057400D01*
X47530400Y-59072300D01*
X47496300Y-59087800D01*
X47462600Y-59103900D01*
X47429100Y-59120600D01*
X47395900Y-59137800D01*
X47363100Y-59155700D01*
X47330500Y-59174100D01*
X47298300Y-59193100D01*
X47266400Y-59212600D01*
X47234800Y-59232700D01*
X47203600Y-59253400D01*
X47172800Y-59274600D01*
X47142400Y-59296300D01*
X47112300Y-59318500D01*
X47082600Y-59341300D01*
X47053400Y-59364600D01*
X47024500Y-59388400D01*
X46996100Y-59412700D01*
X46968100Y-59437400D01*
X46940500Y-59462700D01*
X46913300Y-59488500D01*
X46886700Y-59514700D01*
X46860500Y-59541300D01*
X46834700Y-59568500D01*
X46809400Y-59596100D01*
X46784700Y-59624100D01*
X46760400Y-59652500D01*
X46736600Y-59681400D01*
X46713300Y-59710600D01*
X46690500Y-59740300D01*
X46668300Y-59770400D01*
X46646600Y-59800800D01*
X46625400Y-59831600D01*
X46604700Y-59862800D01*
X46584600Y-59894400D01*
X46565100Y-59926300D01*
X46546100Y-59958500D01*
X46527700Y-59991100D01*
X46509800Y-60023900D01*
X46492600Y-60057100D01*
X46475900Y-60090600D01*
X46459800Y-60124300D01*
X46444300Y-60158400D01*
X46429400Y-60192700D01*
X46415000Y-60227200D01*
X46401300Y-60262000D01*
X46388200Y-60297100D01*
X46375800Y-60332300D01*
X46363900Y-60367800D01*
X46352600Y-60403400D01*
X46342000Y-60439300D01*
X46332000Y-60475400D01*
X46322700Y-60511600D01*
X46313900Y-60547900D01*
X46305800Y-60584400D01*
X46298400Y-60621100D01*
X46291600Y-60657900D01*
X46285400Y-60694800D01*
X46279900Y-60731800D01*
X46275000Y-60768800D01*
X46270700Y-60806000D01*
X46267200Y-60843200D01*
X46264200Y-60880500D01*
X46261900Y-60917800D01*
X46260300Y-60955200D01*
X46259300Y-60992600D01*
X46259000Y-61030000D01*
X43440000Y-61030000D01*
X43440000Y-59058000D01*
X43477000Y-58671000D01*
X43590000Y-58300000D01*
X43772000Y-57958000D01*
X44017000Y-57657000D01*
X44315000Y-57410000D01*
X44656000Y-57226000D01*
X45027000Y-57111000D01*
X45413000Y-57071000D01*
X49719000Y-57071000D01*
X51459000Y-57070000D01*
X51846000Y-57108000D01*
X52217000Y-57220000D01*
X52560000Y-57402000D01*
X52860000Y-57647000D01*
X53107000Y-57945000D01*
X53292000Y-58286000D01*
X53407000Y-58657000D01*
X53447000Y-59043000D01*
X53447000Y-67038000D01*
X53448000Y-67052000D01*
X53448000Y-67053000D01*
X53488000Y-67441000D01*
X53489000Y-67442000D01*
X53489000Y-67444000D01*
X53604000Y-67816000D01*
X53605000Y-67818000D01*
X53605000Y-67819000D01*
X53791000Y-68162000D01*
X53792000Y-68163000D01*
X53792000Y-68164000D01*
X54041000Y-68465000D01*
X54043000Y-68467000D01*
X54346000Y-68714000D01*
X54347000Y-68714000D01*
X54348000Y-68715000D01*
X54692000Y-68898000D01*
X54693000Y-68899000D01*
X54695000Y-68899000D01*
X55068000Y-69012000D01*
X55070000Y-69012000D01*
X55071000Y-69013000D01*
X55459000Y-69051000D01*
X66281000Y-69051000D01*
X66475000Y-69030000D01*
X66478000Y-69030000D01*
X66664000Y-68972000D01*
X66665000Y-68972000D01*
X66667000Y-68971000D01*
X66838000Y-68878000D01*
X66839000Y-68878000D01*
X66840000Y-68877000D01*
X66841000Y-68877000D01*
X66991000Y-68752000D01*
X66992000Y-68751000D01*
X66993000Y-68751000D01*
X66993000Y-68750000D01*
X67116000Y-68599000D01*
X67117000Y-68598000D01*
X67117000Y-68597000D01*
X67209000Y-68425000D01*
X67210000Y-68424000D01*
X67210000Y-68422000D01*
X67266000Y-68236000D01*
X67267000Y-68234000D01*
X67267000Y-68233000D01*
X67286000Y-68039000D01*
X67286000Y-67926000D01*
X67266000Y-67732000D01*
X67265000Y-67731000D01*
X67265000Y-67729000D01*
X67207000Y-67543000D01*
X67207000Y-67542000D01*
X67206000Y-67541000D01*
X67206000Y-67540000D01*
X67114000Y-67369000D01*
X67112000Y-67367000D01*
X66988000Y-67216000D01*
X66987000Y-67215000D01*
X66986000Y-67215000D01*
X66986000Y-67214000D01*
X66835000Y-67091000D01*
X66834000Y-67090000D01*
X66832000Y-67090000D01*
X66660000Y-66998000D01*
X66659000Y-66998000D01*
X66658000Y-66997000D01*
X66471000Y-66941000D01*
X66470000Y-66940000D01*
X66468000Y-66940000D01*
X66274000Y-66921000D01*
X64046000Y-66921000D01*
X61022000Y-66624000D01*
X60643000Y-66422000D01*
X60192000Y-66054000D01*
X59820000Y-65604000D01*
X59543000Y-65092000D01*
X59371000Y-64535000D01*
X59310000Y-63954000D01*
X59309000Y-63934000D01*
X59309000Y-63165000D01*
X59366000Y-62584000D01*
X59535000Y-62026000D01*
X59809000Y-61511000D01*
X60177000Y-61060000D01*
X60626000Y-60688000D01*
X61139000Y-60411000D01*
X61696000Y-60238000D01*
X62276000Y-60177000D01*
X69290000Y-60177000D01*
X69292000Y-60176000D01*
X69295000Y-60175000D01*
X69297000Y-60174000D01*
X69298000Y-60172000D01*
X69300000Y-60169000D01*
X69300000Y-60167000D01*
X69301000Y-60164000D01*
X69300000Y-60164000D01*
X69300000Y-59714000D01*
X69474000Y-59714000D01*
X69474000Y-60488000D01*
X68982000Y-60980000D01*
X62447000Y-60980000D01*
X62075000Y-61015000D01*
X62074000Y-61016000D01*
X62073000Y-61016000D01*
X61698000Y-61125000D01*
X61697000Y-61126000D01*
X61696000Y-61126000D01*
X61350000Y-61307000D01*
X61349000Y-61307000D01*
X61348000Y-61308000D01*
X60957000Y-61642000D01*
X60955000Y-61644000D01*
X60731000Y-61943000D01*
X60731000Y-61944000D01*
X60730000Y-61945000D01*
X60566000Y-62280000D01*
X60566000Y-62281000D01*
X60565000Y-62282000D01*
X60478000Y-62580000D01*
X60478000Y-62583000D01*
X60437000Y-62915000D01*
X60437000Y-62919000D01*
X60435000Y-62993000D01*
X60435000Y-63376000D01*
X60432000Y-63376000D01*
X60432000Y-63663000D01*
X60435000Y-63663000D01*
X60435000Y-64106000D01*
X60455000Y-64382000D01*
X60455000Y-64385000D01*
X60531000Y-64719000D01*
X60532000Y-64721000D01*
X60655000Y-65020000D01*
X60656000Y-65020000D01*
X60656000Y-65022000D01*
X60872000Y-65356000D01*
X60872000Y-65357000D01*
X60873000Y-65358000D01*
X60891000Y-65381000D01*
X60892000Y-65381000D01*
X60892000Y-65382000D01*
X61167000Y-65657000D01*
X61167000Y-65658000D01*
X61169000Y-65659000D01*
X61401000Y-65824000D01*
X61403000Y-65825000D01*
X61680000Y-65966000D01*
X61681000Y-65966000D01*
X61682000Y-65967000D01*
X61683000Y-65967000D01*
X62056000Y-66079000D01*
X62057000Y-66080000D01*
X62059000Y-66080000D01*
X62447000Y-66118000D01*
X76777000Y-66118000D01*
X77088000Y-66094000D01*
X77089000Y-66094000D01*
X77090000Y-66093000D01*
X77468000Y-65995000D01*
X77470000Y-65995000D01*
X77821000Y-65825000D01*
X77823000Y-65824000D01*
X78056000Y-65659000D01*
X78079000Y-65639000D01*
X78080000Y-65639000D01*
X78080000Y-65638000D01*
X78351000Y-65358000D01*
X78352000Y-65358000D01*
X78353000Y-65356000D01*
X78568000Y-65022000D01*
X78569000Y-65020000D01*
X78692000Y-64721000D01*
X78693000Y-64721000D01*
X78693000Y-64719000D01*
X78770000Y-64385000D01*
X78770000Y-64382000D01*
X78789000Y-64112000D01*
X78789000Y-63661000D01*
X78792000Y-63661000D01*
X78792000Y-63192000D01*
X78789000Y-63192000D01*
X78789000Y-62993000D01*
X78788000Y-62919000D01*
X78788000Y-62915000D01*
X78747000Y-62583000D01*
X78746000Y-62581000D01*
X78746000Y-62580000D01*
X78659000Y-62282000D01*
X78659000Y-62281000D01*
X78658000Y-62280000D01*
X78495000Y-61945000D01*
X78493000Y-61943000D01*
X78270000Y-61644000D01*
X78269000Y-61644000D01*
X78268000Y-61642000D01*
X77877000Y-61308000D01*
X77875000Y-61307000D01*
X77544000Y-61133000D01*
X77543000Y-61132000D01*
X77542000Y-61132000D01*
X77168000Y-61019000D01*
X77166000Y-61019000D01*
X77166000Y-61018000D01*
X76777000Y-60980000D01*
X70143000Y-60980000D01*
X69650000Y-60488000D01*
X69650000Y-59714000D01*
X69824000Y-59714000D01*
X69824000Y-60167000D01*
X69825000Y-60169000D01*
X69826000Y-60172000D01*
X69828000Y-60174000D01*
X69830000Y-60175000D01*
X69832000Y-60177000D01*
X69835000Y-60177000D01*
X69837000Y-60178000D01*
X76928000Y-60177000D01*
X77508000Y-60234000D01*
X78066000Y-60403000D01*
X78581000Y-60677000D01*
X79033000Y-61045000D01*
X79404000Y-61494000D01*
X79682000Y-62007000D01*
X79854000Y-62564000D01*
X79915000Y-63144000D01*
X79915000Y-63934000D01*
X79858000Y-64514000D01*
X79690000Y-65072000D01*
X79416000Y-65587000D01*
X79048000Y-66039000D01*
X78598000Y-66410000D01*
X75050000Y-66921000D01*
X73461000Y-66921000D01*
X73267000Y-66942000D01*
X73265000Y-66942000D01*
X73078000Y-67000000D01*
X73077000Y-67000000D01*
X73076000Y-67001000D01*
X72904000Y-67094000D01*
X72903000Y-67094000D01*
X72902000Y-67095000D01*
X72752000Y-67219000D01*
X72750000Y-67221000D01*
X72627000Y-67372000D01*
X72625000Y-67374000D01*
X72625000Y-67375000D01*
X72533000Y-67547000D01*
X72533000Y-67549000D01*
X72476000Y-67736000D01*
X72476000Y-67739000D01*
X72457000Y-67933000D01*
X72456000Y-67934000D01*
X72456000Y-68038000D01*
X72457000Y-68045000D01*
X72457000Y-68046000D01*
X72477000Y-68240000D01*
X72477000Y-68242000D01*
X72478000Y-68242000D01*
X72535000Y-68429000D01*
X72536000Y-68430000D01*
X72536000Y-68431000D01*
X72629000Y-68603000D01*
X72630000Y-68604000D01*
X72630000Y-68605000D01*
X72755000Y-68756000D01*
X72756000Y-68756000D01*
X72757000Y-68757000D01*
X72908000Y-68881000D01*
X72909000Y-68881000D01*
X72910000Y-68882000D01*
X73082000Y-68974000D01*
X73084000Y-68974000D01*
X73085000Y-68975000D01*
X73272000Y-69031000D01*
X73273000Y-69031000D01*
X73274000Y-69032000D01*
X73468000Y-69051000D01*
X83758000Y-69051000D01*
X84146000Y-69010000D01*
X84147000Y-69010000D01*
X84148000Y-69009000D01*
X84521000Y-68894000D01*
X84522000Y-68893000D01*
X84524000Y-68893000D01*
X84867000Y-68707000D01*
X84868000Y-68707000D01*
X84869000Y-68706000D01*
X85170000Y-68457000D01*
X85172000Y-68455000D01*
X85418000Y-68153000D01*
X85420000Y-68151000D01*
X85420000Y-68150000D01*
X85603000Y-67806000D01*
X85604000Y-67805000D01*
X85604000Y-67803000D01*
X85717000Y-67430000D01*
X85717000Y-67427000D01*
X85756000Y-67039000D01*
X85756000Y-61030000D01*
X88810000Y-61030000D01*
X88810300Y-61067400D01*
X88811300Y-61104800D01*
X88812900Y-61142200D01*
X88815200Y-61179500D01*
X88818200Y-61216800D01*
X88821700Y-61254000D01*
X88826000Y-61291200D01*
X88830900Y-61328200D01*
X88836400Y-61365200D01*
X88842600Y-61402100D01*
X88849400Y-61438900D01*
X88856800Y-61475600D01*
X88864900Y-61512100D01*
X88873700Y-61548400D01*
X88883000Y-61584600D01*
X88893000Y-61620700D01*
X88903600Y-61656600D01*
X88914900Y-61692200D01*
X88926800Y-61727700D01*
X88939200Y-61762900D01*
X88952300Y-61798000D01*
X88966000Y-61832800D01*
X88980400Y-61867300D01*
X88995300Y-61901600D01*
X89010800Y-61935700D01*
X89026900Y-61969400D01*
X89043600Y-62002900D01*
X89060800Y-62036100D01*
X89078700Y-62068900D01*
X89097100Y-62101500D01*
X89116100Y-62133700D01*
X89135600Y-62165600D01*
X89155700Y-62197200D01*
X89176400Y-62228400D01*
X89197600Y-62259200D01*
X89219300Y-62289600D01*
X89241500Y-62319700D01*
X89264300Y-62349400D01*
X89287600Y-62378600D01*
X89311400Y-62407500D01*
X89335700Y-62435900D01*
X89360400Y-62463900D01*
X89385700Y-62491500D01*
X89411500Y-62518700D01*
X89437700Y-62545300D01*
X89464300Y-62571500D01*
X89491500Y-62597300D01*
X89519100Y-62622600D01*
X89547100Y-62647300D01*
X89575500Y-62671600D01*
X89604400Y-62695400D01*
X89633600Y-62718700D01*
X89663300Y-62741500D01*
X89693400Y-62763700D01*
X89723800Y-62785400D01*
X89754600Y-62806600D01*
X89785800Y-62827300D01*
X89817400Y-62847400D01*
X89849300Y-62866900D01*
X89881500Y-62885900D01*
X89914100Y-62904300D01*
X89946900Y-62922200D01*
X89980100Y-62939400D01*
X90013600Y-62956100D01*
X90047300Y-62972200D01*
X90081400Y-62987700D01*
X90115700Y-63002600D01*
X90150200Y-63017000D01*
X90185000Y-63030700D01*
X90220100Y-63043800D01*
X90255300Y-63056200D01*
X90290800Y-63068100D01*
X90326400Y-63079400D01*
X90362300Y-63090000D01*
X90398400Y-63100000D01*
X90434600Y-63109300D01*
X90470900Y-63118100D01*
X90507400Y-63126200D01*
X90544100Y-63133600D01*
X90580900Y-63140400D01*
X90617800Y-63146600D01*
X90654800Y-63152100D01*
X90691800Y-63157000D01*
X90729000Y-63161300D01*
X90766200Y-63164800D01*
X90803500Y-63167800D01*
X90840800Y-63170100D01*
X90878200Y-63171700D01*
X90915600Y-63172700D01*
X90953000Y-63173000D01*
X90990400Y-63172700D01*
X91027800Y-63171700D01*
X91065200Y-63170100D01*
X91102500Y-63167800D01*
X91139800Y-63164800D01*
X91177000Y-63161300D01*
X91214200Y-63157000D01*
X91251200Y-63152100D01*
X91288200Y-63146600D01*
X91325100Y-63140400D01*
X91361900Y-63133600D01*
X91398600Y-63126200D01*
X91435100Y-63118100D01*
X91471400Y-63109300D01*
X91507600Y-63100000D01*
X91543700Y-63090000D01*
X91579600Y-63079400D01*
X91615200Y-63068100D01*
X91650700Y-63056200D01*
X91685900Y-63043800D01*
X91721000Y-63030700D01*
X91755800Y-63017000D01*
X91790300Y-63002600D01*
X91824600Y-62987700D01*
X91858700Y-62972200D01*
X91892400Y-62956100D01*
X91925900Y-62939400D01*
X91959100Y-62922200D01*
X91991900Y-62904300D01*
X92024500Y-62885900D01*
X92056700Y-62866900D01*
X92088600Y-62847400D01*
X92120200Y-62827300D01*
X92151400Y-62806600D01*
X92182200Y-62785400D01*
X92212600Y-62763700D01*
X92242700Y-62741500D01*
X92272400Y-62718700D01*
X92301600Y-62695400D01*
X92330500Y-62671600D01*
X92358900Y-62647300D01*
X92386900Y-62622600D01*
X92414500Y-62597300D01*
X92441700Y-62571500D01*
X92468300Y-62545300D01*
X92494500Y-62518700D01*
X92520300Y-62491500D01*
X92545600Y-62463900D01*
X92570300Y-62435900D01*
X92594600Y-62407500D01*
X92618400Y-62378600D01*
X92641700Y-62349400D01*
X92664500Y-62319700D01*
X92686700Y-62289600D01*
X92708400Y-62259200D01*
X92729600Y-62228400D01*
X92750300Y-62197200D01*
X92770400Y-62165600D01*
X92789900Y-62133700D01*
X92808900Y-62101500D01*
X92827300Y-62068900D01*
X92845200Y-62036100D01*
X92862400Y-62002900D01*
X92879100Y-61969400D01*
X92895200Y-61935700D01*
X92910700Y-61901600D01*
X92925600Y-61867300D01*
X92940000Y-61832800D01*
X92953700Y-61798000D01*
X92966800Y-61762900D01*
X92979200Y-61727700D01*
X92991100Y-61692200D01*
X93002400Y-61656600D01*
X93013000Y-61620700D01*
X93023000Y-61584600D01*
X93032300Y-61548400D01*
X93041100Y-61512100D01*
X93049200Y-61475600D01*
X93056600Y-61438900D01*
X93063400Y-61402100D01*
X93069600Y-61365200D01*
X93075100Y-61328200D01*
X93080000Y-61291200D01*
X93084300Y-61254000D01*
X93087800Y-61216800D01*
X93090800Y-61179500D01*
X93093100Y-61142200D01*
X93094700Y-61104800D01*
X93095700Y-61067400D01*
X93096000Y-61030000D01*
X93095700Y-60992600D01*
X93094700Y-60955200D01*
X93093100Y-60917800D01*
X93090800Y-60880500D01*
X93087800Y-60843200D01*
X93084300Y-60806000D01*
X93080000Y-60768800D01*
X93075100Y-60731800D01*
X93069600Y-60694800D01*
X93063400Y-60657900D01*
X93056600Y-60621100D01*
X93049200Y-60584400D01*
X93041100Y-60547900D01*
X93032300Y-60511600D01*
X93023000Y-60475400D01*
X93013000Y-60439300D01*
X93002400Y-60403400D01*
X92991100Y-60367800D01*
X92979200Y-60332300D01*
X92966800Y-60297100D01*
X92953700Y-60262000D01*
X92940000Y-60227200D01*
X92925600Y-60192700D01*
X92910700Y-60158400D01*
X92895200Y-60124300D01*
X92879100Y-60090600D01*
X92862400Y-60057100D01*
X92845200Y-60023900D01*
X92827300Y-59991100D01*
X92808900Y-59958500D01*
X92789900Y-59926300D01*
X92770400Y-59894400D01*
X92750300Y-59862800D01*
X92729600Y-59831600D01*
X92708400Y-59800800D01*
X92686700Y-59770400D01*
X92664500Y-59740300D01*
X92641700Y-59710600D01*
X92618400Y-59681400D01*
X92594600Y-59652500D01*
X92570300Y-59624100D01*
X92545600Y-59596100D01*
X92520300Y-59568500D01*
X92494500Y-59541300D01*
X92468300Y-59514700D01*
X92441700Y-59488500D01*
X92414500Y-59462700D01*
X92386900Y-59437400D01*
X92358900Y-59412700D01*
X92330500Y-59388400D01*
X92301600Y-59364600D01*
X92272400Y-59341300D01*
X92242700Y-59318500D01*
X92212600Y-59296300D01*
X92182200Y-59274600D01*
X92151400Y-59253400D01*
X92120200Y-59232700D01*
X92088600Y-59212600D01*
X92056700Y-59193100D01*
X92024500Y-59174100D01*
X91991900Y-59155700D01*
X91959100Y-59137800D01*
X91925900Y-59120600D01*
X91892400Y-59103900D01*
X91858700Y-59087800D01*
X91824600Y-59072300D01*
X91790300Y-59057400D01*
X91755800Y-59043000D01*
X91721000Y-59029300D01*
X91685900Y-59016200D01*
X91650700Y-59003800D01*
X91615200Y-58991900D01*
X91579600Y-58980600D01*
X91543700Y-58970000D01*
X91507600Y-58960000D01*
X91471400Y-58950700D01*
X91435100Y-58941900D01*
X91398600Y-58933800D01*
X91361900Y-58926400D01*
X91325100Y-58919600D01*
X91288200Y-58913400D01*
X91251200Y-58907900D01*
X91214200Y-58903000D01*
X91177000Y-58898700D01*
X91139800Y-58895200D01*
X91102500Y-58892200D01*
X91065200Y-58889900D01*
X91027800Y-58888300D01*
X90990400Y-58887300D01*
X90953000Y-58887000D01*
X90915600Y-58887300D01*
X90878200Y-58888300D01*
X90840800Y-58889900D01*
X90803500Y-58892200D01*
X90766200Y-58895200D01*
X90729000Y-58898700D01*
X90691800Y-58903000D01*
X90654800Y-58907900D01*
X90617800Y-58913400D01*
X90580900Y-58919600D01*
X90544100Y-58926400D01*
X90507400Y-58933800D01*
X90470900Y-58941900D01*
X90434600Y-58950700D01*
X90398400Y-58960000D01*
X90362300Y-58970000D01*
X90326400Y-58980600D01*
X90290800Y-58991900D01*
X90255300Y-59003800D01*
X90220100Y-59016200D01*
X90185000Y-59029300D01*
X90150200Y-59043000D01*
X90115700Y-59057400D01*
X90081400Y-59072300D01*
X90047300Y-59087800D01*
X90013600Y-59103900D01*
X89980100Y-59120600D01*
X89946900Y-59137800D01*
X89914100Y-59155700D01*
X89881500Y-59174100D01*
X89849300Y-59193100D01*
X89817400Y-59212600D01*
X89785800Y-59232700D01*
X89754600Y-59253400D01*
X89723800Y-59274600D01*
X89693400Y-59296300D01*
X89663300Y-59318500D01*
X89633600Y-59341300D01*
X89604400Y-59364600D01*
X89575500Y-59388400D01*
X89547100Y-59412700D01*
X89519100Y-59437400D01*
X89491500Y-59462700D01*
X89464300Y-59488500D01*
X89437700Y-59514700D01*
X89411500Y-59541300D01*
X89385700Y-59568500D01*
X89360400Y-59596100D01*
X89335700Y-59624100D01*
X89311400Y-59652500D01*
X89287600Y-59681400D01*
X89264300Y-59710600D01*
X89241500Y-59740300D01*
X89219300Y-59770400D01*
X89197600Y-59800800D01*
X89176400Y-59831600D01*
X89155700Y-59862800D01*
X89135600Y-59894400D01*
X89116100Y-59926300D01*
X89097100Y-59958500D01*
X89078700Y-59991100D01*
X89060800Y-60023900D01*
X89043600Y-60057100D01*
X89026900Y-60090600D01*
X89010800Y-60124300D01*
X88995300Y-60158400D01*
X88980400Y-60192700D01*
X88966000Y-60227200D01*
X88952300Y-60262000D01*
X88939200Y-60297100D01*
X88926800Y-60332300D01*
X88914900Y-60367800D01*
X88903600Y-60403400D01*
X88893000Y-60439300D01*
X88883000Y-60475400D01*
X88873700Y-60511600D01*
X88864900Y-60547900D01*
X88856800Y-60584400D01*
X88849400Y-60621100D01*
X88842600Y-60657900D01*
X88836400Y-60694800D01*
X88830900Y-60731800D01*
X88826000Y-60768800D01*
X88821700Y-60806000D01*
X88818200Y-60843200D01*
X88815200Y-60880500D01*
X88812900Y-60917800D01*
X88811300Y-60955200D01*
X88810300Y-60992600D01*
X88810000Y-61030000D01*
X85756000Y-61030000D01*
X85756000Y-58905000D01*
X85793000Y-58518000D01*
X85906000Y-58147000D01*
X86088000Y-57805000D01*
X86333000Y-57504000D01*
X86631000Y-57257000D01*
X86972000Y-57073000D01*
X87343000Y-56958000D01*
X87729000Y-56918000D01*
X92035000Y-56918000D01*
X93775000Y-56917000D01*
X94162000Y-56955000D01*
X94533000Y-57067000D01*
X94876000Y-57249000D01*
X95176000Y-57494000D01*
X95423000Y-57792000D01*
X95608000Y-58133000D01*
X95723000Y-58504000D01*
X95763000Y-58890000D01*
X95763000Y-67038000D01*
X95764000Y-67052000D01*
X95764000Y-67053000D01*
X95804000Y-67441000D01*
X95805000Y-67442000D01*
X95805000Y-67444000D01*
X95920000Y-67816000D01*
X95921000Y-67818000D01*
X95921000Y-67819000D01*
X96107000Y-68162000D01*
X96108000Y-68163000D01*
X96108000Y-68164000D01*
X96357000Y-68465000D01*
X96359000Y-68467000D01*
X96662000Y-68714000D01*
X96663000Y-68714000D01*
X96664000Y-68715000D01*
X97008000Y-68898000D01*
X97009000Y-68899000D01*
X97011000Y-68899000D01*
X97384000Y-69012000D01*
X97386000Y-69012000D01*
X97387000Y-69013000D01*
X97775000Y-69051000D01*
X100083000Y-69051000D01*
X100471000Y-69010000D01*
X100472000Y-69010000D01*
X100473000Y-69009000D01*
X100846000Y-68894000D01*
X100847000Y-68893000D01*
X100849000Y-68893000D01*
X101192000Y-68707000D01*
X101193000Y-68707000D01*
X101194000Y-68706000D01*
X101495000Y-68457000D01*
X101497000Y-68455000D01*
X101743000Y-68153000D01*
X101745000Y-68151000D01*
X101745000Y-68150000D01*
X101928000Y-67806000D01*
X101929000Y-67805000D01*
X101929000Y-67803000D01*
X102042000Y-67430000D01*
X102042000Y-67427000D01*
X102081000Y-67039000D01*
X102081000Y-50313000D01*
X102080000Y-50312000D01*
X102080000Y-50311000D01*
X102040000Y-49923000D01*
X102039000Y-49922000D01*
X102039000Y-49920000D01*
X101924000Y-49548000D01*
X101923000Y-49546000D01*
X101923000Y-49545000D01*
X101737000Y-49202000D01*
X101736000Y-49201000D01*
X101736000Y-49200000D01*
X101487000Y-48899000D01*
X101485000Y-48897000D01*
X101183000Y-48650000D01*
X101182000Y-48650000D01*
X101181000Y-48649000D01*
X101180000Y-48649000D01*
X100836000Y-48466000D01*
X100835000Y-48465000D01*
X100833000Y-48465000D01*
X100460000Y-48352000D01*
X100459000Y-48352000D01*
X100457000Y-48351000D01*
X100069000Y-48313000D01*
X94406000Y-48313000D01*
X94405000Y-48314000D01*
X94403000Y-48314000D01*
X94400000Y-48315000D01*
X94398000Y-48317000D01*
X94397000Y-48319000D01*
X94395000Y-48321000D01*
X94395000Y-48325000D01*
X94331000Y-48969000D01*
X94145000Y-49587000D01*
X93842000Y-50157000D01*
X93434000Y-50657000D01*
X92937000Y-51068000D01*
X92369000Y-51375000D01*
X91752000Y-51566000D01*
X91110000Y-51633000D01*
X90468000Y-51575000D01*
X89849000Y-51393000D01*
X89277000Y-51094000D01*
X88774000Y-50689000D01*
X88359000Y-50195000D01*
X88048000Y-49629000D01*
X87853000Y-49014000D01*
X87781000Y-48373000D01*
X87795320Y-48202300D01*
X89000700Y-48202300D01*
X89000800Y-48237400D01*
X89001500Y-48272500D01*
X89002800Y-48307500D01*
X89004700Y-48342600D01*
X89007300Y-48377600D01*
X89010400Y-48412500D01*
X89014200Y-48447400D01*
X89018500Y-48482200D01*
X89023500Y-48517000D01*
X89029100Y-48551600D01*
X89035300Y-48586200D01*
X89042100Y-48620600D01*
X89049500Y-48654900D01*
X89057500Y-48689100D01*
X89066100Y-48723100D01*
X89075300Y-48757000D01*
X89085100Y-48790700D01*
X89095500Y-48824200D01*
X89106500Y-48857500D01*
X89118100Y-48890600D01*
X89130200Y-48923600D01*
X89142900Y-48956300D01*
X89156200Y-48988800D01*
X89170000Y-49021000D01*
X89184400Y-49053000D01*
X89199400Y-49084800D01*
X89214900Y-49116200D01*
X89231000Y-49147400D01*
X89247600Y-49178300D01*
X89264800Y-49208900D01*
X89282500Y-49239200D01*
X89300700Y-49269200D01*
X89319500Y-49298900D01*
X89338700Y-49328200D01*
X89358500Y-49357200D01*
X89378800Y-49385900D01*
X89399600Y-49414100D01*
X89420900Y-49442000D01*
X89442600Y-49469600D01*
X89464900Y-49496700D01*
X89487600Y-49523500D01*
X89510700Y-49549800D01*
X89534400Y-49575800D01*
X89558500Y-49601300D01*
X89583000Y-49626400D01*
X89608000Y-49651000D01*
X89633400Y-49675300D01*
X89659200Y-49699000D01*
X89685400Y-49722300D01*
X89712100Y-49745200D01*
X89739100Y-49767600D01*
X89766500Y-49789400D01*
X89794300Y-49810900D01*
X89822500Y-49831800D01*
X89851000Y-49852200D01*
X89879900Y-49872100D01*
X89909200Y-49891500D01*
X89938700Y-49910400D01*
X89968600Y-49928800D01*
X89998900Y-49946700D01*
X90029400Y-49964000D01*
X90060200Y-49980700D01*
X90091300Y-49997000D01*
X90122700Y-50012700D01*
X90154400Y-50027800D01*
X90186300Y-50042400D01*
X90218500Y-50056400D01*
X90250900Y-50069800D01*
X90283600Y-50082700D01*
X90316400Y-50095000D01*
X90349500Y-50106700D01*
X90382800Y-50117800D01*
X90416300Y-50128400D01*
X90449900Y-50138300D01*
X90483700Y-50147700D01*
X90517700Y-50156500D01*
X90551800Y-50164700D01*
X90586100Y-50172300D01*
X90620500Y-50179200D01*
X90655000Y-50185600D01*
X90689600Y-50191400D01*
X90724300Y-50196500D01*
X90759100Y-50201100D01*
X90794000Y-50205000D01*
X90794000Y-50195000D01*
X91292000Y-50195000D01*
X91326600Y-50189600D01*
X91361200Y-50183600D01*
X91395600Y-50177000D01*
X91429900Y-50169800D01*
X91464000Y-50161900D01*
X91498100Y-50153500D01*
X91531900Y-50144500D01*
X91565600Y-50134900D01*
X91599200Y-50124700D01*
X91632500Y-50114000D01*
X91665700Y-50102600D01*
X91698600Y-50090700D01*
X91731400Y-50078100D01*
X91763900Y-50065100D01*
X91796200Y-50051400D01*
X91828200Y-50037200D01*
X91860000Y-50022400D01*
X91891500Y-50007100D01*
X91922700Y-49991200D01*
X91953700Y-49974800D01*
X91984400Y-49957800D01*
X92014700Y-49940300D01*
X92044800Y-49922300D01*
X92074500Y-49903700D01*
X92103900Y-49884700D01*
X92133000Y-49865100D01*
X92161700Y-49845000D01*
X92190100Y-49824400D01*
X92218100Y-49803300D01*
X92245700Y-49781800D01*
X92272900Y-49759700D01*
X92299800Y-49737200D01*
X92326200Y-49714200D01*
X92352300Y-49690800D01*
X92377900Y-49666900D01*
X92403100Y-49642500D01*
X92427900Y-49617700D01*
X92452200Y-49592500D01*
X92476100Y-49566900D01*
X92499600Y-49540800D01*
X92522600Y-49514300D01*
X92545100Y-49487500D01*
X92567100Y-49460200D01*
X92588700Y-49432600D01*
X92609700Y-49404600D01*
X92630300Y-49376200D01*
X92650400Y-49347500D01*
X92670000Y-49318400D01*
X92689000Y-49289000D01*
X92707600Y-49259300D01*
X92725600Y-49229200D01*
X92743100Y-49198800D01*
X92760000Y-49168200D01*
X92776400Y-49137200D01*
X92792300Y-49105900D01*
X92807600Y-49074400D01*
X92822400Y-49042600D01*
X92836600Y-49010600D01*
X92850200Y-48978300D01*
X92863300Y-48945800D01*
X92875800Y-48913100D01*
X92887700Y-48880100D01*
X92899100Y-48846900D01*
X92909800Y-48813600D01*
X92920000Y-48780000D01*
X92929600Y-48746300D01*
X92938600Y-48712500D01*
X92947000Y-48678400D01*
X92954800Y-48644300D01*
X92962000Y-48610000D01*
X92968600Y-48575600D01*
X92974600Y-48541000D01*
X92980000Y-48506400D01*
X92984800Y-48471700D01*
X92988900Y-48436900D01*
X92992500Y-48402000D01*
X92995500Y-48367100D01*
X92997800Y-48332100D01*
X92999500Y-48297100D01*
X93000600Y-48262100D01*
X93001100Y-48227000D01*
X93001000Y-48192000D01*
X93000300Y-48157000D01*
X92999000Y-48121900D01*
X92997000Y-48086900D01*
X92994400Y-48052000D01*
X92991300Y-48017100D01*
X92987500Y-47982200D01*
X92983100Y-47947500D01*
X92978100Y-47912800D01*
X92972400Y-47878200D01*
X92966200Y-47843700D01*
X92959400Y-47809300D01*
X92952000Y-47775100D01*
X92943900Y-47741000D01*
X92935300Y-47707000D01*
X92926100Y-47673200D01*
X92916300Y-47639500D01*
X92905900Y-47606100D01*
X92894900Y-47572800D01*
X92883400Y-47539700D01*
X92871200Y-47506800D01*
X92858500Y-47474100D01*
X92845200Y-47441700D01*
X92831400Y-47409500D01*
X92817000Y-47377600D01*
X92802000Y-47345900D01*
X92786500Y-47314500D01*
X92770400Y-47283300D01*
X92753800Y-47252500D01*
X92736700Y-47221900D01*
X92719000Y-47191600D01*
X92700800Y-47161700D01*
X92682000Y-47132100D01*
X92662800Y-47102800D01*
X92643000Y-47073800D01*
X92622800Y-47045200D01*
X92602000Y-47017000D01*
X91292000Y-48503000D01*
X91292000Y-50195000D01*
X90794000Y-50195000D01*
X90794000Y-48570000D01*
X89334000Y-47110000D01*
X89314900Y-47139400D01*
X89296200Y-47169200D01*
X89278100Y-47199200D01*
X89260600Y-47229600D01*
X89243500Y-47260300D01*
X89227100Y-47291300D01*
X89211100Y-47322500D01*
X89195700Y-47354100D01*
X89180900Y-47385900D01*
X89166600Y-47417900D01*
X89152900Y-47450200D01*
X89139800Y-47482800D01*
X89127200Y-47515500D01*
X89115200Y-47548500D01*
X89103800Y-47581700D01*
X89092900Y-47615100D01*
X89082700Y-47648700D01*
X89073100Y-47682400D01*
X89064000Y-47716300D01*
X89055500Y-47750400D01*
X89047700Y-47784600D01*
X89040400Y-47818900D01*
X89033800Y-47853400D01*
X89027700Y-47887900D01*
X89022300Y-47922600D01*
X89017400Y-47957300D01*
X89013200Y-47992200D01*
X89009600Y-48027100D01*
X89006600Y-48062100D01*
X89004200Y-48097100D01*
X89002400Y-48132100D01*
X89001300Y-48167200D01*
X89000700Y-48202300D01*
X87795320Y-48202300D01*
X87835000Y-47729000D01*
X88013000Y-47109000D01*
X88207790Y-46730000D01*
X89662000Y-46730000D01*
X91005000Y-48073000D01*
X92254000Y-46657000D01*
X92226300Y-46635100D01*
X92198300Y-46613800D01*
X92169800Y-46592900D01*
X92141000Y-46572600D01*
X92111900Y-46552700D01*
X92082400Y-46533400D01*
X92052600Y-46514600D01*
X92022400Y-46496300D01*
X91991900Y-46478600D01*
X91961100Y-46461400D01*
X91930100Y-46444700D01*
X91898700Y-46428600D01*
X91867000Y-46413000D01*
X91835100Y-46398100D01*
X91803000Y-46383600D01*
X91770500Y-46369800D01*
X91737900Y-46356500D01*
X91705000Y-46343800D01*
X91671800Y-46331700D01*
X91638500Y-46320100D01*
X91605000Y-46309200D01*
X91571300Y-46298800D01*
X91537400Y-46289100D01*
X91503400Y-46279900D01*
X91469100Y-46271300D01*
X91434800Y-46263400D01*
X91400300Y-46256000D01*
X91365700Y-46249300D01*
X91331000Y-46243200D01*
X91296100Y-46237700D01*
X91261200Y-46232800D01*
X91226200Y-46228500D01*
X91191100Y-46224800D01*
X91156000Y-46221800D01*
X91120800Y-46219300D01*
X91085600Y-46217500D01*
X91050300Y-46216400D01*
X91015100Y-46215800D01*
X90979800Y-46215900D01*
X90944600Y-46216500D01*
X90909300Y-46217800D01*
X90874100Y-46219800D01*
X90838900Y-46222300D01*
X90803800Y-46225500D01*
X90768800Y-46229300D01*
X90733800Y-46233700D01*
X90698900Y-46238700D01*
X90664100Y-46244300D01*
X90629300Y-46250600D01*
X90594800Y-46257400D01*
X90560300Y-46264900D01*
X90526000Y-46273000D01*
X90491800Y-46281600D01*
X90457800Y-46290900D01*
X90423900Y-46300800D01*
X90390200Y-46311200D01*
X90356800Y-46322300D01*
X90323500Y-46334000D01*
X90290400Y-46346200D01*
X90257500Y-46359000D01*
X90224900Y-46372400D01*
X90192500Y-46386400D01*
X90160400Y-46400900D01*
X90128500Y-46416000D01*
X90096900Y-46431700D01*
X90065600Y-46447900D01*
X90034600Y-46464700D01*
X90003900Y-46482000D01*
X89973500Y-46499800D01*
X89943400Y-46518200D01*
X89913600Y-46537100D01*
X89884200Y-46556500D01*
X89855100Y-46576500D01*
X89826400Y-46596900D01*
X89798000Y-46617900D01*
X89770000Y-46639300D01*
X89742400Y-46661300D01*
X89715200Y-46683700D01*
X89688400Y-46706600D01*
X89662000Y-46730000D01*
X88207790Y-46730000D01*
X88308000Y-46535000D01*
X88709000Y-46029000D01*
X89200000Y-45611000D01*
X89334000Y-45536200D01*
X89764000Y-45296000D01*
X90377000Y-45097000D01*
X91015100Y-45020500D01*
X91019000Y-45020000D01*
X91088000Y-45019000D01*
X101523000Y-45019000D01*
X102104000Y-45076000D01*
X102662000Y-45245000D01*
X103177000Y-45519000D01*
X103629000Y-45887000D01*
X104000000Y-46336000D01*
X104277000Y-46849000D01*
X104450000Y-47406000D01*
X104511000Y-47986000D01*
X104511000Y-67951000D01*
X104454000Y-68531000D01*
X104285000Y-69089000D01*
X104012000Y-69604000D01*
X103643000Y-70056000D01*
X103194000Y-70427000D01*
X102681000Y-70705000D01*
X102125000Y-70877000D01*
X101544000Y-70938000D01*
X95864000Y-70938000D01*
X95477000Y-70900000D01*
X95106000Y-70788000D01*
X94763000Y-70606000D01*
X92215000Y-68525000D01*
X92215000Y-66016000D01*
X92202000Y-65858000D01*
X92202000Y-65856000D01*
X92152000Y-65667000D01*
X92152000Y-65665000D01*
X92151000Y-65664000D01*
X92066000Y-65489000D01*
X92066000Y-65488000D01*
X92065000Y-65487000D01*
X91947000Y-65331000D01*
X91945000Y-65329000D01*
X91800000Y-65200000D01*
X91798000Y-65198000D01*
X91797000Y-65198000D01*
X91629000Y-65099000D01*
X91628000Y-65099000D01*
X91627000Y-65098000D01*
X91443000Y-65034000D01*
X91441000Y-65033000D01*
X91440000Y-65033000D01*
X91247000Y-65005000D01*
X90439000Y-65005000D01*
X90281000Y-65025000D01*
X90279000Y-65025000D01*
X90093000Y-65083000D01*
X90092000Y-65084000D01*
X90090000Y-65084000D01*
X89919000Y-65177000D01*
X89918000Y-65178000D01*
X89917000Y-65178000D01*
X89766000Y-65303000D01*
X89764000Y-65305000D01*
X89641000Y-65456000D01*
X89640000Y-65457000D01*
X89640000Y-65458000D01*
X89548000Y-65630000D01*
X89548000Y-65631000D01*
X89547000Y-65633000D01*
X89491000Y-65820000D01*
X89490000Y-65821000D01*
X89490000Y-65822000D01*
X89471000Y-66016000D01*
X89471000Y-66284000D01*
X89358000Y-66192000D01*
X89471000Y-66329000D01*
X89471000Y-68364000D01*
X86767000Y-70598000D01*
X86426000Y-70783000D01*
X86056000Y-70897000D01*
X85612000Y-70944000D01*
X53609000Y-70944000D01*
X53161000Y-70900000D01*
X52790000Y-70788000D01*
X52447000Y-70606000D01*
X49899000Y-68525000D01*
X49899000Y-65787000D01*
X49886000Y-65629000D01*
X49886000Y-65627000D01*
X49836000Y-65438000D01*
X49836000Y-65436000D01*
X49835000Y-65435000D01*
X49750000Y-65260000D01*
X49750000Y-65259000D01*
X49749000Y-65258000D01*
X49631000Y-65102000D01*
X49629000Y-65100000D01*
X49484000Y-64971000D01*
X49482000Y-64969000D01*
X49481000Y-64969000D01*
X49313000Y-64870000D01*
X49312000Y-64870000D01*
X49311000Y-64869000D01*
X49127000Y-64805000D01*
X49125000Y-64804000D01*
X49124000Y-64804000D01*
X48931000Y-64776000D01*
X48123000Y-64776000D01*
X47965000Y-64796000D01*
X47963000Y-64796000D01*
X47777000Y-64854000D01*
X47776000Y-64855000D01*
X47774000Y-64855000D01*
X47603000Y-64948000D01*
X47602000Y-64949000D01*
X47601000Y-64949000D01*
X47450000Y-65074000D01*
X47448000Y-65076000D01*
X47325000Y-65227000D01*
X47324000Y-65228000D01*
X47324000Y-65229000D01*
X47232000Y-65401000D01*
X47232000Y-65402000D01*
X47231000Y-65404000D01*
X47175000Y-65591000D01*
X47174000Y-65592000D01*
X47174000Y-65593000D01*
X47155000Y-65787000D01*
X47155000Y-66284000D01*
X47042000Y-66192000D01*
X47155000Y-66329000D01*
X47155000Y-68364000D01*
X44451000Y-70598000D01*
X44110000Y-70783000D01*
X43740000Y-70897000D01*
X43353000Y-70938000D01*
X37525000Y-70938000D01*
X36944000Y-70881000D01*
X36386000Y-70713000D01*
X35871000Y-70439000D01*
X35419000Y-70071000D01*
X35048000Y-69621000D01*
X34771000Y-69109000D01*
X34598000Y-68552000D01*
X34537000Y-67971000D01*
X34537000Y-48007000D01*
X34594000Y-47426000D01*
X34763000Y-46868000D01*
X34903480Y-46603000D01*
X47384000Y-46603000D01*
X48577000Y-47796000D01*
X49560000Y-46682000D01*
X49530800Y-46661900D01*
X49501300Y-46642300D01*
X49471400Y-46623300D01*
X49441200Y-46604800D01*
X49410700Y-46586800D01*
X49379900Y-46569400D01*
X49348700Y-46552500D01*
X49317300Y-46536200D01*
X49285600Y-46520400D01*
X49253600Y-46505200D01*
X49221300Y-46490500D01*
X49188800Y-46476500D01*
X49156100Y-46463000D01*
X49123100Y-46450100D01*
X49089900Y-46437800D01*
X49056400Y-46426100D01*
X49022800Y-46414900D01*
X48989000Y-46404400D01*
X48955000Y-46394500D01*
X48920800Y-46385100D01*
X48886500Y-46376400D01*
X48852000Y-46368300D01*
X48817400Y-46360800D01*
X48782600Y-46353900D01*
X48747800Y-46347600D01*
X48712800Y-46342000D01*
X48677700Y-46336900D01*
X48642600Y-46332500D01*
X48607400Y-46328700D01*
X48572100Y-46325600D01*
X48536800Y-46323000D01*
X48501400Y-46321100D01*
X48466000Y-46319800D01*
X48430600Y-46319200D01*
X48395200Y-46319200D01*
X48359700Y-46319700D01*
X48324300Y-46321000D01*
X48289000Y-46322800D01*
X48253600Y-46325300D01*
X48218300Y-46328400D01*
X48183100Y-46332100D01*
X48148000Y-46336500D01*
X48112900Y-46341500D01*
X48077900Y-46347000D01*
X48043000Y-46353300D01*
X48008300Y-46360100D01*
X47973600Y-46367500D01*
X47939100Y-46375600D01*
X47904800Y-46384200D01*
X47870600Y-46393500D01*
X47836600Y-46403400D01*
X47802800Y-46413900D01*
X47769100Y-46424900D01*
X47735700Y-46436600D01*
X47702400Y-46448900D01*
X47669400Y-46461700D01*
X47636600Y-46475100D01*
X47604100Y-46489100D01*
X47571800Y-46503700D01*
X47539800Y-46518900D01*
X47508100Y-46534600D01*
X47476600Y-46550900D01*
X47445400Y-46567700D01*
X47414600Y-46585100D01*
X47384000Y-46603000D01*
X34903480Y-46603000D01*
X35036000Y-46353000D01*
X35405000Y-45902000D01*
X35854000Y-45530000D01*
X36367000Y-45253000D01*
X36923000Y-45080000D01*
X37504000Y-45019000D01*
X48482000Y-45019000D01*
X49124000Y-45092000D01*
X49739000Y-45288000D01*
X49930000Y-45393100D01*
X50304000Y-45599000D01*
X50798000Y-46015000D01*
X51202000Y-46518000D01*
X51501000Y-47090000D01*
X51682000Y-47710000D01*
X51740000Y-48353000D01*
X51672000Y-48994000D01*
X51481000Y-49611000D01*
X51173000Y-50178000D01*
X50761000Y-50675000D01*
X50261000Y-51082000D01*
X49690000Y-51385000D01*
X49072000Y-51571000D01*
X48430000Y-51633000D01*
X47788000Y-51570000D01*
X47170000Y-51382000D01*
X46600000Y-51079000D01*
X46101000Y-50670000D01*
X45690000Y-50173000D01*
X45383000Y-49605000D01*
X45193000Y-48988000D01*
X45126000Y-48345000D01*
X45126000Y-48336000D01*
X46410900Y-48336000D01*
X46411500Y-48371000D01*
X46412700Y-48406000D01*
X46414600Y-48440900D01*
X46417000Y-48475800D01*
X46420100Y-48510700D01*
X46423700Y-48545500D01*
X46428000Y-48580200D01*
X46432900Y-48614800D01*
X46438400Y-48649400D01*
X46444500Y-48683900D01*
X46451200Y-48718200D01*
X46458500Y-48752400D01*
X46466400Y-48786500D01*
X46474800Y-48820500D01*
X46483900Y-48854300D01*
X46493600Y-48887900D01*
X46503800Y-48921300D01*
X46514700Y-48954600D01*
X46526100Y-48987700D01*
X46538100Y-49020600D01*
X46550700Y-49053200D01*
X46563800Y-49085600D01*
X46577500Y-49117800D01*
X46591800Y-49149800D01*
X46606600Y-49181500D01*
X46622000Y-49212900D01*
X46637900Y-49244100D01*
X46654300Y-49275000D01*
X46671300Y-49305500D01*
X46688900Y-49335800D01*
X46706900Y-49365800D01*
X46725500Y-49395400D01*
X46744600Y-49424800D01*
X46764200Y-49453700D01*
X46784300Y-49482400D01*
X46805000Y-49510700D01*
X46826100Y-49538600D01*
X46847600Y-49566100D01*
X46869700Y-49593300D01*
X46892300Y-49620000D01*
X46915300Y-49646400D01*
X46938700Y-49672400D01*
X46962600Y-49697900D01*
X46987000Y-49723000D01*
X47011800Y-49747700D01*
X47037000Y-49772000D01*
X47062600Y-49795800D01*
X47088700Y-49819200D01*
X47115100Y-49842100D01*
X47142000Y-49864500D01*
X47169200Y-49886500D01*
X47196800Y-49907900D01*
X47224800Y-49928900D01*
X47253200Y-49949400D01*
X47281900Y-49969400D01*
X47311000Y-49988900D01*
X47340400Y-50007900D01*
X47370100Y-50026400D01*
X47400100Y-50044300D01*
X47430500Y-50061800D01*
X47461100Y-50078600D01*
X47492000Y-50095000D01*
X47523300Y-50110800D01*
X47554800Y-50126000D01*
X47586500Y-50140700D01*
X47618500Y-50154900D01*
X47650800Y-50168500D01*
X47683200Y-50181500D01*
X47716000Y-50193900D01*
X47748900Y-50205800D01*
X47782000Y-50217100D01*
X47815300Y-50227800D01*
X47848800Y-50237900D01*
X47882500Y-50247500D01*
X47916300Y-50256400D01*
X47950300Y-50264800D01*
X47984400Y-50272500D01*
X48018600Y-50279700D01*
X48053000Y-50286200D01*
X48087500Y-50292200D01*
X48122100Y-50297500D01*
X48156700Y-50302300D01*
X48191500Y-50306400D01*
X48226300Y-50310000D01*
X48261200Y-50312900D01*
X48296100Y-50315200D01*
X48331000Y-50316900D01*
X48366000Y-50318000D01*
X48366000Y-50267000D01*
X48864000Y-50267000D01*
X48898100Y-50258800D01*
X48932000Y-50249900D01*
X48965800Y-50240500D01*
X48999400Y-50230500D01*
X49032800Y-50219900D01*
X49066000Y-50208700D01*
X49099100Y-50196900D01*
X49131900Y-50184600D01*
X49164500Y-50171600D01*
X49196800Y-50158200D01*
X49229000Y-50144100D01*
X49260800Y-50129500D01*
X49292500Y-50114300D01*
X49323800Y-50098600D01*
X49354900Y-50082300D01*
X49385600Y-50065500D01*
X49416100Y-50048200D01*
X49446300Y-50030300D01*
X49476100Y-50011900D01*
X49505600Y-49992900D01*
X49534800Y-49973500D01*
X49563600Y-49953500D01*
X49592100Y-49933100D01*
X49620200Y-49912100D01*
X49648000Y-49890700D01*
X49675300Y-49868800D01*
X49702300Y-49846400D01*
X49728900Y-49823500D01*
X49755100Y-49800200D01*
X49780800Y-49776400D01*
X49806200Y-49752200D01*
X49831100Y-49727500D01*
X49855600Y-49702400D01*
X49879600Y-49676900D01*
X49903200Y-49650900D01*
X49926300Y-49624500D01*
X49949000Y-49597800D01*
X49971100Y-49570600D01*
X49992900Y-49543100D01*
X50014100Y-49515200D01*
X50034800Y-49486900D01*
X50055000Y-49458300D01*
X50074800Y-49429300D01*
X50094000Y-49399900D01*
X50112700Y-49370300D01*
X50130800Y-49340300D01*
X50148500Y-49310000D01*
X50165600Y-49279400D01*
X50182200Y-49248500D01*
X50198200Y-49217300D01*
X50213700Y-49185800D01*
X50228600Y-49154100D01*
X50243000Y-49122100D01*
X50256800Y-49089900D01*
X50270000Y-49057400D01*
X50282700Y-49024700D01*
X50294700Y-48991800D01*
X50306300Y-48958700D01*
X50317200Y-48925400D01*
X50327500Y-48891900D01*
X50337300Y-48858200D01*
X50346400Y-48824300D01*
X50355000Y-48790300D01*
X50363000Y-48756200D01*
X50370300Y-48721900D01*
X50377100Y-48687500D01*
X50383300Y-48653000D01*
X50388800Y-48618400D01*
X50393800Y-48583700D01*
X50398100Y-48548900D01*
X50401900Y-48514000D01*
X50405000Y-48479100D01*
X50407500Y-48444100D01*
X50409400Y-48409100D01*
X50410700Y-48374000D01*
X50411300Y-48339000D01*
X50411400Y-48303900D01*
X50410800Y-48268900D01*
X50409600Y-48233800D01*
X50407800Y-48198800D01*
X50405400Y-48163800D01*
X50402400Y-48128900D01*
X50398800Y-48094000D01*
X50394500Y-48059200D01*
X50389700Y-48024500D01*
X50384200Y-47989800D01*
X50378200Y-47955300D01*
X50371500Y-47920900D01*
X50364200Y-47886600D01*
X50356300Y-47852400D01*
X50347900Y-47818400D01*
X50338800Y-47784500D01*
X50329100Y-47750800D01*
X50318900Y-47717300D01*
X50308100Y-47683900D01*
X50296600Y-47650800D01*
X50284600Y-47617800D01*
X50272100Y-47585100D01*
X50258900Y-47552600D01*
X50245200Y-47520300D01*
X50230900Y-47488300D01*
X50216100Y-47456500D01*
X50200700Y-47425000D01*
X50184800Y-47393800D01*
X50168300Y-47362800D01*
X50151300Y-47332200D01*
X50133700Y-47301800D01*
X50115600Y-47271800D01*
X50097000Y-47242100D01*
X50077900Y-47212700D01*
X50058300Y-47183600D01*
X50038100Y-47155000D01*
X50017500Y-47126600D01*
X49996300Y-47098600D01*
X49974700Y-47071000D01*
X49952600Y-47043800D01*
X49930000Y-47017000D01*
X48864000Y-48226000D01*
X48864000Y-50267000D01*
X48366000Y-50267000D01*
X48366000Y-48293000D01*
X46987000Y-46914000D01*
X46962600Y-46939100D01*
X46938700Y-46964700D01*
X46915300Y-46990600D01*
X46892300Y-47017000D01*
X46869700Y-47043800D01*
X46847700Y-47070900D01*
X46826100Y-47098500D01*
X46805000Y-47126400D01*
X46784400Y-47154600D01*
X46764300Y-47183300D01*
X46744600Y-47212300D01*
X46725500Y-47241600D01*
X46707000Y-47271200D01*
X46688900Y-47301200D01*
X46671400Y-47331500D01*
X46654400Y-47362100D01*
X46637900Y-47392900D01*
X46622000Y-47424100D01*
X46606600Y-47455500D01*
X46591800Y-47487200D01*
X46577500Y-47519200D01*
X46563800Y-47551400D01*
X46550700Y-47583800D01*
X46538100Y-47616500D01*
X46526100Y-47649300D01*
X46514700Y-47682400D01*
X46503800Y-47715700D01*
X46493600Y-47749100D01*
X46483900Y-47782800D01*
X46474800Y-47816600D01*
X46466400Y-47850500D01*
X46458500Y-47884600D01*
X46451200Y-47918800D01*
X46444500Y-47953200D01*
X46438400Y-47987600D01*
X46432900Y-48022200D01*
X46428000Y-48056800D01*
X46423700Y-48091600D01*
X46420100Y-48126400D01*
X46417000Y-48161200D01*
X46414600Y-48196100D01*
X46412700Y-48231100D01*
X46411500Y-48266000D01*
X46410900Y-48301000D01*
X46410900Y-48336000D01*
X45126000Y-48336000D01*
X45126000Y-48324000D01*
X45125000Y-48321000D01*
G37*
D10*
X67320000Y-58347500D03*
X67820000Y-58347500D03*
X68320000Y-58347500D03*
D11*
X68820000Y-58347500D03*
X69320000Y-58347500D03*
D10*
X69820000Y-58347500D03*
D12*
X70507500Y-57660000D03*
X70507500Y-57160000D03*
X70507500Y-56660000D03*
X70507500Y-56160000D03*
X70507500Y-55660000D03*
X70507500Y-55160000D03*
D10*
X69820000Y-54472500D03*
X69320000Y-54472500D03*
X68820000Y-54472500D03*
X68320000Y-54472500D03*
X67820000Y-54472500D03*
X67320000Y-54472500D03*
D12*
X66632500Y-55160000D03*
X66632500Y-55660000D03*
X66632500Y-56160000D03*
X66632500Y-56660000D03*
X66632500Y-57160000D03*
X66632500Y-57660000D03*
D13*
X68570000Y-56410000D03*
D14*
X69387000Y-59814000D03*
X69736000Y-59814000D03*
D15*
X65260000Y-57210000D03*
D16*
X65260000Y-56645000D03*
D15*
X65260000Y-56080000D03*
D17*
X67820000Y-54472500D02*
X67820000Y-55660000D01*
X70507500Y-57660000D02*
X69820000Y-57660000D01*
X67820000Y-55660000D02*
X68570000Y-56410000D01*
X69820000Y-57660000D02*
X68570000Y-56410000D01*
X66632500Y-55660000D02*
X67820000Y-55660000D01*
X67820000Y-54082703D02*
X67820000Y-54472500D01*
D18*
X65340000Y-56160000D02*
X65260000Y-56080000D01*
X66632500Y-56160000D02*
X65340000Y-56160000D01*
X66617500Y-56645000D02*
X66632500Y-56660000D01*
X65260000Y-56645000D02*
X66617500Y-56645000D01*
X65310000Y-57160000D02*
X65260000Y-57210000D01*
X66632500Y-57160000D02*
X65310000Y-57160000D01*
D17*
X69820000Y-59628000D02*
X69726000Y-59722000D01*
X69820000Y-58547500D02*
X69820000Y-59628000D01*
X69320000Y-58547500D02*
X69320000Y-59666000D01*
X69320000Y-59666000D02*
X69376000Y-59722000D01*
M02*
