G04 #@! TF.GenerationSoftware,KiCad,Pcbnew,6.0.9-8da3e8f707~117~ubuntu20.04.1*
G04 #@! TF.CreationDate,2022-12-15T16:30:46+01:00*
G04 #@! TF.ProjectId,picsyle-R_motion_915,70696373-796c-4652-9d52-5f6d6f74696f,rev?*
G04 #@! TF.SameCoordinates,Original*
G04 #@! TF.FileFunction,Legend,Top*
G04 #@! TF.FilePolarity,Positive*
%FSLAX46Y46*%
G04 Gerber Fmt 4.6, Leading zero omitted, Abs format (unit mm)*
G04 Created by KiCad (PCBNEW 6.0.9-8da3e8f707~117~ubuntu20.04.1) date 2022-12-15 16:30:46*
%MOMM*%
%LPD*%
G01*
G04 APERTURE LIST*
%ADD10C,0.300000*%
%ADD11C,0.150000*%
%ADD12C,0.120000*%
%ADD13C,0.010000*%
G04 APERTURE END LIST*
D10*
X57290000Y-46392500D02*
X58004285Y-46392500D01*
X57147142Y-46821071D02*
X57647142Y-45321071D01*
X58147142Y-46821071D01*
X58575714Y-46749642D02*
X58790000Y-46821071D01*
X59147142Y-46821071D01*
X59290000Y-46749642D01*
X59361428Y-46678214D01*
X59432857Y-46535357D01*
X59432857Y-46392500D01*
X59361428Y-46249642D01*
X59290000Y-46178214D01*
X59147142Y-46106785D01*
X58861428Y-46035357D01*
X58718571Y-45963928D01*
X58647142Y-45892500D01*
X58575714Y-45749642D01*
X58575714Y-45606785D01*
X58647142Y-45463928D01*
X58718571Y-45392500D01*
X58861428Y-45321071D01*
X59218571Y-45321071D01*
X59432857Y-45392500D01*
X59932857Y-45321071D02*
X60861428Y-45321071D01*
X60361428Y-45892500D01*
X60575714Y-45892500D01*
X60718571Y-45963928D01*
X60790000Y-46035357D01*
X60861428Y-46178214D01*
X60861428Y-46535357D01*
X60790000Y-46678214D01*
X60718571Y-46749642D01*
X60575714Y-46821071D01*
X60147142Y-46821071D01*
X60004285Y-46749642D01*
X59932857Y-46678214D01*
X61432857Y-45463928D02*
X61504285Y-45392500D01*
X61647142Y-45321071D01*
X62004285Y-45321071D01*
X62147142Y-45392500D01*
X62218571Y-45463928D01*
X62290000Y-45606785D01*
X62290000Y-45749642D01*
X62218571Y-45963928D01*
X61361428Y-46821071D01*
X62290000Y-46821071D01*
X63718571Y-46821071D02*
X62861428Y-46821071D01*
X63290000Y-46821071D02*
X63290000Y-45321071D01*
X63147142Y-45535357D01*
X63004285Y-45678214D01*
X62861428Y-45749642D01*
X64218571Y-45321071D02*
X65218571Y-46821071D01*
X65218571Y-45321071D02*
X64218571Y-46821071D01*
X65790000Y-46249642D02*
X66932857Y-46249642D01*
X67647142Y-46035357D02*
X68147142Y-46035357D01*
X68361428Y-46821071D02*
X67647142Y-46821071D01*
X67647142Y-45321071D01*
X68361428Y-45321071D01*
X68790000Y-45321071D02*
X69290000Y-46821071D01*
X69790000Y-45321071D01*
X70218571Y-46392500D02*
X70932857Y-46392500D01*
X70075714Y-46821071D02*
X70575714Y-45321071D01*
X71075714Y-46821071D01*
X72290000Y-46821071D02*
X71575714Y-46821071D01*
X71575714Y-45321071D01*
X72790000Y-46249642D02*
X73932857Y-46249642D01*
X74647142Y-46821071D02*
X74647142Y-45321071D01*
X75147142Y-46392500D01*
X75647142Y-45321071D01*
X75647142Y-46821071D01*
X76647142Y-45321071D02*
X76932857Y-45321071D01*
X77075714Y-45392500D01*
X77218571Y-45535357D01*
X77290000Y-45821071D01*
X77290000Y-46321071D01*
X77218571Y-46606785D01*
X77075714Y-46749642D01*
X76932857Y-46821071D01*
X76647142Y-46821071D01*
X76504285Y-46749642D01*
X76361428Y-46606785D01*
X76290000Y-46321071D01*
X76290000Y-45821071D01*
X76361428Y-45535357D01*
X76504285Y-45392500D01*
X76647142Y-45321071D01*
X77718571Y-45321071D02*
X78575714Y-45321071D01*
X78147142Y-46821071D02*
X78147142Y-45321071D01*
X79075714Y-46821071D02*
X79075714Y-45321071D01*
X80075714Y-45321071D02*
X80361428Y-45321071D01*
X80504285Y-45392500D01*
X80647142Y-45535357D01*
X80718571Y-45821071D01*
X80718571Y-46321071D01*
X80647142Y-46606785D01*
X80504285Y-46749642D01*
X80361428Y-46821071D01*
X80075714Y-46821071D01*
X79932857Y-46749642D01*
X79790000Y-46606785D01*
X79718571Y-46321071D01*
X79718571Y-45821071D01*
X79790000Y-45535357D01*
X79932857Y-45392500D01*
X80075714Y-45321071D01*
X81361428Y-46821071D02*
X81361428Y-45321071D01*
X82218571Y-46821071D01*
X82218571Y-45321071D01*
X61968571Y-47736071D02*
X62468571Y-49236071D01*
X62968571Y-47736071D01*
X64111428Y-48236071D02*
X64111428Y-49236071D01*
X63754285Y-47664642D02*
X63397142Y-48736071D01*
X64325714Y-48736071D01*
X65968571Y-48807500D02*
X66682857Y-48807500D01*
X65825714Y-49236071D02*
X66325714Y-47736071D01*
X66825714Y-49236071D01*
X67254285Y-49164642D02*
X67468571Y-49236071D01*
X67825714Y-49236071D01*
X67968571Y-49164642D01*
X68040000Y-49093214D01*
X68111428Y-48950357D01*
X68111428Y-48807500D01*
X68040000Y-48664642D01*
X67968571Y-48593214D01*
X67825714Y-48521785D01*
X67540000Y-48450357D01*
X67397142Y-48378928D01*
X67325714Y-48307500D01*
X67254285Y-48164642D01*
X67254285Y-48021785D01*
X67325714Y-47878928D01*
X67397142Y-47807500D01*
X67540000Y-47736071D01*
X67897142Y-47736071D01*
X68111428Y-47807500D01*
X68611428Y-47736071D02*
X69540000Y-47736071D01*
X69040000Y-48307500D01*
X69254285Y-48307500D01*
X69397142Y-48378928D01*
X69468571Y-48450357D01*
X69540000Y-48593214D01*
X69540000Y-48950357D01*
X69468571Y-49093214D01*
X69397142Y-49164642D01*
X69254285Y-49236071D01*
X68825714Y-49236071D01*
X68682857Y-49164642D01*
X68611428Y-49093214D01*
X70111428Y-47878928D02*
X70182857Y-47807500D01*
X70325714Y-47736071D01*
X70682857Y-47736071D01*
X70825714Y-47807500D01*
X70897142Y-47878928D01*
X70968571Y-48021785D01*
X70968571Y-48164642D01*
X70897142Y-48378928D01*
X70040000Y-49236071D01*
X70968571Y-49236071D01*
X72397142Y-49236071D02*
X71540000Y-49236071D01*
X71968571Y-49236071D02*
X71968571Y-47736071D01*
X71825714Y-47950357D01*
X71682857Y-48093214D01*
X71540000Y-48164642D01*
X72897142Y-47736071D02*
X73825714Y-47736071D01*
X73325714Y-48307500D01*
X73540000Y-48307500D01*
X73682857Y-48378928D01*
X73754285Y-48450357D01*
X73825714Y-48593214D01*
X73825714Y-48950357D01*
X73754285Y-49093214D01*
X73682857Y-49164642D01*
X73540000Y-49236071D01*
X73111428Y-49236071D01*
X72968571Y-49164642D01*
X72897142Y-49093214D01*
X75325714Y-49093214D02*
X75254285Y-49164642D01*
X75040000Y-49236071D01*
X74897142Y-49236071D01*
X74682857Y-49164642D01*
X74540000Y-49021785D01*
X74468571Y-48878928D01*
X74397142Y-48593214D01*
X74397142Y-48378928D01*
X74468571Y-48093214D01*
X74540000Y-47950357D01*
X74682857Y-47807500D01*
X74897142Y-47736071D01*
X75040000Y-47736071D01*
X75254285Y-47807500D01*
X75325714Y-47878928D01*
X75968571Y-49093214D02*
X76040000Y-49164642D01*
X75968571Y-49236071D01*
X75897142Y-49164642D01*
X75968571Y-49093214D01*
X75968571Y-49236071D01*
X77325714Y-48236071D02*
X77325714Y-49236071D01*
X76968571Y-47664642D02*
X76611428Y-48736071D01*
X77540000Y-48736071D01*
D11*
X36585714Y-73632380D02*
X36252380Y-73156190D01*
X36014285Y-73632380D02*
X36014285Y-72632380D01*
X36395238Y-72632380D01*
X36490476Y-72680000D01*
X36538095Y-72727619D01*
X36585714Y-72822857D01*
X36585714Y-72965714D01*
X36538095Y-73060952D01*
X36490476Y-73108571D01*
X36395238Y-73156190D01*
X36014285Y-73156190D01*
X37157142Y-73632380D02*
X37061904Y-73584761D01*
X37014285Y-73537142D01*
X36966666Y-73441904D01*
X36966666Y-73156190D01*
X37014285Y-73060952D01*
X37061904Y-73013333D01*
X37157142Y-72965714D01*
X37300000Y-72965714D01*
X37395238Y-73013333D01*
X37442857Y-73060952D01*
X37490476Y-73156190D01*
X37490476Y-73441904D01*
X37442857Y-73537142D01*
X37395238Y-73584761D01*
X37300000Y-73632380D01*
X37157142Y-73632380D01*
X37919047Y-73632380D02*
X37919047Y-72632380D01*
X37919047Y-73108571D02*
X38490476Y-73108571D01*
X38490476Y-73632380D02*
X38490476Y-72632380D01*
X38919047Y-73584761D02*
X39061904Y-73632380D01*
X39300000Y-73632380D01*
X39395238Y-73584761D01*
X39442857Y-73537142D01*
X39490476Y-73441904D01*
X39490476Y-73346666D01*
X39442857Y-73251428D01*
X39395238Y-73203809D01*
X39300000Y-73156190D01*
X39109523Y-73108571D01*
X39014285Y-73060952D01*
X38966666Y-73013333D01*
X38919047Y-72918095D01*
X38919047Y-72822857D01*
X38966666Y-72727619D01*
X39014285Y-72680000D01*
X39109523Y-72632380D01*
X39347619Y-72632380D01*
X39490476Y-72680000D01*
X41109523Y-73584761D02*
X41014285Y-73632380D01*
X40823809Y-73632380D01*
X40728571Y-73584761D01*
X40680952Y-73537142D01*
X40633333Y-73441904D01*
X40633333Y-73156190D01*
X40680952Y-73060952D01*
X40728571Y-73013333D01*
X40823809Y-72965714D01*
X41014285Y-72965714D01*
X41109523Y-73013333D01*
X41680952Y-73632380D02*
X41585714Y-73584761D01*
X41538095Y-73537142D01*
X41490476Y-73441904D01*
X41490476Y-73156190D01*
X41538095Y-73060952D01*
X41585714Y-73013333D01*
X41680952Y-72965714D01*
X41823809Y-72965714D01*
X41919047Y-73013333D01*
X41966666Y-73060952D01*
X42014285Y-73156190D01*
X42014285Y-73441904D01*
X41966666Y-73537142D01*
X41919047Y-73584761D01*
X41823809Y-73632380D01*
X41680952Y-73632380D01*
X42442857Y-73632380D02*
X42442857Y-72965714D01*
X42442857Y-73060952D02*
X42490476Y-73013333D01*
X42585714Y-72965714D01*
X42728571Y-72965714D01*
X42823809Y-73013333D01*
X42871428Y-73108571D01*
X42871428Y-73632380D01*
X42871428Y-73108571D02*
X42919047Y-73013333D01*
X43014285Y-72965714D01*
X43157142Y-72965714D01*
X43252380Y-73013333D01*
X43300000Y-73108571D01*
X43300000Y-73632380D01*
X43776190Y-72965714D02*
X43776190Y-73965714D01*
X43776190Y-73013333D02*
X43871428Y-72965714D01*
X44061904Y-72965714D01*
X44157142Y-73013333D01*
X44204761Y-73060952D01*
X44252380Y-73156190D01*
X44252380Y-73441904D01*
X44204761Y-73537142D01*
X44157142Y-73584761D01*
X44061904Y-73632380D01*
X43871428Y-73632380D01*
X43776190Y-73584761D01*
X44823809Y-73632380D02*
X44728571Y-73584761D01*
X44680952Y-73489523D01*
X44680952Y-72632380D01*
X45204761Y-73632380D02*
X45204761Y-72965714D01*
X45204761Y-72632380D02*
X45157142Y-72680000D01*
X45204761Y-72727619D01*
X45252380Y-72680000D01*
X45204761Y-72632380D01*
X45204761Y-72727619D01*
X46109523Y-73632380D02*
X46109523Y-73108571D01*
X46061904Y-73013333D01*
X45966666Y-72965714D01*
X45776190Y-72965714D01*
X45680952Y-73013333D01*
X46109523Y-73584761D02*
X46014285Y-73632380D01*
X45776190Y-73632380D01*
X45680952Y-73584761D01*
X45633333Y-73489523D01*
X45633333Y-73394285D01*
X45680952Y-73299047D01*
X45776190Y-73251428D01*
X46014285Y-73251428D01*
X46109523Y-73203809D01*
X46585714Y-72965714D02*
X46585714Y-73632380D01*
X46585714Y-73060952D02*
X46633333Y-73013333D01*
X46728571Y-72965714D01*
X46871428Y-72965714D01*
X46966666Y-73013333D01*
X47014285Y-73108571D01*
X47014285Y-73632380D01*
X47347619Y-72965714D02*
X47728571Y-72965714D01*
X47490476Y-72632380D02*
X47490476Y-73489523D01*
X47538095Y-73584761D01*
X47633333Y-73632380D01*
X47728571Y-73632380D01*
X67848095Y-52662380D02*
X67848095Y-53471904D01*
X67895714Y-53567142D01*
X67943333Y-53614761D01*
X68038571Y-53662380D01*
X68229047Y-53662380D01*
X68324285Y-53614761D01*
X68371904Y-53567142D01*
X68419523Y-53471904D01*
X68419523Y-52662380D01*
X69419523Y-53662380D02*
X68848095Y-53662380D01*
X69133809Y-53662380D02*
X69133809Y-52662380D01*
X69038571Y-52805238D01*
X68943333Y-52900476D01*
X68848095Y-52948095D01*
X63228095Y-57932380D02*
X63228095Y-58741904D01*
X63275714Y-58837142D01*
X63323333Y-58884761D01*
X63418571Y-58932380D01*
X63609047Y-58932380D01*
X63704285Y-58884761D01*
X63751904Y-58837142D01*
X63799523Y-58741904D01*
X63799523Y-57932380D01*
X64228095Y-58027619D02*
X64275714Y-57980000D01*
X64370952Y-57932380D01*
X64609047Y-57932380D01*
X64704285Y-57980000D01*
X64751904Y-58027619D01*
X64799523Y-58122857D01*
X64799523Y-58218095D01*
X64751904Y-58360952D01*
X64180476Y-58932380D01*
X64799523Y-58932380D01*
D12*
X70680000Y-54300000D02*
X70205000Y-54300000D01*
X70680000Y-58520000D02*
X70205000Y-58520000D01*
X66460000Y-54300000D02*
X66935000Y-54300000D01*
X66460000Y-54775000D02*
X66460000Y-54300000D01*
X70680000Y-58045000D02*
X70680000Y-58520000D01*
X70680000Y-54775000D02*
X70680000Y-54300000D01*
X66460000Y-58045000D02*
X66460000Y-58520000D01*
G36*
X62055134Y-62106008D02*
G01*
X62218486Y-62106047D01*
X62363124Y-62106137D01*
X62490278Y-62106299D01*
X62601173Y-62106555D01*
X62697036Y-62106925D01*
X62779095Y-62107430D01*
X62848576Y-62108090D01*
X62906708Y-62108928D01*
X62954716Y-62109963D01*
X62993828Y-62111217D01*
X63025270Y-62112711D01*
X63050271Y-62114465D01*
X63070056Y-62116501D01*
X63085853Y-62118839D01*
X63098890Y-62121500D01*
X63110392Y-62124505D01*
X63119617Y-62127265D01*
X63208831Y-62165062D01*
X63290680Y-62219646D01*
X63361185Y-62287657D01*
X63416368Y-62365737D01*
X63427887Y-62387623D01*
X63437318Y-62406779D01*
X63445688Y-62424350D01*
X63453060Y-62441653D01*
X63459497Y-62460004D01*
X63465063Y-62480720D01*
X63469821Y-62505118D01*
X63473833Y-62534515D01*
X63477165Y-62570227D01*
X63479878Y-62613571D01*
X63482036Y-62665864D01*
X63483703Y-62728422D01*
X63484941Y-62802563D01*
X63485814Y-62889602D01*
X63486385Y-62990857D01*
X63486718Y-63107644D01*
X63486875Y-63241280D01*
X63486920Y-63393082D01*
X63486917Y-63564366D01*
X63486916Y-63615827D01*
X63486816Y-63813994D01*
X63486512Y-63991423D01*
X63486000Y-64148544D01*
X63485276Y-64285785D01*
X63484334Y-64403575D01*
X63483171Y-64502343D01*
X63481781Y-64582517D01*
X63480161Y-64644526D01*
X63478305Y-64688799D01*
X63476210Y-64715765D01*
X63475221Y-64722208D01*
X63448565Y-64806441D01*
X63405868Y-64888290D01*
X63350516Y-64963322D01*
X63285895Y-65027105D01*
X63215392Y-65075208D01*
X63199301Y-65083307D01*
X63179005Y-65092866D01*
X63160280Y-65101349D01*
X63141801Y-65108819D01*
X63122245Y-65115339D01*
X63100285Y-65120971D01*
X63074597Y-65125780D01*
X63043857Y-65129827D01*
X63006739Y-65133175D01*
X62961919Y-65135888D01*
X62908073Y-65138029D01*
X62843875Y-65139661D01*
X62768001Y-65140846D01*
X62679126Y-65141647D01*
X62575925Y-65142128D01*
X62457073Y-65142352D01*
X62321247Y-65142381D01*
X62167120Y-65142278D01*
X61993369Y-65142107D01*
X61962916Y-65142076D01*
X61801419Y-65141816D01*
X61648544Y-65141369D01*
X61505545Y-65140748D01*
X61373676Y-65139966D01*
X61254192Y-65139035D01*
X61148345Y-65137968D01*
X61057391Y-65136778D01*
X60982582Y-65135477D01*
X60925174Y-65134078D01*
X60886419Y-65132594D01*
X60867573Y-65131037D01*
X60867541Y-65131031D01*
X60780985Y-65104792D01*
X60696706Y-65060967D01*
X60619475Y-65002989D01*
X60554057Y-64934292D01*
X60515425Y-64877465D01*
X60500468Y-64850730D01*
X60487931Y-64826197D01*
X60477612Y-64801783D01*
X60469312Y-64775407D01*
X60462831Y-64744986D01*
X60457967Y-64708439D01*
X60454522Y-64663682D01*
X60452295Y-64608633D01*
X60451085Y-64541211D01*
X60450692Y-64459333D01*
X60450917Y-64360917D01*
X60451559Y-64243881D01*
X60451738Y-64215091D01*
X60454791Y-63728899D01*
X60499674Y-63638345D01*
X60555951Y-63546725D01*
X60625979Y-63471195D01*
X60709747Y-63411767D01*
X60807245Y-63368447D01*
X60829775Y-63361305D01*
X60842370Y-63358125D01*
X60858226Y-63355359D01*
X60878800Y-63352980D01*
X60905550Y-63350960D01*
X60939934Y-63349270D01*
X60983407Y-63347882D01*
X61037428Y-63346767D01*
X61103454Y-63345899D01*
X61182942Y-63345248D01*
X61277350Y-63344786D01*
X61388134Y-63344485D01*
X61516753Y-63344316D01*
X61664663Y-63344253D01*
X61710837Y-63344250D01*
X62534416Y-63344250D01*
X62534416Y-63894583D01*
X60999833Y-63894583D01*
X60999833Y-64582500D01*
X62926000Y-64582500D01*
X62926000Y-62656333D01*
X60692916Y-62656333D01*
X60692916Y-62106000D01*
X61871843Y-62106000D01*
X62055134Y-62106008D01*
G37*
D13*
X62055134Y-62106008D02*
X62218486Y-62106047D01*
X62363124Y-62106137D01*
X62490278Y-62106299D01*
X62601173Y-62106555D01*
X62697036Y-62106925D01*
X62779095Y-62107430D01*
X62848576Y-62108090D01*
X62906708Y-62108928D01*
X62954716Y-62109963D01*
X62993828Y-62111217D01*
X63025270Y-62112711D01*
X63050271Y-62114465D01*
X63070056Y-62116501D01*
X63085853Y-62118839D01*
X63098890Y-62121500D01*
X63110392Y-62124505D01*
X63119617Y-62127265D01*
X63208831Y-62165062D01*
X63290680Y-62219646D01*
X63361185Y-62287657D01*
X63416368Y-62365737D01*
X63427887Y-62387623D01*
X63437318Y-62406779D01*
X63445688Y-62424350D01*
X63453060Y-62441653D01*
X63459497Y-62460004D01*
X63465063Y-62480720D01*
X63469821Y-62505118D01*
X63473833Y-62534515D01*
X63477165Y-62570227D01*
X63479878Y-62613571D01*
X63482036Y-62665864D01*
X63483703Y-62728422D01*
X63484941Y-62802563D01*
X63485814Y-62889602D01*
X63486385Y-62990857D01*
X63486718Y-63107644D01*
X63486875Y-63241280D01*
X63486920Y-63393082D01*
X63486917Y-63564366D01*
X63486916Y-63615827D01*
X63486816Y-63813994D01*
X63486512Y-63991423D01*
X63486000Y-64148544D01*
X63485276Y-64285785D01*
X63484334Y-64403575D01*
X63483171Y-64502343D01*
X63481781Y-64582517D01*
X63480161Y-64644526D01*
X63478305Y-64688799D01*
X63476210Y-64715765D01*
X63475221Y-64722208D01*
X63448565Y-64806441D01*
X63405868Y-64888290D01*
X63350516Y-64963322D01*
X63285895Y-65027105D01*
X63215392Y-65075208D01*
X63199301Y-65083307D01*
X63179005Y-65092866D01*
X63160280Y-65101349D01*
X63141801Y-65108819D01*
X63122245Y-65115339D01*
X63100285Y-65120971D01*
X63074597Y-65125780D01*
X63043857Y-65129827D01*
X63006739Y-65133175D01*
X62961919Y-65135888D01*
X62908073Y-65138029D01*
X62843875Y-65139661D01*
X62768001Y-65140846D01*
X62679126Y-65141647D01*
X62575925Y-65142128D01*
X62457073Y-65142352D01*
X62321247Y-65142381D01*
X62167120Y-65142278D01*
X61993369Y-65142107D01*
X61962916Y-65142076D01*
X61801419Y-65141816D01*
X61648544Y-65141369D01*
X61505545Y-65140748D01*
X61373676Y-65139966D01*
X61254192Y-65139035D01*
X61148345Y-65137968D01*
X61057391Y-65136778D01*
X60982582Y-65135477D01*
X60925174Y-65134078D01*
X60886419Y-65132594D01*
X60867573Y-65131037D01*
X60867541Y-65131031D01*
X60780985Y-65104792D01*
X60696706Y-65060967D01*
X60619475Y-65002989D01*
X60554057Y-64934292D01*
X60515425Y-64877465D01*
X60500468Y-64850730D01*
X60487931Y-64826197D01*
X60477612Y-64801783D01*
X60469312Y-64775407D01*
X60462831Y-64744986D01*
X60457967Y-64708439D01*
X60454522Y-64663682D01*
X60452295Y-64608633D01*
X60451085Y-64541211D01*
X60450692Y-64459333D01*
X60450917Y-64360917D01*
X60451559Y-64243881D01*
X60451738Y-64215091D01*
X60454791Y-63728899D01*
X60499674Y-63638345D01*
X60555951Y-63546725D01*
X60625979Y-63471195D01*
X60709747Y-63411767D01*
X60807245Y-63368447D01*
X60829775Y-63361305D01*
X60842370Y-63358125D01*
X60858226Y-63355359D01*
X60878800Y-63352980D01*
X60905550Y-63350960D01*
X60939934Y-63349270D01*
X60983407Y-63347882D01*
X61037428Y-63346767D01*
X61103454Y-63345899D01*
X61182942Y-63345248D01*
X61277350Y-63344786D01*
X61388134Y-63344485D01*
X61516753Y-63344316D01*
X61664663Y-63344253D01*
X61710837Y-63344250D01*
X62534416Y-63344250D01*
X62534416Y-63894583D01*
X60999833Y-63894583D01*
X60999833Y-64582500D01*
X62926000Y-64582500D01*
X62926000Y-62656333D01*
X60692916Y-62656333D01*
X60692916Y-62106000D01*
X61871843Y-62106000D01*
X62055134Y-62106008D01*
G36*
X74673500Y-62666917D02*
G01*
X72440416Y-62666917D01*
X72440416Y-64593083D01*
X74366583Y-64593083D01*
X74366583Y-63905167D01*
X72842583Y-63905167D01*
X72842583Y-63354833D01*
X73660568Y-63354833D01*
X73817494Y-63354840D01*
X73954761Y-63354924D01*
X74073876Y-63355177D01*
X74176347Y-63355691D01*
X74263681Y-63356559D01*
X74337386Y-63357875D01*
X74398969Y-63359729D01*
X74449937Y-63362216D01*
X74491799Y-63365428D01*
X74526061Y-63369457D01*
X74554231Y-63374396D01*
X74577817Y-63380338D01*
X74598325Y-63387375D01*
X74617264Y-63395600D01*
X74636141Y-63405106D01*
X74656463Y-63415985D01*
X74656558Y-63416036D01*
X74721669Y-63460419D01*
X74783803Y-63519947D01*
X74837455Y-63588748D01*
X74868415Y-63642086D01*
X74882674Y-63673149D01*
X74894563Y-63704965D01*
X74904260Y-63739665D01*
X74911945Y-63779377D01*
X74917795Y-63826229D01*
X74921988Y-63882352D01*
X74924704Y-63949873D01*
X74926120Y-64030923D01*
X74926415Y-64127630D01*
X74925767Y-64242123D01*
X74925025Y-64317917D01*
X74923835Y-64421216D01*
X74922638Y-64505703D01*
X74921300Y-64573732D01*
X74919687Y-64627657D01*
X74917667Y-64669832D01*
X74915105Y-64702611D01*
X74911868Y-64728348D01*
X74907823Y-64749397D01*
X74902836Y-64768112D01*
X74898768Y-64780918D01*
X74858930Y-64870163D01*
X74802716Y-64951590D01*
X74733274Y-65022260D01*
X74653749Y-65079232D01*
X74567290Y-65119566D01*
X74522351Y-65132597D01*
X74504273Y-65134297D01*
X74465891Y-65135868D01*
X74408064Y-65137301D01*
X74331653Y-65138589D01*
X74237521Y-65139724D01*
X74126527Y-65140698D01*
X73999532Y-65141503D01*
X73857399Y-65142131D01*
X73700987Y-65142575D01*
X73531158Y-65142827D01*
X73392916Y-65142885D01*
X72308125Y-65142870D01*
X72236917Y-65118602D01*
X72159559Y-65084584D01*
X72085733Y-65038095D01*
X72023234Y-64984247D01*
X72009809Y-64969681D01*
X71975431Y-64922174D01*
X71941961Y-64862080D01*
X71913418Y-64797750D01*
X71893822Y-64737534D01*
X71890244Y-64721284D01*
X71888363Y-64700596D01*
X71886658Y-64660613D01*
X71885128Y-64603129D01*
X71883772Y-64529934D01*
X71882590Y-64442819D01*
X71881580Y-64343576D01*
X71880742Y-64233995D01*
X71880074Y-64115868D01*
X71879578Y-63990985D01*
X71879250Y-63861139D01*
X71879091Y-63728120D01*
X71879100Y-63593719D01*
X71879276Y-63459728D01*
X71879619Y-63327937D01*
X71880127Y-63200138D01*
X71880800Y-63078122D01*
X71881637Y-62963681D01*
X71882637Y-62858604D01*
X71883800Y-62764684D01*
X71885124Y-62683711D01*
X71886609Y-62617477D01*
X71888254Y-62567773D01*
X71890059Y-62536390D01*
X71891195Y-62527208D01*
X71918411Y-62441646D01*
X71962156Y-62358794D01*
X72019024Y-62283102D01*
X72085611Y-62219020D01*
X72158511Y-62170995D01*
X72167102Y-62166724D01*
X72186163Y-62157518D01*
X72203718Y-62149299D01*
X72221013Y-62142008D01*
X72239295Y-62135591D01*
X72259809Y-62129992D01*
X72283802Y-62125155D01*
X72312520Y-62121023D01*
X72347208Y-62117542D01*
X72389113Y-62114655D01*
X72439481Y-62112306D01*
X72499558Y-62110439D01*
X72570590Y-62108999D01*
X72653823Y-62107929D01*
X72750502Y-62107174D01*
X72861875Y-62106677D01*
X72989187Y-62106384D01*
X73133685Y-62106237D01*
X73296613Y-62106181D01*
X73479219Y-62106161D01*
X73517270Y-62106156D01*
X74673500Y-62106000D01*
X74673500Y-62666917D01*
G37*
X74673500Y-62666917D02*
X72440416Y-62666917D01*
X72440416Y-64593083D01*
X74366583Y-64593083D01*
X74366583Y-63905167D01*
X72842583Y-63905167D01*
X72842583Y-63354833D01*
X73660568Y-63354833D01*
X73817494Y-63354840D01*
X73954761Y-63354924D01*
X74073876Y-63355177D01*
X74176347Y-63355691D01*
X74263681Y-63356559D01*
X74337386Y-63357875D01*
X74398969Y-63359729D01*
X74449937Y-63362216D01*
X74491799Y-63365428D01*
X74526061Y-63369457D01*
X74554231Y-63374396D01*
X74577817Y-63380338D01*
X74598325Y-63387375D01*
X74617264Y-63395600D01*
X74636141Y-63405106D01*
X74656463Y-63415985D01*
X74656558Y-63416036D01*
X74721669Y-63460419D01*
X74783803Y-63519947D01*
X74837455Y-63588748D01*
X74868415Y-63642086D01*
X74882674Y-63673149D01*
X74894563Y-63704965D01*
X74904260Y-63739665D01*
X74911945Y-63779377D01*
X74917795Y-63826229D01*
X74921988Y-63882352D01*
X74924704Y-63949873D01*
X74926120Y-64030923D01*
X74926415Y-64127630D01*
X74925767Y-64242123D01*
X74925025Y-64317917D01*
X74923835Y-64421216D01*
X74922638Y-64505703D01*
X74921300Y-64573732D01*
X74919687Y-64627657D01*
X74917667Y-64669832D01*
X74915105Y-64702611D01*
X74911868Y-64728348D01*
X74907823Y-64749397D01*
X74902836Y-64768112D01*
X74898768Y-64780918D01*
X74858930Y-64870163D01*
X74802716Y-64951590D01*
X74733274Y-65022260D01*
X74653749Y-65079232D01*
X74567290Y-65119566D01*
X74522351Y-65132597D01*
X74504273Y-65134297D01*
X74465891Y-65135868D01*
X74408064Y-65137301D01*
X74331653Y-65138589D01*
X74237521Y-65139724D01*
X74126527Y-65140698D01*
X73999532Y-65141503D01*
X73857399Y-65142131D01*
X73700987Y-65142575D01*
X73531158Y-65142827D01*
X73392916Y-65142885D01*
X72308125Y-65142870D01*
X72236917Y-65118602D01*
X72159559Y-65084584D01*
X72085733Y-65038095D01*
X72023234Y-64984247D01*
X72009809Y-64969681D01*
X71975431Y-64922174D01*
X71941961Y-64862080D01*
X71913418Y-64797750D01*
X71893822Y-64737534D01*
X71890244Y-64721284D01*
X71888363Y-64700596D01*
X71886658Y-64660613D01*
X71885128Y-64603129D01*
X71883772Y-64529934D01*
X71882590Y-64442819D01*
X71881580Y-64343576D01*
X71880742Y-64233995D01*
X71880074Y-64115868D01*
X71879578Y-63990985D01*
X71879250Y-63861139D01*
X71879091Y-63728120D01*
X71879100Y-63593719D01*
X71879276Y-63459728D01*
X71879619Y-63327937D01*
X71880127Y-63200138D01*
X71880800Y-63078122D01*
X71881637Y-62963681D01*
X71882637Y-62858604D01*
X71883800Y-62764684D01*
X71885124Y-62683711D01*
X71886609Y-62617477D01*
X71888254Y-62567773D01*
X71890059Y-62536390D01*
X71891195Y-62527208D01*
X71918411Y-62441646D01*
X71962156Y-62358794D01*
X72019024Y-62283102D01*
X72085611Y-62219020D01*
X72158511Y-62170995D01*
X72167102Y-62166724D01*
X72186163Y-62157518D01*
X72203718Y-62149299D01*
X72221013Y-62142008D01*
X72239295Y-62135591D01*
X72259809Y-62129992D01*
X72283802Y-62125155D01*
X72312520Y-62121023D01*
X72347208Y-62117542D01*
X72389113Y-62114655D01*
X72439481Y-62112306D01*
X72499558Y-62110439D01*
X72570590Y-62108999D01*
X72653823Y-62107929D01*
X72750502Y-62107174D01*
X72861875Y-62106677D01*
X72989187Y-62106384D01*
X73133685Y-62106237D01*
X73296613Y-62106181D01*
X73479219Y-62106161D01*
X73517270Y-62106156D01*
X74673500Y-62106000D01*
X74673500Y-62666917D01*
G36*
X68238833Y-62874425D02*
G01*
X68843323Y-63376567D01*
X68941169Y-63457732D01*
X69034378Y-63534830D01*
X69121659Y-63606808D01*
X69201722Y-63672610D01*
X69273276Y-63731183D01*
X69335029Y-63781473D01*
X69385691Y-63822424D01*
X69423971Y-63852983D01*
X69448577Y-63872096D01*
X69458218Y-63878708D01*
X69458220Y-63878708D01*
X69467840Y-63872093D01*
X69492403Y-63852952D01*
X69530620Y-63822342D01*
X69581199Y-63781322D01*
X69642851Y-63730947D01*
X69714286Y-63672275D01*
X69794212Y-63606363D01*
X69881341Y-63534268D01*
X69974381Y-63457048D01*
X70071350Y-63376337D01*
X70674074Y-62873966D01*
X70666574Y-62246566D01*
X70659074Y-61619167D01*
X71223333Y-61619167D01*
X71223176Y-62283271D01*
X71223109Y-62426408D01*
X71222894Y-62550085D01*
X71222404Y-62656006D01*
X71221510Y-62745879D01*
X71220083Y-62821408D01*
X71217997Y-62884299D01*
X71215122Y-62936258D01*
X71211331Y-62978992D01*
X71206496Y-63014205D01*
X71200487Y-63043604D01*
X71193178Y-63068894D01*
X71184441Y-63091782D01*
X71174146Y-63113972D01*
X71162166Y-63137172D01*
X71158519Y-63144029D01*
X71132793Y-63185954D01*
X71101551Y-63228278D01*
X71081874Y-63250847D01*
X71066903Y-63264731D01*
X71036972Y-63291006D01*
X70993410Y-63328547D01*
X70937547Y-63376231D01*
X70870713Y-63432932D01*
X70794236Y-63497526D01*
X70709447Y-63568889D01*
X70617675Y-63645895D01*
X70520249Y-63727422D01*
X70418499Y-63812343D01*
X70384422Y-63840735D01*
X69731083Y-64384845D01*
X69731083Y-65640833D01*
X69180750Y-65640833D01*
X69180431Y-65013771D01*
X69180112Y-64386708D01*
X68500451Y-63820500D01*
X68373599Y-63714793D01*
X68261971Y-63621614D01*
X68164525Y-63539949D01*
X68080220Y-63468785D01*
X68008012Y-63407106D01*
X67946859Y-63353900D01*
X67895719Y-63308151D01*
X67853548Y-63268846D01*
X67819305Y-63234971D01*
X67791947Y-63205511D01*
X67770432Y-63179452D01*
X67753716Y-63155781D01*
X67740758Y-63133483D01*
X67730515Y-63111544D01*
X67721944Y-63088950D01*
X67714003Y-63064687D01*
X67709906Y-63051493D01*
X67705597Y-63036824D01*
X67701908Y-63021705D01*
X67698791Y-63004452D01*
X67696197Y-62983380D01*
X67694080Y-62956805D01*
X67692389Y-62923043D01*
X67691079Y-62880410D01*
X67690100Y-62827221D01*
X67689405Y-62761792D01*
X67688946Y-62682439D01*
X67688674Y-62587477D01*
X67688542Y-62475222D01*
X67688501Y-62343991D01*
X67688500Y-62300677D01*
X67688500Y-61619167D01*
X68238833Y-61619167D01*
X68238833Y-62874425D01*
G37*
X68238833Y-62874425D02*
X68843323Y-63376567D01*
X68941169Y-63457732D01*
X69034378Y-63534830D01*
X69121659Y-63606808D01*
X69201722Y-63672610D01*
X69273276Y-63731183D01*
X69335029Y-63781473D01*
X69385691Y-63822424D01*
X69423971Y-63852983D01*
X69448577Y-63872096D01*
X69458218Y-63878708D01*
X69458220Y-63878708D01*
X69467840Y-63872093D01*
X69492403Y-63852952D01*
X69530620Y-63822342D01*
X69581199Y-63781322D01*
X69642851Y-63730947D01*
X69714286Y-63672275D01*
X69794212Y-63606363D01*
X69881341Y-63534268D01*
X69974381Y-63457048D01*
X70071350Y-63376337D01*
X70674074Y-62873966D01*
X70666574Y-62246566D01*
X70659074Y-61619167D01*
X71223333Y-61619167D01*
X71223176Y-62283271D01*
X71223109Y-62426408D01*
X71222894Y-62550085D01*
X71222404Y-62656006D01*
X71221510Y-62745879D01*
X71220083Y-62821408D01*
X71217997Y-62884299D01*
X71215122Y-62936258D01*
X71211331Y-62978992D01*
X71206496Y-63014205D01*
X71200487Y-63043604D01*
X71193178Y-63068894D01*
X71184441Y-63091782D01*
X71174146Y-63113972D01*
X71162166Y-63137172D01*
X71158519Y-63144029D01*
X71132793Y-63185954D01*
X71101551Y-63228278D01*
X71081874Y-63250847D01*
X71066903Y-63264731D01*
X71036972Y-63291006D01*
X70993410Y-63328547D01*
X70937547Y-63376231D01*
X70870713Y-63432932D01*
X70794236Y-63497526D01*
X70709447Y-63568889D01*
X70617675Y-63645895D01*
X70520249Y-63727422D01*
X70418499Y-63812343D01*
X70384422Y-63840735D01*
X69731083Y-64384845D01*
X69731083Y-65640833D01*
X69180750Y-65640833D01*
X69180431Y-65013771D01*
X69180112Y-64386708D01*
X68500451Y-63820500D01*
X68373599Y-63714793D01*
X68261971Y-63621614D01*
X68164525Y-63539949D01*
X68080220Y-63468785D01*
X68008012Y-63407106D01*
X67946859Y-63353900D01*
X67895719Y-63308151D01*
X67853548Y-63268846D01*
X67819305Y-63234971D01*
X67791947Y-63205511D01*
X67770432Y-63179452D01*
X67753716Y-63155781D01*
X67740758Y-63133483D01*
X67730515Y-63111544D01*
X67721944Y-63088950D01*
X67714003Y-63064687D01*
X67709906Y-63051493D01*
X67705597Y-63036824D01*
X67701908Y-63021705D01*
X67698791Y-63004452D01*
X67696197Y-62983380D01*
X67694080Y-62956805D01*
X67692389Y-62923043D01*
X67691079Y-62880410D01*
X67690100Y-62827221D01*
X67689405Y-62761792D01*
X67688946Y-62682439D01*
X67688674Y-62587477D01*
X67688542Y-62475222D01*
X67688501Y-62343991D01*
X67688500Y-62300677D01*
X67688500Y-61619167D01*
X68238833Y-61619167D01*
X68238833Y-62874425D01*
G36*
X66915916Y-62666917D02*
G01*
X64682833Y-62666917D01*
X64682833Y-63354833D01*
X65701479Y-63354959D01*
X65874686Y-63354978D01*
X66028071Y-63355030D01*
X66162976Y-63355176D01*
X66280746Y-63355477D01*
X66382722Y-63355995D01*
X66470251Y-63356788D01*
X66544673Y-63357920D01*
X66607335Y-63359450D01*
X66659578Y-63361439D01*
X66702746Y-63363949D01*
X66738184Y-63367040D01*
X66767234Y-63370772D01*
X66791240Y-63375208D01*
X66811546Y-63380407D01*
X66829496Y-63386431D01*
X66846432Y-63393341D01*
X66863699Y-63401197D01*
X66878875Y-63408307D01*
X66920528Y-63433759D01*
X66967976Y-63472079D01*
X67016004Y-63518055D01*
X67059402Y-63566475D01*
X67092956Y-63612125D01*
X67105859Y-63635292D01*
X67118218Y-63662436D01*
X67128502Y-63687662D01*
X67136900Y-63713174D01*
X67143604Y-63741175D01*
X67148806Y-63773869D01*
X67152697Y-63813460D01*
X67155468Y-63862151D01*
X67157310Y-63922146D01*
X67158415Y-63995648D01*
X67158974Y-64084863D01*
X67159179Y-64191992D01*
X67159207Y-64249850D01*
X67159139Y-64363612D01*
X67158822Y-64458257D01*
X67158188Y-64535833D01*
X67157172Y-64598388D01*
X67155706Y-64647970D01*
X67153723Y-64686628D01*
X67151156Y-64716409D01*
X67147939Y-64739364D01*
X67144005Y-64757538D01*
X67142448Y-64763141D01*
X67104204Y-64858340D01*
X67049408Y-64944016D01*
X66980568Y-65017858D01*
X66900189Y-65077552D01*
X66810777Y-65120786D01*
X66731410Y-65142530D01*
X66710825Y-65144522D01*
X66671798Y-65146318D01*
X66614063Y-65147919D01*
X66537353Y-65149328D01*
X66441402Y-65150547D01*
X66325944Y-65151578D01*
X66190712Y-65152423D01*
X66035439Y-65153085D01*
X65859859Y-65153567D01*
X65663706Y-65153869D01*
X65446713Y-65153995D01*
X65395264Y-65154000D01*
X64121916Y-65154000D01*
X64121916Y-64593083D01*
X66609000Y-64593083D01*
X66609000Y-63905167D01*
X65583531Y-63905167D01*
X65413154Y-63905155D01*
X65262618Y-63905103D01*
X65130597Y-63904986D01*
X65015764Y-63904777D01*
X64916793Y-63904452D01*
X64832358Y-63903985D01*
X64761134Y-63903350D01*
X64701794Y-63902523D01*
X64653012Y-63901476D01*
X64613461Y-63900186D01*
X64581817Y-63898626D01*
X64556753Y-63896772D01*
X64536942Y-63894596D01*
X64521059Y-63892075D01*
X64507777Y-63889183D01*
X64495771Y-63885894D01*
X64490038Y-63884156D01*
X64395759Y-63844398D01*
X64311703Y-63787656D01*
X64240200Y-63716353D01*
X64183584Y-63632913D01*
X64144186Y-63539758D01*
X64138139Y-63518505D01*
X64133536Y-63489432D01*
X64129616Y-63442125D01*
X64126377Y-63379503D01*
X64123820Y-63304486D01*
X64121946Y-63219994D01*
X64120754Y-63128949D01*
X64120244Y-63034270D01*
X64120417Y-62938877D01*
X64121272Y-62845690D01*
X64122809Y-62757631D01*
X64125030Y-62677618D01*
X64127932Y-62608573D01*
X64131518Y-62553415D01*
X64135786Y-62515065D01*
X64138121Y-62503315D01*
X64172923Y-62409780D01*
X64225090Y-62324533D01*
X64291937Y-62250093D01*
X64370775Y-62188976D01*
X64458919Y-62143701D01*
X64549839Y-62117470D01*
X64571430Y-62115363D01*
X64612067Y-62113475D01*
X64671974Y-62111805D01*
X64751372Y-62110350D01*
X64850484Y-62109109D01*
X64969532Y-62108079D01*
X65108739Y-62107258D01*
X65268326Y-62106644D01*
X65448518Y-62106234D01*
X65649535Y-62106028D01*
X65764277Y-62106000D01*
X66915916Y-62106000D01*
X66915916Y-62666917D01*
G37*
X66915916Y-62666917D02*
X64682833Y-62666917D01*
X64682833Y-63354833D01*
X65701479Y-63354959D01*
X65874686Y-63354978D01*
X66028071Y-63355030D01*
X66162976Y-63355176D01*
X66280746Y-63355477D01*
X66382722Y-63355995D01*
X66470251Y-63356788D01*
X66544673Y-63357920D01*
X66607335Y-63359450D01*
X66659578Y-63361439D01*
X66702746Y-63363949D01*
X66738184Y-63367040D01*
X66767234Y-63370772D01*
X66791240Y-63375208D01*
X66811546Y-63380407D01*
X66829496Y-63386431D01*
X66846432Y-63393341D01*
X66863699Y-63401197D01*
X66878875Y-63408307D01*
X66920528Y-63433759D01*
X66967976Y-63472079D01*
X67016004Y-63518055D01*
X67059402Y-63566475D01*
X67092956Y-63612125D01*
X67105859Y-63635292D01*
X67118218Y-63662436D01*
X67128502Y-63687662D01*
X67136900Y-63713174D01*
X67143604Y-63741175D01*
X67148806Y-63773869D01*
X67152697Y-63813460D01*
X67155468Y-63862151D01*
X67157310Y-63922146D01*
X67158415Y-63995648D01*
X67158974Y-64084863D01*
X67159179Y-64191992D01*
X67159207Y-64249850D01*
X67159139Y-64363612D01*
X67158822Y-64458257D01*
X67158188Y-64535833D01*
X67157172Y-64598388D01*
X67155706Y-64647970D01*
X67153723Y-64686628D01*
X67151156Y-64716409D01*
X67147939Y-64739364D01*
X67144005Y-64757538D01*
X67142448Y-64763141D01*
X67104204Y-64858340D01*
X67049408Y-64944016D01*
X66980568Y-65017858D01*
X66900189Y-65077552D01*
X66810777Y-65120786D01*
X66731410Y-65142530D01*
X66710825Y-65144522D01*
X66671798Y-65146318D01*
X66614063Y-65147919D01*
X66537353Y-65149328D01*
X66441402Y-65150547D01*
X66325944Y-65151578D01*
X66190712Y-65152423D01*
X66035439Y-65153085D01*
X65859859Y-65153567D01*
X65663706Y-65153869D01*
X65446713Y-65153995D01*
X65395264Y-65154000D01*
X64121916Y-65154000D01*
X64121916Y-64593083D01*
X66609000Y-64593083D01*
X66609000Y-63905167D01*
X65583531Y-63905167D01*
X65413154Y-63905155D01*
X65262618Y-63905103D01*
X65130597Y-63904986D01*
X65015764Y-63904777D01*
X64916793Y-63904452D01*
X64832358Y-63903985D01*
X64761134Y-63903350D01*
X64701794Y-63902523D01*
X64653012Y-63901476D01*
X64613461Y-63900186D01*
X64581817Y-63898626D01*
X64556753Y-63896772D01*
X64536942Y-63894596D01*
X64521059Y-63892075D01*
X64507777Y-63889183D01*
X64495771Y-63885894D01*
X64490038Y-63884156D01*
X64395759Y-63844398D01*
X64311703Y-63787656D01*
X64240200Y-63716353D01*
X64183584Y-63632913D01*
X64144186Y-63539758D01*
X64138139Y-63518505D01*
X64133536Y-63489432D01*
X64129616Y-63442125D01*
X64126377Y-63379503D01*
X64123820Y-63304486D01*
X64121946Y-63219994D01*
X64120754Y-63128949D01*
X64120244Y-63034270D01*
X64120417Y-62938877D01*
X64121272Y-62845690D01*
X64122809Y-62757631D01*
X64125030Y-62677618D01*
X64127932Y-62608573D01*
X64131518Y-62553415D01*
X64135786Y-62515065D01*
X64138121Y-62503315D01*
X64172923Y-62409780D01*
X64225090Y-62324533D01*
X64291937Y-62250093D01*
X64370775Y-62188976D01*
X64458919Y-62143701D01*
X64549839Y-62117470D01*
X64571430Y-62115363D01*
X64612067Y-62113475D01*
X64671974Y-62111805D01*
X64751372Y-62110350D01*
X64850484Y-62109109D01*
X64969532Y-62108079D01*
X65108739Y-62107258D01*
X65268326Y-62106644D01*
X65448518Y-62106234D01*
X65649535Y-62106028D01*
X65764277Y-62106000D01*
X66915916Y-62106000D01*
X66915916Y-62666917D01*
G36*
X78621083Y-63411359D02*
G01*
X78621047Y-63610946D01*
X78620933Y-63790400D01*
X78620729Y-63950755D01*
X78620424Y-64093043D01*
X78620008Y-64218300D01*
X78619470Y-64327559D01*
X78618798Y-64421852D01*
X78617982Y-64502215D01*
X78617010Y-64569680D01*
X78615873Y-64625281D01*
X78614558Y-64670052D01*
X78613056Y-64705026D01*
X78611354Y-64731238D01*
X78609443Y-64749720D01*
X78607311Y-64761506D01*
X78606788Y-64763380D01*
X78565713Y-64863876D01*
X78508276Y-64950966D01*
X78434720Y-65024362D01*
X78345291Y-65083775D01*
X78326825Y-65093311D01*
X78236387Y-65138125D01*
X77958029Y-65138125D01*
X77868868Y-65093779D01*
X77786309Y-65045053D01*
X77725447Y-64993238D01*
X77712646Y-64977562D01*
X77688589Y-64945591D01*
X77654065Y-64898436D01*
X77609859Y-64837207D01*
X77556758Y-64763017D01*
X77495550Y-64676977D01*
X77427022Y-64580198D01*
X77351960Y-64473791D01*
X77271152Y-64358869D01*
X77185385Y-64236541D01*
X77095446Y-64107921D01*
X77002121Y-63974118D01*
X76910530Y-63842478D01*
X76149875Y-62747915D01*
X76147183Y-63945666D01*
X76144492Y-65143417D01*
X75583666Y-65143417D01*
X75583666Y-63863354D01*
X75583743Y-63646452D01*
X75583976Y-63450255D01*
X75584370Y-63274300D01*
X75584929Y-63118126D01*
X75585656Y-62981272D01*
X75586555Y-62863275D01*
X75587632Y-62763675D01*
X75588889Y-62682009D01*
X75590330Y-62617815D01*
X75591961Y-62570633D01*
X75593784Y-62540000D01*
X75595362Y-62527208D01*
X75623882Y-62437972D01*
X75669911Y-62351962D01*
X75729959Y-62274102D01*
X75800537Y-62209313D01*
X75839407Y-62182923D01*
X75920228Y-62144766D01*
X76010787Y-62119650D01*
X76102791Y-62109532D01*
X76145992Y-62110649D01*
X76248244Y-62126403D01*
X76338406Y-62157843D01*
X76420169Y-62206547D01*
X76473044Y-62250510D01*
X76485860Y-62265519D01*
X76510100Y-62297150D01*
X76545189Y-62344590D01*
X76590550Y-62407027D01*
X76645604Y-62483648D01*
X76709775Y-62573641D01*
X76782486Y-62676193D01*
X76863160Y-62790491D01*
X76951219Y-62915724D01*
X77046087Y-63051077D01*
X77147186Y-63195740D01*
X77253940Y-63348898D01*
X77293253Y-63405396D01*
X78065458Y-64515637D01*
X78068149Y-63310819D01*
X78070839Y-62106000D01*
X78621083Y-62106000D01*
X78621083Y-63411359D01*
G37*
X78621083Y-63411359D02*
X78621047Y-63610946D01*
X78620933Y-63790400D01*
X78620729Y-63950755D01*
X78620424Y-64093043D01*
X78620008Y-64218300D01*
X78619470Y-64327559D01*
X78618798Y-64421852D01*
X78617982Y-64502215D01*
X78617010Y-64569680D01*
X78615873Y-64625281D01*
X78614558Y-64670052D01*
X78613056Y-64705026D01*
X78611354Y-64731238D01*
X78609443Y-64749720D01*
X78607311Y-64761506D01*
X78606788Y-64763380D01*
X78565713Y-64863876D01*
X78508276Y-64950966D01*
X78434720Y-65024362D01*
X78345291Y-65083775D01*
X78326825Y-65093311D01*
X78236387Y-65138125D01*
X77958029Y-65138125D01*
X77868868Y-65093779D01*
X77786309Y-65045053D01*
X77725447Y-64993238D01*
X77712646Y-64977562D01*
X77688589Y-64945591D01*
X77654065Y-64898436D01*
X77609859Y-64837207D01*
X77556758Y-64763017D01*
X77495550Y-64676977D01*
X77427022Y-64580198D01*
X77351960Y-64473791D01*
X77271152Y-64358869D01*
X77185385Y-64236541D01*
X77095446Y-64107921D01*
X77002121Y-63974118D01*
X76910530Y-63842478D01*
X76149875Y-62747915D01*
X76147183Y-63945666D01*
X76144492Y-65143417D01*
X75583666Y-65143417D01*
X75583666Y-63863354D01*
X75583743Y-63646452D01*
X75583976Y-63450255D01*
X75584370Y-63274300D01*
X75584929Y-63118126D01*
X75585656Y-62981272D01*
X75586555Y-62863275D01*
X75587632Y-62763675D01*
X75588889Y-62682009D01*
X75590330Y-62617815D01*
X75591961Y-62570633D01*
X75593784Y-62540000D01*
X75595362Y-62527208D01*
X75623882Y-62437972D01*
X75669911Y-62351962D01*
X75729959Y-62274102D01*
X75800537Y-62209313D01*
X75839407Y-62182923D01*
X75920228Y-62144766D01*
X76010787Y-62119650D01*
X76102791Y-62109532D01*
X76145992Y-62110649D01*
X76248244Y-62126403D01*
X76338406Y-62157843D01*
X76420169Y-62206547D01*
X76473044Y-62250510D01*
X76485860Y-62265519D01*
X76510100Y-62297150D01*
X76545189Y-62344590D01*
X76590550Y-62407027D01*
X76645604Y-62483648D01*
X76709775Y-62573641D01*
X76782486Y-62676193D01*
X76863160Y-62790491D01*
X76951219Y-62915724D01*
X77046087Y-63051077D01*
X77147186Y-63195740D01*
X77253940Y-63348898D01*
X77293253Y-63405396D01*
X78065458Y-64515637D01*
X78068149Y-63310819D01*
X78070839Y-62106000D01*
X78621083Y-62106000D01*
X78621083Y-63411359D01*
G36*
X57044163Y-53969859D02*
G01*
X57054410Y-53975790D01*
X57069226Y-53987174D01*
X57090394Y-54005002D01*
X57114557Y-54025831D01*
X57168721Y-54066291D01*
X57227205Y-54098591D01*
X57287566Y-54121725D01*
X57347360Y-54134687D01*
X57385066Y-54137182D01*
X57439681Y-54131764D01*
X57497530Y-54116222D01*
X57555838Y-54091624D01*
X57611828Y-54059036D01*
X57638652Y-54039642D01*
X57664744Y-54021298D01*
X57684656Y-54012362D01*
X57700268Y-54012419D01*
X57713457Y-54021057D01*
X57715117Y-54022818D01*
X57723146Y-54036987D01*
X57721386Y-54052132D01*
X57709241Y-54069385D01*
X57686116Y-54089878D01*
X57675688Y-54097755D01*
X57635406Y-54126015D01*
X57600277Y-54147451D01*
X57566448Y-54164198D01*
X57530064Y-54178387D01*
X57529851Y-54178462D01*
X57458147Y-54198110D01*
X57389950Y-54205769D01*
X57334254Y-54202731D01*
X57262247Y-54186560D01*
X57191319Y-54158502D01*
X57123077Y-54119359D01*
X57059128Y-54069938D01*
X57046969Y-54058867D01*
X57022509Y-54033428D01*
X57009111Y-54012741D01*
X57006496Y-53995830D01*
X57014387Y-53981721D01*
X57023026Y-53974853D01*
X57030252Y-53970382D01*
X57036704Y-53968387D01*
X57044163Y-53969859D01*
G37*
X57044163Y-53969859D02*
X57054410Y-53975790D01*
X57069226Y-53987174D01*
X57090394Y-54005002D01*
X57114557Y-54025831D01*
X57168721Y-54066291D01*
X57227205Y-54098591D01*
X57287566Y-54121725D01*
X57347360Y-54134687D01*
X57385066Y-54137182D01*
X57439681Y-54131764D01*
X57497530Y-54116222D01*
X57555838Y-54091624D01*
X57611828Y-54059036D01*
X57638652Y-54039642D01*
X57664744Y-54021298D01*
X57684656Y-54012362D01*
X57700268Y-54012419D01*
X57713457Y-54021057D01*
X57715117Y-54022818D01*
X57723146Y-54036987D01*
X57721386Y-54052132D01*
X57709241Y-54069385D01*
X57686116Y-54089878D01*
X57675688Y-54097755D01*
X57635406Y-54126015D01*
X57600277Y-54147451D01*
X57566448Y-54164198D01*
X57530064Y-54178387D01*
X57529851Y-54178462D01*
X57458147Y-54198110D01*
X57389950Y-54205769D01*
X57334254Y-54202731D01*
X57262247Y-54186560D01*
X57191319Y-54158502D01*
X57123077Y-54119359D01*
X57059128Y-54069938D01*
X57046969Y-54058867D01*
X57022509Y-54033428D01*
X57009111Y-54012741D01*
X57006496Y-53995830D01*
X57014387Y-53981721D01*
X57023026Y-53974853D01*
X57030252Y-53970382D01*
X57036704Y-53968387D01*
X57044163Y-53969859D01*
G36*
X56002830Y-50584664D02*
G01*
X56003868Y-50575021D01*
X56005025Y-50568458D01*
X56006307Y-50564373D01*
X56007132Y-50562872D01*
X56017660Y-50552309D01*
X56026268Y-50548755D01*
X56033107Y-50545754D01*
X56038283Y-50543124D01*
X56191286Y-50543124D01*
X56196724Y-50543867D01*
X56214272Y-50544573D01*
X56243339Y-50545238D01*
X56283332Y-50545858D01*
X56333657Y-50546429D01*
X56393723Y-50546947D01*
X56462937Y-50547408D01*
X56540706Y-50547808D01*
X56626439Y-50548143D01*
X56719541Y-50548410D01*
X56819422Y-50548603D01*
X56925488Y-50548719D01*
X57028807Y-50548755D01*
X57872363Y-50548755D01*
X58316274Y-50322691D01*
X58386074Y-50287113D01*
X58452500Y-50253192D01*
X58514697Y-50221368D01*
X58571808Y-50192083D01*
X58622977Y-50165778D01*
X58667348Y-50142894D01*
X58704064Y-50123872D01*
X58732270Y-50109153D01*
X58751107Y-50099178D01*
X58759722Y-50094389D01*
X58760185Y-50094034D01*
X58753970Y-50093685D01*
X58735872Y-50093349D01*
X58706712Y-50093031D01*
X58667308Y-50092732D01*
X58618482Y-50092457D01*
X58561054Y-50092208D01*
X58495843Y-50091988D01*
X58423670Y-50091801D01*
X58345356Y-50091650D01*
X58261719Y-50091537D01*
X58173581Y-50091467D01*
X58081762Y-50091441D01*
X57394594Y-50091441D01*
X57394594Y-50173558D01*
X57394301Y-50209111D01*
X57393270Y-50234088D01*
X57391272Y-50250603D01*
X57388077Y-50260773D01*
X57384613Y-50265656D01*
X57368446Y-50274834D01*
X57351296Y-50271415D01*
X57342693Y-50265125D01*
X57337828Y-50259242D01*
X57334525Y-50250459D01*
X57332493Y-50236485D01*
X57331445Y-50215032D01*
X57331092Y-50183809D01*
X57331078Y-50173027D01*
X57331078Y-50091441D01*
X57008020Y-50091441D01*
X56602670Y-50314467D01*
X56536400Y-50350960D01*
X56473338Y-50385747D01*
X56414374Y-50418332D01*
X56360400Y-50448221D01*
X56312307Y-50474918D01*
X56270986Y-50497927D01*
X56237328Y-50516754D01*
X56212223Y-50530904D01*
X56196564Y-50539880D01*
X56191286Y-50543124D01*
X56038283Y-50543124D01*
X56050239Y-50537049D01*
X56076841Y-50523083D01*
X56112090Y-50504302D01*
X56155165Y-50481149D01*
X56205241Y-50454070D01*
X56261496Y-50423509D01*
X56323108Y-50389910D01*
X56389254Y-50353719D01*
X56459111Y-50315380D01*
X56514024Y-50285164D01*
X56992531Y-50021573D01*
X57331078Y-50021573D01*
X57331078Y-49297492D01*
X57277089Y-49297492D01*
X57252686Y-49296975D01*
X57234014Y-49295594D01*
X57223994Y-49293607D01*
X57223061Y-49292729D01*
X57225379Y-49285406D01*
X57231850Y-49268464D01*
X57241701Y-49243749D01*
X57254162Y-49213103D01*
X57268461Y-49178373D01*
X57283826Y-49141402D01*
X57299486Y-49104035D01*
X57314668Y-49068116D01*
X57328601Y-49035491D01*
X57340513Y-49008003D01*
X57349633Y-48987497D01*
X57355188Y-48975818D01*
X57356484Y-48973814D01*
X57360294Y-48979202D01*
X57367829Y-48993643D01*
X57377769Y-49014531D01*
X57383006Y-49026081D01*
X57393493Y-49049320D01*
X57407937Y-49080983D01*
X57424922Y-49117984D01*
X57443032Y-49157236D01*
X57457258Y-49187927D01*
X57508165Y-49297492D01*
X57394594Y-49297492D01*
X57394594Y-50021573D01*
X58088505Y-50021597D01*
X58197315Y-50021605D01*
X58294144Y-50021630D01*
X58379716Y-50021684D01*
X58454753Y-50021781D01*
X58519979Y-50021933D01*
X58576115Y-50022152D01*
X58623886Y-50022453D01*
X58664013Y-50022847D01*
X58697220Y-50023347D01*
X58724229Y-50023966D01*
X58745763Y-50024717D01*
X58762546Y-50025613D01*
X58775299Y-50026666D01*
X58784747Y-50027890D01*
X58791610Y-50029296D01*
X58796614Y-50030898D01*
X58800480Y-50032709D01*
X58803117Y-50034242D01*
X58821074Y-50048868D01*
X58836004Y-50066863D01*
X58836439Y-50067564D01*
X58838189Y-50070633D01*
X58839769Y-50074231D01*
X58841188Y-50078989D01*
X58842455Y-50085538D01*
X58843578Y-50094508D01*
X58844567Y-50106531D01*
X58845429Y-50122236D01*
X58846173Y-50142254D01*
X58846808Y-50167217D01*
X58847343Y-50197754D01*
X58847787Y-50234496D01*
X58848147Y-50278075D01*
X58848433Y-50329120D01*
X58848653Y-50388263D01*
X58848817Y-50456133D01*
X58848932Y-50533362D01*
X58849007Y-50620581D01*
X58849052Y-50718419D01*
X58849074Y-50827508D01*
X58849083Y-50948478D01*
X58849084Y-50987618D01*
X58849081Y-51112560D01*
X58849060Y-51225419D01*
X58849014Y-51326815D01*
X58848934Y-51417368D01*
X58848814Y-51497699D01*
X58848646Y-51568428D01*
X58848422Y-51630174D01*
X58848135Y-51683559D01*
X58847777Y-51729202D01*
X58847340Y-51767723D01*
X58846818Y-51799743D01*
X58846202Y-51825882D01*
X58845484Y-51846760D01*
X58844658Y-51862997D01*
X58843716Y-51875213D01*
X58842650Y-51884029D01*
X58841453Y-51890065D01*
X58840117Y-51893940D01*
X58838634Y-51896276D01*
X58837992Y-51896923D01*
X58833878Y-51899934D01*
X58825228Y-51905570D01*
X58811581Y-51914105D01*
X58792479Y-51925814D01*
X58767461Y-51940970D01*
X58736070Y-51959846D01*
X58697845Y-51982718D01*
X58652327Y-52009858D01*
X58599057Y-52041542D01*
X58537575Y-52078042D01*
X58467422Y-52119632D01*
X58388139Y-52166587D01*
X58299266Y-52219181D01*
X58200344Y-52277687D01*
X58096444Y-52339110D01*
X58053052Y-52364951D01*
X58012978Y-52389185D01*
X57977595Y-52410954D01*
X57948275Y-52429398D01*
X57926390Y-52443660D01*
X57913311Y-52452881D01*
X57910300Y-52455582D01*
X57907536Y-52458413D01*
X57902994Y-52460732D01*
X57895488Y-52462590D01*
X57883836Y-52464037D01*
X57866851Y-52465124D01*
X57843350Y-52465902D01*
X57812148Y-52466421D01*
X57772061Y-52466732D01*
X57721904Y-52466886D01*
X57660493Y-52466933D01*
X57645121Y-52466935D01*
X57388242Y-52466935D01*
X57388242Y-53381087D01*
X57500398Y-53384739D01*
X57438112Y-53534001D01*
X57420857Y-53575306D01*
X57404976Y-53613235D01*
X57391200Y-53646051D01*
X57380258Y-53672015D01*
X57372882Y-53689392D01*
X57370028Y-53695967D01*
X57366370Y-53701128D01*
X57361962Y-53699233D01*
X57355454Y-53688730D01*
X57345499Y-53668068D01*
X57345183Y-53667385D01*
X57336460Y-53648538D01*
X57323578Y-53620786D01*
X57307748Y-53586738D01*
X57290183Y-53549000D01*
X57272095Y-53510179D01*
X57271444Y-53508782D01*
X57254907Y-53473078D01*
X57240378Y-53441263D01*
X57228661Y-53415137D01*
X57220561Y-53396501D01*
X57216885Y-53387153D01*
X57216749Y-53386513D01*
X57222614Y-53384277D01*
X57238263Y-53382566D01*
X57260781Y-53381648D01*
X57270738Y-53381563D01*
X57324726Y-53381563D01*
X57324726Y-52466935D01*
X56017020Y-52466935D01*
X56007132Y-52452818D01*
X56005772Y-52449923D01*
X56004542Y-52444907D01*
X56003434Y-52437170D01*
X56002442Y-52426110D01*
X56001560Y-52411125D01*
X56001253Y-52403419D01*
X56067112Y-52403419D01*
X57851908Y-52403419D01*
X57851908Y-51480005D01*
X57921776Y-51480005D01*
X57921799Y-51584579D01*
X57921866Y-51685608D01*
X57921974Y-51782367D01*
X57922122Y-51874136D01*
X57922306Y-51960190D01*
X57922523Y-52039806D01*
X57922771Y-52112263D01*
X57923047Y-52176836D01*
X57923349Y-52232804D01*
X57923674Y-52279443D01*
X57924018Y-52316030D01*
X57924381Y-52341843D01*
X57924758Y-52356158D01*
X57925017Y-52358958D01*
X57930982Y-52355822D01*
X57946752Y-52346848D01*
X57971212Y-52332690D01*
X58003245Y-52313999D01*
X58041736Y-52291428D01*
X58085569Y-52265629D01*
X58133628Y-52237255D01*
X58171141Y-52215052D01*
X58230880Y-52179658D01*
X58295040Y-52141649D01*
X58361091Y-52102521D01*
X58426505Y-52063774D01*
X58488753Y-52026904D01*
X58545305Y-51993410D01*
X58593635Y-51964789D01*
X58596632Y-51963015D01*
X58779240Y-51854884D01*
X58779240Y-51011272D01*
X58779213Y-50908855D01*
X58779133Y-50809999D01*
X58779004Y-50715442D01*
X58778828Y-50625921D01*
X58778610Y-50542174D01*
X58778352Y-50464940D01*
X58778058Y-50394956D01*
X58777731Y-50332959D01*
X58777374Y-50279689D01*
X58776991Y-50235882D01*
X58776584Y-50202276D01*
X58776157Y-50179610D01*
X58775713Y-50168621D01*
X58775535Y-50167660D01*
X58769419Y-50170475D01*
X58752873Y-50178622D01*
X58726783Y-50191654D01*
X58692031Y-50209126D01*
X58649502Y-50230589D01*
X58600079Y-50255598D01*
X58544646Y-50283705D01*
X58484086Y-50314465D01*
X58419285Y-50347429D01*
X58351125Y-50382153D01*
X58346803Y-50384356D01*
X57921776Y-50601052D01*
X57921776Y-51480005D01*
X57851908Y-51480005D01*
X57851908Y-50615447D01*
X56067112Y-50615447D01*
X56067112Y-52403419D01*
X56001253Y-52403419D01*
X56000782Y-52391615D01*
X56000102Y-52366977D01*
X55999513Y-52336610D01*
X55999008Y-52299912D01*
X55998582Y-52256283D01*
X55998228Y-52205121D01*
X55997941Y-52145824D01*
X55997713Y-52077790D01*
X55997538Y-52000419D01*
X55997411Y-51913108D01*
X55997324Y-51815257D01*
X55997272Y-51706263D01*
X55997248Y-51585526D01*
X55997245Y-51507845D01*
X55997255Y-51379833D01*
X55997289Y-51263922D01*
X55997355Y-51159512D01*
X55997457Y-51066000D01*
X55997603Y-50982785D01*
X55997798Y-50909267D01*
X55998050Y-50844842D01*
X55998363Y-50788911D01*
X55998745Y-50740870D01*
X55999202Y-50700120D01*
X55999741Y-50666058D01*
X56000366Y-50638083D01*
X56001085Y-50615593D01*
X56001091Y-50615447D01*
X56001761Y-50601052D01*
X56001904Y-50597987D01*
X56002830Y-50584664D01*
G37*
X56002830Y-50584664D02*
X56003868Y-50575021D01*
X56005025Y-50568458D01*
X56006307Y-50564373D01*
X56007132Y-50562872D01*
X56017660Y-50552309D01*
X56026268Y-50548755D01*
X56033107Y-50545754D01*
X56038283Y-50543124D01*
X56191286Y-50543124D01*
X56196724Y-50543867D01*
X56214272Y-50544573D01*
X56243339Y-50545238D01*
X56283332Y-50545858D01*
X56333657Y-50546429D01*
X56393723Y-50546947D01*
X56462937Y-50547408D01*
X56540706Y-50547808D01*
X56626439Y-50548143D01*
X56719541Y-50548410D01*
X56819422Y-50548603D01*
X56925488Y-50548719D01*
X57028807Y-50548755D01*
X57872363Y-50548755D01*
X58316274Y-50322691D01*
X58386074Y-50287113D01*
X58452500Y-50253192D01*
X58514697Y-50221368D01*
X58571808Y-50192083D01*
X58622977Y-50165778D01*
X58667348Y-50142894D01*
X58704064Y-50123872D01*
X58732270Y-50109153D01*
X58751107Y-50099178D01*
X58759722Y-50094389D01*
X58760185Y-50094034D01*
X58753970Y-50093685D01*
X58735872Y-50093349D01*
X58706712Y-50093031D01*
X58667308Y-50092732D01*
X58618482Y-50092457D01*
X58561054Y-50092208D01*
X58495843Y-50091988D01*
X58423670Y-50091801D01*
X58345356Y-50091650D01*
X58261719Y-50091537D01*
X58173581Y-50091467D01*
X58081762Y-50091441D01*
X57394594Y-50091441D01*
X57394594Y-50173558D01*
X57394301Y-50209111D01*
X57393270Y-50234088D01*
X57391272Y-50250603D01*
X57388077Y-50260773D01*
X57384613Y-50265656D01*
X57368446Y-50274834D01*
X57351296Y-50271415D01*
X57342693Y-50265125D01*
X57337828Y-50259242D01*
X57334525Y-50250459D01*
X57332493Y-50236485D01*
X57331445Y-50215032D01*
X57331092Y-50183809D01*
X57331078Y-50173027D01*
X57331078Y-50091441D01*
X57008020Y-50091441D01*
X56602670Y-50314467D01*
X56536400Y-50350960D01*
X56473338Y-50385747D01*
X56414374Y-50418332D01*
X56360400Y-50448221D01*
X56312307Y-50474918D01*
X56270986Y-50497927D01*
X56237328Y-50516754D01*
X56212223Y-50530904D01*
X56196564Y-50539880D01*
X56191286Y-50543124D01*
X56038283Y-50543124D01*
X56050239Y-50537049D01*
X56076841Y-50523083D01*
X56112090Y-50504302D01*
X56155165Y-50481149D01*
X56205241Y-50454070D01*
X56261496Y-50423509D01*
X56323108Y-50389910D01*
X56389254Y-50353719D01*
X56459111Y-50315380D01*
X56514024Y-50285164D01*
X56992531Y-50021573D01*
X57331078Y-50021573D01*
X57331078Y-49297492D01*
X57277089Y-49297492D01*
X57252686Y-49296975D01*
X57234014Y-49295594D01*
X57223994Y-49293607D01*
X57223061Y-49292729D01*
X57225379Y-49285406D01*
X57231850Y-49268464D01*
X57241701Y-49243749D01*
X57254162Y-49213103D01*
X57268461Y-49178373D01*
X57283826Y-49141402D01*
X57299486Y-49104035D01*
X57314668Y-49068116D01*
X57328601Y-49035491D01*
X57340513Y-49008003D01*
X57349633Y-48987497D01*
X57355188Y-48975818D01*
X57356484Y-48973814D01*
X57360294Y-48979202D01*
X57367829Y-48993643D01*
X57377769Y-49014531D01*
X57383006Y-49026081D01*
X57393493Y-49049320D01*
X57407937Y-49080983D01*
X57424922Y-49117984D01*
X57443032Y-49157236D01*
X57457258Y-49187927D01*
X57508165Y-49297492D01*
X57394594Y-49297492D01*
X57394594Y-50021573D01*
X58088505Y-50021597D01*
X58197315Y-50021605D01*
X58294144Y-50021630D01*
X58379716Y-50021684D01*
X58454753Y-50021781D01*
X58519979Y-50021933D01*
X58576115Y-50022152D01*
X58623886Y-50022453D01*
X58664013Y-50022847D01*
X58697220Y-50023347D01*
X58724229Y-50023966D01*
X58745763Y-50024717D01*
X58762546Y-50025613D01*
X58775299Y-50026666D01*
X58784747Y-50027890D01*
X58791610Y-50029296D01*
X58796614Y-50030898D01*
X58800480Y-50032709D01*
X58803117Y-50034242D01*
X58821074Y-50048868D01*
X58836004Y-50066863D01*
X58836439Y-50067564D01*
X58838189Y-50070633D01*
X58839769Y-50074231D01*
X58841188Y-50078989D01*
X58842455Y-50085538D01*
X58843578Y-50094508D01*
X58844567Y-50106531D01*
X58845429Y-50122236D01*
X58846173Y-50142254D01*
X58846808Y-50167217D01*
X58847343Y-50197754D01*
X58847787Y-50234496D01*
X58848147Y-50278075D01*
X58848433Y-50329120D01*
X58848653Y-50388263D01*
X58848817Y-50456133D01*
X58848932Y-50533362D01*
X58849007Y-50620581D01*
X58849052Y-50718419D01*
X58849074Y-50827508D01*
X58849083Y-50948478D01*
X58849084Y-50987618D01*
X58849081Y-51112560D01*
X58849060Y-51225419D01*
X58849014Y-51326815D01*
X58848934Y-51417368D01*
X58848814Y-51497699D01*
X58848646Y-51568428D01*
X58848422Y-51630174D01*
X58848135Y-51683559D01*
X58847777Y-51729202D01*
X58847340Y-51767723D01*
X58846818Y-51799743D01*
X58846202Y-51825882D01*
X58845484Y-51846760D01*
X58844658Y-51862997D01*
X58843716Y-51875213D01*
X58842650Y-51884029D01*
X58841453Y-51890065D01*
X58840117Y-51893940D01*
X58838634Y-51896276D01*
X58837992Y-51896923D01*
X58833878Y-51899934D01*
X58825228Y-51905570D01*
X58811581Y-51914105D01*
X58792479Y-51925814D01*
X58767461Y-51940970D01*
X58736070Y-51959846D01*
X58697845Y-51982718D01*
X58652327Y-52009858D01*
X58599057Y-52041542D01*
X58537575Y-52078042D01*
X58467422Y-52119632D01*
X58388139Y-52166587D01*
X58299266Y-52219181D01*
X58200344Y-52277687D01*
X58096444Y-52339110D01*
X58053052Y-52364951D01*
X58012978Y-52389185D01*
X57977595Y-52410954D01*
X57948275Y-52429398D01*
X57926390Y-52443660D01*
X57913311Y-52452881D01*
X57910300Y-52455582D01*
X57907536Y-52458413D01*
X57902994Y-52460732D01*
X57895488Y-52462590D01*
X57883836Y-52464037D01*
X57866851Y-52465124D01*
X57843350Y-52465902D01*
X57812148Y-52466421D01*
X57772061Y-52466732D01*
X57721904Y-52466886D01*
X57660493Y-52466933D01*
X57645121Y-52466935D01*
X57388242Y-52466935D01*
X57388242Y-53381087D01*
X57500398Y-53384739D01*
X57438112Y-53534001D01*
X57420857Y-53575306D01*
X57404976Y-53613235D01*
X57391200Y-53646051D01*
X57380258Y-53672015D01*
X57372882Y-53689392D01*
X57370028Y-53695967D01*
X57366370Y-53701128D01*
X57361962Y-53699233D01*
X57355454Y-53688730D01*
X57345499Y-53668068D01*
X57345183Y-53667385D01*
X57336460Y-53648538D01*
X57323578Y-53620786D01*
X57307748Y-53586738D01*
X57290183Y-53549000D01*
X57272095Y-53510179D01*
X57271444Y-53508782D01*
X57254907Y-53473078D01*
X57240378Y-53441263D01*
X57228661Y-53415137D01*
X57220561Y-53396501D01*
X57216885Y-53387153D01*
X57216749Y-53386513D01*
X57222614Y-53384277D01*
X57238263Y-53382566D01*
X57260781Y-53381648D01*
X57270738Y-53381563D01*
X57324726Y-53381563D01*
X57324726Y-52466935D01*
X56017020Y-52466935D01*
X56007132Y-52452818D01*
X56005772Y-52449923D01*
X56004542Y-52444907D01*
X56003434Y-52437170D01*
X56002442Y-52426110D01*
X56001560Y-52411125D01*
X56001253Y-52403419D01*
X56067112Y-52403419D01*
X57851908Y-52403419D01*
X57851908Y-51480005D01*
X57921776Y-51480005D01*
X57921799Y-51584579D01*
X57921866Y-51685608D01*
X57921974Y-51782367D01*
X57922122Y-51874136D01*
X57922306Y-51960190D01*
X57922523Y-52039806D01*
X57922771Y-52112263D01*
X57923047Y-52176836D01*
X57923349Y-52232804D01*
X57923674Y-52279443D01*
X57924018Y-52316030D01*
X57924381Y-52341843D01*
X57924758Y-52356158D01*
X57925017Y-52358958D01*
X57930982Y-52355822D01*
X57946752Y-52346848D01*
X57971212Y-52332690D01*
X58003245Y-52313999D01*
X58041736Y-52291428D01*
X58085569Y-52265629D01*
X58133628Y-52237255D01*
X58171141Y-52215052D01*
X58230880Y-52179658D01*
X58295040Y-52141649D01*
X58361091Y-52102521D01*
X58426505Y-52063774D01*
X58488753Y-52026904D01*
X58545305Y-51993410D01*
X58593635Y-51964789D01*
X58596632Y-51963015D01*
X58779240Y-51854884D01*
X58779240Y-51011272D01*
X58779213Y-50908855D01*
X58779133Y-50809999D01*
X58779004Y-50715442D01*
X58778828Y-50625921D01*
X58778610Y-50542174D01*
X58778352Y-50464940D01*
X58778058Y-50394956D01*
X58777731Y-50332959D01*
X58777374Y-50279689D01*
X58776991Y-50235882D01*
X58776584Y-50202276D01*
X58776157Y-50179610D01*
X58775713Y-50168621D01*
X58775535Y-50167660D01*
X58769419Y-50170475D01*
X58752873Y-50178622D01*
X58726783Y-50191654D01*
X58692031Y-50209126D01*
X58649502Y-50230589D01*
X58600079Y-50255598D01*
X58544646Y-50283705D01*
X58484086Y-50314465D01*
X58419285Y-50347429D01*
X58351125Y-50382153D01*
X58346803Y-50384356D01*
X57921776Y-50601052D01*
X57921776Y-51480005D01*
X57851908Y-51480005D01*
X57851908Y-50615447D01*
X56067112Y-50615447D01*
X56067112Y-52403419D01*
X56001253Y-52403419D01*
X56000782Y-52391615D01*
X56000102Y-52366977D01*
X55999513Y-52336610D01*
X55999008Y-52299912D01*
X55998582Y-52256283D01*
X55998228Y-52205121D01*
X55997941Y-52145824D01*
X55997713Y-52077790D01*
X55997538Y-52000419D01*
X55997411Y-51913108D01*
X55997324Y-51815257D01*
X55997272Y-51706263D01*
X55997248Y-51585526D01*
X55997245Y-51507845D01*
X55997255Y-51379833D01*
X55997289Y-51263922D01*
X55997355Y-51159512D01*
X55997457Y-51066000D01*
X55997603Y-50982785D01*
X55997798Y-50909267D01*
X55998050Y-50844842D01*
X55998363Y-50788911D01*
X55998745Y-50740870D01*
X55999202Y-50700120D01*
X55999741Y-50666058D01*
X56000366Y-50638083D01*
X56001085Y-50615593D01*
X56001091Y-50615447D01*
X56001761Y-50601052D01*
X56001904Y-50597987D01*
X56002830Y-50584664D01*
G36*
X56787071Y-54142387D02*
G01*
X56806766Y-54155941D01*
X56832510Y-54178835D01*
X56839736Y-54185766D01*
X56921884Y-54257603D01*
X57008121Y-54317630D01*
X57099293Y-54366317D01*
X57196244Y-54404136D01*
X57267562Y-54424288D01*
X57291950Y-54428171D01*
X57326898Y-54430815D01*
X57370311Y-54432092D01*
X57397770Y-54432163D01*
X57438263Y-54431604D01*
X57469742Y-54430229D01*
X57495889Y-54427628D01*
X57520387Y-54423395D01*
X57546917Y-54417121D01*
X57556559Y-54414583D01*
X57610679Y-54396939D01*
X57669669Y-54372290D01*
X57729477Y-54342668D01*
X57786046Y-54310109D01*
X57835322Y-54276645D01*
X57842381Y-54271247D01*
X57873635Y-54247108D01*
X57896771Y-54230033D01*
X57913549Y-54219095D01*
X57925726Y-54213367D01*
X57935061Y-54211923D01*
X57943311Y-54213837D01*
X57947623Y-54215784D01*
X57961226Y-54228990D01*
X57964950Y-54242583D01*
X57964715Y-54253236D01*
X57960356Y-54262981D01*
X57949938Y-54274425D01*
X57931527Y-54290179D01*
X57926841Y-54293975D01*
X57843304Y-54355228D01*
X57757010Y-54406830D01*
X57669457Y-54448052D01*
X57582142Y-54478164D01*
X57518450Y-54492886D01*
X57481783Y-54497824D01*
X57438124Y-54501129D01*
X57392040Y-54502674D01*
X57348097Y-54502330D01*
X57310861Y-54499968D01*
X57302496Y-54498961D01*
X57230370Y-54485500D01*
X57159813Y-54464703D01*
X57087213Y-54435402D01*
X57048432Y-54416906D01*
X56968747Y-54373142D01*
X56896156Y-54324329D01*
X56826264Y-54267404D01*
X56800991Y-54244404D01*
X56773829Y-54218005D01*
X56755871Y-54197599D01*
X56746187Y-54181516D01*
X56743850Y-54168085D01*
X56747933Y-54155636D01*
X56749885Y-54152424D01*
X56760069Y-54141162D01*
X56771984Y-54137639D01*
X56787071Y-54142387D01*
G37*
X56787071Y-54142387D02*
X56806766Y-54155941D01*
X56832510Y-54178835D01*
X56839736Y-54185766D01*
X56921884Y-54257603D01*
X57008121Y-54317630D01*
X57099293Y-54366317D01*
X57196244Y-54404136D01*
X57267562Y-54424288D01*
X57291950Y-54428171D01*
X57326898Y-54430815D01*
X57370311Y-54432092D01*
X57397770Y-54432163D01*
X57438263Y-54431604D01*
X57469742Y-54430229D01*
X57495889Y-54427628D01*
X57520387Y-54423395D01*
X57546917Y-54417121D01*
X57556559Y-54414583D01*
X57610679Y-54396939D01*
X57669669Y-54372290D01*
X57729477Y-54342668D01*
X57786046Y-54310109D01*
X57835322Y-54276645D01*
X57842381Y-54271247D01*
X57873635Y-54247108D01*
X57896771Y-54230033D01*
X57913549Y-54219095D01*
X57925726Y-54213367D01*
X57935061Y-54211923D01*
X57943311Y-54213837D01*
X57947623Y-54215784D01*
X57961226Y-54228990D01*
X57964950Y-54242583D01*
X57964715Y-54253236D01*
X57960356Y-54262981D01*
X57949938Y-54274425D01*
X57931527Y-54290179D01*
X57926841Y-54293975D01*
X57843304Y-54355228D01*
X57757010Y-54406830D01*
X57669457Y-54448052D01*
X57582142Y-54478164D01*
X57518450Y-54492886D01*
X57481783Y-54497824D01*
X57438124Y-54501129D01*
X57392040Y-54502674D01*
X57348097Y-54502330D01*
X57310861Y-54499968D01*
X57302496Y-54498961D01*
X57230370Y-54485500D01*
X57159813Y-54464703D01*
X57087213Y-54435402D01*
X57048432Y-54416906D01*
X56968747Y-54373142D01*
X56896156Y-54324329D01*
X56826264Y-54267404D01*
X56800991Y-54244404D01*
X56773829Y-54218005D01*
X56755871Y-54197599D01*
X56746187Y-54181516D01*
X56743850Y-54168085D01*
X56747933Y-54155636D01*
X56749885Y-54152424D01*
X56760069Y-54141162D01*
X56771984Y-54137639D01*
X56787071Y-54142387D01*
G36*
X57424172Y-48163165D02*
G01*
X57509803Y-48181935D01*
X57596962Y-48212332D01*
X57664536Y-48243123D01*
X57732307Y-48279600D01*
X57793373Y-48318625D01*
X57852218Y-48363278D01*
X57901893Y-48406195D01*
X57932979Y-48435777D01*
X57953989Y-48459542D01*
X57965477Y-48478628D01*
X57967997Y-48494177D01*
X57962103Y-48507326D01*
X57954608Y-48514659D01*
X57944287Y-48520653D01*
X57933277Y-48520945D01*
X57919719Y-48514613D01*
X57901756Y-48500734D01*
X57877532Y-48478386D01*
X57873232Y-48474235D01*
X57796253Y-48406830D01*
X57714584Y-48348877D01*
X57629561Y-48301076D01*
X57542519Y-48264127D01*
X57454793Y-48238730D01*
X57407794Y-48230093D01*
X57332206Y-48224571D01*
X57252297Y-48228803D01*
X57171319Y-48242343D01*
X57092521Y-48264742D01*
X57056647Y-48278418D01*
X57004231Y-48303401D01*
X56946683Y-48336524D01*
X56886877Y-48376064D01*
X56853670Y-48400216D01*
X56821538Y-48423293D01*
X56797024Y-48438098D01*
X56778637Y-48445210D01*
X56764882Y-48445208D01*
X56754354Y-48438758D01*
X56748634Y-48427032D01*
X56746732Y-48413519D01*
X56748250Y-48404678D01*
X56753888Y-48395206D01*
X56765269Y-48383379D01*
X56784019Y-48367474D01*
X56807452Y-48349083D01*
X56892477Y-48288914D01*
X56976475Y-48240633D01*
X57060820Y-48203654D01*
X57146887Y-48177393D01*
X57236047Y-48161263D01*
X57252176Y-48159428D01*
X57338740Y-48155753D01*
X57424172Y-48163165D01*
G37*
X57424172Y-48163165D02*
X57509803Y-48181935D01*
X57596962Y-48212332D01*
X57664536Y-48243123D01*
X57732307Y-48279600D01*
X57793373Y-48318625D01*
X57852218Y-48363278D01*
X57901893Y-48406195D01*
X57932979Y-48435777D01*
X57953989Y-48459542D01*
X57965477Y-48478628D01*
X57967997Y-48494177D01*
X57962103Y-48507326D01*
X57954608Y-48514659D01*
X57944287Y-48520653D01*
X57933277Y-48520945D01*
X57919719Y-48514613D01*
X57901756Y-48500734D01*
X57877532Y-48478386D01*
X57873232Y-48474235D01*
X57796253Y-48406830D01*
X57714584Y-48348877D01*
X57629561Y-48301076D01*
X57542519Y-48264127D01*
X57454793Y-48238730D01*
X57407794Y-48230093D01*
X57332206Y-48224571D01*
X57252297Y-48228803D01*
X57171319Y-48242343D01*
X57092521Y-48264742D01*
X57056647Y-48278418D01*
X57004231Y-48303401D01*
X56946683Y-48336524D01*
X56886877Y-48376064D01*
X56853670Y-48400216D01*
X56821538Y-48423293D01*
X56797024Y-48438098D01*
X56778637Y-48445210D01*
X56764882Y-48445208D01*
X56754354Y-48438758D01*
X56748634Y-48427032D01*
X56746732Y-48413519D01*
X56748250Y-48404678D01*
X56753888Y-48395206D01*
X56765269Y-48383379D01*
X56784019Y-48367474D01*
X56807452Y-48349083D01*
X56892477Y-48288914D01*
X56976475Y-48240633D01*
X57060820Y-48203654D01*
X57146887Y-48177393D01*
X57236047Y-48161263D01*
X57252176Y-48159428D01*
X57338740Y-48155753D01*
X57424172Y-48163165D01*
G36*
X57380683Y-48457568D02*
G01*
X57407677Y-48461936D01*
X57484227Y-48483185D01*
X57555174Y-48515103D01*
X57621792Y-48558360D01*
X57672039Y-48600840D01*
X57693136Y-48621655D01*
X57705703Y-48637141D01*
X57711384Y-48649574D01*
X57712173Y-48656350D01*
X57707461Y-48672171D01*
X57696111Y-48686251D01*
X57682307Y-48693788D01*
X57679299Y-48694091D01*
X57672879Y-48690104D01*
X57659367Y-48679373D01*
X57641026Y-48663748D01*
X57628311Y-48652490D01*
X57562494Y-48600727D01*
X57494051Y-48561183D01*
X57450525Y-48542919D01*
X57404680Y-48531093D01*
X57352903Y-48525501D01*
X57299864Y-48526186D01*
X57250228Y-48533192D01*
X57223101Y-48540768D01*
X57180107Y-48558924D01*
X57134551Y-48583355D01*
X57092232Y-48610770D01*
X57070967Y-48627146D01*
X57046812Y-48643687D01*
X57026955Y-48648871D01*
X57010337Y-48642859D01*
X57004203Y-48637183D01*
X56996245Y-48623088D01*
X56997961Y-48607870D01*
X57009948Y-48590374D01*
X57032805Y-48569445D01*
X57043661Y-48560961D01*
X57108575Y-48518244D01*
X57176072Y-48486182D01*
X57244814Y-48465139D01*
X57313464Y-48455480D01*
X57380683Y-48457568D01*
G37*
X57380683Y-48457568D02*
X57407677Y-48461936D01*
X57484227Y-48483185D01*
X57555174Y-48515103D01*
X57621792Y-48558360D01*
X57672039Y-48600840D01*
X57693136Y-48621655D01*
X57705703Y-48637141D01*
X57711384Y-48649574D01*
X57712173Y-48656350D01*
X57707461Y-48672171D01*
X57696111Y-48686251D01*
X57682307Y-48693788D01*
X57679299Y-48694091D01*
X57672879Y-48690104D01*
X57659367Y-48679373D01*
X57641026Y-48663748D01*
X57628311Y-48652490D01*
X57562494Y-48600727D01*
X57494051Y-48561183D01*
X57450525Y-48542919D01*
X57404680Y-48531093D01*
X57352903Y-48525501D01*
X57299864Y-48526186D01*
X57250228Y-48533192D01*
X57223101Y-48540768D01*
X57180107Y-48558924D01*
X57134551Y-48583355D01*
X57092232Y-48610770D01*
X57070967Y-48627146D01*
X57046812Y-48643687D01*
X57026955Y-48648871D01*
X57010337Y-48642859D01*
X57004203Y-48637183D01*
X56996245Y-48623088D01*
X56997961Y-48607870D01*
X57009948Y-48590374D01*
X57032805Y-48569445D01*
X57043661Y-48560961D01*
X57108575Y-48518244D01*
X57176072Y-48486182D01*
X57244814Y-48465139D01*
X57313464Y-48455480D01*
X57380683Y-48457568D01*
M02*
