G04 #@! TF.GenerationSoftware,KiCad,Pcbnew,6.0.9-8da3e8f707~117~ubuntu20.04.1*
G04 #@! TF.CreationDate,2022-12-15T16:30:46+01:00*
G04 #@! TF.ProjectId,picsyle-R_motion_915,70696373-796c-4652-9d52-5f6d6f74696f,rev?*
G04 #@! TF.SameCoordinates,Original*
G04 #@! TF.FileFunction,Soldermask,Top*
G04 #@! TF.FilePolarity,Negative*
%FSLAX46Y46*%
G04 Gerber Fmt 4.6, Leading zero omitted, Abs format (unit mm)*
G04 Created by KiCad (PCBNEW 6.0.9-8da3e8f707~117~ubuntu20.04.1) date 2022-12-15 16:30:46*
%MOMM*%
%LPD*%
G01*
G04 APERTURE LIST*
G04 Aperture macros list*
%AMRoundRect*
0 Rectangle with rounded corners*
0 $1 Rounding radius*
0 $2 $3 $4 $5 $6 $7 $8 $9 X,Y pos of 4 corners*
0 Add a 4 corners polygon primitive as box body*
4,1,4,$2,$3,$4,$5,$6,$7,$8,$9,$2,$3,0*
0 Add four circle primitives for the rounded corners*
1,1,$1+$1,$2,$3*
1,1,$1+$1,$4,$5*
1,1,$1+$1,$6,$7*
1,1,$1+$1,$8,$9*
0 Add four rect primitives between the rounded corners*
20,1,$1+$1,$2,$3,$4,$5,0*
20,1,$1+$1,$4,$5,$6,$7,0*
20,1,$1+$1,$6,$7,$8,$9,0*
20,1,$1+$1,$8,$9,$2,$3,0*%
G04 Aperture macros list end*
%ADD10RoundRect,0.113500X0.062500X-0.350000X0.062500X0.350000X-0.062500X0.350000X-0.062500X-0.350000X0*%
%ADD11RoundRect,0.051000X0.125000X-0.412500X0.125000X0.412500X-0.125000X0.412500X-0.125000X-0.412500X0*%
%ADD12RoundRect,0.113500X0.350000X-0.062500X0.350000X0.062500X-0.350000X0.062500X-0.350000X-0.062500X0*%
%ADD13RoundRect,0.291000X1.010000X-1.010000X1.010000X1.010000X-1.010000X1.010000X-1.010000X-1.010000X0*%
%ADD14RoundRect,0.051000X0.275000X0.200000X-0.275000X0.200000X-0.275000X-0.200000X0.275000X-0.200000X0*%
%ADD15RoundRect,0.051000X0.275000X0.100000X-0.275000X0.100000X-0.275000X-0.100000X0.275000X-0.100000X0*%
G04 APERTURE END LIST*
D10*
X67320000Y-58347500D03*
X67820000Y-58347500D03*
X68320000Y-58347500D03*
D11*
X68820000Y-58347500D03*
X69320000Y-58347500D03*
D10*
X69820000Y-58347500D03*
D12*
X70507500Y-57660000D03*
X70507500Y-57160000D03*
X70507500Y-56660000D03*
X70507500Y-56160000D03*
X70507500Y-55660000D03*
X70507500Y-55160000D03*
D10*
X69820000Y-54472500D03*
X69320000Y-54472500D03*
X68820000Y-54472500D03*
X68320000Y-54472500D03*
X67820000Y-54472500D03*
X67320000Y-54472500D03*
D12*
X66632500Y-55160000D03*
X66632500Y-55660000D03*
X66632500Y-56160000D03*
X66632500Y-56660000D03*
X66632500Y-57160000D03*
X66632500Y-57660000D03*
D13*
X68570000Y-56410000D03*
D14*
X65260000Y-57210000D03*
D15*
X65260000Y-56645000D03*
D14*
X65260000Y-56080000D03*
G36*
X69745366Y-57658486D02*
G01*
X69746178Y-57660314D01*
X69745603Y-57661517D01*
X69738958Y-57668162D01*
X69740014Y-57669218D01*
X69740532Y-57671150D01*
X69739973Y-57672086D01*
X69713546Y-57697051D01*
X69696905Y-57764279D01*
X69719253Y-57829833D01*
X69773573Y-57872960D01*
X69820087Y-57882037D01*
X69821596Y-57883350D01*
X69821212Y-57885313D01*
X69819704Y-57886000D01*
X69757699Y-57886000D01*
X69714844Y-57894525D01*
X69678685Y-57918685D01*
X69654525Y-57954844D01*
X69646000Y-57997699D01*
X69646000Y-58697301D01*
X69654525Y-58740156D01*
X69675418Y-58771425D01*
X69675549Y-58773421D01*
X69673886Y-58774532D01*
X69672644Y-58774199D01*
X69658854Y-58764985D01*
X69658552Y-58765437D01*
X69656758Y-58766322D01*
X69655607Y-58765861D01*
X69634322Y-58748074D01*
X69565605Y-58739444D01*
X69502976Y-58769410D01*
X69493793Y-58780009D01*
X69491903Y-58780663D01*
X69490391Y-58779353D01*
X69490319Y-58778309D01*
X69494000Y-58759801D01*
X69494000Y-57935199D01*
X69490233Y-57916262D01*
X69479620Y-57900380D01*
X69463738Y-57889767D01*
X69444801Y-57886000D01*
X69195199Y-57886000D01*
X69176262Y-57889767D01*
X69160380Y-57900380D01*
X69149767Y-57916262D01*
X69146000Y-57935199D01*
X69146000Y-58759801D01*
X69149767Y-58778738D01*
X69157114Y-58789733D01*
X69157245Y-58791729D01*
X69155582Y-58792840D01*
X69154340Y-58792507D01*
X69140548Y-58783291D01*
X69139385Y-58785031D01*
X69137591Y-58785916D01*
X69136440Y-58785455D01*
X69119048Y-58770922D01*
X69050330Y-58762296D01*
X69002712Y-58785082D01*
X69000718Y-58784928D01*
X69000186Y-58784389D01*
X68999452Y-58783291D01*
X68985660Y-58792507D01*
X68983664Y-58792638D01*
X68982553Y-58790975D01*
X68982886Y-58789733D01*
X68990233Y-58778738D01*
X68994000Y-58759801D01*
X68994000Y-57935199D01*
X68990233Y-57916262D01*
X68979620Y-57900380D01*
X68963738Y-57889767D01*
X68944801Y-57886000D01*
X68695199Y-57886000D01*
X68676262Y-57889767D01*
X68660380Y-57900380D01*
X68649767Y-57916262D01*
X68646000Y-57935199D01*
X68646000Y-58759801D01*
X68649767Y-58778737D01*
X68653786Y-58784752D01*
X68653917Y-58786747D01*
X68652254Y-58787859D01*
X68650840Y-58787398D01*
X68603784Y-58748074D01*
X68535068Y-58739444D01*
X68482840Y-58764432D01*
X68482064Y-58764372D01*
X68479906Y-58765814D01*
X68479658Y-58765955D01*
X68472439Y-58769408D01*
X68469745Y-58772518D01*
X68469344Y-58772871D01*
X68467356Y-58774199D01*
X68465360Y-58774330D01*
X68464249Y-58772667D01*
X68464582Y-58771425D01*
X68485475Y-58740156D01*
X68494000Y-58697301D01*
X68494000Y-57997699D01*
X68485475Y-57954844D01*
X68461315Y-57918685D01*
X68425156Y-57894525D01*
X68382301Y-57886000D01*
X68257699Y-57886000D01*
X68214844Y-57894525D01*
X68183573Y-57915419D01*
X68181577Y-57915550D01*
X68180466Y-57913887D01*
X68180799Y-57912645D01*
X68186192Y-57904573D01*
X68206978Y-57838191D01*
X68188654Y-57771401D01*
X68137080Y-57725076D01*
X68083640Y-57712950D01*
X68082173Y-57711592D01*
X68082615Y-57709642D01*
X68084083Y-57709000D01*
X69579886Y-57709000D01*
X69646902Y-57701128D01*
X69743377Y-57658275D01*
X69745366Y-57658486D01*
G37*
G36*
X67973893Y-57930454D02*
G01*
X68020945Y-57969776D01*
X68089660Y-57978409D01*
X68152290Y-57948444D01*
X68159801Y-57939776D01*
X68161691Y-57939122D01*
X68163202Y-57940432D01*
X68162975Y-57942197D01*
X68154525Y-57954844D01*
X68146000Y-57997699D01*
X68146000Y-58697301D01*
X68154525Y-58740156D01*
X68169052Y-58761898D01*
X68169183Y-58763894D01*
X68167520Y-58765005D01*
X68166106Y-58764544D01*
X68119055Y-58725223D01*
X68050339Y-58716592D01*
X67987709Y-58746556D01*
X67980202Y-58755219D01*
X67978312Y-58755873D01*
X67976801Y-58754563D01*
X67977028Y-58752798D01*
X67985475Y-58740156D01*
X67994000Y-58697301D01*
X67994000Y-57997699D01*
X67985475Y-57954844D01*
X67970947Y-57933100D01*
X67970816Y-57931104D01*
X67972479Y-57929993D01*
X67973893Y-57930454D01*
G37*
G36*
X67473894Y-57930456D02*
G01*
X67520944Y-57969776D01*
X67589660Y-57978409D01*
X67652289Y-57948446D01*
X67659798Y-57939779D01*
X67661688Y-57939125D01*
X67663200Y-57940435D01*
X67662973Y-57942200D01*
X67654525Y-57954844D01*
X67646000Y-57997699D01*
X67646000Y-58697301D01*
X67654525Y-58740156D01*
X67669052Y-58761898D01*
X67669183Y-58763894D01*
X67667520Y-58765005D01*
X67666106Y-58764544D01*
X67619055Y-58725223D01*
X67550339Y-58716592D01*
X67487709Y-58746556D01*
X67480202Y-58755219D01*
X67478312Y-58755873D01*
X67476801Y-58754563D01*
X67477028Y-58752798D01*
X67485475Y-58740156D01*
X67494000Y-58697301D01*
X67494000Y-57997699D01*
X67485475Y-57954844D01*
X67470948Y-57933102D01*
X67470817Y-57931106D01*
X67472480Y-57929995D01*
X67473894Y-57930456D01*
G37*
G36*
X68057649Y-57710000D02*
G01*
X68057649Y-57712000D01*
X68056480Y-57712919D01*
X67989465Y-57732596D01*
X67944110Y-57784939D01*
X67934244Y-57853558D01*
X67953773Y-57904521D01*
X67959201Y-57912645D01*
X67959332Y-57914641D01*
X67957669Y-57915752D01*
X67956427Y-57915419D01*
X67925156Y-57894525D01*
X67882301Y-57886000D01*
X67757699Y-57886000D01*
X67714844Y-57894525D01*
X67683573Y-57915419D01*
X67681577Y-57915550D01*
X67680466Y-57913887D01*
X67680799Y-57912645D01*
X67686192Y-57904573D01*
X67706978Y-57838191D01*
X67688654Y-57771401D01*
X67637080Y-57725076D01*
X67583640Y-57712950D01*
X67582173Y-57711592D01*
X67582615Y-57709642D01*
X67584083Y-57709000D01*
X68055917Y-57709000D01*
X68057649Y-57710000D01*
G37*
G36*
X67396800Y-57658454D02*
G01*
X67493586Y-57701243D01*
X67560232Y-57709013D01*
X67561836Y-57710207D01*
X67562000Y-57711000D01*
X67562000Y-57713752D01*
X67561000Y-57715484D01*
X67560256Y-57715735D01*
X67505972Y-57722753D01*
X67452989Y-57767357D01*
X67432538Y-57833509D01*
X67453332Y-57903863D01*
X67459199Y-57912643D01*
X67459330Y-57914639D01*
X67457667Y-57915750D01*
X67456425Y-57915417D01*
X67425156Y-57894525D01*
X67382301Y-57886000D01*
X67320295Y-57886000D01*
X67318563Y-57885000D01*
X67318563Y-57883000D01*
X67319732Y-57882081D01*
X67386746Y-57862403D01*
X67432101Y-57810060D01*
X67441956Y-57741506D01*
X67413143Y-57678417D01*
X67402380Y-57669995D01*
X67402046Y-57669166D01*
X67394577Y-57661697D01*
X67394059Y-57659765D01*
X67395473Y-57658351D01*
X67396800Y-57658454D01*
G37*
G36*
X67270732Y-57418999D02*
G01*
X67270939Y-57419772D01*
X67270986Y-57419767D01*
X67278872Y-57486902D01*
X67321725Y-57583377D01*
X67321514Y-57585366D01*
X67319686Y-57586178D01*
X67318483Y-57585603D01*
X67311838Y-57578958D01*
X67310782Y-57580014D01*
X67308850Y-57580532D01*
X67307914Y-57579973D01*
X67282949Y-57553546D01*
X67215721Y-57536905D01*
X67150167Y-57559253D01*
X67107040Y-57613573D01*
X67097963Y-57660087D01*
X67096650Y-57661596D01*
X67094687Y-57661212D01*
X67094000Y-57659704D01*
X67094000Y-57597699D01*
X67085475Y-57554844D01*
X67064582Y-57523575D01*
X67064451Y-57521579D01*
X67066114Y-57520468D01*
X67067356Y-57520801D01*
X67076150Y-57526676D01*
X67142532Y-57547462D01*
X67209322Y-57529138D01*
X67255591Y-57477629D01*
X67264027Y-57419711D01*
X67265266Y-57418141D01*
X67266006Y-57417999D01*
X67269000Y-57417999D01*
X67270732Y-57418999D01*
G37*
G36*
X69875484Y-57419000D02*
G01*
X69875735Y-57419744D01*
X69882753Y-57474028D01*
X69927357Y-57527011D01*
X69993509Y-57547462D01*
X70063863Y-57526668D01*
X70072643Y-57520801D01*
X70074639Y-57520670D01*
X70075750Y-57522333D01*
X70075417Y-57523575D01*
X70054525Y-57554844D01*
X70046000Y-57597699D01*
X70046000Y-57659705D01*
X70045000Y-57661437D01*
X70043000Y-57661437D01*
X70042081Y-57660268D01*
X70022403Y-57593254D01*
X69970060Y-57547899D01*
X69901506Y-57538044D01*
X69838417Y-57566857D01*
X69829995Y-57577620D01*
X69829166Y-57577954D01*
X69821697Y-57585423D01*
X69819765Y-57585941D01*
X69818351Y-57584527D01*
X69818454Y-57583200D01*
X69861243Y-57486414D01*
X69869013Y-57419768D01*
X69870207Y-57418164D01*
X69871000Y-57418000D01*
X69873752Y-57418000D01*
X69875484Y-57419000D01*
G37*
G36*
X67050005Y-57312480D02*
G01*
X67049544Y-57313894D01*
X67010223Y-57360946D01*
X67001592Y-57429661D01*
X67031556Y-57492290D01*
X67040222Y-57499798D01*
X67040876Y-57501688D01*
X67039566Y-57503200D01*
X67037801Y-57502973D01*
X67025156Y-57494525D01*
X66982301Y-57486000D01*
X66282699Y-57486000D01*
X66239844Y-57494525D01*
X66218102Y-57509052D01*
X66216106Y-57509183D01*
X66214995Y-57507520D01*
X66215456Y-57506106D01*
X66254777Y-57459055D01*
X66263408Y-57390339D01*
X66233444Y-57327709D01*
X66224781Y-57320202D01*
X66224127Y-57318312D01*
X66225437Y-57316801D01*
X66227202Y-57317028D01*
X66239844Y-57325475D01*
X66282699Y-57334000D01*
X66982301Y-57334000D01*
X67025156Y-57325475D01*
X67046898Y-57310948D01*
X67048894Y-57310817D01*
X67050005Y-57312480D01*
G37*
G36*
X70925005Y-57312480D02*
G01*
X70924544Y-57313894D01*
X70885223Y-57360945D01*
X70876592Y-57429661D01*
X70906556Y-57492291D01*
X70915219Y-57499798D01*
X70915873Y-57501688D01*
X70914563Y-57503199D01*
X70912798Y-57502972D01*
X70900156Y-57494525D01*
X70857301Y-57486000D01*
X70157699Y-57486000D01*
X70114844Y-57494525D01*
X70093102Y-57509052D01*
X70091106Y-57509183D01*
X70089995Y-57507520D01*
X70090456Y-57506106D01*
X70129776Y-57459056D01*
X70138409Y-57390340D01*
X70108446Y-57327711D01*
X70099779Y-57320202D01*
X70099125Y-57318312D01*
X70100435Y-57316800D01*
X70102200Y-57317027D01*
X70114844Y-57325475D01*
X70157699Y-57334000D01*
X70857301Y-57334000D01*
X70900156Y-57325475D01*
X70921898Y-57310948D01*
X70923894Y-57310817D01*
X70925005Y-57312480D01*
G37*
G36*
X69872919Y-56923521D02*
G01*
X69892596Y-56990535D01*
X69944939Y-57035890D01*
X70013558Y-57045756D01*
X70064521Y-57026227D01*
X70072645Y-57020799D01*
X70074641Y-57020668D01*
X70075752Y-57022331D01*
X70075419Y-57023573D01*
X70054525Y-57054844D01*
X70046000Y-57097699D01*
X70046000Y-57222301D01*
X70054525Y-57265156D01*
X70075419Y-57296427D01*
X70075550Y-57298423D01*
X70073887Y-57299534D01*
X70072645Y-57299201D01*
X70064573Y-57293808D01*
X69998191Y-57273022D01*
X69931401Y-57291346D01*
X69885076Y-57342920D01*
X69872950Y-57396359D01*
X69871592Y-57397826D01*
X69869642Y-57397384D01*
X69869000Y-57395916D01*
X69869000Y-56924084D01*
X69870000Y-56922352D01*
X69872000Y-56922352D01*
X69872919Y-56923521D01*
G37*
G36*
X67270358Y-56922620D02*
G01*
X67271000Y-56924088D01*
X67271000Y-57395913D01*
X67270000Y-57397645D01*
X67268000Y-57397645D01*
X67267081Y-57396476D01*
X67247405Y-57329464D01*
X67195062Y-57284109D01*
X67126443Y-57274243D01*
X67075479Y-57293772D01*
X67067356Y-57299199D01*
X67065360Y-57299330D01*
X67064249Y-57297667D01*
X67064582Y-57296425D01*
X67085475Y-57265156D01*
X67094000Y-57222301D01*
X67094000Y-57097699D01*
X67085475Y-57054844D01*
X67064582Y-57023575D01*
X67064451Y-57021579D01*
X67066114Y-57020468D01*
X67067356Y-57020801D01*
X67075427Y-57026193D01*
X67141808Y-57046979D01*
X67208598Y-57028656D01*
X67254925Y-56977082D01*
X67267050Y-56923645D01*
X67268408Y-56922178D01*
X67270358Y-56922620D01*
G37*
G36*
X70925005Y-56812480D02*
G01*
X70924544Y-56813894D01*
X70885223Y-56860945D01*
X70876592Y-56929661D01*
X70906556Y-56992291D01*
X70915219Y-56999798D01*
X70915873Y-57001688D01*
X70914563Y-57003199D01*
X70912798Y-57002972D01*
X70900156Y-56994525D01*
X70857301Y-56986000D01*
X70157699Y-56986000D01*
X70114844Y-56994525D01*
X70093100Y-57009053D01*
X70091104Y-57009184D01*
X70089993Y-57007521D01*
X70090454Y-57006107D01*
X70129776Y-56959055D01*
X70138409Y-56890340D01*
X70108444Y-56827710D01*
X70099776Y-56820199D01*
X70099122Y-56818309D01*
X70100432Y-56816798D01*
X70102197Y-56817025D01*
X70114844Y-56825475D01*
X70157699Y-56834000D01*
X70857301Y-56834000D01*
X70900156Y-56825475D01*
X70921898Y-56810948D01*
X70923894Y-56810817D01*
X70925005Y-56812480D01*
G37*
G36*
X67050005Y-56812480D02*
G01*
X67049544Y-56813894D01*
X67010223Y-56860946D01*
X67001592Y-56929661D01*
X67031556Y-56992290D01*
X67040222Y-56999798D01*
X67040876Y-57001688D01*
X67039566Y-57003200D01*
X67037801Y-57002973D01*
X67025156Y-56994525D01*
X66982301Y-56986000D01*
X66282699Y-56986000D01*
X66239844Y-56994525D01*
X66218102Y-57009052D01*
X66216106Y-57009183D01*
X66214995Y-57007520D01*
X66215456Y-57006106D01*
X66254777Y-56959055D01*
X66263408Y-56890339D01*
X66233444Y-56827709D01*
X66224781Y-56820202D01*
X66224127Y-56818312D01*
X66225437Y-56816801D01*
X66227202Y-56817028D01*
X66239844Y-56825475D01*
X66282699Y-56834000D01*
X66982301Y-56834000D01*
X67025156Y-56825475D01*
X67046898Y-56810948D01*
X67048894Y-56810817D01*
X67050005Y-56812480D01*
G37*
G36*
X65567840Y-56784418D02*
G01*
X65567507Y-56785660D01*
X65557732Y-56800289D01*
X65557274Y-56801435D01*
X65534702Y-56828444D01*
X65526069Y-56897159D01*
X65556033Y-56959790D01*
X65564699Y-56967300D01*
X65565353Y-56969190D01*
X65564043Y-56970701D01*
X65562278Y-56970474D01*
X65553737Y-56964767D01*
X65534801Y-56961000D01*
X64985199Y-56961000D01*
X64966262Y-56964767D01*
X64955267Y-56972114D01*
X64953271Y-56972245D01*
X64952160Y-56970582D01*
X64952493Y-56969340D01*
X64962268Y-56954711D01*
X64962726Y-56953565D01*
X64985298Y-56926556D01*
X64993931Y-56857841D01*
X64963967Y-56795210D01*
X64955301Y-56787700D01*
X64954647Y-56785810D01*
X64955957Y-56784299D01*
X64957722Y-56784526D01*
X64966263Y-56790233D01*
X64985199Y-56794000D01*
X65534801Y-56794000D01*
X65553738Y-56790233D01*
X65564733Y-56782886D01*
X65566729Y-56782755D01*
X65567840Y-56784418D01*
G37*
G36*
X69872919Y-56423523D02*
G01*
X69892599Y-56490538D01*
X69944943Y-56535892D01*
X70013563Y-56545755D01*
X70064521Y-56526227D01*
X70072645Y-56520799D01*
X70074641Y-56520668D01*
X70075752Y-56522331D01*
X70075419Y-56523573D01*
X70054525Y-56554844D01*
X70046000Y-56597699D01*
X70046000Y-56722301D01*
X70054525Y-56765156D01*
X70075419Y-56796427D01*
X70075550Y-56798423D01*
X70073887Y-56799534D01*
X70072645Y-56799201D01*
X70064573Y-56793808D01*
X69998191Y-56773022D01*
X69931401Y-56791346D01*
X69885076Y-56842920D01*
X69872950Y-56896359D01*
X69871592Y-56897826D01*
X69869642Y-56897384D01*
X69869000Y-56895916D01*
X69869000Y-56424087D01*
X69870000Y-56422355D01*
X69872000Y-56422355D01*
X69872919Y-56423523D01*
G37*
G36*
X67270358Y-56422616D02*
G01*
X67271000Y-56424084D01*
X67271000Y-56895913D01*
X67270000Y-56897645D01*
X67268000Y-56897645D01*
X67267081Y-56896476D01*
X67247405Y-56829464D01*
X67195062Y-56784109D01*
X67126443Y-56774243D01*
X67075479Y-56793772D01*
X67067356Y-56799199D01*
X67065360Y-56799330D01*
X67064249Y-56797667D01*
X67064582Y-56796425D01*
X67085475Y-56765156D01*
X67094000Y-56722301D01*
X67094000Y-56597699D01*
X67085475Y-56554844D01*
X67064582Y-56523575D01*
X67064451Y-56521579D01*
X67066114Y-56520468D01*
X67067356Y-56520801D01*
X67075427Y-56526193D01*
X67141808Y-56546979D01*
X67208598Y-56528656D01*
X67254925Y-56477082D01*
X67267050Y-56423641D01*
X67268408Y-56422174D01*
X67270358Y-56422616D01*
G37*
G36*
X70925005Y-56312480D02*
G01*
X70924544Y-56313894D01*
X70885223Y-56360945D01*
X70876592Y-56429661D01*
X70906556Y-56492291D01*
X70915219Y-56499798D01*
X70915873Y-56501688D01*
X70914563Y-56503199D01*
X70912798Y-56502972D01*
X70900156Y-56494525D01*
X70857301Y-56486000D01*
X70157699Y-56486000D01*
X70114844Y-56494525D01*
X70093100Y-56509053D01*
X70091104Y-56509184D01*
X70089993Y-56507521D01*
X70090454Y-56506107D01*
X70129776Y-56459055D01*
X70138409Y-56390340D01*
X70108444Y-56327710D01*
X70099778Y-56320200D01*
X70099124Y-56318310D01*
X70100434Y-56316799D01*
X70102199Y-56317026D01*
X70114844Y-56325475D01*
X70157699Y-56334000D01*
X70857301Y-56334000D01*
X70900156Y-56325475D01*
X70921898Y-56310948D01*
X70923894Y-56310817D01*
X70925005Y-56312480D01*
G37*
G36*
X67050007Y-56312479D02*
G01*
X67049546Y-56313893D01*
X67010224Y-56360945D01*
X67001591Y-56429660D01*
X67031556Y-56492290D01*
X67040222Y-56499800D01*
X67040876Y-56501690D01*
X67039566Y-56503201D01*
X67037801Y-56502974D01*
X67025156Y-56494525D01*
X66982301Y-56486000D01*
X66282699Y-56486000D01*
X66239844Y-56494525D01*
X66218102Y-56509052D01*
X66216106Y-56509183D01*
X66214995Y-56507520D01*
X66215456Y-56506106D01*
X66254777Y-56459055D01*
X66263408Y-56390339D01*
X66233444Y-56327709D01*
X66224781Y-56320202D01*
X66224127Y-56318312D01*
X66225437Y-56316801D01*
X66227202Y-56317028D01*
X66239844Y-56325475D01*
X66282699Y-56334000D01*
X66982301Y-56334000D01*
X67025156Y-56325475D01*
X67046900Y-56310947D01*
X67048896Y-56310816D01*
X67050007Y-56312479D01*
G37*
G36*
X65567840Y-56319418D02*
G01*
X65567507Y-56320660D01*
X65557732Y-56335289D01*
X65557274Y-56336435D01*
X65534702Y-56363444D01*
X65526069Y-56432159D01*
X65556033Y-56494790D01*
X65564699Y-56502300D01*
X65565353Y-56504190D01*
X65564043Y-56505701D01*
X65562278Y-56505474D01*
X65553737Y-56499767D01*
X65534801Y-56496000D01*
X64985199Y-56496000D01*
X64966262Y-56499767D01*
X64955267Y-56507114D01*
X64953271Y-56507245D01*
X64952160Y-56505582D01*
X64952493Y-56504340D01*
X64962268Y-56489711D01*
X64962726Y-56488565D01*
X64985298Y-56461556D01*
X64993931Y-56392841D01*
X64963967Y-56330210D01*
X64955301Y-56322700D01*
X64954647Y-56320810D01*
X64955957Y-56319299D01*
X64957722Y-56319526D01*
X64966263Y-56325233D01*
X64985199Y-56329000D01*
X65534801Y-56329000D01*
X65553738Y-56325233D01*
X65564733Y-56317886D01*
X65566729Y-56317755D01*
X65567840Y-56319418D01*
G37*
G36*
X69872919Y-55923524D02*
G01*
X69892595Y-55990536D01*
X69944938Y-56035891D01*
X70013557Y-56045757D01*
X70064521Y-56026228D01*
X70072644Y-56020801D01*
X70074640Y-56020670D01*
X70075751Y-56022333D01*
X70075418Y-56023575D01*
X70054525Y-56054844D01*
X70046000Y-56097699D01*
X70046000Y-56222301D01*
X70054525Y-56265156D01*
X70075418Y-56296425D01*
X70075549Y-56298421D01*
X70073886Y-56299532D01*
X70072644Y-56299199D01*
X70064573Y-56293807D01*
X69998192Y-56273021D01*
X69931402Y-56291344D01*
X69885075Y-56342918D01*
X69872950Y-56396359D01*
X69871592Y-56397826D01*
X69869642Y-56397384D01*
X69869000Y-56395916D01*
X69869000Y-55924087D01*
X69870000Y-55922355D01*
X69872000Y-55922355D01*
X69872919Y-55923524D01*
G37*
G36*
X67270358Y-55922616D02*
G01*
X67271000Y-55924084D01*
X67271000Y-56395913D01*
X67270000Y-56397645D01*
X67268000Y-56397645D01*
X67267081Y-56396477D01*
X67247401Y-56329462D01*
X67195057Y-56284108D01*
X67126437Y-56274245D01*
X67075479Y-56293773D01*
X67067355Y-56299201D01*
X67065359Y-56299332D01*
X67064248Y-56297669D01*
X67064581Y-56296427D01*
X67085475Y-56265156D01*
X67094000Y-56222301D01*
X67094000Y-56097699D01*
X67085475Y-56054844D01*
X67064581Y-56023573D01*
X67064450Y-56021577D01*
X67066113Y-56020466D01*
X67067355Y-56020799D01*
X67075427Y-56026192D01*
X67141809Y-56046978D01*
X67208599Y-56028654D01*
X67254924Y-55977080D01*
X67267050Y-55923641D01*
X67268408Y-55922174D01*
X67270358Y-55922616D01*
G37*
G36*
X70925005Y-55812480D02*
G01*
X70924544Y-55813894D01*
X70885223Y-55860945D01*
X70876592Y-55929661D01*
X70906556Y-55992291D01*
X70915219Y-55999798D01*
X70915873Y-56001688D01*
X70914563Y-56003199D01*
X70912798Y-56002972D01*
X70900156Y-55994525D01*
X70857301Y-55986000D01*
X70157699Y-55986000D01*
X70114844Y-55994525D01*
X70093102Y-56009052D01*
X70091106Y-56009183D01*
X70089995Y-56007520D01*
X70090456Y-56006106D01*
X70129777Y-55959054D01*
X70138408Y-55890339D01*
X70108444Y-55827710D01*
X70099778Y-55820202D01*
X70099124Y-55818312D01*
X70100434Y-55816800D01*
X70102199Y-55817027D01*
X70114844Y-55825475D01*
X70157699Y-55834000D01*
X70857301Y-55834000D01*
X70900156Y-55825475D01*
X70921898Y-55810948D01*
X70923894Y-55810817D01*
X70925005Y-55812480D01*
G37*
G36*
X67050007Y-55812479D02*
G01*
X67049546Y-55813893D01*
X67010224Y-55860945D01*
X67001591Y-55929660D01*
X67031556Y-55992290D01*
X67040224Y-55999801D01*
X67040878Y-56001691D01*
X67039568Y-56003202D01*
X67037803Y-56002975D01*
X67025156Y-55994525D01*
X66982301Y-55986000D01*
X66282699Y-55986000D01*
X66239844Y-55994525D01*
X66218102Y-56009052D01*
X66216106Y-56009183D01*
X66214995Y-56007520D01*
X66215456Y-56006106D01*
X66254777Y-55959055D01*
X66263408Y-55890339D01*
X66233444Y-55827709D01*
X66224781Y-55820202D01*
X66224127Y-55818312D01*
X66225437Y-55816801D01*
X66227202Y-55817028D01*
X66239844Y-55825475D01*
X66282699Y-55834000D01*
X66982301Y-55834000D01*
X67025156Y-55825475D01*
X67046900Y-55810947D01*
X67048896Y-55810816D01*
X67050007Y-55812479D01*
G37*
G36*
X69872919Y-55423524D02*
G01*
X69892595Y-55490536D01*
X69944938Y-55535891D01*
X70013557Y-55545757D01*
X70064521Y-55526228D01*
X70072644Y-55520801D01*
X70074640Y-55520670D01*
X70075751Y-55522333D01*
X70075418Y-55523575D01*
X70054525Y-55554844D01*
X70046000Y-55597699D01*
X70046000Y-55722301D01*
X70054525Y-55765156D01*
X70075418Y-55796425D01*
X70075549Y-55798421D01*
X70073886Y-55799532D01*
X70072644Y-55799199D01*
X70064573Y-55793807D01*
X69998192Y-55773021D01*
X69931402Y-55791344D01*
X69885075Y-55842918D01*
X69872950Y-55896355D01*
X69871592Y-55897822D01*
X69869642Y-55897380D01*
X69869000Y-55895912D01*
X69869000Y-55424087D01*
X69870000Y-55422355D01*
X69872000Y-55422355D01*
X69872919Y-55423524D01*
G37*
G36*
X67270358Y-55422616D02*
G01*
X67271000Y-55424084D01*
X67271000Y-55895916D01*
X67270000Y-55897648D01*
X67268000Y-55897648D01*
X67267081Y-55896479D01*
X67247404Y-55829465D01*
X67195061Y-55784110D01*
X67126442Y-55774244D01*
X67075479Y-55793773D01*
X67067355Y-55799201D01*
X67065359Y-55799332D01*
X67064248Y-55797669D01*
X67064581Y-55796427D01*
X67085475Y-55765156D01*
X67094000Y-55722301D01*
X67094000Y-55597699D01*
X67085475Y-55554844D01*
X67064581Y-55523573D01*
X67064450Y-55521577D01*
X67066113Y-55520466D01*
X67067355Y-55520799D01*
X67075427Y-55526192D01*
X67141809Y-55546978D01*
X67208599Y-55528654D01*
X67254924Y-55477080D01*
X67267050Y-55423641D01*
X67268408Y-55422174D01*
X67270358Y-55422616D01*
G37*
G36*
X67050005Y-55312480D02*
G01*
X67049544Y-55313894D01*
X67010224Y-55360944D01*
X67001591Y-55429660D01*
X67031554Y-55492289D01*
X67040221Y-55499798D01*
X67040875Y-55501688D01*
X67039565Y-55503200D01*
X67037800Y-55502973D01*
X67025156Y-55494525D01*
X66982301Y-55486000D01*
X66282699Y-55486000D01*
X66239844Y-55494525D01*
X66218102Y-55509052D01*
X66216106Y-55509183D01*
X66214995Y-55507520D01*
X66215456Y-55506106D01*
X66254777Y-55459055D01*
X66263408Y-55390339D01*
X66233444Y-55327709D01*
X66224781Y-55320202D01*
X66224127Y-55318312D01*
X66225437Y-55316801D01*
X66227202Y-55317028D01*
X66239844Y-55325475D01*
X66282699Y-55334000D01*
X66982301Y-55334000D01*
X67025156Y-55325475D01*
X67046898Y-55310948D01*
X67048894Y-55310817D01*
X67050005Y-55312480D01*
G37*
G36*
X70925005Y-55312480D02*
G01*
X70924544Y-55313894D01*
X70885223Y-55360945D01*
X70876592Y-55429661D01*
X70906556Y-55492291D01*
X70915219Y-55499798D01*
X70915873Y-55501688D01*
X70914563Y-55503199D01*
X70912798Y-55502972D01*
X70900156Y-55494525D01*
X70857301Y-55486000D01*
X70157699Y-55486000D01*
X70114844Y-55494525D01*
X70093102Y-55509052D01*
X70091106Y-55509183D01*
X70089995Y-55507520D01*
X70090456Y-55506106D01*
X70129777Y-55459054D01*
X70138408Y-55390339D01*
X70108444Y-55327710D01*
X70099778Y-55320202D01*
X70099124Y-55318312D01*
X70100434Y-55316800D01*
X70102199Y-55317027D01*
X70114844Y-55325475D01*
X70157699Y-55334000D01*
X70857301Y-55334000D01*
X70900156Y-55325475D01*
X70921898Y-55310948D01*
X70923894Y-55310817D01*
X70925005Y-55312480D01*
G37*
G36*
X70045313Y-55158787D02*
G01*
X70046000Y-55160295D01*
X70046000Y-55222301D01*
X70054525Y-55265156D01*
X70075418Y-55296425D01*
X70075549Y-55298421D01*
X70073886Y-55299532D01*
X70072644Y-55299199D01*
X70063850Y-55293324D01*
X69997468Y-55272538D01*
X69930678Y-55290862D01*
X69884409Y-55342371D01*
X69875973Y-55400289D01*
X69874734Y-55401859D01*
X69873994Y-55402001D01*
X69871000Y-55402001D01*
X69869268Y-55401001D01*
X69869061Y-55400228D01*
X69869014Y-55400233D01*
X69861128Y-55333098D01*
X69818275Y-55236623D01*
X69818486Y-55234634D01*
X69820314Y-55233822D01*
X69821517Y-55234397D01*
X69828162Y-55241042D01*
X69829218Y-55239986D01*
X69831150Y-55239468D01*
X69832086Y-55240027D01*
X69857051Y-55266454D01*
X69924279Y-55283095D01*
X69989833Y-55260747D01*
X70032960Y-55206427D01*
X70042037Y-55159912D01*
X70043350Y-55158403D01*
X70045313Y-55158787D01*
G37*
G36*
X67097919Y-55159732D02*
G01*
X67117597Y-55226746D01*
X67169940Y-55272101D01*
X67238494Y-55281956D01*
X67301583Y-55253143D01*
X67310005Y-55242380D01*
X67310834Y-55242046D01*
X67318303Y-55234577D01*
X67320235Y-55234059D01*
X67321649Y-55235473D01*
X67321546Y-55236800D01*
X67278757Y-55333586D01*
X67270987Y-55400232D01*
X67269793Y-55401836D01*
X67269000Y-55402000D01*
X67266248Y-55402000D01*
X67264516Y-55401000D01*
X67264265Y-55400256D01*
X67257247Y-55345972D01*
X67212643Y-55292989D01*
X67146491Y-55272538D01*
X67076137Y-55293332D01*
X67067357Y-55299199D01*
X67065361Y-55299330D01*
X67064250Y-55297667D01*
X67064583Y-55296425D01*
X67085475Y-55265156D01*
X67094000Y-55222301D01*
X67094000Y-55160295D01*
X67095000Y-55158563D01*
X67097000Y-55158563D01*
X67097919Y-55159732D01*
G37*
G36*
X67459532Y-54906114D02*
G01*
X67459199Y-54907356D01*
X67453324Y-54916150D01*
X67432538Y-54982532D01*
X67450862Y-55049322D01*
X67502371Y-55095591D01*
X67560289Y-55104027D01*
X67561859Y-55105266D01*
X67562001Y-55106006D01*
X67562001Y-55109000D01*
X67561001Y-55110732D01*
X67560228Y-55110939D01*
X67560233Y-55110986D01*
X67493098Y-55118872D01*
X67396623Y-55161725D01*
X67394634Y-55161514D01*
X67393822Y-55159686D01*
X67394397Y-55158483D01*
X67401042Y-55151838D01*
X67399986Y-55150782D01*
X67399468Y-55148850D01*
X67400027Y-55147914D01*
X67426454Y-55122949D01*
X67443095Y-55055721D01*
X67420747Y-54990167D01*
X67366427Y-54947040D01*
X67319913Y-54937963D01*
X67318404Y-54936650D01*
X67318788Y-54934687D01*
X67320296Y-54934000D01*
X67382301Y-54934000D01*
X67425156Y-54925475D01*
X67456425Y-54904582D01*
X67458421Y-54904451D01*
X67459532Y-54906114D01*
G37*
G36*
X69683575Y-54904583D02*
G01*
X69714844Y-54925475D01*
X69757699Y-54934000D01*
X69819705Y-54934000D01*
X69821437Y-54935000D01*
X69821437Y-54937000D01*
X69820268Y-54937919D01*
X69753254Y-54957597D01*
X69707899Y-55009940D01*
X69698044Y-55078494D01*
X69726857Y-55141583D01*
X69737620Y-55150005D01*
X69737954Y-55150834D01*
X69745423Y-55158303D01*
X69745941Y-55160235D01*
X69744527Y-55161649D01*
X69743200Y-55161546D01*
X69646414Y-55118757D01*
X69579768Y-55110987D01*
X69578164Y-55109793D01*
X69578000Y-55109000D01*
X69578000Y-55106248D01*
X69579000Y-55104516D01*
X69579744Y-55104265D01*
X69634028Y-55097247D01*
X69687011Y-55052643D01*
X69707462Y-54986491D01*
X69686668Y-54916137D01*
X69680801Y-54907357D01*
X69680670Y-54905361D01*
X69682333Y-54904250D01*
X69683575Y-54904583D01*
G37*
G36*
X67683575Y-54904582D02*
G01*
X67714844Y-54925475D01*
X67757699Y-54934000D01*
X67882301Y-54934000D01*
X67925156Y-54925475D01*
X67956425Y-54904582D01*
X67958421Y-54904451D01*
X67959532Y-54906114D01*
X67959199Y-54907356D01*
X67953807Y-54915427D01*
X67933021Y-54981808D01*
X67951344Y-55048598D01*
X68002918Y-55094925D01*
X68056355Y-55107050D01*
X68057822Y-55108408D01*
X68057380Y-55110358D01*
X68055912Y-55111000D01*
X67584087Y-55111000D01*
X67582355Y-55110000D01*
X67582355Y-55108000D01*
X67583524Y-55107081D01*
X67650536Y-55087405D01*
X67695891Y-55035062D01*
X67705757Y-54966443D01*
X67686228Y-54915479D01*
X67680801Y-54907356D01*
X67680670Y-54905360D01*
X67682333Y-54904249D01*
X67683575Y-54904582D01*
G37*
G36*
X69183573Y-54904581D02*
G01*
X69214844Y-54925475D01*
X69257699Y-54934000D01*
X69382301Y-54934000D01*
X69425156Y-54925475D01*
X69456427Y-54904581D01*
X69458423Y-54904450D01*
X69459534Y-54906113D01*
X69459201Y-54907355D01*
X69453808Y-54915427D01*
X69433022Y-54981809D01*
X69451346Y-55048599D01*
X69502920Y-55094924D01*
X69556360Y-55107050D01*
X69557827Y-55108408D01*
X69557385Y-55110358D01*
X69555917Y-55111000D01*
X69084083Y-55111000D01*
X69082351Y-55110000D01*
X69082351Y-55108000D01*
X69083520Y-55107081D01*
X69150535Y-55087404D01*
X69195890Y-55035061D01*
X69205756Y-54966442D01*
X69186227Y-54915479D01*
X69180799Y-54907355D01*
X69180668Y-54905359D01*
X69182331Y-54904248D01*
X69183573Y-54904581D01*
G37*
G36*
X68683573Y-54904581D02*
G01*
X68714844Y-54925475D01*
X68757699Y-54934000D01*
X68882301Y-54934000D01*
X68925156Y-54925475D01*
X68956427Y-54904581D01*
X68958423Y-54904450D01*
X68959534Y-54906113D01*
X68959201Y-54907355D01*
X68953808Y-54915427D01*
X68933022Y-54981809D01*
X68951346Y-55048599D01*
X69002920Y-55094924D01*
X69056360Y-55107050D01*
X69057827Y-55108408D01*
X69057385Y-55110358D01*
X69055917Y-55111000D01*
X68584087Y-55111000D01*
X68582355Y-55110000D01*
X68582355Y-55108000D01*
X68583523Y-55107081D01*
X68650538Y-55087401D01*
X68695892Y-55035057D01*
X68705755Y-54966437D01*
X68686227Y-54915479D01*
X68680799Y-54907355D01*
X68680668Y-54905359D01*
X68682331Y-54904248D01*
X68683573Y-54904581D01*
G37*
G36*
X68183575Y-54904582D02*
G01*
X68214844Y-54925475D01*
X68257699Y-54934000D01*
X68382301Y-54934000D01*
X68425156Y-54925475D01*
X68456425Y-54904582D01*
X68458421Y-54904451D01*
X68459532Y-54906114D01*
X68459199Y-54907356D01*
X68453807Y-54915427D01*
X68433021Y-54981808D01*
X68451344Y-55048598D01*
X68502918Y-55094925D01*
X68556359Y-55107050D01*
X68557826Y-55108408D01*
X68557384Y-55110358D01*
X68555916Y-55111000D01*
X68084087Y-55111000D01*
X68082355Y-55110000D01*
X68082355Y-55108000D01*
X68083524Y-55107081D01*
X68150536Y-55087405D01*
X68195891Y-55035062D01*
X68205757Y-54966443D01*
X68186228Y-54915479D01*
X68180801Y-54907356D01*
X68180670Y-54905360D01*
X68182333Y-54904249D01*
X68183575Y-54904582D01*
G37*
G36*
X68473894Y-54055456D02*
G01*
X68520945Y-54094777D01*
X68589661Y-54103408D01*
X68652291Y-54073444D01*
X68659798Y-54064781D01*
X68661688Y-54064127D01*
X68663199Y-54065437D01*
X68662972Y-54067202D01*
X68654525Y-54079844D01*
X68646000Y-54122699D01*
X68646000Y-54822301D01*
X68654525Y-54865156D01*
X68669053Y-54886900D01*
X68669184Y-54888896D01*
X68667521Y-54890007D01*
X68666107Y-54889546D01*
X68619055Y-54850224D01*
X68550340Y-54841591D01*
X68487710Y-54871556D01*
X68480200Y-54880222D01*
X68478310Y-54880876D01*
X68476799Y-54879566D01*
X68477026Y-54877801D01*
X68485475Y-54865156D01*
X68494000Y-54822301D01*
X68494000Y-54122699D01*
X68485475Y-54079844D01*
X68470948Y-54058102D01*
X68470817Y-54056106D01*
X68472480Y-54054995D01*
X68473894Y-54055456D01*
G37*
G36*
X68973894Y-54055456D02*
G01*
X69020945Y-54094777D01*
X69089661Y-54103408D01*
X69152291Y-54073444D01*
X69159798Y-54064781D01*
X69161688Y-54064127D01*
X69163199Y-54065437D01*
X69162972Y-54067202D01*
X69154525Y-54079844D01*
X69146000Y-54122699D01*
X69146000Y-54822301D01*
X69154525Y-54865156D01*
X69169053Y-54886900D01*
X69169184Y-54888896D01*
X69167521Y-54890007D01*
X69166107Y-54889546D01*
X69119055Y-54850224D01*
X69050340Y-54841591D01*
X68987710Y-54871556D01*
X68980199Y-54880224D01*
X68978309Y-54880878D01*
X68976798Y-54879568D01*
X68977025Y-54877803D01*
X68985475Y-54865156D01*
X68994000Y-54822301D01*
X68994000Y-54122699D01*
X68985475Y-54079844D01*
X68970948Y-54058102D01*
X68970817Y-54056106D01*
X68972480Y-54054995D01*
X68973894Y-54055456D01*
G37*
G36*
X67473894Y-54055456D02*
G01*
X67520945Y-54094777D01*
X67589661Y-54103408D01*
X67652291Y-54073444D01*
X67659798Y-54064781D01*
X67661688Y-54064127D01*
X67663199Y-54065437D01*
X67662972Y-54067202D01*
X67654525Y-54079844D01*
X67646000Y-54122699D01*
X67646000Y-54822301D01*
X67654525Y-54865156D01*
X67669052Y-54886898D01*
X67669183Y-54888894D01*
X67667520Y-54890005D01*
X67666106Y-54889544D01*
X67619054Y-54850223D01*
X67550339Y-54841592D01*
X67487710Y-54871556D01*
X67480202Y-54880222D01*
X67478312Y-54880876D01*
X67476800Y-54879566D01*
X67477027Y-54877801D01*
X67485475Y-54865156D01*
X67494000Y-54822301D01*
X67494000Y-54122699D01*
X67485475Y-54079844D01*
X67470948Y-54058102D01*
X67470817Y-54056106D01*
X67472480Y-54054995D01*
X67473894Y-54055456D01*
G37*
G36*
X69473894Y-54055456D02*
G01*
X69520945Y-54094777D01*
X69589661Y-54103408D01*
X69652291Y-54073444D01*
X69659798Y-54064781D01*
X69661688Y-54064127D01*
X69663199Y-54065437D01*
X69662972Y-54067202D01*
X69654525Y-54079844D01*
X69646000Y-54122699D01*
X69646000Y-54822301D01*
X69654525Y-54865156D01*
X69669052Y-54886898D01*
X69669183Y-54888894D01*
X69667520Y-54890005D01*
X69666106Y-54889544D01*
X69619056Y-54850224D01*
X69550340Y-54841591D01*
X69487711Y-54871554D01*
X69480202Y-54880221D01*
X69478312Y-54880875D01*
X69476800Y-54879565D01*
X69477027Y-54877800D01*
X69485475Y-54865156D01*
X69494000Y-54822301D01*
X69494000Y-54122699D01*
X69485475Y-54079844D01*
X69470948Y-54058102D01*
X69470817Y-54056106D01*
X69472480Y-54054995D01*
X69473894Y-54055456D01*
G37*
G36*
X67973894Y-54055456D02*
G01*
X68020945Y-54094777D01*
X68089661Y-54103408D01*
X68152291Y-54073444D01*
X68159798Y-54064781D01*
X68161688Y-54064127D01*
X68163199Y-54065437D01*
X68162972Y-54067202D01*
X68154525Y-54079844D01*
X68146000Y-54122699D01*
X68146000Y-54822301D01*
X68154525Y-54865156D01*
X68169052Y-54886898D01*
X68169183Y-54888894D01*
X68167520Y-54890005D01*
X68166106Y-54889544D01*
X68119054Y-54850223D01*
X68050339Y-54841592D01*
X67987710Y-54871556D01*
X67980202Y-54880222D01*
X67978312Y-54880876D01*
X67976800Y-54879566D01*
X67977027Y-54877801D01*
X67985475Y-54865156D01*
X67994000Y-54822301D01*
X67994000Y-54122699D01*
X67985475Y-54079844D01*
X67970948Y-54058102D01*
X67970817Y-54056106D01*
X67972480Y-54054995D01*
X67973894Y-54055456D01*
G37*
M02*
