G04 #@! TF.GenerationSoftware,KiCad,Pcbnew,6.0.9-8da3e8f707~117~ubuntu20.04.1*
G04 #@! TF.CreationDate,2022-12-15T16:30:46+01:00*
G04 #@! TF.ProjectId,picsyle-R_motion_915,70696373-796c-4652-9d52-5f6d6f74696f,rev?*
G04 #@! TF.SameCoordinates,Original*
G04 #@! TF.FileFunction,Other,ECO1*
%FSLAX46Y46*%
G04 Gerber Fmt 4.6, Leading zero omitted, Abs format (unit mm)*
G04 Created by KiCad (PCBNEW 6.0.9-8da3e8f707~117~ubuntu20.04.1) date 2022-12-15 16:30:46*
%MOMM*%
%LPD*%
G01*
G04 APERTURE LIST*
%ADD10C,0.030000*%
G04 APERTURE END LIST*
D10*
X106561428Y-75335714D02*
X106561428Y-75035714D01*
X106561428Y-75178571D02*
X106732857Y-75178571D01*
X106732857Y-75335714D02*
X106732857Y-75035714D01*
X106847142Y-75035714D02*
X107032857Y-75035714D01*
X106932857Y-75150000D01*
X106975714Y-75150000D01*
X107004285Y-75164285D01*
X107018571Y-75178571D01*
X107032857Y-75207142D01*
X107032857Y-75278571D01*
X107018571Y-75307142D01*
X107004285Y-75321428D01*
X106975714Y-75335714D01*
X106890000Y-75335714D01*
X106861428Y-75321428D01*
X106847142Y-75307142D01*
X32561428Y-75335714D02*
X32561428Y-75035714D01*
X32561428Y-75178571D02*
X32732857Y-75178571D01*
X32732857Y-75335714D02*
X32732857Y-75035714D01*
X33004285Y-75135714D02*
X33004285Y-75335714D01*
X32932857Y-75021428D02*
X32861428Y-75235714D01*
X33047142Y-75235714D01*
X106561428Y-46335714D02*
X106561428Y-46035714D01*
X106561428Y-46178571D02*
X106732857Y-46178571D01*
X106732857Y-46335714D02*
X106732857Y-46035714D01*
X106861428Y-46064285D02*
X106875714Y-46050000D01*
X106904285Y-46035714D01*
X106975714Y-46035714D01*
X107004285Y-46050000D01*
X107018571Y-46064285D01*
X107032857Y-46092857D01*
X107032857Y-46121428D01*
X107018571Y-46164285D01*
X106847142Y-46335714D01*
X107032857Y-46335714D01*
X32561428Y-46335714D02*
X32561428Y-46035714D01*
X32561428Y-46178571D02*
X32732857Y-46178571D01*
X32732857Y-46335714D02*
X32732857Y-46035714D01*
X33032857Y-46335714D02*
X32861428Y-46335714D01*
X32947142Y-46335714D02*
X32947142Y-46035714D01*
X32918571Y-46078571D01*
X32890000Y-46107142D01*
X32861428Y-46121428D01*
M02*
